<svg width="331" height="318" viewBox="0 0 331 318" fill="none" xmlns="http://www.w3.org/2000/svg">
	<g filter="url(#filter0_d_646_17869)">
		<rect x="34" y="25" width="267" height="258" rx="4" fill="white" shape-rendering="crispEdges" />
		<path d="M52.9854 62V49.9193H54.7387V60.3473H60.2086V62H52.9854ZM61.8008 51.4546V49.7515H63.5541V51.4546H61.8008ZM61.8008 62V52.9395H63.5541V62H61.8008ZM69.5383 62.2433C68.4365 62.2433 67.5388 62 66.8453 61.5134C66.1518 61.0268 65.7267 60.3417 65.5701 59.458L67.3654 59.1812C67.4773 59.651 67.7346 60.0229 68.1372 60.297C68.5455 60.5654 69.0517 60.6996 69.6557 60.6996C70.2038 60.6996 70.6317 60.5878 70.9393 60.3641C71.2525 60.1404 71.4091 59.8327 71.4091 59.4412C71.4091 59.2119 71.3532 59.0274 71.2413 58.8875C71.135 58.7421 70.9085 58.6051 70.5618 58.4765C70.215 58.3478 69.6865 58.1884 68.9762 57.9983C68.1988 57.7969 67.5807 57.5816 67.1221 57.3523C66.6691 57.1174 66.3447 56.8461 66.149 56.5385C65.9588 56.2253 65.8637 55.8478 65.8637 55.4059C65.8637 54.8578 66.0091 54.3796 66.3 53.9714C66.5908 53.5631 66.9991 53.2471 67.5248 53.0234C68.0561 52.7996 68.677 52.6878 69.3873 52.6878C70.0808 52.6878 70.6988 52.7969 71.2413 53.015C71.7838 53.2331 72.2229 53.5435 72.5584 53.9462C72.894 54.3433 73.0954 54.8103 73.1625 55.3472L71.3672 55.6744C71.3056 55.2382 71.1015 54.8942 70.7547 54.6425C70.408 54.3908 69.9577 54.2538 69.404 54.2314C68.8727 54.2091 68.4421 54.2985 68.1121 54.4999C67.7821 54.6956 67.6171 54.9669 67.6171 55.3137C67.6171 55.515 67.6786 55.6856 67.8017 55.8254C67.9303 55.9652 68.1764 56.0995 68.5399 56.2281C68.9035 56.3567 69.4404 56.5105 70.1507 56.6895C70.9113 56.8853 71.5154 57.1034 71.9628 57.3439C72.4102 57.5788 72.729 57.8612 72.9192 58.1912C73.1149 58.5156 73.2128 58.9099 73.2128 59.3741C73.2128 60.269 72.8856 60.9709 72.2313 61.4799C71.5825 61.9888 70.6848 62.2433 69.5383 62.2433ZM80.2537 62C79.6833 62.1119 79.124 62.1594 78.5759 62.1426C78.0278 62.1258 77.5384 62.0196 77.1077 61.8238C76.6771 61.6281 76.3527 61.3205 76.1345 60.901C75.9388 60.5263 75.8325 60.1459 75.8158 59.76C75.8046 59.3685 75.799 58.9267 75.799 58.4345V50.4227H77.5607V58.3506C77.5607 58.7142 77.5635 59.0302 77.5691 59.2986C77.5803 59.5671 77.639 59.7936 77.7453 59.9782C77.9467 60.3249 78.2654 60.5235 78.7017 60.5738C79.1435 60.6185 79.6609 60.599 80.2537 60.5151V62ZM74.0624 54.3489V52.9395H80.2537V54.3489H74.0624ZM82.3318 51.4546V49.7515H84.0852V51.4546H82.3318ZM82.3318 62V52.9395H84.0852V62H82.3318ZM92.9636 62V57.5452C92.9636 57.1929 92.9329 56.8321 92.8714 56.463C92.8154 56.0883 92.7036 55.7415 92.5358 55.4227C92.3736 55.1039 92.1415 54.8467 91.8395 54.6509C91.543 54.4552 91.1543 54.3573 90.6733 54.3573C90.3601 54.3573 90.0637 54.4104 89.7841 54.5167C89.5044 54.6173 89.2583 54.7823 89.0458 55.0116C88.8389 55.241 88.6739 55.543 88.5508 55.9177C88.4334 56.2924 88.3746 56.7482 88.3746 57.2852L87.284 56.8741C87.284 56.0519 87.4378 55.3276 87.7454 54.7012C88.0531 54.0692 88.4949 53.5771 89.071 53.2247C89.647 52.8724 90.3434 52.6962 91.1599 52.6962C91.7863 52.6962 92.3121 52.7969 92.7371 52.9982C93.1622 53.1995 93.5062 53.4652 93.769 53.7952C94.0375 54.1196 94.2416 54.4747 94.3814 54.8606C94.5213 55.2465 94.6163 55.6241 94.6667 55.9932C94.717 56.3623 94.7422 56.6867 94.7422 56.9664V62H92.9636ZM86.5961 62V52.9395H88.1649V55.557H88.3746V62H86.5961ZM100.661 66.2786C100.174 66.2786 99.7014 66.2031 99.2428 66.0521C98.7898 65.9011 98.3759 65.6773 98.0012 65.3809C97.6265 65.0901 97.3161 64.7293 97.07 64.2987L98.6891 63.4765C98.8849 63.8624 99.1645 64.1449 99.5281 64.3239C99.8916 64.5028 100.275 64.5923 100.677 64.5923C101.175 64.5923 101.6 64.5028 101.953 64.3239C102.305 64.1505 102.571 63.8876 102.75 63.5353C102.934 63.1829 103.024 62.7467 103.018 62.2265V59.6929H103.228V52.9395H104.78V62.2433C104.78 62.4838 104.771 62.7131 104.755 62.9312C104.738 63.1493 104.707 63.3675 104.662 63.5856C104.534 64.1952 104.288 64.6986 103.924 65.0957C103.566 65.4928 103.108 65.7892 102.548 65.985C101.995 66.1807 101.365 66.2786 100.661 66.2786ZM100.526 62.2517C99.6819 62.2517 98.952 62.0419 98.3368 61.6225C97.7271 61.203 97.2545 60.6325 96.919 59.911C96.589 59.184 96.424 58.3674 96.424 57.4613C96.424 56.5497 96.5918 55.7359 96.9274 55.02C97.2629 54.2986 97.7383 53.7309 98.3536 53.317C98.9744 52.8975 99.7098 52.6878 100.56 52.6878C101.416 52.6878 102.134 52.8975 102.716 53.317C103.303 53.7309 103.745 54.2986 104.042 55.02C104.344 55.7415 104.495 56.5553 104.495 57.4613C104.495 58.3674 104.344 59.1812 104.042 59.9027C103.74 60.6241 103.295 61.1974 102.708 61.6225C102.12 62.0419 101.393 62.2517 100.526 62.2517ZM100.77 60.6661C101.346 60.6661 101.816 60.5291 102.179 60.255C102.543 59.981 102.808 59.6034 102.976 59.1224C103.144 58.6415 103.228 58.0878 103.228 57.4613C103.228 56.8349 103.141 56.2812 102.968 55.8002C102.8 55.3193 102.537 54.9445 102.179 54.6761C101.827 54.4076 101.377 54.2734 100.828 54.2734C100.247 54.2734 99.7686 54.416 99.3938 54.7012C99.0191 54.9865 98.7395 55.3696 98.5549 55.8506C98.3759 56.3316 98.2864 56.8685 98.2864 57.4613C98.2864 58.0598 98.3759 58.6023 98.5549 59.0889C98.7395 59.5699 99.0135 59.953 99.3771 60.2382C99.7462 60.5235 100.21 60.6661 100.77 60.6661ZM110.6 62.2433C109.499 62.2433 108.601 62 107.907 61.5134C107.214 61.0268 106.789 60.3417 106.632 59.458L108.427 59.1812C108.539 59.651 108.797 60.0229 109.199 60.297C109.608 60.5654 110.114 60.6996 110.718 60.6996C111.266 60.6996 111.694 60.5878 112.001 60.3641C112.315 60.1404 112.471 59.8327 112.471 59.4412C112.471 59.2119 112.415 59.0274 112.303 58.8875C112.197 58.7421 111.971 58.6051 111.624 58.4765C111.277 58.3478 110.749 58.1884 110.038 57.9983C109.261 57.7969 108.643 57.5816 108.184 57.3523C107.731 57.1174 107.407 56.8461 107.211 56.5385C107.021 56.2253 106.926 55.8478 106.926 55.4059C106.926 54.8578 107.071 54.3796 107.362 53.9714C107.653 53.5631 108.061 53.2471 108.587 53.0234C109.118 52.7996 109.739 52.6878 110.449 52.6878C111.143 52.6878 111.761 52.7969 112.303 53.015C112.846 53.2331 113.285 53.5435 113.621 53.9462C113.956 54.3433 114.157 54.8103 114.225 55.3472L112.429 55.6744C112.368 55.2382 112.164 54.8942 111.817 54.6425C111.47 54.3908 111.02 54.2538 110.466 54.2314C109.935 54.2091 109.504 54.2985 109.174 54.4999C108.844 54.6956 108.679 54.9669 108.679 55.3137C108.679 55.515 108.741 55.6856 108.864 55.8254C108.992 55.9652 109.238 56.0995 109.602 56.2281C109.966 56.3567 110.502 56.5105 111.213 56.6895C111.973 56.8853 112.577 57.1034 113.025 57.3439C113.472 57.5788 113.791 57.8612 113.981 58.1912C114.177 58.5156 114.275 58.9099 114.275 59.3741C114.275 60.269 113.948 60.9709 113.293 61.4799C112.645 61.9888 111.747 62.2433 110.6 62.2433Z" fill="#001749" />
		<path d="M230.347 52.836H231.602L233.284 56.9402H233.35L235.032 52.836H236.287V58.5H235.303V54.6088H235.25L233.685 58.4834H232.949L231.384 54.6005H231.331V58.5H230.347V52.836ZM239.213 58.583C238.799 58.583 238.439 58.4917 238.135 58.3092C237.831 58.1266 237.595 57.8713 237.427 57.5431C237.261 57.2149 237.178 56.8314 237.178 56.3926C237.178 55.9538 237.261 55.5694 237.427 55.2393C237.595 54.9093 237.831 54.653 238.135 54.4705C238.439 54.2879 238.799 54.1967 239.213 54.1967C239.628 54.1967 239.988 54.2879 240.292 54.4705C240.596 54.653 240.831 54.9093 240.997 55.2393C241.165 55.5694 241.249 55.9538 241.249 56.3926C241.249 56.8314 241.165 57.2149 240.997 57.5431C240.831 57.8713 240.596 58.1266 240.292 58.3092C239.988 58.4917 239.628 58.583 239.213 58.583ZM239.219 57.7809C239.444 57.7809 239.632 57.7192 239.783 57.5956C239.934 57.4703 240.047 57.3025 240.12 57.0923C240.196 56.8821 240.234 56.6479 240.234 56.3898C240.234 56.1299 240.196 55.8948 240.12 55.6846C240.047 55.4726 239.934 55.3039 239.783 55.1785C239.632 55.0531 239.444 54.9904 239.219 54.9904C238.988 54.9904 238.797 55.0531 238.644 55.1785C238.492 55.3039 238.379 55.4726 238.303 55.6846C238.23 55.8948 238.193 56.1299 238.193 56.3898C238.193 56.6479 238.23 56.8821 238.303 57.0923C238.379 57.3025 238.492 57.4703 238.644 57.5956C238.797 57.7192 238.988 57.7809 239.219 57.7809ZM243.1 56.0109V58.5H242.099V54.252H243.056V54.9738H243.105C243.203 54.736 243.359 54.547 243.573 54.4069C243.788 54.2667 244.055 54.1967 244.372 54.1967C244.665 54.1967 244.92 54.2594 245.138 54.3847C245.357 54.5101 245.527 54.6917 245.647 54.9296C245.769 55.1674 245.829 55.456 245.827 55.7952V58.5H244.826V55.9501C244.826 55.6661 244.752 55.444 244.604 55.2836C244.459 55.1232 244.257 55.043 243.999 55.043C243.823 55.043 243.668 55.0817 243.531 55.1591C243.397 55.2347 243.291 55.3444 243.213 55.4882C243.138 55.632 243.1 55.8063 243.1 56.0109ZM248.966 54.252V55.0264H246.524V54.252H248.966ZM247.127 53.2342H248.128V57.2223C248.128 57.3569 248.148 57.4601 248.189 57.532C248.231 57.6021 248.286 57.65 248.354 57.6758C248.423 57.7017 248.498 57.7146 248.581 57.7146C248.644 57.7146 248.701 57.71 248.753 57.7007C248.806 57.6915 248.847 57.6832 248.874 57.6758L249.043 58.4585C248.99 58.477 248.913 58.4972 248.814 58.5194C248.716 58.5415 248.596 58.5544 248.454 58.5581C248.203 58.5655 247.977 58.5277 247.776 58.4447C247.575 58.3599 247.416 58.229 247.298 58.052C247.182 57.875 247.125 57.6537 247.127 57.3882V53.2342ZM250.895 56.0109V58.5H249.894V52.836H250.873V54.9738H250.923C251.023 54.7341 251.177 54.5451 251.385 54.4069C251.595 54.2667 251.862 54.1967 252.187 54.1967C252.482 54.1967 252.739 54.2584 252.959 54.382C253.178 54.5055 253.348 54.6862 253.467 54.924C253.589 55.1619 253.65 55.4523 253.65 55.7952V58.5H252.649V55.9501C252.649 55.6643 252.575 55.4421 252.428 55.2836C252.282 55.1232 252.077 55.043 251.814 55.043C251.637 55.043 251.478 55.0817 251.338 55.1591C251.2 55.2347 251.091 55.3444 251.012 55.4882C250.934 55.632 250.895 55.8063 250.895 56.0109ZM255.672 52.836V58.5H254.67V52.836H255.672ZM257.323 60.093C257.187 60.093 257.061 60.0819 256.945 60.0598C256.83 60.0395 256.739 60.0156 256.671 59.9879L256.903 59.208C257.049 59.2504 257.179 59.2707 257.293 59.2688C257.407 59.267 257.508 59.231 257.594 59.161C257.683 59.0928 257.758 58.9785 257.818 58.818L257.904 58.5885L256.364 54.252H257.426L258.405 57.4601H258.449L259.431 54.252H260.496L258.795 59.0144C258.715 59.2393 258.61 59.432 258.479 59.5924C258.349 59.7547 258.188 59.8782 257.998 59.963C257.81 60.0497 257.585 60.093 257.323 60.093Z" fill="#7E8299" />
		<path d="M273.708 58.3339C273.637 58.3344 273.567 58.3207 273.501 58.2938C273.435 58.2669 273.375 58.2272 273.324 58.1771L270.079 54.9321C270.029 54.8818 269.988 54.822 269.961 54.7561C269.934 54.6902 269.919 54.6195 269.919 54.5481C269.919 54.4767 269.934 54.406 269.961 54.3401C269.988 54.2742 270.029 54.2144 270.079 54.1641C270.181 54.0634 270.318 54.0068 270.461 54.0068C270.604 54.0068 270.741 54.0634 270.842 54.1641L273.708 57.0305L276.569 54.1641C276.671 54.0634 276.808 54.0068 276.951 54.0068C277.094 54.0068 277.231 54.0634 277.332 54.1641C277.383 54.2144 277.423 54.2742 277.45 54.3401C277.478 54.406 277.492 54.4767 277.492 54.5481C277.492 54.6195 277.478 54.6902 277.45 54.7561C277.423 54.822 277.383 54.8818 277.332 54.9321L274.087 58.1771C273.986 58.277 273.85 58.3333 273.708 58.3339Z" fill="#7E8299" />
		<rect x="222.325" y="46.3245" width="60.351" height="18.351" rx="3.56951" stroke="#E1E3EA" strokeWidth="0.649002" />
		<g clip-path="url(#clip0_646_17869)">
			<rect x="52" y="91" width="231" height="70" rx="4.94551" fill="url(#paint0_linear_646_17869)" />
			<g opacity="0.3" clip-path="url(#clip1_646_17869)">
				<path d="M82.3956 150.438L78.6082 158.89L70.928 176.084L82.3956 150.438Z" stroke="#4DDC8E" strokeWidth="0.824252" stroke-miterlimit="10" strokeLinejoin="round" />
				<path d="M264.349 176.084L256.669 158.89L252.881 150.438L264.349 176.084Z" stroke="#4DDC8E" strokeWidth="0.824252" stroke-miterlimit="10" strokeLinejoin="round" />
				<path d="M86.0888 150.679L82.3956 150.438L70.928 176.084L86.0888 150.679Z" stroke="#4DDC8E" strokeWidth="0.824252" stroke-miterlimit="10" strokeLinejoin="round" />
				<path d="M249.188 150.679L264.349 176.084L252.882 150.438L249.188 150.679Z" stroke="#4DDC8E" strokeWidth="0.824252" stroke-miterlimit="10" strokeLinejoin="round" />
				<path d="M86.0897 150.68L101.819 134.02L82.3965 150.438L86.0897 150.68Z" stroke="#4DDC8E" strokeWidth="0.824252" stroke-miterlimit="10" strokeLinejoin="round" />
				<path d="M233.459 134.02L249.189 150.68L252.882 150.438L233.459 134.02Z" stroke="#4DDC8E" strokeWidth="0.824252" stroke-miterlimit="10" strokeLinejoin="round" />
				<path d="M233.459 134.021L252.882 150.439L237.42 131.977L233.459 134.021Z" stroke="#4DDC8E" strokeWidth="0.824252" stroke-miterlimit="10" strokeLinejoin="round" />
				<path d="M101.819 134.021L97.8585 131.977L82.3965 150.439L101.819 134.021Z" stroke="#4DDC8E" strokeWidth="0.824252" stroke-miterlimit="10" strokeLinejoin="round" />
				<path d="M101.819 134.019L119.156 123.723L97.8584 131.975L101.819 134.019Z" stroke="#4DDC8E" strokeWidth="0.824252" stroke-miterlimit="10" strokeLinejoin="round" />
				<path d="M216.122 123.724L237.419 131.976L220.523 120.715L216.122 123.724Z" stroke="#4DDC8E" strokeWidth="0.824252" stroke-miterlimit="10" strokeLinejoin="round" />
				<path d="M119.156 123.724L114.755 120.715L97.8584 131.976L119.156 123.724Z" stroke="#4DDC8E" strokeWidth="0.824252" stroke-miterlimit="10" strokeLinejoin="round" />
				<path d="M216.122 123.723L233.458 134.019L237.419 131.975L216.122 123.723Z" stroke="#4DDC8E" strokeWidth="0.824252" stroke-miterlimit="10" strokeLinejoin="round" />
				<path d="M76.1544 179.951L86.0888 150.679L70.928 176.084L76.1544 179.951Z" stroke="#4DDC8E" strokeWidth="0.824252" stroke-miterlimit="10" strokeLinejoin="round" />
				<path d="M249.188 150.679L259.123 179.951L264.349 176.084L249.188 150.679Z" stroke="#4DDC8E" strokeWidth="0.824252" stroke-miterlimit="10" strokeLinejoin="round" />
				<path d="M119.155 123.723L137.015 117.01L114.754 120.715L119.155 123.723Z" stroke="#4DDC8E" strokeWidth="0.824252" stroke-miterlimit="10" strokeLinejoin="round" />
				<path d="M137.015 117.011L132.49 114.292L114.754 120.715L137.015 117.011Z" stroke="#4DDC8E" strokeWidth="0.824252" stroke-miterlimit="10" strokeLinejoin="round" />
				<path d="M198.262 117.01L216.122 123.723L220.523 120.715L198.262 117.01Z" stroke="#4DDC8E" strokeWidth="0.824252" stroke-miterlimit="10" strokeLinejoin="round" />
				<path d="M198.262 117.011L220.523 120.715L194.457 112.472L198.262 117.011Z" stroke="#4DDC8E" strokeWidth="0.824252" stroke-miterlimit="10" strokeLinejoin="round" />
				<path d="M160.862 113.818L194.457 112.472L158.394 109.933L160.862 113.818Z" stroke="#4DDC8E" strokeWidth="0.824252" stroke-miterlimit="10" strokeLinejoin="round" />
				<path d="M137.016 117.012L160.862 113.819L132.491 114.293L137.016 117.012Z" stroke="#4DDC8E" strokeWidth="0.824252" stroke-miterlimit="10" strokeLinejoin="round" />
				<path d="M160.862 113.818L158.395 109.933L132.491 114.293L160.862 113.818Z" stroke="#4DDC8E" strokeWidth="0.824252" stroke-miterlimit="10" strokeLinejoin="round" />
				<path d="M160.862 113.818L181.192 114.436L194.457 112.472L160.862 113.818Z" stroke="#4DDC8E" strokeWidth="0.824252" stroke-miterlimit="10" strokeLinejoin="round" />
				<path d="M181.192 114.436L198.262 117.011L194.457 112.472L181.192 114.436Z" stroke="#4DDC8E" strokeWidth="0.824252" stroke-miterlimit="10" strokeLinejoin="round" />
				<path d="M245.795 162.829L249.189 150.68L233.459 134.02L245.795 162.829Z" stroke="#4DDC8E" strokeWidth="0.824252" stroke-miterlimit="10" strokeLinejoin="round" />
				<path d="M230.424 142.021L245.794 162.829L233.459 134.02L230.424 142.021Z" stroke="#4DDC8E" strokeWidth="0.824252" stroke-miterlimit="10" strokeLinejoin="round" />
				<path d="M89.4839 162.829L104.854 142.021L101.819 134.02L89.4839 162.829Z" stroke="#4DDC8E" strokeWidth="0.824252" stroke-miterlimit="10" strokeLinejoin="round" />
				<path d="M89.4829 162.829L86.0889 150.679L76.1545 179.951L89.4829 162.829Z" stroke="#4DDC8E" strokeWidth="0.824252" stroke-miterlimit="10" strokeLinejoin="round" />
				<path d="M89.4833 162.829L101.819 134.02L86.0894 150.68L89.4833 162.829Z" stroke="#4DDC8E" strokeWidth="0.824252" stroke-miterlimit="10" strokeLinejoin="round" />
				<path d="M245.794 162.829L259.122 179.951L249.188 150.679L245.794 162.829Z" stroke="#4DDC8E" strokeWidth="0.824252" stroke-miterlimit="10" strokeLinejoin="round" />
				<path d="M104.853 142.021L121.911 131.977L101.818 134.021L104.853 142.021Z" stroke="#4DDC8E" strokeWidth="0.824252" stroke-miterlimit="10" strokeLinejoin="round" />
				<path d="M121.911 131.975L119.155 123.723L101.818 134.019L121.911 131.975Z" stroke="#4DDC8E" strokeWidth="0.824252" stroke-miterlimit="10" strokeLinejoin="round" />
				<path d="M213.366 131.977L230.425 142.021L233.459 134.021L213.366 131.977Z" stroke="#4DDC8E" strokeWidth="0.824252" stroke-miterlimit="10" strokeLinejoin="round" />
				<path d="M213.366 131.975L233.459 134.019L216.122 123.723L213.366 131.975Z" stroke="#4DDC8E" strokeWidth="0.824252" stroke-miterlimit="10" strokeLinejoin="round" />
				<path d="M139.942 126.648L137.016 117.01L119.156 123.723L139.942 126.648Z" stroke="#4DDC8E" strokeWidth="0.824252" stroke-miterlimit="10" strokeLinejoin="round" />
				<path d="M195.337 126.648L213.366 131.975L216.122 123.723L195.337 126.648Z" stroke="#4DDC8E" strokeWidth="0.824252" stroke-miterlimit="10" strokeLinejoin="round" />
				<path d="M195.337 126.648L216.122 123.723L198.262 117.01L195.337 126.648Z" stroke="#4DDC8E" strokeWidth="0.824252" stroke-miterlimit="10" strokeLinejoin="round" />
				<path d="M121.912 131.975L139.942 126.648L119.156 123.723L121.912 131.975Z" stroke="#4DDC8E" strokeWidth="0.824252" stroke-miterlimit="10" strokeLinejoin="round" />
				<path d="M139.941 126.648L161.579 123.717L137.016 117.01L139.941 126.648Z" stroke="#4DDC8E" strokeWidth="0.824252" stroke-miterlimit="10" strokeLinejoin="round" />
				<path d="M161.579 123.718L181.192 114.436L160.862 113.819L161.579 123.718Z" stroke="#4DDC8E" strokeWidth="0.824252" stroke-miterlimit="10" strokeLinejoin="round" />
				<path d="M161.579 123.718L160.862 113.819L137.016 117.012L161.579 123.718Z" stroke="#4DDC8E" strokeWidth="0.824252" stroke-miterlimit="10" strokeLinejoin="round" />
				<path d="M161.579 123.718L179.757 124.368L181.192 114.436L161.579 123.718Z" stroke="#4DDC8E" strokeWidth="0.824252" stroke-miterlimit="10" strokeLinejoin="round" />
				<path d="M179.758 124.368L198.262 117.011L181.192 114.436L179.758 124.368Z" stroke="#4DDC8E" strokeWidth="0.824252" stroke-miterlimit="10" strokeLinejoin="round" />
				<path d="M179.758 124.367L195.336 126.648L198.262 117.01L179.758 124.367Z" stroke="#4DDC8E" strokeWidth="0.824252" stroke-miterlimit="10" strokeLinejoin="round" />
				<path d="M229.366 152.855L245.794 162.828L230.424 142.02L229.366 152.855Z" stroke="#4DDC8E" strokeWidth="0.824252" stroke-miterlimit="10" strokeLinejoin="round" />
				<path d="M105.912 152.855L104.854 142.02L89.4839 162.828L105.912 152.855Z" stroke="#4DDC8E" strokeWidth="0.824252" stroke-miterlimit="10" strokeLinejoin="round" />
				<path d="M212.39 143.384L230.424 142.021L213.365 131.977L212.39 143.384Z" stroke="#4DDC8E" strokeWidth="0.824252" stroke-miterlimit="10" strokeLinejoin="round" />
				<path d="M212.391 143.383L213.366 131.975L195.337 126.648L212.391 143.383Z" stroke="#4DDC8E" strokeWidth="0.824252" stroke-miterlimit="10" strokeLinejoin="round" />
				<path d="M212.39 143.383L229.366 152.855L230.424 142.02L212.39 143.383Z" stroke="#4DDC8E" strokeWidth="0.824252" stroke-miterlimit="10" strokeLinejoin="round" />
				<path d="M122.886 143.383L139.941 126.648L121.911 131.975L122.886 143.383Z" stroke="#4DDC8E" strokeWidth="0.824252" stroke-miterlimit="10" strokeLinejoin="round" />
				<path d="M105.911 152.855L122.887 143.383L104.853 142.02L105.911 152.855Z" stroke="#4DDC8E" strokeWidth="0.824252" stroke-miterlimit="10" strokeLinejoin="round" />
				<path d="M122.887 143.384L121.912 131.977L104.853 142.021L122.887 143.384Z" stroke="#4DDC8E" strokeWidth="0.824252" stroke-miterlimit="10" strokeLinejoin="round" />
				<path d="M148.367 135.334L161.579 123.717L139.941 126.648L148.367 135.334Z" stroke="#4DDC8E" strokeWidth="0.824252" stroke-miterlimit="10" strokeLinejoin="round" />
				<path d="M186.911 135.334L212.391 143.383L195.336 126.648L186.911 135.334Z" stroke="#4DDC8E" strokeWidth="0.824252" stroke-miterlimit="10" strokeLinejoin="round" />
				<path d="M122.887 143.383L148.367 135.334L139.942 126.648L122.887 143.383Z" stroke="#4DDC8E" strokeWidth="0.824252" stroke-miterlimit="10" strokeLinejoin="round" />
				<path d="M186.911 135.334L195.336 126.649L179.758 124.368L186.911 135.334Z" stroke="#4DDC8E" strokeWidth="0.824252" stroke-miterlimit="10" strokeLinejoin="round" />
				<path d="M186.911 135.334L179.757 124.367L161.579 123.717L186.911 135.334Z" stroke="#4DDC8E" strokeWidth="0.824252" stroke-miterlimit="10" strokeLinejoin="round" />
				<path d="M167.638 132.073L186.911 135.334L161.579 123.717L167.638 132.073Z" stroke="#4DDC8E" strokeWidth="0.824252" stroke-miterlimit="10" strokeLinejoin="round" />
				<path d="M148.367 135.334L167.639 132.073L161.58 123.717L148.367 135.334Z" stroke="#4DDC8E" strokeWidth="0.824252" stroke-miterlimit="10" strokeLinejoin="round" />
				<path d="M92.8006 181.438L105.912 152.856L89.4839 162.829L92.8006 181.438Z" stroke="#4DDC8E" strokeWidth="0.824252" stroke-miterlimit="10" strokeLinejoin="round" />
				<path d="M229.366 152.856L242.477 181.438L245.794 162.829L229.366 152.856Z" stroke="#4DDC8E" strokeWidth="0.824252" stroke-miterlimit="10" strokeLinejoin="round" />
				<path d="M228.085 170.387L242.477 181.438L229.367 152.856L228.085 170.387Z" stroke="#4DDC8E" strokeWidth="0.824252" stroke-miterlimit="10" strokeLinejoin="round" />
				<path d="M107.193 170.387L105.911 152.856L92.8003 181.438L107.193 170.387Z" stroke="#4DDC8E" strokeWidth="0.824252" stroke-miterlimit="10" strokeLinejoin="round" />
				<path d="M107.192 170.387L122.844 155.955L105.91 152.856L107.192 170.387Z" stroke="#4DDC8E" strokeWidth="0.824252" stroke-miterlimit="10" strokeLinejoin="round" />
				<path d="M229.366 152.856L212.39 143.384L212.432 155.954L229.366 152.856Z" stroke="#4DDC8E" strokeWidth="0.824252" stroke-miterlimit="10" strokeLinejoin="round" />
				<path d="M212.432 155.955L228.084 170.387L229.366 152.856L212.432 155.955Z" stroke="#4DDC8E" strokeWidth="0.824252" stroke-miterlimit="10" strokeLinejoin="round" />
				<path d="M148.366 135.334L122.886 143.383L122.845 155.954L148.366 135.334Z" stroke="#4DDC8E" strokeWidth="0.824252" stroke-miterlimit="10" strokeLinejoin="round" />
				<path d="M122.844 155.954L122.886 143.384L105.91 152.856L122.844 155.954Z" stroke="#4DDC8E" strokeWidth="0.824252" stroke-miterlimit="10" strokeLinejoin="round" />
				<path d="M212.432 155.954L212.391 143.383L186.911 135.334L212.432 155.954Z" stroke="#4DDC8E" strokeWidth="0.824252" stroke-miterlimit="10" strokeLinejoin="round" />
				<path d="M148.118 148.858L167.639 132.073L148.367 135.333L148.118 148.858Z" stroke="#4DDC8E" strokeWidth="0.824252" stroke-miterlimit="10" strokeLinejoin="round" />
				<path d="M187.159 148.859L212.432 155.954L186.911 135.334L187.159 148.859Z" stroke="#4DDC8E" strokeWidth="0.824252" stroke-miterlimit="10" strokeLinejoin="round" />
				<path d="M187.159 148.858L186.911 135.333L167.639 132.073L187.159 148.858Z" stroke="#4DDC8E" strokeWidth="0.824252" stroke-miterlimit="10" strokeLinejoin="round" />
				<path d="M122.845 155.954L148.118 148.859L148.366 135.334L122.845 155.954Z" stroke="#4DDC8E" strokeWidth="0.824252" stroke-miterlimit="10" strokeLinejoin="round" />
				<path d="M187.159 148.858L167.639 132.073V145.879L187.159 148.858Z" stroke="#4DDC8E" strokeWidth="0.824252" stroke-miterlimit="10" strokeLinejoin="round" />
				<path d="M148.118 148.858L167.639 145.879V132.073L148.118 148.858Z" stroke="#4DDC8E" strokeWidth="0.824252" stroke-miterlimit="10" strokeLinejoin="round" />
				<path d="M211.736 168.822L212.433 155.954L187.16 148.859L211.736 168.822Z" stroke="#4DDC8E" strokeWidth="0.824252" stroke-miterlimit="10" strokeLinejoin="round" />
				<path d="M123.541 168.822L148.118 148.859L122.845 155.954L123.541 168.822Z" stroke="#4DDC8E" strokeWidth="0.824252" stroke-miterlimit="10" strokeLinejoin="round" />
				<path d="M123.542 168.821L122.845 155.953L107.193 170.385L123.542 168.821Z" stroke="#4DDC8E" strokeWidth="0.824252" stroke-miterlimit="10" strokeLinejoin="round" />
				<path d="M211.736 168.821L228.084 170.385L212.432 155.953L211.736 168.821Z" stroke="#4DDC8E" strokeWidth="0.824252" stroke-miterlimit="10" strokeLinejoin="round" />
				<path d="M123.542 168.822L140.269 164.165L148.119 148.859L123.542 168.822Z" stroke="#4DDC8E" strokeWidth="0.824252" stroke-miterlimit="10" strokeLinejoin="round" />
				<path d="M187.57 162.926L187.159 148.859L167.639 145.879L187.57 162.926Z" stroke="#4DDC8E" strokeWidth="0.824252" stroke-miterlimit="10" strokeLinejoin="round" />
				<path d="M187.57 162.927L211.736 168.822L187.16 148.859L187.57 162.927Z" stroke="#4DDC8E" strokeWidth="0.824252" stroke-miterlimit="10" strokeLinejoin="round" />
				<path d="M161.394 161.241L187.57 162.926L167.64 145.879L161.394 161.241Z" stroke="#4DDC8E" strokeWidth="0.824252" stroke-miterlimit="10" strokeLinejoin="round" />
				<path d="M140.269 164.165L161.393 161.242L148.119 148.859L140.269 164.165Z" stroke="#4DDC8E" strokeWidth="0.824252" stroke-miterlimit="10" strokeLinejoin="round" />
				<path d="M161.393 161.241L167.639 145.879L148.118 148.859L161.393 161.241Z" stroke="#4DDC8E" strokeWidth="0.824252" stroke-miterlimit="10" strokeLinejoin="round" />
				<path d="M161.393 161.241L140.269 164.165L140.549 180.376L161.393 161.241Z" stroke="#4DDC8E" strokeWidth="0.824252" stroke-miterlimit="10" strokeLinejoin="round" />
				<path d="M180.319 178.834L187.57 162.926L161.394 161.241L180.319 178.834Z" stroke="#4DDC8E" strokeWidth="0.824252" stroke-miterlimit="10" strokeLinejoin="round" />
				<path d="M140.55 180.376L161.299 178.589L161.393 161.241L140.55 180.376Z" stroke="#4DDC8E" strokeWidth="0.824252" stroke-miterlimit="10" strokeLinejoin="round" />
				<path d="M180.319 178.834L161.393 161.241L161.299 178.589L180.319 178.834Z" stroke="#4DDC8E" strokeWidth="0.824252" stroke-miterlimit="10" strokeLinejoin="round" />
			</g>
			<path d="M64.1849 114.128L66.9111 105.739H68.6645L71.3907 114.128H70.1267L67.616 106.473H67.9305L65.449 114.128H64.1849ZM65.6004 112.234V111.093H69.981V112.234H65.6004ZM75.1271 114.302C74.4824 114.302 73.9349 114.159 73.4844 113.871C73.0339 113.584 72.6883 113.19 72.4475 112.689C72.2106 112.188 72.0902 111.619 72.0863 110.982C72.0902 110.333 72.2145 109.761 72.4591 109.263C72.7038 108.763 73.0533 108.37 73.5077 108.087C73.962 107.803 74.5077 107.662 75.1446 107.662C75.8319 107.662 76.4183 107.832 76.9038 108.174C77.3931 108.516 77.7154 108.984 77.8708 109.578L76.6591 109.928C76.5387 109.574 76.3407 109.3 76.0649 109.106C75.7931 108.908 75.4805 108.809 75.1271 108.809C74.7271 108.809 74.3989 108.904 74.1426 109.095C73.8863 109.281 73.696 109.537 73.5717 109.863C73.4475 110.19 73.3834 110.563 73.3795 110.982C73.3834 111.63 73.531 112.155 73.8222 112.555C74.1174 112.955 74.5523 113.155 75.1271 113.155C75.5193 113.155 75.8358 113.065 76.0766 112.887C76.3213 112.704 76.5077 112.444 76.6358 112.106L77.8708 112.397C77.665 113.011 77.3251 113.483 76.8514 113.813C76.3776 114.139 75.8028 114.302 75.1271 114.302ZM82.6575 114.128C82.2614 114.205 81.873 114.238 81.4924 114.227C81.1119 114.215 80.772 114.141 80.473 114.005C80.174 113.869 79.9487 113.656 79.7973 113.364C79.6614 113.104 79.5876 112.84 79.5759 112.572C79.5682 112.3 79.5643 111.994 79.5643 111.652V106.089H80.7876V111.594C80.7876 111.846 80.7895 112.065 80.7934 112.252C80.8012 112.438 80.842 112.596 80.9157 112.724C81.0555 112.964 81.2769 113.102 81.5798 113.137C81.8866 113.168 82.2458 113.155 82.6575 113.096V114.128ZM78.3585 108.815V107.836H82.6575V108.815H78.3585ZM84.1004 106.805V105.623H85.3179V106.805H84.1004ZM84.1004 114.128V107.836H85.3179V114.128H84.1004ZM88.7682 114.128L86.4847 107.836H87.7138L89.3856 112.601L91.0575 107.836H92.2866L90.0031 114.128H88.7682ZM95.8989 114.302C95.2737 114.302 94.7241 114.166 94.2504 113.895C93.7805 113.619 93.4135 113.236 93.1494 112.747C92.8892 112.254 92.7591 111.683 92.7591 111.034C92.7591 110.347 92.8873 109.751 93.1436 109.246C93.4038 108.741 93.7649 108.351 94.2271 108.075C94.6892 107.799 95.2271 107.662 95.8406 107.662C96.4814 107.662 97.0271 107.811 97.4775 108.11C97.928 108.405 98.2639 108.827 98.4853 109.374C98.7106 109.922 98.7999 110.572 98.7533 111.326H97.5358V110.883C97.528 110.153 97.3882 109.613 97.1164 109.263C96.8484 108.914 96.4387 108.739 95.8873 108.739C95.2775 108.739 94.8193 108.931 94.5125 109.316C94.2057 109.7 94.0523 110.256 94.0523 110.982C94.0523 111.673 94.2057 112.209 94.5125 112.59C94.8193 112.966 95.262 113.155 95.8406 113.155C96.2212 113.155 96.5494 113.069 96.8251 112.898C97.1047 112.724 97.3222 112.475 97.4775 112.153L98.6717 112.531C98.4271 113.095 98.0562 113.531 97.5591 113.842C97.062 114.149 96.5086 114.302 95.8989 114.302ZM93.6562 111.326V110.376H98.1474V111.326H93.6562ZM102.509 114.128V105.739H103.727V112.98H107.525V114.128H102.509ZM108.63 106.805V105.623H109.848V106.805H108.63ZM108.63 114.128V107.836H109.848V114.128H108.63ZM114.003 114.296C113.238 114.296 112.614 114.128 112.133 113.79C111.651 113.452 111.356 112.976 111.247 112.363L112.494 112.17C112.572 112.496 112.75 112.755 113.03 112.945C113.313 113.131 113.665 113.225 114.084 113.225C114.465 113.225 114.762 113.147 114.976 112.992C115.193 112.836 115.302 112.623 115.302 112.351C115.302 112.192 115.263 112.063 115.185 111.966C115.111 111.865 114.954 111.77 114.713 111.681C114.473 111.592 114.106 111.481 113.612 111.349C113.073 111.209 112.644 111.06 112.325 110.9C112.011 110.737 111.785 110.549 111.649 110.335C111.517 110.118 111.451 109.856 111.451 109.549C111.451 109.168 111.552 108.836 111.754 108.553C111.956 108.269 112.24 108.05 112.605 107.895C112.974 107.739 113.405 107.662 113.898 107.662C114.379 107.662 114.809 107.737 115.185 107.889C115.562 108.04 115.867 108.256 116.1 108.535C116.333 108.811 116.473 109.135 116.519 109.508L115.273 109.735C115.23 109.432 115.088 109.194 114.847 109.019C114.607 108.844 114.294 108.749 113.91 108.733C113.541 108.718 113.242 108.78 113.012 108.92C112.783 109.056 112.669 109.244 112.669 109.485C112.669 109.625 112.711 109.743 112.797 109.84C112.886 109.937 113.057 110.03 113.31 110.12C113.562 110.209 113.935 110.316 114.428 110.44C114.956 110.576 115.376 110.728 115.686 110.895C115.997 111.058 116.218 111.254 116.35 111.483C116.486 111.708 116.554 111.982 116.554 112.304C116.554 112.926 116.327 113.413 115.873 113.766C115.422 114.12 114.799 114.296 114.003 114.296ZM121.443 114.128C121.047 114.205 120.659 114.238 120.278 114.227C119.898 114.215 119.558 114.141 119.259 114.005C118.96 113.869 118.734 113.656 118.583 113.364C118.447 113.104 118.373 112.84 118.362 112.572C118.354 112.3 118.35 111.994 118.35 111.652V106.089H119.573V111.594C119.573 111.846 119.575 112.065 119.579 112.252C119.587 112.438 119.628 112.596 119.701 112.724C119.841 112.964 120.063 113.102 120.365 113.137C120.672 113.168 121.031 113.155 121.443 113.096V114.128ZM117.144 108.815V107.836H121.443V108.815H117.144ZM122.886 106.805V105.623H124.104V106.805H122.886ZM122.886 114.128V107.836H124.104V114.128H122.886ZM130.268 114.128V111.034C130.268 110.79 130.247 110.539 130.204 110.283C130.165 110.023 130.088 109.782 129.971 109.561C129.859 109.339 129.698 109.161 129.488 109.025C129.282 108.889 129.012 108.821 128.678 108.821C128.461 108.821 128.255 108.858 128.061 108.931C127.866 109.001 127.696 109.116 127.548 109.275C127.404 109.434 127.29 109.644 127.204 109.904C127.123 110.164 127.082 110.481 127.082 110.854L126.325 110.568C126.325 109.997 126.431 109.495 126.645 109.06C126.859 108.621 127.165 108.279 127.565 108.034C127.965 107.79 128.449 107.667 129.016 107.667C129.451 107.667 129.816 107.737 130.111 107.877C130.406 108.017 130.645 108.201 130.828 108.43C131.014 108.656 131.156 108.902 131.253 109.17C131.35 109.438 131.416 109.7 131.451 109.957C131.486 110.213 131.503 110.438 131.503 110.632V114.128H130.268ZM125.847 114.128V107.836H126.936V109.654H127.082V114.128H125.847ZM135.613 117.098C135.275 117.098 134.947 117.046 134.628 116.941C134.314 116.836 134.026 116.681 133.766 116.475C133.506 116.273 133.291 116.023 133.12 115.724L134.244 115.153C134.38 115.421 134.574 115.617 134.826 115.741C135.079 115.865 135.345 115.928 135.625 115.928C135.97 115.928 136.265 115.865 136.51 115.741C136.755 115.621 136.939 115.438 137.063 115.194C137.191 114.949 137.254 114.646 137.25 114.285V112.526H137.395V107.836H138.473V114.296C138.473 114.463 138.467 114.623 138.456 114.774C138.444 114.926 138.423 115.077 138.391 115.229C138.302 115.652 138.131 116.001 137.879 116.277C137.63 116.553 137.312 116.759 136.924 116.895C136.539 117.03 136.102 117.098 135.613 117.098ZM135.52 114.302C134.933 114.302 134.426 114.157 133.999 113.865C133.576 113.574 133.248 113.178 133.015 112.677C132.786 112.172 132.671 111.605 132.671 110.976C132.671 110.343 132.788 109.778 133.021 109.281C133.254 108.78 133.584 108.386 134.011 108.098C134.442 107.807 134.953 107.662 135.543 107.662C136.137 107.662 136.636 107.807 137.04 108.098C137.448 108.386 137.755 108.78 137.96 109.281C138.17 109.782 138.275 110.347 138.275 110.976C138.275 111.605 138.17 112.17 137.96 112.671C137.751 113.172 137.442 113.57 137.034 113.865C136.626 114.157 136.122 114.302 135.52 114.302ZM135.689 113.201C136.089 113.201 136.415 113.106 136.667 112.916C136.92 112.726 137.104 112.463 137.221 112.13C137.337 111.796 137.395 111.411 137.395 110.976C137.395 110.541 137.335 110.157 137.215 109.823C137.098 109.489 136.916 109.229 136.667 109.042C136.423 108.856 136.11 108.763 135.729 108.763C135.325 108.763 134.993 108.862 134.733 109.06C134.473 109.258 134.279 109.524 134.151 109.858C134.026 110.192 133.964 110.564 133.964 110.976C133.964 111.392 134.026 111.768 134.151 112.106C134.279 112.44 134.469 112.706 134.722 112.904C134.978 113.102 135.3 113.201 135.689 113.201ZM142.515 114.296C141.75 114.296 141.126 114.128 140.645 113.79C140.163 113.452 139.868 112.976 139.759 112.363L141.006 112.17C141.084 112.496 141.262 112.755 141.542 112.945C141.825 113.131 142.177 113.225 142.596 113.225C142.977 113.225 143.274 113.147 143.487 112.992C143.705 112.836 143.814 112.623 143.814 112.351C143.814 112.192 143.775 112.063 143.697 111.966C143.623 111.865 143.466 111.77 143.225 111.681C142.984 111.592 142.618 111.481 142.124 111.349C141.584 111.209 141.155 111.06 140.837 110.9C140.522 110.737 140.297 110.549 140.161 110.335C140.029 110.118 139.963 109.856 139.963 109.549C139.963 109.168 140.064 108.836 140.266 108.553C140.468 108.269 140.751 108.05 141.117 107.895C141.485 107.739 141.917 107.662 142.41 107.662C142.891 107.662 143.32 107.737 143.697 107.889C144.074 108.04 144.379 108.256 144.612 108.535C144.845 108.811 144.984 109.135 145.031 109.508L143.784 109.735C143.742 109.432 143.6 109.194 143.359 109.019C143.118 108.844 142.806 108.749 142.421 108.733C142.052 108.718 141.753 108.78 141.524 108.92C141.295 109.056 141.181 109.244 141.181 109.485C141.181 109.625 141.223 109.743 141.309 109.84C141.398 109.937 141.569 110.03 141.821 110.12C142.074 110.209 142.447 110.316 142.94 110.44C143.468 110.576 143.887 110.728 144.198 110.895C144.509 111.058 144.73 111.254 144.862 111.483C144.998 111.708 145.066 111.982 145.066 112.304C145.066 112.926 144.839 113.413 144.384 113.766C143.934 114.12 143.311 114.296 142.515 114.296Z" fill="white" />
			<path d="M67.91 145V132.9L65.2 134.55V132.22L67.91 130.6H70.04V145H67.91ZM73.4375 144.99L73.4475 143.13L79.7175 137.51C80.2242 137.063 80.5675 136.637 80.7475 136.23C80.9342 135.823 81.0275 135.417 81.0275 135.01C81.0275 134.497 80.9142 134.037 80.6875 133.63C80.4608 133.217 80.1475 132.89 79.7475 132.65C79.3475 132.41 78.8875 132.29 78.3675 132.29C77.8342 132.29 77.3575 132.417 76.9375 132.67C76.5242 132.917 76.2008 133.247 75.9675 133.66C75.7342 134.073 75.6208 134.52 75.6275 135H73.4875C73.4875 134.067 73.6975 133.25 74.1175 132.55C74.5442 131.843 75.1275 131.293 75.8675 130.9C76.6075 130.5 77.4542 130.3 78.4075 130.3C79.3142 130.3 80.1275 130.507 80.8475 130.92C81.5675 131.327 82.1342 131.887 82.5475 132.6C82.9675 133.313 83.1775 134.127 83.1775 135.04C83.1775 135.7 83.0908 136.26 82.9175 136.72C82.7442 137.18 82.4842 137.607 82.1375 138C81.7908 138.393 81.3575 138.82 80.8375 139.28L75.9975 143.6L75.7675 143H83.1775V144.99H73.4375ZM90.5958 145.3C89.6158 145.3 88.7491 145.087 87.9958 144.66C87.2424 144.227 86.6491 143.633 86.2158 142.88C85.7891 142.127 85.5758 141.26 85.5758 140.28V135.32C85.5758 134.34 85.7891 133.473 86.2158 132.72C86.6491 131.967 87.2424 131.377 87.9958 130.95C88.7491 130.517 89.6158 130.3 90.5958 130.3C91.5758 130.3 92.4424 130.517 93.1958 130.95C93.9491 131.377 94.5391 131.967 94.9658 132.72C95.3991 133.473 95.6158 134.34 95.6158 135.32V140.28C95.6158 141.26 95.3991 142.127 94.9658 142.88C94.5391 143.633 93.9491 144.227 93.1958 144.66C92.4424 145.087 91.5758 145.3 90.5958 145.3ZM90.5958 143.3C91.1291 143.3 91.6124 143.173 92.0458 142.92C92.4858 142.66 92.8358 142.313 93.0958 141.88C93.3558 141.44 93.4858 140.95 93.4858 140.41V135.17C93.4858 134.637 93.3558 134.153 93.0958 133.72C92.8358 133.28 92.4858 132.933 92.0458 132.68C91.6124 132.42 91.1291 132.29 90.5958 132.29C90.0624 132.29 89.5758 132.42 89.1358 132.68C88.7024 132.933 88.3558 133.28 88.0958 133.72C87.8358 134.153 87.7058 134.637 87.7058 135.17V140.41C87.7058 140.95 87.8358 141.44 88.0958 141.88C88.3558 142.313 88.7024 142.66 89.1358 142.92C89.5758 143.173 90.0624 143.3 90.5958 143.3Z" fill="white" />
			<path d="M260.049 107C257.829 107 255.823 107.683 254.116 108.835H238.665C233.884 108.835 230 112.72 230 117.5C230 122.28 233.884 126.165 238.665 126.165H254.116C255.823 127.317 257.829 128 260.049 128C265.854 128 270.549 123.305 270.549 117.5C270.549 111.695 265.854 107 260.049 107ZM231.878 117.5C231.878 113.744 234.909 110.713 238.665 110.713H252.024C250.488 112.549 249.506 114.896 249.506 117.5C249.506 120.104 250.445 122.451 252.024 124.287H238.665C234.909 124.287 231.878 121.256 231.878 117.5ZM260.049 126.122C255.268 126.122 251.427 122.238 251.427 117.5C251.427 112.762 255.311 108.878 260.049 108.878C264.829 108.878 268.671 112.762 268.671 117.5C268.671 122.238 264.787 126.122 260.049 126.122Z" fill="url(#paint1_linear_646_17869)" />
			<path d="M245.025 114.213L240.458 118.78L238.58 116.902C238.195 116.518 237.641 116.518 237.256 116.902C236.872 117.287 236.872 117.841 237.256 118.226L239.817 120.787C239.988 120.957 240.244 121.043 240.5 121.043C240.756 121.043 240.97 120.957 241.183 120.787L246.433 115.537C246.817 115.152 246.817 114.598 246.433 114.213C246.006 113.872 245.409 113.872 245.025 114.213Z" fill="url(#paint2_linear_646_17869)" />
		</g>
		<g clip-path="url(#clip2_646_17869)">
			<rect x="52" y="176" width="231" height="70" rx="4.94551" fill="url(#paint3_linear_646_17869)" />
			<g opacity="0.3" clip-path="url(#clip3_646_17869)">
				<path d="M82.3956 235.438L78.6082 243.89L70.928 261.084L82.3956 235.438Z" stroke="#363636" strokeWidth="0.824252" stroke-miterlimit="10" strokeLinejoin="round" />
				<path d="M264.349 261.084L256.669 243.89L252.881 235.438L264.349 261.084Z" stroke="#363636" strokeWidth="0.824252" stroke-miterlimit="10" strokeLinejoin="round" />
				<path d="M86.0888 235.679L82.3956 235.438L70.928 261.084L86.0888 235.679Z" stroke="#363636" strokeWidth="0.824252" stroke-miterlimit="10" strokeLinejoin="round" />
				<path d="M249.188 235.679L264.349 261.084L252.882 235.438L249.188 235.679Z" stroke="#363636" strokeWidth="0.824252" stroke-miterlimit="10" strokeLinejoin="round" />
				<path d="M86.0897 235.68L101.819 219.02L82.3965 235.438L86.0897 235.68Z" stroke="#363636" strokeWidth="0.824252" stroke-miterlimit="10" strokeLinejoin="round" />
				<path d="M233.459 219.02L249.189 235.68L252.882 235.438L233.459 219.02Z" stroke="#363636" strokeWidth="0.824252" stroke-miterlimit="10" strokeLinejoin="round" />
				<path d="M233.459 219.021L252.882 235.439L237.42 216.977L233.459 219.021Z" stroke="#363636" strokeWidth="0.824252" stroke-miterlimit="10" strokeLinejoin="round" />
				<path d="M101.819 219.021L97.8585 216.977L82.3965 235.439L101.819 219.021Z" stroke="#363636" strokeWidth="0.824252" stroke-miterlimit="10" strokeLinejoin="round" />
				<path d="M101.819 219.019L119.156 208.723L97.8584 216.975L101.819 219.019Z" stroke="#363636" strokeWidth="0.824252" stroke-miterlimit="10" strokeLinejoin="round" />
				<path d="M216.122 208.724L237.419 216.976L220.523 205.715L216.122 208.724Z" stroke="#363636" strokeWidth="0.824252" stroke-miterlimit="10" strokeLinejoin="round" />
				<path d="M119.156 208.724L114.755 205.715L97.8584 216.976L119.156 208.724Z" stroke="#363636" strokeWidth="0.824252" stroke-miterlimit="10" strokeLinejoin="round" />
				<path d="M216.122 208.723L233.458 219.019L237.419 216.975L216.122 208.723Z" stroke="#363636" strokeWidth="0.824252" stroke-miterlimit="10" strokeLinejoin="round" />
				<path d="M76.1544 264.951L86.0888 235.679L70.928 261.084L76.1544 264.951Z" stroke="#363636" strokeWidth="0.824252" stroke-miterlimit="10" strokeLinejoin="round" />
				<path d="M249.188 235.679L259.123 264.951L264.349 261.084L249.188 235.679Z" stroke="#363636" strokeWidth="0.824252" stroke-miterlimit="10" strokeLinejoin="round" />
				<path d="M119.155 208.723L137.015 202.01L114.754 205.715L119.155 208.723Z" stroke="#363636" strokeWidth="0.824252" stroke-miterlimit="10" strokeLinejoin="round" />
				<path d="M137.015 202.011L132.49 199.292L114.754 205.715L137.015 202.011Z" stroke="#363636" strokeWidth="0.824252" stroke-miterlimit="10" strokeLinejoin="round" />
				<path d="M198.262 202.01L216.122 208.723L220.523 205.715L198.262 202.01Z" stroke="#363636" strokeWidth="0.824252" stroke-miterlimit="10" strokeLinejoin="round" />
				<path d="M198.262 202.011L220.523 205.715L194.457 197.472L198.262 202.011Z" stroke="#363636" strokeWidth="0.824252" stroke-miterlimit="10" strokeLinejoin="round" />
				<path d="M160.862 198.818L194.457 197.472L158.394 194.933L160.862 198.818Z" stroke="#363636" strokeWidth="0.824252" stroke-miterlimit="10" strokeLinejoin="round" />
				<path d="M137.016 202.012L160.862 198.819L132.491 199.293L137.016 202.012Z" stroke="#363636" strokeWidth="0.824252" stroke-miterlimit="10" strokeLinejoin="round" />
				<path d="M160.862 198.818L158.395 194.933L132.491 199.293L160.862 198.818Z" stroke="#363636" strokeWidth="0.824252" stroke-miterlimit="10" strokeLinejoin="round" />
				<path d="M160.862 198.818L181.192 199.436L194.457 197.472L160.862 198.818Z" stroke="#363636" strokeWidth="0.824252" stroke-miterlimit="10" strokeLinejoin="round" />
				<path d="M181.192 199.436L198.262 202.011L194.457 197.472L181.192 199.436Z" stroke="#363636" strokeWidth="0.824252" stroke-miterlimit="10" strokeLinejoin="round" />
				<path d="M245.795 247.829L249.189 235.68L233.459 219.02L245.795 247.829Z" stroke="#363636" strokeWidth="0.824252" stroke-miterlimit="10" strokeLinejoin="round" />
				<path d="M230.424 227.021L245.794 247.829L233.459 219.02L230.424 227.021Z" stroke="#363636" strokeWidth="0.824252" stroke-miterlimit="10" strokeLinejoin="round" />
				<path d="M89.4839 247.829L104.854 227.021L101.819 219.02L89.4839 247.829Z" stroke="#363636" strokeWidth="0.824252" stroke-miterlimit="10" strokeLinejoin="round" />
				<path d="M89.4829 247.829L86.0889 235.679L76.1545 264.951L89.4829 247.829Z" stroke="#363636" strokeWidth="0.824252" stroke-miterlimit="10" strokeLinejoin="round" />
				<path d="M89.4833 247.829L101.819 219.02L86.0894 235.68L89.4833 247.829Z" stroke="#363636" strokeWidth="0.824252" stroke-miterlimit="10" strokeLinejoin="round" />
				<path d="M245.794 247.829L259.122 264.951L249.188 235.679L245.794 247.829Z" stroke="#363636" strokeWidth="0.824252" stroke-miterlimit="10" strokeLinejoin="round" />
				<path d="M104.853 227.021L121.911 216.977L101.818 219.021L104.853 227.021Z" stroke="#363636" strokeWidth="0.824252" stroke-miterlimit="10" strokeLinejoin="round" />
				<path d="M121.911 216.975L119.155 208.723L101.818 219.019L121.911 216.975Z" stroke="#363636" strokeWidth="0.824252" stroke-miterlimit="10" strokeLinejoin="round" />
				<path d="M213.366 216.977L230.425 227.021L233.459 219.021L213.366 216.977Z" stroke="#363636" strokeWidth="0.824252" stroke-miterlimit="10" strokeLinejoin="round" />
				<path d="M213.366 216.975L233.459 219.019L216.122 208.723L213.366 216.975Z" stroke="#363636" strokeWidth="0.824252" stroke-miterlimit="10" strokeLinejoin="round" />
				<path d="M139.942 211.648L137.016 202.01L119.156 208.723L139.942 211.648Z" stroke="#363636" strokeWidth="0.824252" stroke-miterlimit="10" strokeLinejoin="round" />
				<path d="M195.337 211.648L213.366 216.975L216.122 208.723L195.337 211.648Z" stroke="#363636" strokeWidth="0.824252" stroke-miterlimit="10" strokeLinejoin="round" />
				<path d="M195.337 211.648L216.122 208.723L198.262 202.01L195.337 211.648Z" stroke="#363636" strokeWidth="0.824252" stroke-miterlimit="10" strokeLinejoin="round" />
				<path d="M121.912 216.975L139.942 211.648L119.156 208.723L121.912 216.975Z" stroke="#363636" strokeWidth="0.824252" stroke-miterlimit="10" strokeLinejoin="round" />
				<path d="M139.941 211.648L161.579 208.717L137.016 202.01L139.941 211.648Z" stroke="#363636" strokeWidth="0.824252" stroke-miterlimit="10" strokeLinejoin="round" />
				<path d="M161.579 208.718L181.192 199.436L160.862 198.819L161.579 208.718Z" stroke="#363636" strokeWidth="0.824252" stroke-miterlimit="10" strokeLinejoin="round" />
				<path d="M161.579 208.718L160.862 198.819L137.016 202.012L161.579 208.718Z" stroke="#363636" strokeWidth="0.824252" stroke-miterlimit="10" strokeLinejoin="round" />
				<path d="M161.579 208.718L179.757 209.368L181.192 199.436L161.579 208.718Z" stroke="#363636" strokeWidth="0.824252" stroke-miterlimit="10" strokeLinejoin="round" />
				<path d="M179.758 209.368L198.262 202.011L181.192 199.436L179.758 209.368Z" stroke="#363636" strokeWidth="0.824252" stroke-miterlimit="10" strokeLinejoin="round" />
				<path d="M179.758 209.367L195.336 211.648L198.262 202.01L179.758 209.367Z" stroke="#363636" strokeWidth="0.824252" stroke-miterlimit="10" strokeLinejoin="round" />
				<path d="M229.366 237.855L245.794 247.828L230.424 227.02L229.366 237.855Z" stroke="#363636" strokeWidth="0.824252" stroke-miterlimit="10" strokeLinejoin="round" />
				<path d="M105.912 237.855L104.854 227.02L89.4839 247.828L105.912 237.855Z" stroke="#363636" strokeWidth="0.824252" stroke-miterlimit="10" strokeLinejoin="round" />
				<path d="M212.39 228.384L230.424 227.021L213.365 216.977L212.39 228.384Z" stroke="#363636" strokeWidth="0.824252" stroke-miterlimit="10" strokeLinejoin="round" />
				<path d="M212.391 228.383L213.366 216.975L195.337 211.648L212.391 228.383Z" stroke="#363636" strokeWidth="0.824252" stroke-miterlimit="10" strokeLinejoin="round" />
				<path d="M212.39 228.383L229.366 237.855L230.424 227.02L212.39 228.383Z" stroke="#363636" strokeWidth="0.824252" stroke-miterlimit="10" strokeLinejoin="round" />
				<path d="M122.886 228.383L139.941 211.648L121.911 216.975L122.886 228.383Z" stroke="#363636" strokeWidth="0.824252" stroke-miterlimit="10" strokeLinejoin="round" />
				<path d="M105.911 237.855L122.887 228.383L104.853 227.02L105.911 237.855Z" stroke="#363636" strokeWidth="0.824252" stroke-miterlimit="10" strokeLinejoin="round" />
				<path d="M122.887 228.384L121.912 216.977L104.853 227.021L122.887 228.384Z" stroke="#363636" strokeWidth="0.824252" stroke-miterlimit="10" strokeLinejoin="round" />
				<path d="M148.367 220.334L161.579 208.717L139.941 211.648L148.367 220.334Z" stroke="#363636" strokeWidth="0.824252" stroke-miterlimit="10" strokeLinejoin="round" />
				<path d="M186.911 220.334L212.391 228.383L195.336 211.648L186.911 220.334Z" stroke="#363636" strokeWidth="0.824252" stroke-miterlimit="10" strokeLinejoin="round" />
				<path d="M122.887 228.383L148.367 220.334L139.942 211.648L122.887 228.383Z" stroke="#363636" strokeWidth="0.824252" stroke-miterlimit="10" strokeLinejoin="round" />
				<path d="M186.911 220.334L195.336 211.649L179.758 209.368L186.911 220.334Z" stroke="#363636" strokeWidth="0.824252" stroke-miterlimit="10" strokeLinejoin="round" />
				<path d="M186.911 220.334L179.757 209.367L161.579 208.717L186.911 220.334Z" stroke="#363636" strokeWidth="0.824252" stroke-miterlimit="10" strokeLinejoin="round" />
				<path d="M167.638 217.073L186.911 220.334L161.579 208.717L167.638 217.073Z" stroke="#363636" strokeWidth="0.824252" stroke-miterlimit="10" strokeLinejoin="round" />
				<path d="M148.367 220.334L167.639 217.073L161.58 208.717L148.367 220.334Z" stroke="#363636" strokeWidth="0.824252" stroke-miterlimit="10" strokeLinejoin="round" />
				<path d="M92.8006 266.438L105.912 237.856L89.4839 247.829L92.8006 266.438Z" stroke="#363636" strokeWidth="0.824252" stroke-miterlimit="10" strokeLinejoin="round" />
				<path d="M229.366 237.856L242.477 266.438L245.794 247.829L229.366 237.856Z" stroke="#363636" strokeWidth="0.824252" stroke-miterlimit="10" strokeLinejoin="round" />
				<path d="M228.085 255.387L242.477 266.438L229.367 237.856L228.085 255.387Z" stroke="#363636" strokeWidth="0.824252" stroke-miterlimit="10" strokeLinejoin="round" />
				<path d="M107.193 255.387L105.911 237.856L92.8003 266.438L107.193 255.387Z" stroke="#363636" strokeWidth="0.824252" stroke-miterlimit="10" strokeLinejoin="round" />
				<path d="M107.192 255.387L122.844 240.955L105.91 237.856L107.192 255.387Z" stroke="#363636" strokeWidth="0.824252" stroke-miterlimit="10" strokeLinejoin="round" />
				<path d="M229.366 237.856L212.39 228.384L212.432 240.954L229.366 237.856Z" stroke="#363636" strokeWidth="0.824252" stroke-miterlimit="10" strokeLinejoin="round" />
				<path d="M212.432 240.955L228.084 255.387L229.366 237.856L212.432 240.955Z" stroke="#363636" strokeWidth="0.824252" stroke-miterlimit="10" strokeLinejoin="round" />
				<path d="M148.366 220.334L122.886 228.383L122.845 240.954L148.366 220.334Z" stroke="#363636" strokeWidth="0.824252" stroke-miterlimit="10" strokeLinejoin="round" />
				<path d="M122.844 240.954L122.886 228.384L105.91 237.856L122.844 240.954Z" stroke="#363636" strokeWidth="0.824252" stroke-miterlimit="10" strokeLinejoin="round" />
				<path d="M212.432 240.954L212.391 228.383L186.911 220.334L212.432 240.954Z" stroke="#363636" strokeWidth="0.824252" stroke-miterlimit="10" strokeLinejoin="round" />
				<path d="M148.118 233.858L167.639 217.073L148.367 220.333L148.118 233.858Z" stroke="#363636" strokeWidth="0.824252" stroke-miterlimit="10" strokeLinejoin="round" />
				<path d="M187.159 233.859L212.432 240.954L186.911 220.334L187.159 233.859Z" stroke="#363636" strokeWidth="0.824252" stroke-miterlimit="10" strokeLinejoin="round" />
				<path d="M187.159 233.858L186.911 220.333L167.639 217.073L187.159 233.858Z" stroke="#363636" strokeWidth="0.824252" stroke-miterlimit="10" strokeLinejoin="round" />
				<path d="M122.845 240.954L148.118 233.859L148.366 220.334L122.845 240.954Z" stroke="#363636" strokeWidth="0.824252" stroke-miterlimit="10" strokeLinejoin="round" />
				<path d="M187.159 233.858L167.639 217.073V230.879L187.159 233.858Z" stroke="#363636" strokeWidth="0.824252" stroke-miterlimit="10" strokeLinejoin="round" />
				<path d="M148.118 233.858L167.639 230.879V217.073L148.118 233.858Z" stroke="#363636" strokeWidth="0.824252" stroke-miterlimit="10" strokeLinejoin="round" />
				<path d="M211.736 253.822L212.433 240.954L187.16 233.859L211.736 253.822Z" stroke="#363636" strokeWidth="0.824252" stroke-miterlimit="10" strokeLinejoin="round" />
				<path d="M123.541 253.822L148.118 233.859L122.845 240.954L123.541 253.822Z" stroke="#363636" strokeWidth="0.824252" stroke-miterlimit="10" strokeLinejoin="round" />
				<path d="M123.542 253.821L122.845 240.953L107.193 255.385L123.542 253.821Z" stroke="#363636" strokeWidth="0.824252" stroke-miterlimit="10" strokeLinejoin="round" />
				<path d="M211.736 253.821L228.084 255.385L212.432 240.953L211.736 253.821Z" stroke="#363636" strokeWidth="0.824252" stroke-miterlimit="10" strokeLinejoin="round" />
				<path d="M123.542 253.822L140.269 249.165L148.119 233.859L123.542 253.822Z" stroke="#363636" strokeWidth="0.824252" stroke-miterlimit="10" strokeLinejoin="round" />
				<path d="M187.57 247.926L187.159 233.859L167.639 230.879L187.57 247.926Z" stroke="#363636" strokeWidth="0.824252" stroke-miterlimit="10" strokeLinejoin="round" />
				<path d="M187.57 247.927L211.736 253.822L187.16 233.859L187.57 247.927Z" stroke="#363636" strokeWidth="0.824252" stroke-miterlimit="10" strokeLinejoin="round" />
				<path d="M161.394 246.241L187.57 247.926L167.64 230.879L161.394 246.241Z" stroke="#363636" strokeWidth="0.824252" stroke-miterlimit="10" strokeLinejoin="round" />
				<path d="M140.269 249.165L161.393 246.242L148.119 233.859L140.269 249.165Z" stroke="#363636" strokeWidth="0.824252" stroke-miterlimit="10" strokeLinejoin="round" />
				<path d="M161.393 246.241L167.639 230.879L148.118 233.859L161.393 246.241Z" stroke="#363636" strokeWidth="0.824252" stroke-miterlimit="10" strokeLinejoin="round" />
				<path d="M161.393 246.241L140.269 249.165L140.549 265.376L161.393 246.241Z" stroke="#363636" strokeWidth="0.824252" stroke-miterlimit="10" strokeLinejoin="round" />
				<path d="M180.319 263.834L187.57 247.926L161.394 246.241L180.319 263.834Z" stroke="#363636" strokeWidth="0.824252" stroke-miterlimit="10" strokeLinejoin="round" />
				<path d="M140.55 265.376L161.299 263.589L161.393 246.241L140.55 265.376Z" stroke="#363636" strokeWidth="0.824252" stroke-miterlimit="10" strokeLinejoin="round" />
				<path d="M180.319 263.834L161.393 246.241L161.299 263.589L180.319 263.834Z" stroke="#363636" strokeWidth="0.824252" stroke-miterlimit="10" strokeLinejoin="round" />
			</g>
			<path d="M64.8839 199.128V190.739H66.1014V199.128H64.8839ZM72.2663 199.128V196.034C72.2663 195.79 72.2449 195.539 72.2022 195.283C72.1633 195.023 72.0857 194.782 71.9692 194.561C71.8565 194.339 71.6954 194.161 71.4857 194.025C71.2798 193.889 71.0099 193.821 70.676 193.821C70.4585 193.821 70.2527 193.858 70.0585 193.931C69.8643 194.001 69.6934 194.116 69.5459 194.275C69.4022 194.434 69.2876 194.644 69.2022 194.904C69.1206 195.164 69.0798 195.481 69.0798 195.854L68.3226 195.568C68.3226 194.997 68.4294 194.495 68.643 194.06C68.8565 193.621 69.1633 193.279 69.5633 193.034C69.9633 192.79 70.4468 192.667 71.0138 192.667C71.4488 192.667 71.8138 192.737 72.109 192.877C72.4041 193.017 72.643 193.201 72.8255 193.43C73.0119 193.656 73.1536 193.902 73.2507 194.17C73.3478 194.438 73.4138 194.7 73.4488 194.957C73.4837 195.213 73.5012 195.438 73.5012 195.632V199.128H72.2663ZM67.8449 199.128V192.836H68.9342V194.654H69.0798V199.128H67.8449ZM76.7952 199.302C76.3292 199.302 75.9389 199.217 75.6243 199.046C75.3098 198.871 75.0709 198.642 74.9078 198.359C74.7486 198.071 74.669 197.757 74.669 197.415C74.669 197.096 74.7253 196.817 74.8379 196.576C74.9505 196.335 75.1175 196.131 75.3389 195.964C75.5602 195.794 75.8321 195.656 76.1544 195.551C76.434 195.469 76.7505 195.397 77.1039 195.335C77.4573 195.273 77.8282 195.215 78.2166 195.161C78.6088 195.106 78.9971 195.052 79.3816 194.997L78.9389 195.242C78.9467 194.749 78.8418 194.384 78.6243 194.147C78.4107 193.906 78.0418 193.786 77.5175 193.786C77.1874 193.786 76.8845 193.863 76.6088 194.019C76.3331 194.17 76.1408 194.423 76.0321 194.776L74.8962 194.427C75.0515 193.887 75.3467 193.458 75.7816 193.139C76.2204 192.821 76.803 192.662 77.5292 192.662C78.0923 192.662 78.5816 192.759 78.9971 192.953C79.4166 193.143 79.7234 193.446 79.9175 193.862C80.0185 194.067 80.0806 194.285 80.1039 194.514C80.1272 194.743 80.1389 194.99 80.1389 195.254V199.128H79.0612V197.689L79.2709 197.875C79.0107 198.357 78.6787 198.716 78.2748 198.953C77.8748 199.186 77.3816 199.302 76.7952 199.302ZM77.0107 198.306C77.3564 198.306 77.6535 198.246 77.902 198.126C78.1505 198.001 78.3505 197.844 78.502 197.654C78.6535 197.463 78.7525 197.265 78.7991 197.06C78.8651 196.873 78.902 196.663 78.9098 196.43C78.9214 196.197 78.9272 196.011 78.9272 195.871L79.3234 196.017C78.9389 196.075 78.5894 196.128 78.2748 196.174C77.9602 196.221 77.6748 196.267 77.4185 196.314C77.1661 196.357 76.9408 196.409 76.7428 196.471C76.5758 196.53 76.4263 196.599 76.2942 196.681C76.1661 196.763 76.0632 196.862 75.9855 196.978C75.9117 197.095 75.8748 197.236 75.8748 197.403C75.8748 197.566 75.9156 197.718 75.9971 197.858C76.0787 197.994 76.203 198.102 76.37 198.184C76.5369 198.265 76.7505 198.306 77.0107 198.306ZM84.3428 199.302C83.6981 199.302 83.1506 199.159 82.7001 198.871C82.2496 198.584 81.904 198.19 81.6632 197.689C81.4263 197.188 81.3059 196.619 81.302 195.982C81.3059 195.333 81.4302 194.761 81.6748 194.263C81.9195 193.763 82.269 193.37 82.7234 193.087C83.1778 192.803 83.7234 192.662 84.3603 192.662C85.0477 192.662 85.6341 192.832 86.1195 193.174C86.6088 193.516 86.9312 193.984 87.0865 194.578L85.8748 194.928C85.7545 194.574 85.5564 194.3 85.2807 194.106C85.0088 193.908 84.6962 193.809 84.3428 193.809C83.9428 193.809 83.6146 193.904 83.3583 194.095C83.102 194.281 82.9117 194.537 82.7875 194.863C82.6632 195.19 82.5991 195.563 82.5952 195.982C82.5991 196.63 82.7467 197.155 83.0379 197.555C83.3331 197.955 83.768 198.155 84.3428 198.155C84.735 198.155 85.0515 198.065 85.2923 197.887C85.537 197.704 85.7234 197.444 85.8515 197.106L87.0865 197.397C86.8807 198.011 86.5409 198.483 86.0671 198.813C85.5933 199.139 85.0185 199.302 84.3428 199.302ZM91.8732 199.128C91.4771 199.205 91.0887 199.238 90.7082 199.227C90.3276 199.215 89.9878 199.141 89.6887 199.005C89.3897 198.869 89.1645 198.656 89.013 198.364C88.8771 198.104 88.8033 197.84 88.7916 197.572C88.7839 197.3 88.78 196.994 88.78 196.652V191.089H90.0033V196.594C90.0033 196.846 90.0052 197.065 90.0091 197.252C90.0169 197.438 90.0577 197.596 90.1315 197.724C90.2713 197.964 90.4926 198.102 90.7955 198.137C91.1023 198.168 91.4616 198.155 91.8732 198.096V199.128ZM87.5742 193.815V192.836H91.8732V193.815H87.5742ZM93.3161 191.805V190.623H94.5336V191.805H93.3161ZM93.3161 199.128V192.836H94.5336V199.128H93.3161ZM97.9839 199.128L95.7004 192.836H96.9295L98.6014 197.601L100.273 192.836H101.502L99.2188 199.128H97.9839ZM105.115 199.302C104.489 199.302 103.94 199.166 103.466 198.895C102.996 198.619 102.629 198.236 102.365 197.747C102.105 197.254 101.975 196.683 101.975 196.034C101.975 195.347 102.103 194.751 102.359 194.246C102.619 193.741 102.981 193.351 103.443 193.075C103.905 192.799 104.443 192.662 105.056 192.662C105.697 192.662 106.243 192.811 106.693 193.11C107.144 193.405 107.48 193.827 107.701 194.374C107.926 194.922 108.016 195.572 107.969 196.326H106.752V195.883C106.744 195.153 106.604 194.613 106.332 194.263C106.064 193.914 105.654 193.739 105.103 193.739C104.493 193.739 104.035 193.931 103.728 194.316C103.421 194.7 103.268 195.256 103.268 195.982C103.268 196.673 103.421 197.209 103.728 197.59C104.035 197.966 104.478 198.155 105.056 198.155C105.437 198.155 105.765 198.069 106.041 197.898C106.32 197.724 106.538 197.475 106.693 197.153L107.887 197.531C107.643 198.095 107.272 198.531 106.775 198.842C106.278 199.149 105.724 199.302 105.115 199.302ZM102.872 196.326V195.376H107.363V196.326H102.872ZM111.725 199.128V190.739H112.942V197.98H116.74V199.128H111.725ZM117.846 191.805V190.623H119.063V191.805H117.846ZM117.846 199.128V192.836H119.063V199.128H117.846ZM123.218 199.296C122.453 199.296 121.83 199.128 121.349 198.79C120.867 198.452 120.572 197.976 120.463 197.363L121.71 197.17C121.787 197.496 121.966 197.755 122.246 197.945C122.529 198.131 122.881 198.225 123.3 198.225C123.681 198.225 123.978 198.147 124.191 197.992C124.409 197.836 124.517 197.623 124.517 197.351C124.517 197.192 124.479 197.063 124.401 196.966C124.327 196.865 124.17 196.77 123.929 196.681C123.688 196.592 123.321 196.481 122.828 196.349C122.288 196.209 121.859 196.06 121.541 195.9C121.226 195.737 121.001 195.549 120.865 195.335C120.733 195.118 120.667 194.856 120.667 194.549C120.667 194.168 120.768 193.836 120.97 193.553C121.172 193.269 121.455 193.05 121.82 192.895C122.189 192.739 122.62 192.662 123.114 192.662C123.595 192.662 124.024 192.737 124.401 192.889C124.778 193.04 125.083 193.256 125.316 193.535C125.549 193.811 125.688 194.135 125.735 194.508L124.488 194.735C124.446 194.432 124.304 194.194 124.063 194.019C123.822 193.844 123.51 193.749 123.125 193.733C122.756 193.718 122.457 193.78 122.228 193.92C121.999 194.056 121.884 194.244 121.884 194.485C121.884 194.625 121.927 194.743 122.013 194.84C122.102 194.937 122.273 195.03 122.525 195.12C122.778 195.209 123.151 195.316 123.644 195.44C124.172 195.576 124.591 195.728 124.902 195.895C125.213 196.058 125.434 196.254 125.566 196.483C125.702 196.708 125.77 196.982 125.77 197.304C125.77 197.926 125.543 198.413 125.088 198.766C124.638 199.12 124.015 199.296 123.218 199.296ZM130.659 199.128C130.263 199.205 129.874 199.238 129.494 199.227C129.113 199.215 128.773 199.141 128.474 199.005C128.175 198.869 127.95 198.656 127.799 198.364C127.663 198.104 127.589 197.84 127.577 197.572C127.57 197.3 127.566 196.994 127.566 196.652V191.089H128.789V196.594C128.789 196.846 128.791 197.065 128.795 197.252C128.803 197.438 128.843 197.596 128.917 197.724C129.057 197.964 129.278 198.102 129.581 198.137C129.888 198.168 130.247 198.155 130.659 198.096V199.128ZM126.36 193.815V192.836H130.659V193.815H126.36ZM132.102 191.805V190.623H133.319V191.805H132.102ZM132.102 199.128V192.836H133.319V199.128H132.102ZM139.484 199.128V196.034C139.484 195.79 139.463 195.539 139.42 195.283C139.381 195.023 139.304 194.782 139.187 194.561C139.074 194.339 138.913 194.161 138.704 194.025C138.498 193.889 138.228 193.821 137.894 193.821C137.676 193.821 137.471 193.858 137.276 193.931C137.082 194.001 136.911 194.116 136.764 194.275C136.62 194.434 136.505 194.644 136.42 194.904C136.338 195.164 136.298 195.481 136.298 195.854L135.54 195.568C135.54 194.997 135.647 194.495 135.861 194.06C136.074 193.621 136.381 193.279 136.781 193.034C137.181 192.79 137.665 192.667 138.232 192.667C138.667 192.667 139.032 192.737 139.327 192.877C139.622 193.017 139.861 193.201 140.043 193.43C140.23 193.656 140.371 193.902 140.469 194.17C140.566 194.438 140.632 194.7 140.667 194.957C140.702 195.213 140.719 195.438 140.719 195.632V199.128H139.484ZM135.063 199.128V192.836H136.152V194.654H136.298V199.128H135.063ZM144.829 202.098C144.491 202.098 144.163 202.046 143.844 201.941C143.53 201.836 143.242 201.681 142.982 201.475C142.722 201.273 142.506 201.023 142.335 200.724L143.46 200.153C143.596 200.421 143.79 200.617 144.042 200.741C144.295 200.865 144.561 200.928 144.84 200.928C145.186 200.928 145.481 200.865 145.726 200.741C145.97 200.621 146.155 200.438 146.279 200.194C146.407 199.949 146.469 199.646 146.465 199.285V197.526H146.611V192.836H147.689V199.296C147.689 199.463 147.683 199.623 147.671 199.774C147.66 199.926 147.638 200.077 147.607 200.229C147.518 200.652 147.347 201.001 147.095 201.277C146.846 201.553 146.528 201.759 146.139 201.895C145.755 202.03 145.318 202.098 144.829 202.098ZM144.735 199.302C144.149 199.302 143.642 199.157 143.215 198.865C142.792 198.574 142.464 198.178 142.231 197.677C142.001 197.172 141.887 196.605 141.887 195.976C141.887 195.343 142.003 194.778 142.236 194.281C142.469 193.78 142.799 193.386 143.227 193.098C143.658 192.807 144.168 192.662 144.759 192.662C145.353 192.662 145.852 192.807 146.256 193.098C146.664 193.386 146.97 193.78 147.176 194.281C147.386 194.782 147.491 195.347 147.491 195.976C147.491 196.605 147.386 197.17 147.176 197.671C146.966 198.172 146.658 198.57 146.25 198.865C145.842 199.157 145.337 199.302 144.735 199.302ZM144.904 198.201C145.304 198.201 145.631 198.106 145.883 197.916C146.135 197.726 146.32 197.463 146.436 197.13C146.553 196.796 146.611 196.411 146.611 195.976C146.611 195.541 146.551 195.157 146.431 194.823C146.314 194.489 146.131 194.229 145.883 194.042C145.638 193.856 145.326 193.763 144.945 193.763C144.541 193.763 144.209 193.862 143.949 194.06C143.689 194.258 143.495 194.524 143.366 194.858C143.242 195.192 143.18 195.564 143.18 195.976C143.18 196.392 143.242 196.768 143.366 197.106C143.495 197.44 143.685 197.706 143.937 197.904C144.194 198.102 144.516 198.201 144.904 198.201ZM151.73 199.296C150.965 199.296 150.342 199.128 149.86 198.79C149.379 198.452 149.084 197.976 148.975 197.363L150.222 197.17C150.299 197.496 150.478 197.755 150.757 197.945C151.041 198.131 151.392 198.225 151.812 198.225C152.192 198.225 152.49 198.147 152.703 197.992C152.921 197.836 153.029 197.623 153.029 197.351C153.029 197.192 152.99 197.063 152.913 196.966C152.839 196.865 152.682 196.77 152.441 196.681C152.2 196.592 151.833 196.481 151.34 196.349C150.8 196.209 150.371 196.06 150.053 195.9C149.738 195.737 149.513 195.549 149.377 195.335C149.245 195.118 149.179 194.856 149.179 194.549C149.179 194.168 149.28 193.836 149.482 193.553C149.684 193.269 149.967 193.05 150.332 192.895C150.701 192.739 151.132 192.662 151.625 192.662C152.107 192.662 152.536 192.737 152.913 192.889C153.29 193.04 153.594 193.256 153.827 193.535C154.06 193.811 154.2 194.135 154.247 194.508L153 194.735C152.957 194.432 152.816 194.194 152.575 194.019C152.334 193.844 152.022 193.749 151.637 193.733C151.268 193.718 150.969 193.78 150.74 193.92C150.511 194.056 150.396 194.244 150.396 194.485C150.396 194.625 150.439 194.743 150.524 194.84C150.614 194.937 150.785 195.03 151.037 195.12C151.29 195.209 151.662 195.316 152.156 195.44C152.684 195.576 153.103 195.728 153.414 195.895C153.724 196.058 153.946 196.254 154.078 196.483C154.214 196.708 154.282 196.982 154.282 197.304C154.282 197.926 154.055 198.413 153.6 198.766C153.15 199.12 152.526 199.296 151.73 199.296Z" fill="white" />
			<path d="M66.15 230L71.21 217.59H64.8V215.6H73.46V217.59L68.41 230H66.15ZM80.4788 230.3C79.5388 230.3 78.7054 230.113 77.9788 229.74C77.2588 229.36 76.6921 228.833 76.2788 228.16C75.8721 227.487 75.6688 226.707 75.6688 225.82C75.6688 224.993 75.8621 224.237 76.2488 223.55C76.6354 222.863 77.2121 222.323 77.9788 221.93L77.9388 222.65C77.3254 222.27 76.8521 221.797 76.5188 221.23C76.1921 220.657 76.0288 220.017 76.0288 219.31C76.0288 218.49 76.2188 217.78 76.5988 217.18C76.9788 216.58 77.5021 216.117 78.1688 215.79C78.8421 215.463 79.6121 215.3 80.4788 215.3C81.3454 215.3 82.1121 215.463 82.7788 215.79C83.4454 216.117 83.9688 216.58 84.3488 217.18C84.7288 217.78 84.9188 218.49 84.9188 219.31C84.9188 220.017 84.7621 220.653 84.4488 221.22C84.1354 221.787 83.6554 222.263 83.0088 222.65L82.9788 221.95C83.7388 222.323 84.3154 222.857 84.7088 223.55C85.1021 224.237 85.2988 224.993 85.2988 225.82C85.2988 226.707 85.0921 227.487 84.6788 228.16C84.2654 228.833 83.6954 229.36 82.9688 229.74C82.2421 230.113 81.4121 230.3 80.4788 230.3ZM80.4788 228.31C81.2521 228.31 81.8788 228.1 82.3588 227.68C82.8388 227.253 83.0788 226.633 83.0788 225.82C83.0788 225.007 82.8388 224.387 82.3588 223.96C81.8854 223.527 81.2588 223.31 80.4788 223.31C79.6988 223.31 79.0688 223.527 78.5888 223.96C78.1154 224.387 77.8788 225.007 77.8788 225.82C77.8788 226.633 78.1188 227.253 78.5988 227.68C79.0788 228.1 79.7054 228.31 80.4788 228.31ZM80.4788 221.31C81.1388 221.31 81.6721 221.147 82.0788 220.82C82.4921 220.487 82.6988 219.983 82.6988 219.31C82.6988 218.637 82.4921 218.133 82.0788 217.8C81.6721 217.46 81.1388 217.29 80.4788 217.29C79.8188 217.29 79.2821 217.46 78.8688 217.8C78.4554 218.133 78.2488 218.637 78.2488 219.31C78.2488 219.983 78.4554 220.487 78.8688 220.82C79.2821 221.147 79.8188 221.31 80.4788 221.31Z" fill="white" />
			<g opacity="0.8">
				<path d="M261.884 193.835H246.433C244.726 192.683 242.72 192 240.5 192C234.695 192 230 196.695 230 202.5C230 208.305 234.695 213 240.5 213C242.72 213 244.726 212.317 246.433 211.165H261.884C266.665 211.165 270.549 207.28 270.549 202.5C270.549 197.72 266.665 193.835 261.884 193.835ZM231.878 202.5C231.878 197.72 235.762 193.878 240.5 193.878C245.28 193.878 249.122 197.762 249.122 202.5C249.122 207.238 245.238 211.122 240.5 211.122C235.762 211.122 231.878 207.28 231.878 202.5ZM261.884 209.287H248.524C250.061 207.451 251.043 205.104 251.043 202.5C251.043 199.896 250.104 197.549 248.524 195.713H261.884C265.64 195.713 268.671 198.744 268.671 202.5C268.671 206.256 265.64 209.287 261.884 209.287Z" fill="url(#paint4_linear_646_17869)" />
				<path d="M262.695 198.617C262.311 198.232 261.756 198.232 261.372 198.617L258.811 201.178L256.25 198.617C255.866 198.232 255.311 198.232 254.927 198.617C254.543 199.001 254.543 199.556 254.927 199.94L257.488 202.501L254.927 205.062C254.543 205.446 254.543 206.001 254.927 206.385C255.098 206.556 255.354 206.641 255.61 206.641C255.866 206.641 256.079 206.556 256.293 206.385L258.854 203.824L261.415 206.385C261.585 206.556 261.841 206.641 262.098 206.641C262.354 206.641 262.567 206.556 262.78 206.385C263.165 206.001 263.165 205.446 262.78 205.062L260.219 202.501L262.78 199.94C263.037 199.556 263.037 198.958 262.695 198.617Z" fill="url(#paint5_linear_646_17869)" />
			</g>
		</g>
	</g>
	<defs>
		<filter id="filter0_d_646_17869" x="0.899242" y="0.111512" width="333.202" height="324.202" filterUnits="userSpaceOnUse" color-interpolation-filters="sRGB">
			<feFlood flood-opacity="0" result="BackgroundImageFix" />
			<feColorMatrix in="SourceAlpha" type="matrix" values="0 0 0 0 0 0 0 0 0 0 0 0 0 0 0 0 0 0 127 0" result="hardAlpha" />
			<feOffset dy="8.21227" />
			<feGaussianBlur stdDeviation="16.5504" />
			<feComposite in2="hardAlpha" operator="out" />
			<feColorMatrix type="matrix" values="0 0 0 0 0.2 0 0 0 0 0.14902 0 0 0 0 0.682353 0 0 0 0.08 0" />
			<feBlend mode="normal" in2="BackgroundImageFix" result="effect1_dropShadow_646_17869" />
			<feBlend mode="normal" in="SourceGraphic" in2="effect1_dropShadow_646_17869" result="shape" />
		</filter>
		<linearGradient id="paint0_linear_646_17869" x1="52" y1="91" x2="238.794" y2="223.378" gradientUnits="userSpaceOnUse">
			<stop stop-color="#2F8154" />
			<stop offset="1" stop-color="#44D586" />
		</linearGradient>
		<linearGradient id="paint1_linear_646_17869" x1="264.5" y1="108.5" x2="225" y2="132.5" gradientUnits="userSpaceOnUse">
			<stop stop-color="white" />
			<stop offset="1" stop-color="#E7E7E7" stop-opacity="0" />
		</linearGradient>
		<linearGradient id="paint2_linear_646_17869" x1="245.266" y1="114.463" x2="234.313" y2="119.208" gradientUnits="userSpaceOnUse">
			<stop stop-color="white" />
			<stop offset="1" stop-color="#E7E7E7" stop-opacity="0" />
		</linearGradient>
		<linearGradient id="paint3_linear_646_17869" x1="52" y1="176" x2="238.794" y2="308.378" gradientUnits="userSpaceOnUse">
			<stop stop-color="#5B0000" />
			<stop offset="1" stop-color="#D00000" />
		</linearGradient>
		<linearGradient id="paint4_linear_646_17869" x1="259" y1="195.5" x2="236.5" y2="219" gradientUnits="userSpaceOnUse">
			<stop stop-color="#FFD9D9" />
			<stop offset="1" stop-color="white" stop-opacity="0" />
		</linearGradient>
		<linearGradient id="paint5_linear_646_17869" x1="260.668" y1="199.714" x2="253.15" y2="203.838" gradientUnits="userSpaceOnUse">
			<stop stop-color="#FFD9D9" />
			<stop offset="1" stop-color="white" stop-opacity="0" />
		</linearGradient>
		<clipPath id="clip0_646_17869">
			<rect x="52" y="91" width="231" height="70" rx="4.94551" fill="white" />
		</clipPath>
		<clipPath id="clip1_646_17869">
			<rect width="247.276" height="342.404" fill="white" transform="translate(44 109.932)" />
		</clipPath>
		<clipPath id="clip2_646_17869">
			<rect x="52" y="176" width="231" height="70" rx="4.94551" fill="white" />
		</clipPath>
		<clipPath id="clip3_646_17869">
			<rect width="247.276" height="342.404" fill="white" transform="translate(44 194.932)" />
		</clipPath>
	</defs>
</svg>
