<svg width="333" height="421" viewBox="0 0 333 421" fill="none" xmlns="http://www.w3.org/2000/svg">
	<g filter="url(#filter0_d_310_1731)">
		<g filter="url(#filter1_d_310_1731)">
			<rect x="36" y="27" width="267" height="349" rx="4" fill="white" />
		</g>
		<rect x="70.7664" y="287.33" width="6" height="6" rx="3" fill="#FFAA45" />
		<path d="M89.6752 294.574C88.8152 294.574 88.0852 294.384 87.4852 294.004C86.8852 293.624 86.4272 293.096 86.1112 292.42C85.7992 291.744 85.6432 290.962 85.6432 290.074C85.6432 289.186 85.7992 288.404 86.1112 287.728C86.4272 287.052 86.8852 286.524 87.4852 286.144C88.0852 285.764 88.8152 285.574 89.6752 285.574C90.6752 285.574 91.4972 285.828 92.1412 286.336C92.7892 286.844 93.2352 287.528 93.4792 288.388L92.3932 288.676C92.2172 288.032 91.9032 287.524 91.4512 287.152C90.9992 286.78 90.4072 286.594 89.6752 286.594C89.0312 286.594 88.4952 286.74 88.0672 287.032C87.6392 287.324 87.3172 287.732 87.1012 288.256C86.8852 288.776 86.7752 289.382 86.7712 290.074C86.7672 290.762 86.8732 291.368 87.0892 291.892C87.3052 292.412 87.6292 292.82 88.0612 293.116C88.4932 293.408 89.0312 293.554 89.6752 293.554C90.4072 293.554 90.9992 293.368 91.4512 292.996C91.9032 292.62 92.2172 292.112 92.3932 291.472L93.4792 291.76C93.2352 292.616 92.7892 293.3 92.1412 293.812C91.4972 294.32 90.6752 294.574 89.6752 294.574ZM97.5551 294.574C96.9111 294.574 96.3551 294.428 95.8871 294.136C95.4231 293.844 95.0651 293.44 94.8131 292.924C94.5611 292.408 94.4351 291.816 94.4351 291.148C94.4351 290.468 94.5631 289.872 94.8191 289.36C95.0751 288.848 95.4371 288.45 95.9051 288.166C96.3731 287.878 96.9231 287.734 97.5551 287.734C98.2031 287.734 98.7611 287.88 99.2291 288.172C99.6971 288.46 100.055 288.862 100.303 289.378C100.555 289.89 100.681 290.48 100.681 291.148C100.681 291.824 100.555 292.42 100.303 292.936C100.051 293.448 99.6911 293.85 99.2231 294.142C98.7551 294.43 98.1991 294.574 97.5551 294.574ZM97.5551 293.56C98.2271 293.56 98.7271 293.336 99.0551 292.888C99.3831 292.44 99.5471 291.86 99.5471 291.148C99.5471 290.416 99.3811 289.834 99.0491 289.402C98.7171 288.966 98.2191 288.748 97.5551 288.748C97.1031 288.748 96.7311 288.85 96.4391 289.054C96.1471 289.258 95.9291 289.54 95.7851 289.9C95.6411 290.26 95.5691 290.676 95.5691 291.148C95.5691 291.876 95.7371 292.46 96.0731 292.9C96.4091 293.34 96.9031 293.56 97.5551 293.56ZM109.748 294.394L109.754 290.248C109.754 289.764 109.624 289.386 109.364 289.114C109.108 288.838 108.774 288.7 108.362 288.7C108.122 288.7 107.894 288.756 107.678 288.868C107.462 288.976 107.286 289.148 107.15 289.384C107.014 289.616 106.946 289.914 106.946 290.278L106.382 290.05C106.374 289.59 106.468 289.188 106.664 288.844C106.864 288.496 107.136 288.226 107.48 288.034C107.824 287.842 108.212 287.746 108.644 287.746C109.32 287.746 109.852 287.952 110.24 288.364C110.628 288.772 110.822 289.322 110.822 290.014L110.816 294.394H109.748ZM101.996 294.394V287.914H102.95V289.648H103.07V294.394H101.996ZM105.878 294.394L105.884 290.29C105.884 289.794 105.756 289.406 105.5 289.126C105.244 288.842 104.904 288.7 104.48 288.7C104.06 288.7 103.72 288.844 103.46 289.132C103.2 289.42 103.07 289.802 103.07 290.278L102.506 289.942C102.506 289.522 102.606 289.146 102.806 288.814C103.006 288.482 103.278 288.222 103.622 288.034C103.966 287.842 104.356 287.746 104.792 287.746C105.228 287.746 105.608 287.838 105.932 288.022C106.256 288.206 106.506 288.47 106.682 288.814C106.858 289.154 106.946 289.56 106.946 290.032L106.94 294.394H105.878ZM115.361 294.574C114.753 294.574 114.241 294.424 113.825 294.124C113.409 293.82 113.093 293.41 112.877 292.894C112.665 292.374 112.559 291.792 112.559 291.148C112.559 290.496 112.665 289.912 112.877 289.396C113.093 288.88 113.409 288.474 113.825 288.178C114.245 287.882 114.759 287.734 115.367 287.734C115.967 287.734 116.483 287.884 116.915 288.184C117.351 288.48 117.685 288.886 117.917 289.402C118.149 289.918 118.265 290.5 118.265 291.148C118.265 291.796 118.149 292.378 117.917 292.894C117.685 293.41 117.351 293.82 116.915 294.124C116.483 294.424 115.965 294.574 115.361 294.574ZM112.379 297.274V287.914H113.333V292.684H113.453V297.274H112.379ZM115.229 293.596C115.657 293.596 116.011 293.488 116.291 293.272C116.571 293.056 116.781 292.764 116.921 292.396C117.061 292.024 117.131 291.608 117.131 291.148C117.131 290.692 117.061 290.28 116.921 289.912C116.785 289.544 116.573 289.252 116.285 289.036C116.001 288.82 115.639 288.712 115.199 288.712C114.779 288.712 114.431 288.816 114.155 289.024C113.879 289.228 113.673 289.514 113.537 289.882C113.401 290.246 113.333 290.668 113.333 291.148C113.333 291.62 113.399 292.042 113.531 292.414C113.667 292.782 113.875 293.072 114.155 293.284C114.435 293.492 114.793 293.596 115.229 293.596ZM121.422 294.574C120.938 294.574 120.532 294.486 120.204 294.31C119.88 294.13 119.634 293.894 119.466 293.602C119.302 293.31 119.22 292.99 119.22 292.642C119.22 292.302 119.284 292.008 119.412 291.76C119.544 291.508 119.728 291.3 119.964 291.136C120.2 290.968 120.482 290.836 120.81 290.74C121.118 290.656 121.462 290.584 121.842 290.524C122.226 290.46 122.614 290.402 123.006 290.35C123.398 290.298 123.764 290.248 124.104 290.2L123.72 290.422C123.732 289.846 123.616 289.42 123.372 289.144C123.132 288.868 122.716 288.73 122.124 288.73C121.732 288.73 121.388 288.82 121.092 289C120.8 289.176 120.594 289.464 120.474 289.864L119.46 289.558C119.616 288.99 119.918 288.544 120.366 288.22C120.814 287.896 121.404 287.734 122.136 287.734C122.724 287.734 123.228 287.84 123.648 288.052C124.072 288.26 124.376 288.576 124.56 289C124.652 289.2 124.71 289.418 124.734 289.654C124.758 289.886 124.77 290.13 124.77 290.386V294.394H123.822V292.84L124.044 292.984C123.8 293.508 123.458 293.904 123.018 294.172C122.582 294.44 122.05 294.574 121.422 294.574ZM121.584 293.68C121.968 293.68 122.3 293.612 122.58 293.476C122.864 293.336 123.092 293.154 123.264 292.93C123.436 292.702 123.548 292.454 123.6 292.186C123.66 291.986 123.692 291.764 123.696 291.52C123.704 291.272 123.708 291.082 123.708 290.95L124.08 291.112C123.732 291.16 123.39 291.206 123.054 291.25C122.718 291.294 122.4 291.342 122.1 291.394C121.8 291.442 121.53 291.5 121.29 291.568C121.114 291.624 120.948 291.696 120.792 291.784C120.64 291.872 120.516 291.986 120.42 292.126C120.328 292.262 120.282 292.432 120.282 292.636C120.282 292.812 120.326 292.98 120.414 293.14C120.506 293.3 120.646 293.43 120.834 293.53C121.026 293.63 121.276 293.68 121.584 293.68ZM130.944 294.394V291.148C130.944 290.84 130.916 290.544 130.86 290.26C130.808 289.976 130.714 289.722 130.578 289.498C130.446 289.27 130.266 289.09 130.038 288.958C129.814 288.826 129.53 288.76 129.186 288.76C128.918 288.76 128.674 288.806 128.454 288.898C128.238 288.986 128.052 289.122 127.896 289.306C127.74 289.49 127.618 289.722 127.53 290.002C127.446 290.278 127.404 290.604 127.404 290.98L126.702 290.764C126.702 290.136 126.814 289.598 127.038 289.15C127.266 288.698 127.584 288.352 127.992 288.112C128.404 287.868 128.888 287.746 129.444 287.746C129.864 287.746 130.222 287.812 130.518 287.944C130.814 288.076 131.06 288.252 131.256 288.472C131.452 288.688 131.606 288.932 131.718 289.204C131.83 289.472 131.908 289.746 131.952 290.026C132 290.302 132.024 290.564 132.024 290.812V294.394H130.944ZM126.324 294.394V287.914H127.284V289.648H127.404V294.394H126.324ZM133.704 286.768V285.664H134.772V286.768H133.704ZM133.704 294.394V287.914H134.772V294.394H133.704ZM139.38 294.574C138.744 294.574 138.188 294.434 137.712 294.154C137.24 293.87 136.872 293.476 136.608 292.972C136.344 292.464 136.212 291.872 136.212 291.196C136.212 290.488 136.342 289.876 136.602 289.36C136.862 288.84 137.224 288.44 137.688 288.16C138.156 287.876 138.704 287.734 139.332 287.734C139.984 287.734 140.538 287.884 140.994 288.184C141.454 288.484 141.798 288.912 142.026 289.468C142.258 290.024 142.358 290.686 142.326 291.454H141.246V291.07C141.234 290.274 141.072 289.68 140.76 289.288C140.448 288.892 139.984 288.694 139.368 288.694C138.708 288.694 138.206 288.906 137.862 289.33C137.518 289.754 137.346 290.362 137.346 291.154C137.346 291.918 137.518 292.51 137.862 292.93C138.206 293.35 138.696 293.56 139.332 293.56C139.76 293.56 140.132 293.462 140.448 293.266C140.764 293.07 141.012 292.788 141.192 292.42L142.218 292.774C141.966 293.346 141.586 293.79 141.078 294.106C140.574 294.418 140.008 294.574 139.38 294.574ZM136.986 291.454V290.596H141.774V291.454H136.986ZM146.11 294.568C145.338 294.568 144.704 294.4 144.208 294.064C143.716 293.724 143.414 293.25 143.302 292.642L144.394 292.468C144.482 292.82 144.684 293.1 145 293.308C145.316 293.512 145.708 293.614 146.176 293.614C146.62 293.614 146.968 293.522 147.22 293.338C147.472 293.154 147.598 292.904 147.598 292.588C147.598 292.404 147.556 292.256 147.472 292.144C147.388 292.028 147.214 291.92 146.95 291.82C146.69 291.72 146.296 291.6 145.768 291.46C145.196 291.308 144.746 291.15 144.418 290.986C144.09 290.822 143.856 290.632 143.716 290.416C143.576 290.2 143.506 289.938 143.506 289.63C143.506 289.25 143.61 288.918 143.818 288.634C144.026 288.346 144.316 288.124 144.688 287.968C145.064 287.812 145.5 287.734 145.996 287.734C146.488 287.734 146.928 287.812 147.316 287.968C147.704 288.124 148.016 288.346 148.252 288.634C148.492 288.918 148.634 289.25 148.678 289.63L147.586 289.828C147.534 289.48 147.366 289.206 147.082 289.006C146.802 288.806 146.44 288.7 145.996 288.688C145.576 288.672 145.234 288.746 144.97 288.91C144.71 289.074 144.58 289.296 144.58 289.576C144.58 289.732 144.628 289.866 144.724 289.978C144.824 290.09 145.006 290.196 145.27 290.296C145.538 290.396 145.926 290.51 146.434 290.638C147.006 290.782 147.456 290.94 147.784 291.112C148.116 291.28 148.352 291.48 148.492 291.712C148.632 291.94 148.702 292.222 148.702 292.558C148.702 293.182 148.472 293.674 148.012 294.034C147.552 294.39 146.918 294.568 146.11 294.568Z" fill="#001749" />
		<rect x="175.637" y="288.206" width="4.8" height="4.8" rx="2.4" fill="#001749" />
		<path d="M188.325 294.606V285.966H191.739C191.823 285.966 191.923 285.97 192.039 285.978C192.155 285.982 192.267 285.994 192.375 286.014C192.843 286.086 193.235 286.246 193.551 286.494C193.871 286.742 194.111 287.056 194.271 287.436C194.431 287.812 194.511 288.23 194.511 288.69C194.511 289.146 194.429 289.564 194.265 289.944C194.105 290.32 193.865 290.634 193.545 290.886C193.229 291.134 192.839 291.294 192.375 291.366C192.267 291.382 192.155 291.394 192.039 291.402C191.923 291.41 191.823 291.414 191.739 291.414H189.393V294.606H188.325ZM189.393 290.4H191.703C191.779 290.4 191.865 290.396 191.961 290.388C192.061 290.38 192.155 290.366 192.243 290.346C192.519 290.282 192.743 290.166 192.915 289.998C193.091 289.826 193.219 289.626 193.299 289.398C193.379 289.166 193.419 288.93 193.419 288.69C193.419 288.45 193.379 288.216 193.299 287.988C193.219 287.756 193.091 287.554 192.915 287.382C192.743 287.21 192.519 287.094 192.243 287.034C192.155 287.01 192.061 286.996 191.961 286.992C191.865 286.984 191.779 286.98 191.703 286.98H189.393V290.4ZM195.708 294.606V288.126H196.662V289.692L196.506 289.488C196.582 289.288 196.68 289.104 196.8 288.936C196.924 288.768 197.062 288.63 197.214 288.522C197.382 288.386 197.572 288.282 197.784 288.21C197.996 288.138 198.212 288.096 198.432 288.084C198.652 288.068 198.858 288.082 199.05 288.126V289.128C198.826 289.068 198.58 289.052 198.312 289.08C198.044 289.108 197.796 289.206 197.568 289.374C197.36 289.522 197.198 289.702 197.082 289.914C196.97 290.126 196.892 290.356 196.848 290.604C196.804 290.848 196.782 291.098 196.782 291.354V294.606H195.708ZM202.827 294.786C202.183 294.786 201.627 294.64 201.159 294.348C200.695 294.056 200.337 293.652 200.085 293.136C199.833 292.62 199.707 292.028 199.707 291.36C199.707 290.68 199.835 290.084 200.091 289.572C200.347 289.06 200.709 288.662 201.177 288.378C201.645 288.09 202.195 287.946 202.827 287.946C203.475 287.946 204.033 288.092 204.501 288.384C204.969 288.672 205.327 289.074 205.575 289.59C205.827 290.102 205.953 290.692 205.953 291.36C205.953 292.036 205.827 292.632 205.575 293.148C205.323 293.66 204.963 294.062 204.495 294.354C204.027 294.642 203.471 294.786 202.827 294.786ZM202.827 293.772C203.499 293.772 203.999 293.548 204.327 293.1C204.655 292.652 204.819 292.072 204.819 291.36C204.819 290.628 204.653 290.046 204.321 289.614C203.989 289.178 203.491 288.96 202.827 288.96C202.375 288.96 202.003 289.062 201.711 289.266C201.419 289.47 201.201 289.752 201.057 290.112C200.913 290.472 200.841 290.888 200.841 291.36C200.841 292.088 201.009 292.672 201.345 293.112C201.681 293.552 202.175 293.772 202.827 293.772ZM210.25 294.786C209.642 294.786 209.13 294.636 208.714 294.336C208.298 294.032 207.982 293.622 207.766 293.106C207.554 292.586 207.448 292.004 207.448 291.36C207.448 290.708 207.554 290.124 207.766 289.608C207.982 289.092 208.298 288.686 208.714 288.39C209.134 288.094 209.648 287.946 210.256 287.946C210.856 287.946 211.372 288.096 211.804 288.396C212.24 288.692 212.574 289.098 212.806 289.614C213.038 290.13 213.154 290.712 213.154 291.36C213.154 292.008 213.038 292.59 212.806 293.106C212.574 293.622 212.24 294.032 211.804 294.336C211.372 294.636 210.854 294.786 210.25 294.786ZM207.268 297.486V288.126H208.222V292.896H208.342V297.486H207.268ZM210.118 293.808C210.546 293.808 210.9 293.7 211.18 293.484C211.46 293.268 211.67 292.976 211.81 292.608C211.95 292.236 212.02 291.82 212.02 291.36C212.02 290.904 211.95 290.492 211.81 290.124C211.674 289.756 211.462 289.464 211.174 289.248C210.89 289.032 210.528 288.924 210.088 288.924C209.668 288.924 209.32 289.028 209.044 289.236C208.768 289.44 208.562 289.726 208.426 290.094C208.29 290.458 208.222 290.88 208.222 291.36C208.222 291.832 208.288 292.254 208.42 292.626C208.556 292.994 208.764 293.284 209.044 293.496C209.324 293.704 209.682 293.808 210.118 293.808ZM217.278 294.786C216.642 294.786 216.086 294.646 215.61 294.366C215.138 294.082 214.77 293.688 214.506 293.184C214.242 292.676 214.11 292.084 214.11 291.408C214.11 290.7 214.24 290.088 214.5 289.572C214.76 289.052 215.122 288.652 215.586 288.372C216.054 288.088 216.602 287.946 217.23 287.946C217.882 287.946 218.436 288.096 218.892 288.396C219.352 288.696 219.696 289.124 219.924 289.68C220.156 290.236 220.256 290.898 220.224 291.666H219.144V291.282C219.132 290.486 218.97 289.892 218.658 289.5C218.346 289.104 217.882 288.906 217.266 288.906C216.606 288.906 216.104 289.118 215.76 289.542C215.416 289.966 215.244 290.574 215.244 291.366C215.244 292.13 215.416 292.722 215.76 293.142C216.104 293.562 216.594 293.772 217.23 293.772C217.658 293.772 218.03 293.674 218.346 293.478C218.662 293.282 218.91 293 219.09 292.632L220.116 292.986C219.864 293.558 219.484 294.002 218.976 294.318C218.472 294.63 217.906 294.786 217.278 294.786ZM214.884 291.666V290.808H219.672V291.666H214.884ZM221.559 294.606V288.126H222.513V289.692L222.357 289.488C222.433 289.288 222.531 289.104 222.651 288.936C222.775 288.768 222.913 288.63 223.065 288.522C223.233 288.386 223.423 288.282 223.635 288.21C223.847 288.138 224.063 288.096 224.283 288.084C224.503 288.068 224.709 288.082 224.901 288.126V289.128C224.677 289.068 224.431 289.052 224.163 289.08C223.895 289.108 223.647 289.206 223.419 289.374C223.211 289.522 223.049 289.702 222.933 289.914C222.821 290.126 222.743 290.356 222.699 290.604C222.655 290.848 222.633 291.098 222.633 291.354V294.606H221.559ZM229.654 294.606C229.27 294.682 228.89 294.712 228.514 294.696C228.142 294.684 227.81 294.61 227.518 294.474C227.226 294.334 227.004 294.118 226.852 293.826C226.724 293.57 226.654 293.312 226.642 293.052C226.634 292.788 226.63 292.49 226.63 292.158V286.326H227.698V292.11C227.698 292.374 227.7 292.6 227.704 292.788C227.712 292.976 227.754 293.138 227.83 293.274C227.974 293.53 228.202 293.68 228.514 293.724C228.83 293.768 229.21 293.756 229.654 293.688V294.606ZM225.316 289.008V288.126H229.654V289.008H225.316ZM231.694 297.486L232.948 294.078L232.966 295.086L230.134 288.126H231.256L233.476 293.724H233.092L235.174 288.126H236.26L232.732 297.486H231.694ZM243.205 294.786C242.345 294.786 241.615 294.596 241.015 294.216C240.415 293.836 239.957 293.308 239.641 292.632C239.329 291.956 239.173 291.174 239.173 290.286C239.173 289.398 239.329 288.616 239.641 287.94C239.957 287.264 240.415 286.736 241.015 286.356C241.615 285.976 242.345 285.786 243.205 285.786C244.069 285.786 244.801 285.976 245.401 286.356C246.001 286.736 246.457 287.264 246.769 287.94C247.081 288.616 247.237 289.398 247.237 290.286C247.237 291.174 247.081 291.956 246.769 292.632C246.457 293.308 246.001 293.836 245.401 294.216C244.801 294.596 244.069 294.786 243.205 294.786ZM243.205 293.766C243.849 293.77 244.385 293.626 244.813 293.334C245.245 293.038 245.567 292.628 245.779 292.104C245.995 291.58 246.103 290.974 246.103 290.286C246.103 289.594 245.995 288.988 245.779 288.468C245.567 287.948 245.245 287.542 244.813 287.25C244.385 286.958 243.849 286.81 243.205 286.806C242.561 286.802 242.025 286.946 241.597 287.238C241.173 287.53 240.853 287.938 240.637 288.462C240.421 288.986 240.311 289.594 240.307 290.286C240.303 290.974 240.409 291.578 240.625 292.098C240.841 292.618 241.163 293.026 241.591 293.322C242.023 293.614 242.561 293.762 243.205 293.766ZM249.822 294.606L247.842 288.12L248.904 288.126L250.35 292.866L251.808 288.126H252.75L254.202 292.866L255.654 288.126H256.71L254.73 294.606H253.842L252.276 289.68L250.71 294.606H249.822ZM262.408 294.606V291.36C262.408 291.052 262.38 290.756 262.324 290.472C262.272 290.188 262.178 289.934 262.042 289.71C261.91 289.482 261.73 289.302 261.502 289.17C261.278 289.038 260.994 288.972 260.65 288.972C260.382 288.972 260.138 289.018 259.918 289.11C259.702 289.198 259.516 289.334 259.36 289.518C259.204 289.702 259.082 289.934 258.994 290.214C258.91 290.49 258.868 290.816 258.868 291.192L258.166 290.976C258.166 290.348 258.278 289.81 258.502 289.362C258.73 288.91 259.048 288.564 259.456 288.324C259.868 288.08 260.352 287.958 260.908 287.958C261.328 287.958 261.686 288.024 261.982 288.156C262.278 288.288 262.524 288.464 262.72 288.684C262.916 288.9 263.07 289.144 263.182 289.416C263.294 289.684 263.372 289.958 263.416 290.238C263.464 290.514 263.488 290.776 263.488 291.024V294.606H262.408ZM257.788 294.606V288.126H258.748V289.86H258.868V294.606H257.788ZM267.797 294.786C267.161 294.786 266.605 294.646 266.129 294.366C265.657 294.082 265.289 293.688 265.025 293.184C264.761 292.676 264.629 292.084 264.629 291.408C264.629 290.7 264.759 290.088 265.019 289.572C265.279 289.052 265.641 288.652 266.105 288.372C266.573 288.088 267.121 287.946 267.749 287.946C268.401 287.946 268.955 288.096 269.411 288.396C269.871 288.696 270.215 289.124 270.443 289.68C270.675 290.236 270.775 290.898 270.743 291.666H269.663V291.282C269.651 290.486 269.489 289.892 269.177 289.5C268.865 289.104 268.401 288.906 267.785 288.906C267.125 288.906 266.623 289.118 266.279 289.542C265.935 289.966 265.763 290.574 265.763 291.366C265.763 292.13 265.935 292.722 266.279 293.142C266.623 293.562 267.113 293.772 267.749 293.772C268.177 293.772 268.549 293.674 268.865 293.478C269.181 293.282 269.429 293 269.609 292.632L270.635 292.986C270.383 293.558 270.003 294.002 269.495 294.318C268.991 294.63 268.425 294.786 267.797 294.786ZM265.403 291.666V290.808H270.191V291.666H265.403ZM272.079 294.606V288.126H273.033V289.692L272.877 289.488C272.953 289.288 273.051 289.104 273.171 288.936C273.295 288.768 273.433 288.63 273.585 288.522C273.753 288.386 273.943 288.282 274.155 288.21C274.367 288.138 274.583 288.096 274.803 288.084C275.023 288.068 275.229 288.082 275.421 288.126V289.128C275.197 289.068 274.951 289.052 274.683 289.08C274.415 289.108 274.167 289.206 273.939 289.374C273.731 289.522 273.569 289.702 273.453 289.914C273.341 290.126 273.263 290.356 273.219 290.604C273.175 290.848 273.153 291.098 273.153 291.354V294.606H272.079ZM278.769 294.78C277.997 294.78 277.363 294.612 276.867 294.276C276.375 293.936 276.073 293.462 275.961 292.854L277.053 292.68C277.141 293.032 277.343 293.312 277.659 293.52C277.975 293.724 278.367 293.826 278.835 293.826C279.279 293.826 279.627 293.734 279.879 293.55C280.131 293.366 280.257 293.116 280.257 292.8C280.257 292.616 280.215 292.468 280.131 292.356C280.047 292.24 279.873 292.132 279.609 292.032C279.349 291.932 278.955 291.812 278.427 291.672C277.855 291.52 277.405 291.362 277.077 291.198C276.749 291.034 276.515 290.844 276.375 290.628C276.235 290.412 276.165 290.15 276.165 289.842C276.165 289.462 276.269 289.13 276.477 288.846C276.685 288.558 276.975 288.336 277.347 288.18C277.723 288.024 278.159 287.946 278.655 287.946C279.147 287.946 279.587 288.024 279.975 288.18C280.363 288.336 280.675 288.558 280.911 288.846C281.151 289.13 281.293 289.462 281.337 289.842L280.245 290.04C280.193 289.692 280.025 289.418 279.741 289.218C279.461 289.018 279.099 288.912 278.655 288.9C278.235 288.884 277.893 288.958 277.629 289.122C277.369 289.286 277.239 289.508 277.239 289.788C277.239 289.944 277.287 290.078 277.383 290.19C277.483 290.302 277.665 290.408 277.929 290.508C278.197 290.608 278.585 290.722 279.093 290.85C279.665 290.994 280.115 291.152 280.443 291.324C280.775 291.492 281.011 291.692 281.151 291.924C281.291 292.152 281.361 292.434 281.361 292.77C281.361 293.394 281.131 293.886 280.671 294.246C280.211 294.602 279.577 294.78 278.769 294.78Z" fill="#001749" />
		<rect x="71.0251" y="308.542" width="6" height="6" rx="3" fill="#C40101" />
		<path d="M86.3742 315.606V306.966H87.4542L91.9602 313.716V306.966H93.0402V315.606H91.9602L87.4542 308.85V315.606H86.3742ZM97.4779 315.786C96.8339 315.786 96.2779 315.64 95.8099 315.348C95.3459 315.056 94.9879 314.652 94.7359 314.136C94.4839 313.62 94.3579 313.028 94.3579 312.36C94.3579 311.68 94.4859 311.084 94.7419 310.572C94.9979 310.06 95.3599 309.662 95.8279 309.378C96.2959 309.09 96.8459 308.946 97.4779 308.946C98.1259 308.946 98.6839 309.092 99.1519 309.384C99.6199 309.672 99.9779 310.074 100.226 310.59C100.478 311.102 100.604 311.692 100.604 312.36C100.604 313.036 100.478 313.632 100.226 314.148C99.9739 314.66 99.6139 315.062 99.1459 315.354C98.6779 315.642 98.1219 315.786 97.4779 315.786ZM97.4779 314.772C98.1499 314.772 98.6499 314.548 98.9779 314.1C99.3059 313.652 99.4699 313.072 99.4699 312.36C99.4699 311.628 99.3039 311.046 98.9719 310.614C98.6399 310.178 98.1419 309.96 97.4779 309.96C97.0259 309.96 96.6539 310.062 96.3619 310.266C96.0699 310.47 95.8519 310.752 95.7079 311.112C95.5639 311.472 95.4919 311.888 95.4919 312.36C95.4919 313.088 95.6599 313.672 95.9959 314.112C96.3319 314.552 96.8259 314.772 97.4779 314.772ZM101.925 315.606V309.126H102.879V310.692L102.723 310.488C102.799 310.288 102.897 310.104 103.017 309.936C103.141 309.768 103.279 309.63 103.431 309.522C103.599 309.386 103.789 309.282 104.001 309.21C104.213 309.138 104.429 309.096 104.649 309.084C104.869 309.068 105.075 309.082 105.267 309.126V310.128C105.043 310.068 104.797 310.052 104.529 310.08C104.261 310.108 104.013 310.206 103.785 310.374C103.577 310.522 103.415 310.702 103.299 310.914C103.187 311.126 103.109 311.356 103.065 311.604C103.021 311.848 102.999 312.098 102.999 312.354V315.606H101.925ZM114.148 315.606L114.154 311.46C114.154 310.976 114.024 310.598 113.764 310.326C113.508 310.05 113.174 309.912 112.762 309.912C112.522 309.912 112.294 309.968 112.078 310.08C111.862 310.188 111.686 310.36 111.55 310.596C111.414 310.828 111.346 311.126 111.346 311.49L110.782 311.262C110.774 310.802 110.868 310.4 111.064 310.056C111.264 309.708 111.536 309.438 111.88 309.246C112.224 309.054 112.612 308.958 113.044 308.958C113.72 308.958 114.252 309.164 114.64 309.576C115.028 309.984 115.222 310.534 115.222 311.226L115.216 315.606H114.148ZM106.396 315.606V309.126H107.35V310.86H107.47V315.606H106.396ZM110.278 315.606L110.284 311.502C110.284 311.006 110.156 310.618 109.9 310.338C109.644 310.054 109.304 309.912 108.88 309.912C108.46 309.912 108.12 310.056 107.86 310.344C107.6 310.632 107.47 311.014 107.47 311.49L106.906 311.154C106.906 310.734 107.006 310.358 107.206 310.026C107.406 309.694 107.678 309.434 108.022 309.246C108.366 309.054 108.756 308.958 109.192 308.958C109.628 308.958 110.008 309.05 110.332 309.234C110.656 309.418 110.906 309.682 111.082 310.026C111.258 310.366 111.346 310.772 111.346 311.244L111.34 315.606H110.278ZM118.626 315.786C118.142 315.786 117.736 315.698 117.408 315.522C117.084 315.342 116.838 315.106 116.67 314.814C116.506 314.522 116.424 314.202 116.424 313.854C116.424 313.514 116.488 313.22 116.616 312.972C116.748 312.72 116.932 312.512 117.168 312.348C117.404 312.18 117.686 312.048 118.014 311.952C118.322 311.868 118.666 311.796 119.046 311.736C119.43 311.672 119.818 311.614 120.21 311.562C120.602 311.51 120.968 311.46 121.308 311.412L120.924 311.634C120.936 311.058 120.82 310.632 120.576 310.356C120.336 310.08 119.92 309.942 119.328 309.942C118.936 309.942 118.592 310.032 118.296 310.212C118.004 310.388 117.798 310.676 117.678 311.076L116.664 310.77C116.82 310.202 117.122 309.756 117.57 309.432C118.018 309.108 118.608 308.946 119.34 308.946C119.928 308.946 120.432 309.052 120.852 309.264C121.276 309.472 121.58 309.788 121.764 310.212C121.856 310.412 121.914 310.63 121.938 310.866C121.962 311.098 121.974 311.342 121.974 311.598V315.606H121.026V314.052L121.248 314.196C121.004 314.72 120.662 315.116 120.222 315.384C119.786 315.652 119.254 315.786 118.626 315.786ZM118.788 314.892C119.172 314.892 119.504 314.824 119.784 314.688C120.068 314.548 120.296 314.366 120.468 314.142C120.64 313.914 120.752 313.666 120.804 313.398C120.864 313.198 120.896 312.976 120.9 312.732C120.908 312.484 120.912 312.294 120.912 312.162L121.284 312.324C120.936 312.372 120.594 312.418 120.258 312.462C119.922 312.506 119.604 312.554 119.304 312.606C119.004 312.654 118.734 312.712 118.494 312.78C118.318 312.836 118.152 312.908 117.996 312.996C117.844 313.084 117.72 313.198 117.624 313.338C117.532 313.474 117.486 313.644 117.486 313.848C117.486 314.024 117.53 314.192 117.618 314.352C117.71 314.512 117.85 314.642 118.038 314.742C118.23 314.842 118.48 314.892 118.788 314.892ZM123.654 315.606V306.786H124.722V315.606H123.654ZM134.735 315.786C134.067 315.786 133.477 315.648 132.965 315.372C132.453 315.096 132.051 314.71 131.759 314.214C131.471 313.714 131.327 313.128 131.327 312.456V306.972L132.407 306.966V312.366C132.407 312.774 132.475 313.13 132.611 313.434C132.751 313.734 132.935 313.984 133.163 314.184C133.391 314.384 133.641 314.534 133.913 314.634C134.189 314.73 134.463 314.778 134.735 314.778C135.011 314.778 135.287 314.728 135.563 314.628C135.839 314.528 136.089 314.38 136.313 314.184C136.541 313.984 136.723 313.732 136.859 313.428C136.995 313.124 137.063 312.77 137.063 312.366V306.966H138.143V312.456C138.143 313.124 137.997 313.708 137.705 314.208C137.417 314.708 137.017 315.096 136.505 315.372C135.993 315.648 135.403 315.786 134.735 315.786ZM142.271 315.78C141.499 315.78 140.865 315.612 140.369 315.276C139.877 314.936 139.575 314.462 139.463 313.854L140.555 313.68C140.643 314.032 140.845 314.312 141.161 314.52C141.477 314.724 141.869 314.826 142.337 314.826C142.781 314.826 143.129 314.734 143.381 314.55C143.633 314.366 143.759 314.116 143.759 313.8C143.759 313.616 143.717 313.468 143.633 313.356C143.549 313.24 143.375 313.132 143.111 313.032C142.851 312.932 142.457 312.812 141.929 312.672C141.357 312.52 140.907 312.362 140.579 312.198C140.251 312.034 140.017 311.844 139.877 311.628C139.737 311.412 139.667 311.15 139.667 310.842C139.667 310.462 139.771 310.13 139.979 309.846C140.187 309.558 140.477 309.336 140.849 309.18C141.225 309.024 141.661 308.946 142.157 308.946C142.649 308.946 143.089 309.024 143.477 309.18C143.865 309.336 144.177 309.558 144.413 309.846C144.653 310.13 144.795 310.462 144.839 310.842L143.747 311.04C143.695 310.692 143.527 310.418 143.243 310.218C142.963 310.018 142.601 309.912 142.157 309.9C141.737 309.884 141.395 309.958 141.131 310.122C140.871 310.286 140.741 310.508 140.741 310.788C140.741 310.944 140.789 311.078 140.885 311.19C140.985 311.302 141.167 311.408 141.431 311.508C141.699 311.608 142.087 311.722 142.595 311.85C143.167 311.994 143.617 312.152 143.945 312.324C144.277 312.492 144.513 312.692 144.653 312.924C144.793 313.152 144.863 313.434 144.863 313.77C144.863 314.394 144.633 314.886 144.173 315.246C143.713 315.602 143.079 315.78 142.271 315.78ZM148.995 315.786C148.359 315.786 147.803 315.646 147.327 315.366C146.855 315.082 146.487 314.688 146.223 314.184C145.959 313.676 145.827 313.084 145.827 312.408C145.827 311.7 145.957 311.088 146.217 310.572C146.477 310.052 146.839 309.652 147.303 309.372C147.771 309.088 148.319 308.946 148.947 308.946C149.599 308.946 150.153 309.096 150.609 309.396C151.069 309.696 151.413 310.124 151.641 310.68C151.873 311.236 151.973 311.898 151.941 312.666H150.861V312.282C150.849 311.486 150.687 310.892 150.375 310.5C150.063 310.104 149.599 309.906 148.983 309.906C148.323 309.906 147.821 310.118 147.477 310.542C147.133 310.966 146.961 311.574 146.961 312.366C146.961 313.13 147.133 313.722 147.477 314.142C147.821 314.562 148.311 314.772 148.947 314.772C149.375 314.772 149.747 314.674 150.063 314.478C150.379 314.282 150.627 314 150.807 313.632L151.833 313.986C151.581 314.558 151.201 315.002 150.693 315.318C150.189 315.63 149.623 315.786 148.995 315.786ZM146.601 312.666V311.808H151.389V312.666H146.601ZM153.277 315.606V309.126H154.231V310.692L154.075 310.488C154.151 310.288 154.249 310.104 154.369 309.936C154.493 309.768 154.631 309.63 154.783 309.522C154.951 309.386 155.141 309.282 155.353 309.21C155.565 309.138 155.781 309.096 156.001 309.084C156.221 309.068 156.427 309.082 156.619 309.126V310.128C156.395 310.068 156.149 310.052 155.881 310.08C155.613 310.108 155.365 310.206 155.137 310.374C154.929 310.522 154.767 310.702 154.651 310.914C154.539 311.126 154.461 311.356 154.417 311.604C154.373 311.848 154.351 312.098 154.351 312.354V315.606H153.277Z" fill="#001749" />
		<rect x="71.0251" y="329.936" width="6" height="6" rx="3" fill="#0086FF" />
		<path d="M86.3742 337V328.36H87.4542L91.9602 335.11V328.36H93.0402V337H91.9602L87.4542 330.244V337H86.3742ZM97.1779 337.168C96.7619 337.168 96.4039 337.102 96.1039 336.97C95.8079 336.838 95.5619 336.662 95.3659 336.442C95.1699 336.222 95.0159 335.978 94.9039 335.71C94.7919 335.442 94.7119 335.168 94.6639 334.888C94.6199 334.608 94.5979 334.346 94.5979 334.102V330.52H95.6779V333.766C95.6779 334.07 95.7059 334.364 95.7619 334.648C95.8179 334.932 95.9119 335.188 96.0439 335.416C96.1799 335.644 96.3599 335.824 96.5839 335.956C96.8119 336.088 97.0959 336.154 97.4359 336.154C97.7039 336.154 97.9479 336.108 98.1679 336.016C98.3879 335.924 98.5759 335.788 98.7319 335.608C98.8879 335.424 99.0079 335.192 99.0919 334.912C99.1759 334.632 99.2179 334.306 99.2179 333.934L99.9199 334.15C99.9199 334.774 99.8059 335.312 99.5779 335.764C99.3539 336.216 99.0359 336.564 98.6239 336.808C98.2159 337.048 97.7339 337.168 97.1779 337.168ZM99.3379 337V335.266H99.2179V330.52H100.292V337H99.3379ZM109.718 337L109.724 332.854C109.724 332.37 109.594 331.992 109.334 331.72C109.078 331.444 108.744 331.306 108.332 331.306C108.092 331.306 107.864 331.362 107.648 331.474C107.432 331.582 107.256 331.754 107.12 331.99C106.984 332.222 106.916 332.52 106.916 332.884L106.352 332.656C106.344 332.196 106.438 331.794 106.634 331.45C106.834 331.102 107.106 330.832 107.45 330.64C107.794 330.448 108.182 330.352 108.614 330.352C109.29 330.352 109.822 330.558 110.21 330.97C110.598 331.378 110.792 331.928 110.792 332.62L110.786 337H109.718ZM101.966 337V330.52H102.92V332.254H103.04V337H101.966ZM105.848 337L105.854 332.896C105.854 332.4 105.726 332.012 105.47 331.732C105.214 331.448 104.874 331.306 104.45 331.306C104.03 331.306 103.69 331.45 103.43 331.738C103.17 332.026 103.04 332.408 103.04 332.884L102.476 332.548C102.476 332.128 102.576 331.752 102.776 331.42C102.976 331.088 103.248 330.828 103.592 330.64C103.936 330.448 104.326 330.352 104.762 330.352C105.198 330.352 105.578 330.444 105.902 330.628C106.226 330.812 106.476 331.076 106.652 331.42C106.828 331.76 106.916 332.166 106.916 332.638L106.91 337H105.848ZM115.331 337.18C114.723 337.18 114.211 337.03 113.795 336.73C113.379 336.426 113.063 336.016 112.847 335.5C112.635 334.98 112.529 334.398 112.529 333.754C112.529 333.102 112.635 332.518 112.847 332.002C113.063 331.486 113.379 331.08 113.795 330.784C114.215 330.488 114.729 330.34 115.337 330.34C115.937 330.34 116.453 330.49 116.885 330.79C117.321 331.086 117.655 331.492 117.887 332.008C118.119 332.524 118.235 333.106 118.235 333.754C118.235 334.402 118.119 334.984 117.887 335.5C117.655 336.016 117.321 336.426 116.885 336.73C116.453 337.03 115.935 337.18 115.331 337.18ZM112.349 337V328.36H113.423V332.23H113.303V337H112.349ZM115.199 336.202C115.627 336.202 115.981 336.094 116.261 335.878C116.541 335.662 116.751 335.37 116.891 335.002C117.031 334.63 117.101 334.214 117.101 333.754C117.101 333.298 117.031 332.886 116.891 332.518C116.755 332.15 116.543 331.858 116.255 331.642C115.971 331.426 115.609 331.318 115.169 331.318C114.749 331.318 114.401 331.422 114.125 331.63C113.849 331.834 113.643 332.12 113.507 332.488C113.371 332.852 113.303 333.274 113.303 333.754C113.303 334.226 113.369 334.648 113.501 335.02C113.637 335.388 113.845 335.678 114.125 335.89C114.405 336.098 114.763 336.202 115.199 336.202ZM122.358 337.18C121.722 337.18 121.166 337.04 120.69 336.76C120.218 336.476 119.85 336.082 119.586 335.578C119.322 335.07 119.19 334.478 119.19 333.802C119.19 333.094 119.32 332.482 119.58 331.966C119.84 331.446 120.202 331.046 120.666 330.766C121.134 330.482 121.682 330.34 122.31 330.34C122.962 330.34 123.516 330.49 123.972 330.79C124.432 331.09 124.776 331.518 125.004 332.074C125.236 332.63 125.336 333.292 125.304 334.06H124.224V333.676C124.212 332.88 124.05 332.286 123.738 331.894C123.426 331.498 122.962 331.3 122.346 331.3C121.686 331.3 121.184 331.512 120.84 331.936C120.496 332.36 120.324 332.968 120.324 333.76C120.324 334.524 120.496 335.116 120.84 335.536C121.184 335.956 121.674 336.166 122.31 336.166C122.738 336.166 123.11 336.068 123.426 335.872C123.742 335.676 123.99 335.394 124.17 335.026L125.196 335.38C124.944 335.952 124.564 336.396 124.056 336.712C123.552 337.024 122.986 337.18 122.358 337.18ZM119.964 334.06V333.202H124.752V334.06H119.964ZM126.64 337V330.52H127.594V332.086L127.438 331.882C127.514 331.682 127.612 331.498 127.732 331.33C127.856 331.162 127.994 331.024 128.146 330.916C128.314 330.78 128.504 330.676 128.716 330.604C128.928 330.532 129.144 330.49 129.364 330.478C129.584 330.462 129.79 330.476 129.982 330.52V331.522C129.758 331.462 129.512 331.446 129.244 331.474C128.976 331.502 128.728 331.6 128.5 331.768C128.292 331.916 128.13 332.096 128.014 332.308C127.902 332.52 127.824 332.75 127.78 332.998C127.736 333.242 127.714 333.492 127.714 333.748V337H126.64ZM136.279 337.18C135.635 337.18 135.079 337.034 134.611 336.742C134.147 336.45 133.789 336.046 133.537 335.53C133.285 335.014 133.159 334.422 133.159 333.754C133.159 333.074 133.287 332.478 133.543 331.966C133.799 331.454 134.161 331.056 134.629 330.772C135.097 330.484 135.647 330.34 136.279 330.34C136.927 330.34 137.485 330.486 137.953 330.778C138.421 331.066 138.779 331.468 139.027 331.984C139.279 332.496 139.405 333.086 139.405 333.754C139.405 334.43 139.279 335.026 139.027 335.542C138.775 336.054 138.415 336.456 137.947 336.748C137.479 337.036 136.923 337.18 136.279 337.18ZM136.279 336.166C136.951 336.166 137.451 335.942 137.779 335.494C138.107 335.046 138.271 334.466 138.271 333.754C138.271 333.022 138.105 332.44 137.773 332.008C137.441 331.572 136.943 331.354 136.279 331.354C135.827 331.354 135.455 331.456 135.163 331.66C134.871 331.864 134.653 332.146 134.509 332.506C134.365 332.866 134.293 333.282 134.293 333.754C134.293 334.482 134.461 335.066 134.797 335.506C135.133 335.946 135.627 336.166 136.279 336.166ZM141.344 337V330.166C141.344 329.998 141.352 329.828 141.368 329.656C141.384 329.48 141.42 329.31 141.476 329.146C141.532 328.978 141.624 328.824 141.752 328.684C141.9 328.52 142.062 328.404 142.238 328.336C142.414 328.264 142.592 328.22 142.772 328.204C142.956 328.188 143.13 328.18 143.294 328.18H144.116V329.068H143.354C143.038 329.068 142.802 329.146 142.646 329.302C142.49 329.454 142.412 329.686 142.412 329.998V337H141.344ZM140.246 331.402V330.52H144.116V331.402H140.246ZM149.228 337L146.876 330.52H147.956L149.774 335.638L151.586 330.52H152.672L150.32 337H149.228ZM153.877 329.374V328.27H154.945V329.374H153.877ZM153.877 337V330.52H154.945V337H153.877ZM159.193 337.174C158.421 337.174 157.787 337.006 157.291 336.67C156.799 336.33 156.497 335.856 156.385 335.248L157.477 335.074C157.565 335.426 157.767 335.706 158.083 335.914C158.399 336.118 158.791 336.22 159.259 336.22C159.703 336.22 160.051 336.128 160.303 335.944C160.555 335.76 160.681 335.51 160.681 335.194C160.681 335.01 160.639 334.862 160.555 334.75C160.471 334.634 160.297 334.526 160.033 334.426C159.773 334.326 159.379 334.206 158.851 334.066C158.279 333.914 157.829 333.756 157.501 333.592C157.173 333.428 156.939 333.238 156.799 333.022C156.659 332.806 156.589 332.544 156.589 332.236C156.589 331.856 156.693 331.524 156.901 331.24C157.109 330.952 157.399 330.73 157.771 330.574C158.147 330.418 158.583 330.34 159.079 330.34C159.571 330.34 160.011 330.418 160.399 330.574C160.787 330.73 161.099 330.952 161.335 331.24C161.575 331.524 161.717 331.856 161.761 332.236L160.669 332.434C160.617 332.086 160.449 331.812 160.165 331.612C159.885 331.412 159.523 331.306 159.079 331.294C158.659 331.278 158.317 331.352 158.053 331.516C157.793 331.68 157.663 331.902 157.663 332.182C157.663 332.338 157.711 332.472 157.807 332.584C157.907 332.696 158.089 332.802 158.353 332.902C158.621 333.002 159.009 333.116 159.517 333.244C160.089 333.388 160.539 333.546 160.867 333.718C161.199 333.886 161.435 334.086 161.575 334.318C161.715 334.546 161.785 334.828 161.785 335.164C161.785 335.788 161.555 336.28 161.095 336.64C160.635 336.996 160.001 337.174 159.193 337.174ZM163.229 329.374V328.27H164.297V329.374H163.229ZM163.229 337V330.52H164.297V337H163.229ZM169.715 337C169.331 337.076 168.951 337.106 168.575 337.09C168.203 337.078 167.871 337.004 167.579 336.868C167.287 336.728 167.065 336.512 166.913 336.22C166.785 335.964 166.715 335.706 166.703 335.446C166.695 335.182 166.691 334.884 166.691 334.552V328.72H167.759V334.504C167.759 334.768 167.761 334.994 167.765 335.182C167.773 335.37 167.815 335.532 167.891 335.668C168.035 335.924 168.263 336.074 168.575 336.118C168.891 336.162 169.271 336.15 169.715 336.082V337ZM165.377 331.402V330.52H169.715V331.402H165.377ZM173.521 337.18C172.877 337.18 172.321 337.034 171.853 336.742C171.389 336.45 171.031 336.046 170.779 335.53C170.527 335.014 170.401 334.422 170.401 333.754C170.401 333.074 170.529 332.478 170.785 331.966C171.041 331.454 171.403 331.056 171.871 330.772C172.339 330.484 172.889 330.34 173.521 330.34C174.169 330.34 174.727 330.486 175.195 330.778C175.663 331.066 176.021 331.468 176.269 331.984C176.521 332.496 176.647 333.086 176.647 333.754C176.647 334.43 176.521 335.026 176.269 335.542C176.017 336.054 175.657 336.456 175.189 336.748C174.721 337.036 174.165 337.18 173.521 337.18ZM173.521 336.166C174.193 336.166 174.693 335.942 175.021 335.494C175.349 335.046 175.513 334.466 175.513 333.754C175.513 333.022 175.347 332.44 175.015 332.008C174.683 331.572 174.185 331.354 173.521 331.354C173.069 331.354 172.697 331.456 172.405 331.66C172.113 331.864 171.895 332.146 171.751 332.506C171.607 332.866 171.535 333.282 171.535 333.754C171.535 334.482 171.703 335.066 172.039 335.506C172.375 335.946 172.869 336.166 173.521 336.166ZM177.968 337V330.52H178.922V332.086L178.766 331.882C178.842 331.682 178.94 331.498 179.06 331.33C179.184 331.162 179.322 331.024 179.474 330.916C179.642 330.78 179.832 330.676 180.044 330.604C180.256 330.532 180.472 330.49 180.692 330.478C180.912 330.462 181.118 330.476 181.31 330.52V331.522C181.086 331.462 180.84 331.446 180.572 331.474C180.304 331.502 180.056 331.6 179.828 331.768C179.62 331.916 179.458 332.096 179.342 332.308C179.23 332.52 179.152 332.75 179.108 332.998C179.064 333.242 179.042 333.492 179.042 333.748V337H177.968ZM184.658 337.174C183.886 337.174 183.252 337.006 182.756 336.67C182.264 336.33 181.962 335.856 181.85 335.248L182.942 335.074C183.03 335.426 183.232 335.706 183.548 335.914C183.864 336.118 184.256 336.22 184.724 336.22C185.168 336.22 185.516 336.128 185.768 335.944C186.02 335.76 186.146 335.51 186.146 335.194C186.146 335.01 186.104 334.862 186.02 334.75C185.936 334.634 185.762 334.526 185.498 334.426C185.238 334.326 184.844 334.206 184.316 334.066C183.744 333.914 183.294 333.756 182.966 333.592C182.638 333.428 182.404 333.238 182.264 333.022C182.124 332.806 182.054 332.544 182.054 332.236C182.054 331.856 182.158 331.524 182.366 331.24C182.574 330.952 182.864 330.73 183.236 330.574C183.612 330.418 184.048 330.34 184.544 330.34C185.036 330.34 185.476 330.418 185.864 330.574C186.252 330.73 186.564 330.952 186.8 331.24C187.04 331.524 187.182 331.856 187.226 332.236L186.134 332.434C186.082 332.086 185.914 331.812 185.63 331.612C185.35 331.412 184.988 331.306 184.544 331.294C184.124 331.278 183.782 331.352 183.518 331.516C183.258 331.68 183.128 331.902 183.128 332.182C183.128 332.338 183.176 332.472 183.272 332.584C183.372 332.696 183.554 332.802 183.818 332.902C184.086 333.002 184.474 333.116 184.982 333.244C185.554 333.388 186.004 333.546 186.332 333.718C186.664 333.886 186.9 334.086 187.04 334.318C187.18 334.546 187.25 334.828 187.25 335.164C187.25 335.788 187.02 336.28 186.56 336.64C186.1 336.996 185.466 337.174 184.658 337.174Z" fill="#001749" />
		<rect x="176.078" y="309.206" width="4.8" height="4.8" rx="2.4" fill="#51C878" />
		<path d="M188.755 315.606V306.966H192.169C192.253 306.966 192.353 306.97 192.469 306.978C192.585 306.982 192.697 306.994 192.805 307.014C193.273 307.086 193.665 307.246 193.981 307.494C194.301 307.742 194.541 308.056 194.701 308.436C194.861 308.812 194.941 309.23 194.941 309.69C194.941 310.146 194.859 310.564 194.695 310.944C194.535 311.32 194.295 311.634 193.975 311.886C193.659 312.134 193.269 312.294 192.805 312.366C192.697 312.382 192.585 312.394 192.469 312.402C192.353 312.41 192.253 312.414 192.169 312.414H189.823V315.606H188.755ZM189.823 311.4H192.133C192.209 311.4 192.295 311.396 192.391 311.388C192.491 311.38 192.585 311.366 192.673 311.346C192.949 311.282 193.173 311.166 193.345 310.998C193.521 310.826 193.649 310.626 193.729 310.398C193.809 310.166 193.849 309.93 193.849 309.69C193.849 309.45 193.809 309.216 193.729 308.988C193.649 308.756 193.521 308.554 193.345 308.382C193.173 308.21 192.949 308.094 192.673 308.034C192.585 308.01 192.491 307.996 192.391 307.992C192.295 307.984 192.209 307.98 192.133 307.98H189.823V311.4ZM196.137 315.606V309.126H197.091V310.692L196.935 310.488C197.011 310.288 197.109 310.104 197.229 309.936C197.353 309.768 197.491 309.63 197.643 309.522C197.811 309.386 198.001 309.282 198.213 309.21C198.425 309.138 198.641 309.096 198.861 309.084C199.081 309.068 199.287 309.082 199.479 309.126V310.128C199.255 310.068 199.009 310.052 198.741 310.08C198.473 310.108 198.225 310.206 197.997 310.374C197.789 310.522 197.627 310.702 197.511 310.914C197.399 311.126 197.321 311.356 197.277 311.604C197.233 311.848 197.211 312.098 197.211 312.354V315.606H196.137ZM203.257 315.786C202.613 315.786 202.057 315.64 201.589 315.348C201.125 315.056 200.767 314.652 200.515 314.136C200.263 313.62 200.137 313.028 200.137 312.36C200.137 311.68 200.265 311.084 200.521 310.572C200.777 310.06 201.139 309.662 201.607 309.378C202.075 309.09 202.625 308.946 203.257 308.946C203.905 308.946 204.463 309.092 204.931 309.384C205.399 309.672 205.757 310.074 206.005 310.59C206.257 311.102 206.383 311.692 206.383 312.36C206.383 313.036 206.257 313.632 206.005 314.148C205.753 314.66 205.393 315.062 204.925 315.354C204.457 315.642 203.901 315.786 203.257 315.786ZM203.257 314.772C203.929 314.772 204.429 314.548 204.757 314.1C205.085 313.652 205.249 313.072 205.249 312.36C205.249 311.628 205.083 311.046 204.751 310.614C204.419 310.178 203.921 309.96 203.257 309.96C202.805 309.96 202.433 310.062 202.141 310.266C201.849 310.47 201.631 310.752 201.487 311.112C201.343 311.472 201.271 311.888 201.271 312.36C201.271 313.088 201.439 313.672 201.775 314.112C202.111 314.552 202.605 314.772 203.257 314.772ZM210.68 315.786C210.072 315.786 209.56 315.636 209.144 315.336C208.728 315.032 208.412 314.622 208.196 314.106C207.984 313.586 207.878 313.004 207.878 312.36C207.878 311.708 207.984 311.124 208.196 310.608C208.412 310.092 208.728 309.686 209.144 309.39C209.564 309.094 210.078 308.946 210.686 308.946C211.286 308.946 211.802 309.096 212.234 309.396C212.67 309.692 213.004 310.098 213.236 310.614C213.468 311.13 213.584 311.712 213.584 312.36C213.584 313.008 213.468 313.59 213.236 314.106C213.004 314.622 212.67 315.032 212.234 315.336C211.802 315.636 211.284 315.786 210.68 315.786ZM207.698 318.486V309.126H208.652V313.896H208.772V318.486H207.698ZM210.548 314.808C210.976 314.808 211.33 314.7 211.61 314.484C211.89 314.268 212.1 313.976 212.24 313.608C212.38 313.236 212.45 312.82 212.45 312.36C212.45 311.904 212.38 311.492 212.24 311.124C212.104 310.756 211.892 310.464 211.604 310.248C211.32 310.032 210.958 309.924 210.518 309.924C210.098 309.924 209.75 310.028 209.474 310.236C209.198 310.44 208.992 310.726 208.856 311.094C208.72 311.458 208.652 311.88 208.652 312.36C208.652 312.832 208.718 313.254 208.85 313.626C208.986 313.994 209.194 314.284 209.474 314.496C209.754 314.704 210.112 314.808 210.548 314.808ZM217.707 315.786C217.071 315.786 216.515 315.646 216.039 315.366C215.567 315.082 215.199 314.688 214.935 314.184C214.671 313.676 214.539 313.084 214.539 312.408C214.539 311.7 214.669 311.088 214.929 310.572C215.189 310.052 215.551 309.652 216.015 309.372C216.483 309.088 217.031 308.946 217.659 308.946C218.311 308.946 218.865 309.096 219.321 309.396C219.781 309.696 220.125 310.124 220.353 310.68C220.585 311.236 220.685 311.898 220.653 312.666H219.573V312.282C219.561 311.486 219.399 310.892 219.087 310.5C218.775 310.104 218.311 309.906 217.695 309.906C217.035 309.906 216.533 310.118 216.189 310.542C215.845 310.966 215.673 311.574 215.673 312.366C215.673 313.13 215.845 313.722 216.189 314.142C216.533 314.562 217.023 314.772 217.659 314.772C218.087 314.772 218.459 314.674 218.775 314.478C219.091 314.282 219.339 314 219.519 313.632L220.545 313.986C220.293 314.558 219.913 315.002 219.405 315.318C218.901 315.63 218.335 315.786 217.707 315.786ZM215.313 312.666V311.808H220.101V312.666H215.313ZM221.989 315.606V309.126H222.943V310.692L222.787 310.488C222.863 310.288 222.961 310.104 223.081 309.936C223.205 309.768 223.343 309.63 223.495 309.522C223.663 309.386 223.853 309.282 224.065 309.21C224.277 309.138 224.493 309.096 224.713 309.084C224.933 309.068 225.139 309.082 225.331 309.126V310.128C225.107 310.068 224.861 310.052 224.593 310.08C224.325 310.108 224.077 310.206 223.849 310.374C223.641 310.522 223.479 310.702 223.363 310.914C223.251 311.126 223.173 311.356 223.129 311.604C223.085 311.848 223.063 312.098 223.063 312.354V315.606H221.989ZM230.083 315.606C229.699 315.682 229.319 315.712 228.943 315.696C228.571 315.684 228.239 315.61 227.947 315.474C227.655 315.334 227.433 315.118 227.281 314.826C227.153 314.57 227.083 314.312 227.071 314.052C227.063 313.788 227.059 313.49 227.059 313.158V307.326H228.127V313.11C228.127 313.374 228.129 313.6 228.133 313.788C228.141 313.976 228.183 314.138 228.259 314.274C228.403 314.53 228.631 314.68 228.943 314.724C229.259 314.768 229.639 314.756 230.083 314.688V315.606ZM225.745 310.008V309.126H230.083V310.008H225.745ZM232.123 318.486L233.377 315.078L233.395 316.086L230.563 309.126H231.685L233.905 314.724H233.521L235.603 309.126H236.689L233.161 318.486H232.123ZM240.083 315.606V306.966H243.449C243.965 306.966 244.405 307.072 244.769 307.284C245.137 307.496 245.417 307.776 245.609 308.124C245.805 308.468 245.903 308.84 245.903 309.24C245.903 309.708 245.783 310.118 245.543 310.47C245.303 310.822 244.979 311.064 244.571 311.196L244.559 310.902C245.115 311.05 245.547 311.322 245.855 311.718C246.163 312.114 246.317 312.586 246.317 313.134C246.317 313.638 246.213 314.074 246.005 314.442C245.801 314.81 245.505 315.096 245.117 315.3C244.733 315.504 244.277 315.606 243.749 315.606H240.083ZM241.163 314.586H243.545C243.865 314.586 244.151 314.528 244.403 314.412C244.655 314.292 244.853 314.124 244.997 313.908C245.145 313.692 245.219 313.432 245.219 313.128C245.219 312.836 245.153 312.574 245.021 312.342C244.893 312.11 244.711 311.926 244.475 311.79C244.243 311.65 243.973 311.58 243.665 311.58H241.163V314.586ZM241.163 310.572H243.437C243.693 310.572 243.923 310.518 244.127 310.41C244.335 310.298 244.499 310.142 244.619 309.942C244.743 309.742 244.805 309.508 244.805 309.24C244.805 308.868 244.679 308.564 244.427 308.328C244.175 308.092 243.845 307.974 243.437 307.974H241.163V310.572ZM247.512 315.606V309.126H248.466V310.692L248.31 310.488C248.386 310.288 248.484 310.104 248.604 309.936C248.728 309.768 248.866 309.63 249.018 309.522C249.186 309.386 249.376 309.282 249.588 309.21C249.8 309.138 250.016 309.096 250.236 309.084C250.456 309.068 250.662 309.082 250.854 309.126V310.128C250.63 310.068 250.384 310.052 250.116 310.08C249.848 310.108 249.6 310.206 249.372 310.374C249.164 310.522 249.002 310.702 248.886 310.914C248.774 311.126 248.696 311.356 248.652 311.604C248.608 311.848 248.586 312.098 248.586 312.354V315.606H247.512ZM254.632 315.786C253.988 315.786 253.432 315.64 252.964 315.348C252.5 315.056 252.142 314.652 251.89 314.136C251.638 313.62 251.512 313.028 251.512 312.36C251.512 311.68 251.64 311.084 251.896 310.572C252.152 310.06 252.514 309.662 252.982 309.378C253.45 309.09 254 308.946 254.632 308.946C255.28 308.946 255.838 309.092 256.306 309.384C256.774 309.672 257.132 310.074 257.38 310.59C257.632 311.102 257.758 311.692 257.758 312.36C257.758 313.036 257.632 313.632 257.38 314.148C257.128 314.66 256.768 315.062 256.3 315.354C255.832 315.642 255.276 315.786 254.632 315.786ZM254.632 314.772C255.304 314.772 255.804 314.548 256.132 314.1C256.46 313.652 256.624 313.072 256.624 312.36C256.624 311.628 256.458 311.046 256.126 310.614C255.794 310.178 255.296 309.96 254.632 309.96C254.18 309.96 253.808 310.062 253.516 310.266C253.224 310.47 253.006 310.752 252.862 311.112C252.718 311.472 252.646 311.888 252.646 312.36C252.646 313.088 252.814 313.672 253.15 314.112C253.486 314.552 253.98 314.772 254.632 314.772ZM259.073 315.606L259.079 306.966H260.159V312.246L262.877 309.126H264.263L261.401 312.366L264.599 315.606H263.105L260.159 312.486V315.606H259.073ZM267.887 315.786C267.251 315.786 266.695 315.646 266.219 315.366C265.747 315.082 265.379 314.688 265.115 314.184C264.851 313.676 264.719 313.084 264.719 312.408C264.719 311.7 264.849 311.088 265.109 310.572C265.369 310.052 265.731 309.652 266.195 309.372C266.663 309.088 267.211 308.946 267.839 308.946C268.491 308.946 269.045 309.096 269.501 309.396C269.961 309.696 270.305 310.124 270.533 310.68C270.765 311.236 270.865 311.898 270.833 312.666H269.753V312.282C269.741 311.486 269.579 310.892 269.267 310.5C268.955 310.104 268.491 309.906 267.875 309.906C267.215 309.906 266.713 310.118 266.369 310.542C266.025 310.966 265.853 311.574 265.853 312.366C265.853 313.13 266.025 313.722 266.369 314.142C266.713 314.562 267.203 314.772 267.839 314.772C268.267 314.772 268.639 314.674 268.955 314.478C269.271 314.282 269.519 314 269.699 313.632L270.725 313.986C270.473 314.558 270.093 315.002 269.585 315.318C269.081 315.63 268.515 315.786 267.887 315.786ZM265.493 312.666V311.808H270.281V312.666H265.493ZM272.169 315.606V309.126H273.123V310.692L272.967 310.488C273.043 310.288 273.141 310.104 273.261 309.936C273.385 309.768 273.523 309.63 273.675 309.522C273.843 309.386 274.033 309.282 274.245 309.21C274.457 309.138 274.673 309.096 274.893 309.084C275.113 309.068 275.319 309.082 275.511 309.126V310.128C275.287 310.068 275.041 310.052 274.773 310.08C274.505 310.108 274.257 310.206 274.029 310.374C273.821 310.522 273.659 310.702 273.543 310.914C273.431 311.126 273.353 311.356 273.309 311.604C273.265 311.848 273.243 312.098 273.243 312.354V315.606H272.169Z" fill="#001749" />
		<path d="M56.426 59.876C55.412 59.876 54.515 59.669 53.735 59.255C52.961 58.835 52.355 58.25 51.917 57.5C51.479 56.744 51.26 55.856 51.26 54.836V46.655L53.168 46.646V54.737C53.168 55.289 53.261 55.775 53.447 56.195C53.633 56.615 53.882 56.966 54.194 57.248C54.506 57.53 54.854 57.743 55.238 57.887C55.628 58.031 56.024 58.103 56.426 58.103C56.834 58.103 57.23 58.031 57.614 57.887C58.004 57.737 58.355 57.521 58.667 57.239C58.979 56.957 59.225 56.606 59.405 56.186C59.591 55.766 59.684 55.283 59.684 54.737V46.646H61.592V54.836C61.592 55.85 61.373 56.735 60.935 57.491C60.497 58.247 59.888 58.835 59.108 59.255C58.334 59.669 57.44 59.876 56.426 59.876ZM68.8266 59.867C67.6446 59.867 66.6816 59.606 65.9376 59.084C65.1936 58.562 64.7376 57.827 64.5696 56.879L66.4956 56.582C66.6156 57.086 66.8916 57.485 67.3236 57.779C67.7616 58.067 68.3046 58.211 68.9526 58.211C69.5406 58.211 69.9996 58.091 70.3296 57.851C70.6656 57.611 70.8336 57.281 70.8336 56.861C70.8336 56.615 70.7736 56.417 70.6536 56.267C70.5396 56.111 70.2966 55.964 69.9246 55.826C69.5526 55.688 68.9856 55.517 68.2236 55.313C67.3896 55.097 66.7266 54.866 66.2346 54.62C65.7486 54.368 65.4006 54.077 65.1906 53.747C64.9866 53.411 64.8846 53.006 64.8846 52.532C64.8846 51.944 65.0406 51.431 65.3526 50.993C65.6646 50.555 66.1026 50.216 66.6666 49.976C67.2366 49.736 67.9026 49.616 68.6646 49.616C69.4086 49.616 70.0716 49.733 70.6536 49.967C71.2356 50.201 71.7066 50.534 72.0666 50.966C72.4266 51.392 72.6426 51.893 72.7146 52.469L70.7886 52.82C70.7226 52.352 70.5036 51.983 70.1316 51.713C69.7596 51.443 69.2766 51.296 68.6826 51.272C68.1126 51.248 67.6506 51.344 67.2966 51.56C66.9426 51.77 66.7656 52.061 66.7656 52.433C66.7656 52.649 66.8316 52.832 66.9636 52.982C67.1016 53.132 67.3656 53.276 67.7556 53.414C68.1456 53.552 68.7216 53.717 69.4836 53.909C70.2996 54.119 70.9476 54.353 71.4276 54.611C71.9076 54.863 72.2496 55.166 72.4536 55.52C72.6636 55.868 72.7686 56.291 72.7686 56.789C72.7686 57.749 72.4176 58.502 71.7156 59.048C71.0196 59.594 70.0566 59.867 68.8266 59.867ZM80.071 59.876C79.105 59.876 78.256 59.666 77.524 59.246C76.798 58.82 76.231 58.229 75.823 57.473C75.421 56.711 75.22 55.829 75.22 54.827C75.22 53.765 75.418 52.844 75.814 52.064C76.216 51.284 76.774 50.681 77.488 50.255C78.202 49.829 79.033 49.616 79.981 49.616C80.971 49.616 81.814 49.847 82.51 50.309C83.206 50.765 83.725 51.416 84.067 52.262C84.415 53.108 84.553 54.113 84.481 55.277H82.6V54.593C82.588 53.465 82.372 52.631 81.952 52.091C81.538 51.551 80.905 51.281 80.053 51.281C79.111 51.281 78.403 51.578 77.929 52.172C77.455 52.766 77.218 53.624 77.218 54.746C77.218 55.814 77.455 56.642 77.929 57.23C78.403 57.812 79.087 58.103 79.981 58.103C80.569 58.103 81.076 57.971 81.502 57.707C81.934 57.437 82.27 57.053 82.51 56.555L84.355 57.14C83.977 58.01 83.404 58.685 82.636 59.165C81.868 59.639 81.013 59.876 80.071 59.876ZM76.606 55.277V53.81H83.545V55.277H76.606ZM87.5002 59.606V49.886H89.1742V52.244L88.9402 51.938C89.0602 51.626 89.2162 51.341 89.4082 51.083C89.6002 50.819 89.8222 50.603 90.0742 50.435C90.3202 50.255 90.5932 50.117 90.8932 50.021C91.1992 49.919 91.5112 49.859 91.8292 49.841C92.1472 49.817 92.4532 49.832 92.7472 49.886V51.65C92.4292 51.566 92.0752 51.542 91.6852 51.578C91.3012 51.614 90.9472 51.737 90.6232 51.947C90.3172 52.145 90.0742 52.385 89.8942 52.667C89.7202 52.949 89.5942 53.264 89.5162 53.612C89.4382 53.954 89.3992 54.317 89.3992 54.701V59.606H87.5002ZM98.8266 59.867C97.6446 59.867 96.6816 59.606 95.9376 59.084C95.1936 58.562 94.7376 57.827 94.5696 56.879L96.4956 56.582C96.6156 57.086 96.8916 57.485 97.3236 57.779C97.7616 58.067 98.3046 58.211 98.9526 58.211C99.5406 58.211 99.9996 58.091 100.33 57.851C100.666 57.611 100.834 57.281 100.834 56.861C100.834 56.615 100.774 56.417 100.654 56.267C100.54 56.111 100.297 55.964 99.9246 55.826C99.5526 55.688 98.9856 55.517 98.2236 55.313C97.3896 55.097 96.7266 54.866 96.2346 54.62C95.7486 54.368 95.4006 54.077 95.1906 53.747C94.9866 53.411 94.8846 53.006 94.8846 52.532C94.8846 51.944 95.0406 51.431 95.3526 50.993C95.6646 50.555 96.1026 50.216 96.6666 49.976C97.2366 49.736 97.9026 49.616 98.6646 49.616C99.4086 49.616 100.072 49.733 100.654 49.967C101.236 50.201 101.707 50.534 102.067 50.966C102.427 51.392 102.643 51.893 102.715 52.469L100.789 52.82C100.723 52.352 100.504 51.983 100.132 51.713C99.7596 51.443 99.2766 51.296 98.6826 51.272C98.1126 51.248 97.6506 51.344 97.2966 51.56C96.9426 51.77 96.7656 52.061 96.7656 52.433C96.7656 52.649 96.8316 52.832 96.9636 52.982C97.1016 53.132 97.3656 53.276 97.7556 53.414C98.1456 53.552 98.7216 53.717 99.4836 53.909C100.3 54.119 100.948 54.353 101.428 54.611C101.908 54.863 102.25 55.166 102.454 55.52C102.664 55.868 102.769 56.291 102.769 56.789C102.769 57.749 102.418 58.502 101.716 59.048C101.02 59.594 100.057 59.867 98.8266 59.867Z" fill="#001749" />
	</g>
	<path d="M261 162C261 212.258 220.258 253 170 253C119.742 253 79 212.258 79 162C79 111.742 119.742 71 170 71C220.258 71 261 111.742 261 162ZM114.113 162C114.113 192.866 139.134 217.887 170 217.887C200.866 217.887 225.887 192.866 225.887 162C225.887 131.134 200.866 106.113 170 106.113C139.134 106.113 114.113 131.134 114.113 162Z" fill="#D9D9D9" />
	<path d="M261 162C261 182.763 253.9 202.902 240.878 219.073C227.856 235.245 209.695 246.477 189.41 250.906L181.92 216.601C194.378 213.882 205.532 206.983 213.529 197.051C221.527 187.12 225.887 174.751 225.887 162H261Z" fill="#FFAA45" />
	<path d="M189.404 250.907C169.119 255.334 147.929 252.692 129.353 243.417C110.776 234.143 95.9297 218.795 87.2775 199.921L119.196 185.289C124.51 196.881 133.628 206.307 145.037 212.002C156.445 217.698 169.459 219.321 181.917 216.602L189.404 250.907Z" fill="#001749" />
	<path d="M87.2976 199.965C78.6355 181.095 76.6866 159.831 81.7745 139.701C86.8624 119.571 98.681 101.786 115.269 89.2985L136.387 117.351C126.2 125.02 118.941 135.942 115.817 148.305C112.692 160.668 113.889 173.727 119.209 185.316L87.2976 199.965Z" fill="#51C878" />
	<path d="M115.27 89.2978C131.858 76.8104 152.217 70.371 172.969 71.0485C193.721 71.7259 213.617 79.4794 229.355 93.0221L206.453 119.637C196.787 111.32 184.568 106.558 171.823 106.142C159.079 105.726 146.575 109.681 136.388 117.35L115.27 89.2978Z" fill="#C40101" />
	<path d="M229.355 93.0221C239.331 101.606 247.326 112.252 252.789 124.226C258.253 136.199 261.054 149.215 260.999 162.375L225.887 162.231C225.92 154.148 224.2 146.154 220.845 138.801C217.49 131.448 212.58 124.909 206.453 119.637L229.355 93.0221Z" fill="#0086FF" />
	<g filter="url(#filter2_d_310_1731)">
		<g clip-path="url(#clip0_310_1731)">
			<path fillRule="evenodd" clipRule="evenodd" d="M198 193.358C198 194.678 199.07 195.748 200.39 195.748H244.61C245.93 195.748 247 194.678 247 193.358V185.39C247 184.07 245.93 183 244.61 183H200.39C199.07 183 198 184.07 198 185.39V193.358Z" fill="white" />
			<path d="M206.846 186.944V191H206.355V187.459H206.331L205.341 188.116V187.617L206.355 186.944H206.846ZM208.012 191V190.644L209.351 189.178C209.508 189.006 209.638 188.857 209.739 188.73C209.841 188.602 209.916 188.482 209.965 188.37C210.015 188.256 210.041 188.137 210.041 188.013C210.041 187.871 210.006 187.747 209.938 187.643C209.87 187.539 209.778 187.458 209.66 187.401C209.543 187.345 209.411 187.316 209.264 187.316C209.108 187.316 208.972 187.349 208.856 187.413C208.741 187.477 208.652 187.566 208.589 187.681C208.527 187.795 208.496 187.93 208.496 188.085H208.028C208.028 187.847 208.083 187.638 208.193 187.459C208.302 187.279 208.451 187.139 208.64 187.039C208.83 186.939 209.044 186.888 209.28 186.888C209.518 186.888 209.728 186.939 209.912 187.039C210.095 187.139 210.239 187.275 210.344 187.445C210.448 187.615 210.5 187.805 210.5 188.013C210.5 188.163 210.473 188.308 210.419 188.451C210.366 188.592 210.274 188.75 210.142 188.924C210.011 189.097 209.829 189.309 209.597 189.558L208.686 190.533V190.564H210.571V191H208.012ZM216.293 188.211H215.802C215.773 188.07 215.722 187.946 215.649 187.839C215.578 187.732 215.491 187.642 215.388 187.57C215.286 187.496 215.173 187.44 215.049 187.403C214.925 187.366 214.796 187.348 214.661 187.348C214.416 187.348 214.193 187.41 213.994 187.534C213.796 187.658 213.638 187.841 213.52 188.083C213.404 188.324 213.346 188.621 213.346 188.972C213.346 189.323 213.404 189.62 213.52 189.861C213.638 190.103 213.796 190.286 213.994 190.41C214.193 190.534 214.416 190.596 214.661 190.596C214.796 190.596 214.925 190.577 215.049 190.541C215.173 190.504 215.286 190.449 215.388 190.376C215.491 190.302 215.578 190.212 215.649 190.105C215.722 189.997 215.773 189.872 215.802 189.732H216.293C216.256 189.94 216.189 190.125 216.091 190.289C215.993 190.453 215.872 190.592 215.727 190.707C215.581 190.82 215.418 190.907 215.237 190.966C215.058 191.026 214.866 191.055 214.661 191.055C214.315 191.055 214.008 190.971 213.738 190.802C213.469 190.633 213.257 190.393 213.102 190.081C212.948 189.769 212.871 189.4 212.871 188.972C212.871 188.544 212.948 188.174 213.102 187.863C213.257 187.551 213.469 187.311 213.738 187.142C214.008 186.973 214.315 186.888 214.661 186.888C214.866 186.888 215.058 186.918 215.237 186.977C215.418 187.037 215.581 187.124 215.727 187.239C215.872 187.352 215.993 187.491 216.091 187.655C216.189 187.817 216.256 188.003 216.293 188.211ZM218.259 191.063C217.985 191.063 217.744 190.998 217.536 190.867C217.33 190.737 217.169 190.554 217.053 190.319C216.938 190.084 216.881 189.809 216.881 189.495C216.881 189.178 216.938 188.901 217.053 188.665C217.169 188.429 217.33 188.245 217.536 188.114C217.744 187.984 217.985 187.918 218.259 187.918C218.534 187.918 218.774 187.984 218.98 188.114C219.188 188.245 219.349 188.429 219.463 188.665C219.58 188.901 219.638 189.178 219.638 189.495C219.638 189.809 219.58 190.084 219.463 190.319C219.349 190.554 219.188 190.737 218.98 190.867C218.774 190.998 218.534 191.063 218.259 191.063ZM218.259 190.644C218.468 190.644 218.64 190.59 218.774 190.483C218.909 190.376 219.009 190.236 219.073 190.061C219.138 189.887 219.17 189.698 219.17 189.495C219.17 189.291 219.138 189.102 219.073 188.926C219.009 188.751 218.909 188.609 218.774 188.501C218.64 188.392 218.468 188.338 218.259 188.338C218.051 188.338 217.879 188.392 217.744 188.501C217.61 188.609 217.51 188.751 217.445 188.926C217.381 189.102 217.348 189.291 217.348 189.495C217.348 189.698 217.381 189.887 217.445 190.061C217.51 190.236 217.61 190.376 217.744 190.483C217.879 190.59 218.051 190.644 218.259 190.644ZM220.351 191V187.958H220.803V188.433H220.842C220.906 188.271 221.008 188.145 221.149 188.055C221.291 187.964 221.46 187.918 221.658 187.918C221.859 187.918 222.026 187.964 222.16 188.055C222.294 188.145 222.399 188.271 222.474 188.433H222.506C222.584 188.276 222.701 188.151 222.857 188.059C223.012 187.965 223.199 187.918 223.417 187.918C223.689 187.918 223.912 188.003 224.085 188.174C224.258 188.343 224.344 188.606 224.344 188.964V191H223.877V188.964C223.877 188.74 223.815 188.579 223.692 188.483C223.57 188.386 223.425 188.338 223.259 188.338C223.045 188.338 222.879 188.403 222.762 188.532C222.644 188.66 222.585 188.823 222.585 189.019V191H222.11V188.916C222.11 188.743 222.054 188.604 221.942 188.499C221.829 188.392 221.685 188.338 221.508 188.338C221.386 188.338 221.273 188.37 221.167 188.435C221.063 188.5 220.978 188.59 220.914 188.705C220.85 188.818 220.819 188.949 220.819 189.099V191H220.351ZM225.199 192.141V187.958H225.65V188.441H225.706C225.74 188.388 225.788 188.321 225.848 188.239C225.91 188.156 225.999 188.082 226.114 188.017C226.23 187.951 226.387 187.918 226.585 187.918C226.841 187.918 227.067 187.982 227.262 188.11C227.458 188.238 227.61 188.42 227.72 188.655C227.829 188.89 227.884 189.167 227.884 189.487C227.884 189.809 227.829 190.088 227.72 190.325C227.61 190.56 227.458 190.742 227.264 190.871C227.07 190.999 226.846 191.063 226.593 191.063C226.398 191.063 226.241 191.031 226.124 190.966C226.006 190.9 225.916 190.826 225.852 190.743C225.789 190.658 225.74 190.588 225.706 190.533H225.666V192.141H225.199ZM225.658 189.479C225.658 189.709 225.692 189.911 225.759 190.087C225.826 190.261 225.925 190.398 226.054 190.497C226.184 190.595 226.342 190.644 226.53 190.644C226.725 190.644 226.888 190.592 227.019 190.489C227.151 190.385 227.25 190.245 227.316 190.069C227.383 189.892 227.417 189.695 227.417 189.479C227.417 189.265 227.384 189.072 227.318 188.901C227.253 188.728 227.155 188.591 227.023 188.491C226.892 188.389 226.728 188.338 226.53 188.338C226.339 188.338 226.18 188.386 226.05 188.483C225.921 188.578 225.823 188.711 225.757 188.883C225.691 189.053 225.658 189.252 225.658 189.479ZM229.493 191.071C229.3 191.071 229.125 191.035 228.968 190.962C228.811 190.888 228.686 190.782 228.593 190.644C228.501 190.504 228.455 190.335 228.455 190.136C228.455 189.962 228.489 189.821 228.558 189.713C228.626 189.603 228.718 189.517 228.833 189.455C228.948 189.393 229.075 189.347 229.213 189.317C229.353 189.285 229.494 189.26 229.635 189.241C229.82 189.218 229.97 189.2 230.085 189.188C230.201 189.175 230.285 189.153 230.338 189.122C230.392 189.092 230.419 189.039 230.419 188.964V188.948C230.419 188.753 230.366 188.601 230.259 188.493C230.153 188.384 229.993 188.33 229.778 188.33C229.555 188.33 229.38 188.379 229.253 188.477C229.126 188.574 229.037 188.679 228.985 188.79L228.542 188.631C228.621 188.446 228.727 188.302 228.859 188.199C228.992 188.095 229.137 188.023 229.294 187.982C229.453 187.939 229.609 187.918 229.762 187.918C229.86 187.918 229.972 187.93 230.099 187.954C230.227 187.976 230.35 188.023 230.469 188.095C230.589 188.166 230.689 188.273 230.768 188.417C230.847 188.561 230.887 188.754 230.887 188.996V191H230.419V190.588H230.396C230.364 190.654 230.311 190.725 230.237 190.8C230.163 190.875 230.065 190.939 229.942 190.992C229.819 191.045 229.669 191.071 229.493 191.071ZM229.564 190.651C229.749 190.651 229.904 190.615 230.031 190.542C230.159 190.47 230.256 190.376 230.32 190.261C230.386 190.146 230.419 190.026 230.419 189.899V189.471C230.4 189.495 230.356 189.517 230.289 189.536C230.223 189.555 230.146 189.571 230.059 189.586C229.973 189.599 229.889 189.611 229.807 189.622C229.727 189.631 229.662 189.639 229.611 189.645C229.49 189.661 229.376 189.687 229.271 189.723C229.166 189.757 229.082 189.809 229.017 189.879C228.954 189.948 228.922 190.041 228.922 190.16C228.922 190.323 228.982 190.445 229.102 190.529C229.224 190.61 229.378 190.651 229.564 190.651ZM232.207 189.17V191H231.74V187.958H232.191V188.433H232.231C232.302 188.279 232.411 188.155 232.556 188.061C232.701 187.966 232.889 187.918 233.118 187.918C233.324 187.918 233.505 187.961 233.659 188.045C233.814 188.128 233.934 188.255 234.02 188.425C234.105 188.594 234.148 188.808 234.148 189.067V191H233.681V189.099C233.681 188.86 233.619 188.674 233.495 188.54C233.371 188.405 233.2 188.338 232.984 188.338C232.835 188.338 232.701 188.37 232.584 188.435C232.467 188.5 232.376 188.594 232.308 188.718C232.241 188.843 232.207 188.993 232.207 189.17ZM235.002 191V187.958H235.47V191H235.002ZM235.24 187.451C235.149 187.451 235.07 187.42 235.004 187.358C234.94 187.296 234.907 187.221 234.907 187.134C234.907 187.047 234.94 186.972 235.004 186.91C235.07 186.848 235.149 186.817 235.24 186.817C235.331 186.817 235.409 186.848 235.474 186.91C235.54 186.972 235.573 187.047 235.573 187.134C235.573 187.221 235.54 187.296 235.474 187.358C235.409 187.42 235.331 187.451 235.24 187.451ZM237.601 191.063C237.308 191.063 237.055 190.999 236.843 190.869C236.632 190.739 236.469 190.556 236.354 190.323C236.24 190.088 236.183 189.814 236.183 189.503C236.183 189.191 236.24 188.916 236.354 188.679C236.469 188.44 236.628 188.254 236.833 188.12C237.039 187.986 237.279 187.918 237.554 187.918C237.712 187.918 237.869 187.945 238.023 187.997C238.178 188.05 238.318 188.136 238.445 188.255C238.572 188.372 238.673 188.528 238.748 188.722C238.823 188.916 238.861 189.155 238.861 189.439V189.637H236.516V189.233H238.386C238.386 189.062 238.351 188.909 238.283 188.774C238.215 188.639 238.119 188.533 237.994 188.455C237.869 188.377 237.723 188.338 237.554 188.338C237.368 188.338 237.207 188.384 237.071 188.477C236.936 188.568 236.832 188.687 236.76 188.833C236.687 188.98 236.651 189.137 236.651 189.305V189.574C236.651 189.804 236.69 189.999 236.77 190.158C236.85 190.317 236.962 190.438 237.104 190.521C237.247 190.603 237.413 190.644 237.601 190.644C237.724 190.644 237.835 190.626 237.934 190.592C238.034 190.556 238.121 190.504 238.194 190.434C238.266 190.362 238.322 190.274 238.362 190.168L238.813 190.295C238.766 190.448 238.686 190.583 238.574 190.699C238.462 190.814 238.323 190.904 238.158 190.968C237.993 191.032 237.807 191.063 237.601 191.063ZM241.727 188.639L241.307 188.758C241.281 188.688 241.242 188.62 241.19 188.554C241.14 188.487 241.071 188.431 240.984 188.388C240.897 188.344 240.785 188.322 240.649 188.322C240.463 188.322 240.308 188.365 240.184 188.451C240.061 188.536 240 188.643 240 188.774C240 188.89 240.042 188.982 240.127 189.049C240.211 189.116 240.343 189.173 240.523 189.218L240.974 189.328C241.246 189.394 241.449 189.495 241.582 189.631C241.716 189.766 241.782 189.94 241.782 190.152C241.782 190.327 241.732 190.482 241.632 190.62C241.533 190.757 241.394 190.865 241.216 190.945C241.038 191.024 240.83 191.063 240.594 191.063C240.284 191.063 240.027 190.996 239.824 190.861C239.62 190.727 239.491 190.53 239.437 190.271L239.881 190.16C239.923 190.324 240.003 190.447 240.121 190.529C240.239 190.61 240.395 190.651 240.586 190.651C240.804 190.651 240.977 190.605 241.105 190.513C241.234 190.419 241.299 190.307 241.299 190.176C241.299 190.07 241.262 189.982 241.188 189.911C241.114 189.838 241.001 189.784 240.848 189.748L240.34 189.629C240.062 189.563 239.857 189.461 239.727 189.322C239.597 189.183 239.532 189.008 239.532 188.798C239.532 188.626 239.581 188.474 239.677 188.342C239.775 188.21 239.907 188.106 240.075 188.031C240.244 187.956 240.436 187.918 240.649 187.918C240.95 187.918 241.187 187.984 241.358 188.116C241.531 188.248 241.654 188.423 241.727 188.639Z" fill="black" />
		</g>
		<path fillRule="evenodd" clipRule="evenodd" d="M220.707 195.35H225.089L222.898 197.74L220.707 195.35Z" fill="white" />
	</g>
	<path d="M234.347 50.836H235.602L237.284 54.9402H237.35L239.032 50.836H240.287V56.5H239.303V52.6088H239.25L237.685 56.4834H236.949L235.384 52.6005H235.331V56.5H234.347V50.836ZM243.213 56.583C242.799 56.583 242.439 56.4917 242.135 56.3092C241.831 56.1266 241.595 55.8713 241.427 55.5431C241.261 55.2149 241.178 54.8314 241.178 54.3926C241.178 53.9538 241.261 53.5694 241.427 53.2393C241.595 52.9093 241.831 52.653 242.135 52.4705C242.439 52.2879 242.799 52.1967 243.213 52.1967C243.628 52.1967 243.988 52.2879 244.292 52.4705C244.596 52.653 244.831 52.9093 244.997 53.2393C245.165 53.5694 245.249 53.9538 245.249 54.3926C245.249 54.8314 245.165 55.2149 244.997 55.5431C244.831 55.8713 244.596 56.1266 244.292 56.3092C243.988 56.4917 243.628 56.583 243.213 56.583ZM243.219 55.7809C243.444 55.7809 243.632 55.7192 243.783 55.5956C243.934 55.4703 244.047 55.3025 244.12 55.0923C244.196 54.8821 244.234 54.6479 244.234 54.3898C244.234 54.1299 244.196 53.8948 244.12 53.6846C244.047 53.4726 243.934 53.3039 243.783 53.1785C243.632 53.0531 243.444 52.9904 243.219 52.9904C242.988 52.9904 242.797 53.0531 242.644 53.1785C242.492 53.3039 242.379 53.4726 242.303 53.6846C242.23 53.8948 242.193 54.1299 242.193 54.3898C242.193 54.6479 242.23 54.8821 242.303 55.0923C242.379 55.3025 242.492 55.4703 242.644 55.5956C242.797 55.7192 242.988 55.7809 243.219 55.7809ZM247.1 54.0109V56.5H246.099V52.252H247.056V52.9738H247.105C247.203 52.736 247.359 52.547 247.573 52.4069C247.788 52.2667 248.055 52.1967 248.372 52.1967C248.665 52.1967 248.92 52.2594 249.138 52.3847C249.357 52.5101 249.527 52.6917 249.647 52.9296C249.769 53.1674 249.829 53.456 249.827 53.7952V56.5H248.826V53.9501C248.826 53.6661 248.752 53.444 248.604 53.2836C248.459 53.1232 248.257 53.043 247.999 53.043C247.823 53.043 247.668 53.0817 247.531 53.1591C247.397 53.2347 247.291 53.3444 247.213 53.4882C247.138 53.632 247.1 53.8063 247.1 54.0109ZM252.966 52.252V53.0264H250.524V52.252H252.966ZM251.127 51.2342H252.128V55.2223C252.128 55.3569 252.148 55.4601 252.189 55.532C252.231 55.6021 252.286 55.65 252.354 55.6758C252.423 55.7017 252.498 55.7146 252.581 55.7146C252.644 55.7146 252.701 55.71 252.753 55.7007C252.806 55.6915 252.847 55.6832 252.874 55.6758L253.043 56.4585C252.99 56.477 252.913 56.4972 252.814 56.5194C252.716 56.5415 252.596 56.5544 252.454 56.5581C252.203 56.5655 251.977 56.5277 251.776 56.4447C251.575 56.3599 251.416 56.229 251.298 56.052C251.182 55.875 251.125 55.6537 251.127 55.3882V51.2342ZM254.895 54.0109V56.5H253.894V50.836H254.873V52.9738H254.923C255.023 52.7341 255.177 52.5451 255.385 52.4069C255.595 52.2667 255.862 52.1967 256.187 52.1967C256.482 52.1967 256.739 52.2584 256.959 52.382C257.178 52.5055 257.348 52.6862 257.467 52.924C257.589 53.1619 257.65 53.4523 257.65 53.7952V56.5H256.649V53.9501C256.649 53.6643 256.575 53.4421 256.428 53.2836C256.282 53.1232 256.077 53.043 255.814 53.043C255.637 53.043 255.478 53.0817 255.338 53.1591C255.2 53.2347 255.091 53.3444 255.012 53.4882C254.934 53.632 254.895 53.8063 254.895 54.0109ZM259.672 50.836V56.5H258.67V50.836H259.672ZM261.323 58.093C261.187 58.093 261.061 58.0819 260.945 58.0598C260.83 58.0395 260.739 58.0156 260.671 57.9879L260.903 57.208C261.049 57.2504 261.179 57.2707 261.293 57.2688C261.407 57.267 261.508 57.231 261.594 57.161C261.683 57.0928 261.758 56.9785 261.818 56.818L261.904 56.5885L260.364 52.252H261.426L262.405 55.4601H262.449L263.431 52.252H264.496L262.795 57.0144C262.715 57.2393 262.61 57.432 262.479 57.5924C262.349 57.7547 262.188 57.8782 261.998 57.963C261.81 58.0497 261.585 58.093 261.323 58.093Z" fill="#7E8299" />
	<path d="M277.708 56.3339C277.637 56.3344 277.567 56.3207 277.501 56.2938C277.435 56.2669 277.375 56.2272 277.324 56.1771L274.079 52.9321C274.029 52.8818 273.988 52.822 273.961 52.7561C273.934 52.6902 273.919 52.6195 273.919 52.5481C273.919 52.4767 273.934 52.406 273.961 52.3401C273.988 52.2742 274.029 52.2144 274.079 52.1641C274.181 52.0634 274.318 52.0068 274.461 52.0068C274.604 52.0068 274.741 52.0634 274.842 52.1641L277.708 55.0305L280.569 52.1641C280.671 52.0634 280.808 52.0068 280.951 52.0068C281.094 52.0068 281.231 52.0634 281.332 52.1641C281.383 52.2144 281.423 52.2742 281.45 52.3401C281.478 52.406 281.492 52.4767 281.492 52.5481C281.492 52.6195 281.478 52.6902 281.45 52.7561C281.423 52.822 281.383 52.8818 281.332 52.9321L278.087 56.1771C277.986 56.277 277.85 56.3333 277.708 56.3339Z" fill="#7E8299" />
	<rect x="226.325" y="44.3245" width="60.351" height="18.351" rx="3.56951" stroke="#E1E3EA" strokeWidth="0.649002" />
	<defs>
		<filter id="filter0_d_310_1731" x="0.490002" y="0.300002" width="338.02" height="420.02" filterUnits="userSpaceOnUse" color-interpolation-filters="sRGB">
			<feFlood flood-opacity="0" result="BackgroundImageFix" />
			<feColorMatrix in="SourceAlpha" type="matrix" values="0 0 0 0 0 0 0 0 0 0 0 0 0 0 0 0 0 0 127 0" result="hardAlpha" />
			<feOffset dy="8.81" />
			<feGaussianBlur stdDeviation="17.755" />
			<feComposite in2="hardAlpha" operator="out" />
			<feColorMatrix type="matrix" values="0 0 0 0 0.2 0 0 0 0 0.14902 0 0 0 0 0.682353 0 0 0 0.08 0" />
			<feBlend mode="normal" in2="BackgroundImageFix" result="effect1_dropShadow_310_1731" />
			<feBlend mode="normal" in="SourceGraphic" in2="effect1_dropShadow_310_1731" result="shape" />
		</filter>
		<filter id="filter1_d_310_1731" x="26" y="21" width="287" height="369" filterUnits="userSpaceOnUse" color-interpolation-filters="sRGB">
			<feFlood flood-opacity="0" result="BackgroundImageFix" />
			<feColorMatrix in="SourceAlpha" type="matrix" values="0 0 0 0 0 0 0 0 0 0 0 0 0 0 0 0 0 0 127 0" result="hardAlpha" />
			<feOffset dy="4" />
			<feGaussianBlur stdDeviation="5" />
			<feComposite in2="hardAlpha" operator="out" />
			<feColorMatrix type="matrix" values="0 0 0 0 0 0 0 0 0 0 0 0 0 0 0 0 0 0 0.08 0" />
			<feBlend mode="normal" in2="BackgroundImageFix" result="effect1_dropShadow_310_1731" />
			<feBlend mode="normal" in="SourceGraphic" in2="effect1_dropShadow_310_1731" result="shape" />
		</filter>
		<filter id="filter2_d_310_1731" x="188" y="173" width="69" height="34.74" filterUnits="userSpaceOnUse" color-interpolation-filters="sRGB">
			<feFlood flood-opacity="0" result="BackgroundImageFix" />
			<feColorMatrix in="SourceAlpha" type="matrix" values="0 0 0 0 0 0 0 0 0 0 0 0 0 0 0 0 0 0 127 0" result="hardAlpha" />
			<feOffset />
			<feGaussianBlur stdDeviation="5" />
			<feComposite in2="hardAlpha" operator="out" />
			<feColorMatrix type="matrix" values="0 0 0 0 0 0 0 0 0 0 0 0 0 0 0 0 0 0 0.12 0" />
			<feBlend mode="normal" in2="BackgroundImageFix" result="effect1_dropShadow_310_1731" />
			<feBlend mode="normal" in="SourceGraphic" in2="effect1_dropShadow_310_1731" result="shape" />
		</filter>
		<clipPath id="clip0_310_1731">
			<rect x="198" y="183" width="49" height="13" rx="2" fill="white" />
		</clipPath>
	</defs>
</svg>
