<svg width="761" height="1157" viewBox="0 0 761 1157" fill="none" xmlns="http://www.w3.org/2000/svg">
	<path fill-rule="evenodd" clip-rule="evenodd" d="M871.731 867.06C787.471 957.03 652.828 964.216 530.316 950.598C410.882 937.322 294.314 893.286 224.939 795.164C152.518 692.734 126.507 559.125 170.463 441.632C212.692 328.752 324.902 267.684 437.928 225.847C550.959 184.008 678.475 152.837 781.447 215.474C884.126 277.931 912.709 405.635 929.204 524.681C945.915 645.28 954.957 778.195 871.731 867.06Z" fill="#F5F4F8" />
	<g clip-path="url(#clip0_1726_26562)">
		<path d="M592.982 326.645L565.689 340.385C563.649 341.257 562.324 343.268 562.324 345.494V358.307C562.324 369.754 565.508 381.098 572.057 391.114C576.972 398.631 583.492 408.24 594.341 413.734H599.239C611.314 410.037 620.329 400.184 625.84 391.756C632.389 381.742 635.572 370.398 635.572 358.951V345.494C635.572 343.268 634.248 341.257 632.207 340.385L601.118 327.09C599.731 326.497 594.368 326.052 592.982 326.645Z" fill="#DADBD8" />
		<path d="M591.88 327.089L560.79 340.384C558.75 341.256 557.426 343.267 557.426 345.493V358.306C557.426 369.753 560.609 381.097 567.158 391.113C572.669 399.54 581.203 408.218 594.339 413.733C606.416 410.036 615.43 400.183 620.941 391.755C627.49 381.741 630.674 370.397 630.674 358.95V345.493C630.674 343.267 629.35 341.256 627.309 340.384L596.219 327.089C594.833 326.496 593.266 326.496 591.88 327.089Z" fill="#F3F2F1" />
		<path d="M630.578 355.479C630.594 355.478 630.614 355.681 630.636 356.068C630.656 356.508 630.681 357.07 630.712 357.765C630.741 358.502 630.784 359.405 630.733 360.454C630.679 361.5 630.724 362.7 630.571 364.012C630.446 365.327 630.358 366.774 630.089 368.305C629.965 369.072 629.867 369.871 629.71 370.684C629.536 371.494 629.358 372.326 629.175 373.18C628.362 376.576 627.236 380.267 625.59 383.954C623.94 387.637 621.99 390.962 620.013 393.841C618.978 395.247 618.022 396.605 616.997 397.772C616.493 398.362 616.036 398.957 615.544 399.483C615.051 400.006 614.577 400.508 614.125 400.99C613.243 401.972 612.338 402.753 611.582 403.477C610.832 404.207 610.139 404.784 609.564 405.244C609.024 405.68 608.587 406.033 608.246 406.31C607.942 406.549 607.776 406.668 607.766 406.655C607.756 406.642 607.9 406.497 608.184 406.234C608.51 405.94 608.926 405.565 609.441 405.101C609.995 404.619 610.667 404.025 611.397 403.278C612.131 402.539 613.015 401.745 613.876 400.753C614.318 400.268 614.782 399.76 615.263 399.233C615.745 398.704 616.193 398.107 616.686 397.515C617.692 396.345 618.628 394.987 619.646 393.585C621.587 390.713 623.509 387.409 625.147 383.755C626.779 380.099 627.909 376.443 628.739 373.077C628.928 372.232 629.112 371.406 629.29 370.602C629.455 369.797 629.559 369.005 629.69 368.244C629.976 366.725 630.082 365.289 630.229 363.983C630.403 362.68 630.383 361.487 630.461 360.446C630.537 359.402 630.522 358.503 630.522 357.767C630.529 357.072 630.535 356.511 630.538 356.071C630.548 355.684 630.561 355.479 630.578 355.479Z" fill="#DADBD8" />
		<path d="M591.741 383.332L573.906 369.102L578.855 362.856L590.813 372.398L608.277 352.784L614.205 358.101L591.741 383.332Z" fill="white" />
		<path d="M675.967 396.746H672.593V378.313C672.593 373.975 669.076 370.445 664.753 370.445C660.431 370.445 656.914 373.975 656.914 378.313V396.746H653.539V378.313C653.539 372.108 658.57 367.059 664.753 367.059C670.937 367.059 675.967 372.108 675.967 378.313V396.746Z" fill="#E7E8E5" />
		<path d="M676.995 408.008H652.512C650.926 408.008 649.641 406.717 649.641 405.126V387.114C649.641 385.523 650.926 384.232 652.512 384.232H676.995C678.58 384.232 679.866 385.523 679.866 387.114V405.126C679.866 406.717 678.58 408.008 676.995 408.008Z" fill="#E7E8E5" />
		<path d="M667.074 396.739C667.666 396.142 668.031 395.321 668.031 394.41C668.031 392.568 666.543 391.075 664.707 391.075C662.871 391.075 661.383 392.568 661.383 394.41C661.383 395.935 662.408 397.207 663.8 397.605L663.086 400.775H666.25L665.614 397.605C666.175 397.444 666.676 397.143 667.074 396.739Z" fill="#FAFAF9" />
		<path d="M292.383 665.869C288.777 663.596 284.646 662.169 280.41 661.733C278.453 661.532 276.316 661.589 274.747 662.778C274.413 663.031 274.089 663.404 274.163 663.816C274.218 664.119 274.473 664.34 274.717 664.526C279.589 668.256 286.958 668.727 292.383 665.869Z" fill="#DADBD8" />
		<path d="M292.077 665.525C289.367 663.403 286.64 661.266 284.344 658.697C282.047 656.128 280.181 653.079 279.495 649.698C279.287 648.672 279.223 647.501 279.879 646.687C286.043 651.518 290.885 657.767 292.077 665.525Z" fill="#DADBD8" />
		<path d="M292.323 665.821C291.858 662.437 291.691 658.959 292.466 655.632C293.24 652.304 295.044 649.121 297.874 647.223C298.939 649.722 298.482 652.6 297.731 655.212C296.571 659.247 294.752 663.091 292.369 666.543" fill="#DADBD8" />
		<path d="M298.364 676.686C294.695 677.133 291.501 679.074 288.762 681.563C286.023 684.053 284.076 687.407 283.27 691.025C286.868 690.803 289.92 688.256 292.134 685.401C294.348 682.545 295.881 679.413 298.314 676.742" fill="#DADBD8" />
		<path d="M299.674 678.426C296.72 671.122 297.79 662.32 302.409 655.944C304.499 663.404 303.732 671.832 299.674 678.426Z" fill="#DADBD8" />
		<path d="M307.661 687.965C304.332 687.758 300.948 688.554 298.057 690.223C295.167 691.893 292.781 694.431 291.287 697.425C291.084 697.831 290.905 698.349 291.177 698.713C291.413 699.03 291.87 699.06 292.263 699.034C295.49 698.824 298.35 696.875 300.71 694.657C303.07 692.437 305.126 689.874 307.734 687.956" fill="#DADBD8" />
		<path d="M307.406 687.448C305.689 681.934 305.582 675.924 307.102 670.352C307.702 668.151 308.709 665.834 310.737 664.802C310.91 664.714 311.112 664.635 311.293 664.704C311.465 664.769 311.565 664.946 311.645 665.113C312.366 666.625 312.576 668.343 312.502 670.018C312.428 671.693 312.081 673.342 311.736 674.983C311.098 678.018 310.758 681.28 309.099 683.896C308.706 684.518 308.359 685.188 308.045 685.854C307.731 686.519 307.729 686.753 307.441 687.282" fill="#DADBD8" />
		<path d="M328.54 690.607C326.974 684.63 328.636 677.383 332.39 672.483C332.666 672.122 333.032 671.735 333.484 671.777C334.175 671.841 334.354 672.765 334.323 673.461C334.052 679.569 332.022 685.59 328.54 690.607Z" fill="#DADBD8" />
		<path d="M330.445 691.914C337.682 693.804 345.983 691.968 352.002 687.514C348.435 685.7 344.23 685.182 340.332 686.077C336.434 686.972 332.872 688.725 330.445 691.914Z" fill="#DADBD8" />
		<path d="M332.047 687.934C336.1 681.302 343.869 676.974 351.611 676.58C350.719 679.74 348.132 682.196 345.212 683.68C342.292 685.165 339.034 685.811 335.821 686.436C334.571 686.681 332.857 686.948 332.047 687.934Z" fill="#DADBD8" />
		<path d="M328.944 668.62C330.041 664.846 331.144 661.04 331.446 657.121C331.747 653.202 331.19 649.11 329.164 645.746C325.378 653.098 324.995 661.688 328.83 669.014" fill="#DADBD8" />
		<path d="M341.688 662.158C346.114 654.082 355.146 647.632 364.286 646.728C360.76 655.539 351.145 662.347 341.688 662.158Z" fill="#DADBD8" />
		<path d="M338.902 663.738C345.505 664.748 351.13 668.98 357.3 671.545C358.619 672.094 360.043 672.531 361.459 672.345C362.875 672.159 364.272 671.205 364.59 669.807C364.854 668.647 364.327 667.415 363.498 666.565C362.668 665.714 361.571 665.183 360.476 664.725C353.756 661.918 346.549 661.848 339.471 663.55" fill="#DADBD8" />
		<path d="M335.078 668.384C336.573 668.813 337.083 669.59 338.267 670.602C342.283 674.034 347.099 676.518 352.218 677.795C352.751 677.928 353.45 677.98 353.714 677.497C353.945 677.075 353.653 676.563 353.354 676.188C351.209 673.495 348.15 671.652 344.93 670.449C341.71 669.245 338.921 667.795 335.078 668.106" fill="#DADBD8" />
		<path d="M330.77 640.315C336.138 645.344 343.7 647.927 351.011 647.227C351.344 647.195 351.707 647.142 351.933 646.895C352.442 646.338 351.831 645.48 351.237 645.015C345.286 640.358 338.078 638.428 330.77 640.315Z" fill="#DADBD8" />
		<path d="M335.883 638.44C342.98 633.1 352.711 631.488 361.141 634.257C357.96 637.403 353.547 639.096 349.105 639.56C344.663 640.025 340.215 639.53 335.883 638.44Z" fill="#DADBD8" />
		<path d="M333.849 625.541C333.265 619.58 333.644 614.873 333.232 608.884C333.199 608.405 333.096 607.829 332.651 607.657C332.03 607.417 331.512 608.183 331.308 608.819C329.539 614.34 330.506 620.672 333.841 625.41" fill="#DADBD8" />
		<path d="M333.422 626.197C337.448 623.699 340.468 620.435 343.262 616.6C345.205 613.931 346.843 610.734 346.402 607.457C343.672 607.403 341.079 608.913 339.304 610.995C337.529 613.076 336.474 615.678 335.686 618.301C334.898 620.924 334.346 623.619 333.422 626.197Z" fill="#DADBD8" />
		<path d="M343.087 623.504C351.923 620.224 360.167 615.346 367.303 609.174C364.41 608.004 361.098 608.703 358.207 609.875C351.599 612.552 346.202 617.07 342.961 623.438" fill="#DADBD8" />
		<path d="M336.141 629.46C340.611 629.951 345.151 630.27 349.587 629.526C353.946 628.794 358.066 627.06 362.139 625.34C362.477 625.197 362.844 625.026 362.992 624.69C363.153 624.325 362.981 623.88 362.686 623.612C362.391 623.344 361.999 623.216 361.616 623.108C357.187 621.865 352.408 622.447 348.051 623.922C343.693 625.397 340.121 627.148 336.141 629.46Z" fill="#DADBD8" />
		<path d="M310.615 640.519C307.565 634.34 307.764 627.131 310.398 620.763C312.253 623.598 312.479 627.21 312.14 630.586C311.801 633.961 310.777 637.434 310.711 640.826" fill="#DADBD8" />
		<path d="M298.433 634.354C290.818 634.208 283.202 637.464 278.031 643.076C281.832 643.676 285.746 642.692 289.203 640.997C292.66 639.303 295.731 636.927 298.776 634.567" fill="#DADBD8" />
		<path d="M290.243 631.604C286.518 631.301 282.933 630.838 279.352 631.94C275.77 633.041 272.511 635.541 271.051 639.003C274.535 639.397 278.068 638.521 281.261 637.068C284.455 635.616 287.359 633.605 290.243 631.604Z" fill="#DADBD8" />
		<path d="M302.37 631.728C299.019 629.524 295.578 627.28 291.676 626.367C287.774 625.455 283.252 626.129 280.531 629.081C283.69 630.941 287.522 631.161 291.184 631.158C294.846 631.155 299.336 631.113 302.788 632.34" fill="#DADBD8" />
		<path d="M302.389 631.908C296.66 626.261 294.488 616.119 296.793 608.4C301.297 615.267 303.313 623.74 302.389 631.908Z" fill="#DADBD8" />
		<path d="M318.141 615.911C319.221 613.39 319.981 610.744 320.95 608.178C321.92 605.612 323.124 603.086 324.956 601.049C326.788 599.011 329.321 597.494 332.052 597.358C330.342 605.127 325.201 612.069 318.281 615.951" fill="#DADBD8" />
		<path d="M315.288 619.244C313.5 616.774 311.434 613.421 309.01 611.577C306.585 609.735 303.428 608.618 300.469 609.326C303.478 614.726 309.165 618.532 315.288 619.244Z" fill="#DADBD8" />
		<path d="M315.861 616.114C314.689 613.125 313.508 610.105 313.035 606.929C312.56 603.752 312.849 600.359 314.467 597.588C317.612 603.555 318.625 609.959 316.021 616.182" fill="#DADBD8" />
		<path d="M318.172 597.588C319.953 591.674 325.349 587.319 331.175 585.32C331.91 585.069 332.688 584.859 333.455 584.978C334.222 585.097 334.974 585.623 335.135 586.385C335.348 587.392 334.52 588.293 333.741 588.961C329.204 592.854 323.871 595.81 318.172 597.588Z" fill="#DADBD8" />
		<path d="M318.234 592.752C318.46 588.939 318.698 585.07 319.933 581.457C321.169 577.844 323.551 574.454 327.016 572.873C327.605 576.725 325.912 580.557 323.87 583.871C321.828 587.185 319.367 590.313 318.141 594.01" fill="#DADBD8" />
		<path d="M318.144 595.377C316.672 591.067 316.519 585.592 313.948 581.837C312.15 579.212 309.271 577.423 307.723 574.644C306.693 577.24 307.008 580.232 308.084 582.81C309.161 585.387 310.939 587.605 312.842 589.645C314.745 591.685 316.375 593.219 318.144 595.377Z" fill="#DADBD8" />
		<path d="M318.171 722.312C318.057 722.314 317.957 693.559 317.95 658.097C317.942 622.623 318.028 593.875 318.142 593.875C318.257 593.875 318.356 622.623 318.364 658.097C318.372 693.559 318.285 722.312 318.171 722.312Z" fill="#DADBD8" />
		<path d="M343.207 636.181C343.215 636.208 342.83 636.351 342.13 636.586C341.356 636.849 340.36 637.186 339.165 637.59C336.665 638.445 333.232 639.682 329.505 641.215C325.815 642.804 322.335 644.094 320.353 645.818C319.363 646.668 318.794 647.589 318.514 648.259C318.229 648.934 318.179 649.347 318.141 649.34C318.127 649.338 318.131 649.235 318.153 649.038C318.186 648.844 318.236 648.555 318.364 648.2C318.605 647.491 319.158 646.507 320.158 645.598C321.154 644.687 322.541 643.867 324.13 643.122C325.718 642.378 327.478 641.602 329.348 640.831C333.086 639.294 336.547 638.096 339.074 637.311C340.338 636.916 341.368 636.624 342.083 636.432C342.799 636.244 343.199 636.153 343.207 636.181Z" fill="#DADBD8" />
		<path d="M351.415 615.948C351.424 615.959 351.32 616.07 351.113 616.271C350.869 616.502 350.565 616.787 350.194 617.138C349.34 617.917 348.178 618.976 346.762 620.267C343.798 622.915 339.779 626.507 335.339 630.475C330.879 634.459 327.026 638.266 324.355 641.131C323.018 642.563 321.965 643.748 321.247 644.576C320.911 644.96 320.637 645.275 320.416 645.528C320.224 645.743 320.117 645.852 320.106 645.843C320.095 645.834 320.18 645.708 320.351 645.474C320.525 645.243 320.777 644.899 321.123 644.472C321.805 643.611 322.827 642.393 324.14 640.933C326.763 638.008 330.595 634.156 335.063 630.165C339.537 626.191 343.609 622.62 346.568 620.047C348.02 618.796 349.212 617.771 350.087 617.017C350.479 616.69 350.8 616.423 351.058 616.209C351.283 616.027 351.405 615.937 351.415 615.948Z" fill="#DADBD8" />
		<path d="M330.526 634.529C330.409 634.476 331.34 632.318 332.269 629.587C333.205 626.858 333.646 624.554 333.765 624.573C333.873 624.585 333.609 626.956 332.661 629.721C332.194 631.1 331.679 632.315 331.274 633.176C330.868 634.038 330.576 634.551 330.526 634.529Z" fill="#DADBD8" />
		<path d="M318.196 651.931C318.173 651.948 317.93 651.662 317.509 651.13C317.043 650.53 316.453 649.771 315.749 648.865C314.27 646.946 312.226 644.299 309.935 641.401C307.642 638.503 305.537 635.904 304.011 634.023C303.292 633.129 302.688 632.38 302.212 631.788C301.792 631.257 301.57 630.954 301.591 630.935C301.613 630.916 301.876 631.184 302.334 631.683C302.793 632.182 303.443 632.916 304.235 633.834C305.82 635.668 307.964 638.241 310.259 641.142C312.553 644.044 314.563 646.723 315.983 648.688C316.693 649.67 317.259 650.473 317.639 651.034C318.02 651.596 318.219 651.914 318.196 651.931Z" fill="#DADBD8" />
		<path d="M312.708 644.859C312.641 644.931 311.176 643.188 310.408 640.537C309.843 638.67 309.817 636.962 309.887 636.181L310.07 636.196C309.988 636.53 309.928 636.705 309.895 636.699C309.863 636.694 309.861 636.509 309.888 636.166L310.071 636.181C310.138 636.956 310.255 638.605 310.805 640.419C311.546 642.987 312.82 644.788 312.708 644.859Z" fill="#DADBD8" />
		<path d="M305.619 635.91C305.566 635.967 305.095 635.372 304.014 634.974C302.941 634.557 301.327 634.466 299.556 634.618C297.783 634.749 296.2 635.066 295.066 635.346C293.933 635.627 293.24 635.848 293.219 635.79C293.2 635.741 293.86 635.42 294.988 635.062C296.114 634.706 297.719 634.337 299.525 634.204C301.316 634.049 303.015 634.187 304.124 634.701C305.247 635.201 305.657 635.9 305.619 635.91Z" fill="#DADBD8" />
		<path d="M303.94 633.742C303.909 633.806 303.005 633.365 301.48 632.843C299.958 632.317 297.79 631.766 295.342 631.575C292.893 631.391 290.667 631.607 289.083 631.894C287.497 632.179 286.537 632.478 286.516 632.408C286.507 632.381 286.739 632.284 287.168 632.13C287.595 631.97 288.23 631.787 289.026 631.606C290.614 631.241 292.88 630.974 295.374 631.161C297.866 631.355 300.065 631.963 301.58 632.567C302.339 632.866 302.939 633.144 303.338 633.367C303.739 633.584 303.953 633.716 303.94 633.742Z" fill="#DADBD8" />
		<path d="M318.141 624.574C318.03 624.602 317.227 621.802 316.347 618.32C315.467 614.837 314.843 611.991 314.954 611.963C315.065 611.935 315.868 614.735 316.748 618.217C317.628 621.7 318.252 624.546 318.141 624.574Z" fill="#DADBD8" />
		<path d="M318.26 624.574C318.137 624.614 317.621 622.743 316.272 620.829C314.96 618.875 313.284 617.895 313.345 617.797C313.367 617.754 313.83 617.925 314.475 618.383C315.122 618.834 315.921 619.6 316.611 620.59C318.011 622.582 318.361 624.566 318.26 624.574Z" fill="#DADBD8" />
		<path d="M318.169 706.986C318.124 706.993 318.04 706.295 317.717 705.074C317.398 703.853 316.797 702.12 315.803 700.096C313.823 696.035 310.221 690.889 305.645 685.733C303.377 683.132 301.176 680.679 299.309 678.33C297.439 675.984 295.901 673.749 294.779 671.772C293.652 669.796 292.919 668.101 292.491 666.905C292.281 666.306 292.127 665.838 292.043 665.514C291.952 665.192 291.911 665.022 291.924 665.018C291.962 665.005 292.17 665.675 292.642 666.848C293.113 668.019 293.882 669.682 295.031 671.624C296.178 673.567 297.728 675.769 299.606 678.089C301.481 680.415 303.685 682.854 305.956 685.459C310.545 690.628 314.139 695.841 316.066 699.968C317.035 702.027 317.6 703.792 317.874 705.035C318.006 705.657 318.096 706.142 318.127 706.477C318.168 706.809 318.183 706.984 318.169 706.986Z" fill="#DADBD8" />
		<path d="M340.795 681.339C340.808 681.37 340.375 681.59 339.609 682.008C338.849 682.435 337.77 683.096 336.533 684.047C335.297 684.998 333.914 686.245 332.494 687.745C331.077 689.248 329.616 690.993 328.126 692.864C325.146 696.616 322.359 699.936 320.69 702.587C319.843 703.901 319.227 705.01 318.823 705.787C318.416 706.564 318.201 706.999 318.17 706.986C318.158 706.981 318.195 706.864 318.28 706.648C318.369 706.434 318.488 706.113 318.679 705.716C319.04 704.913 319.621 703.775 320.442 702.43C322.063 699.715 324.828 696.35 327.803 692.603C329.296 690.729 330.775 688.981 332.219 687.48C333.666 685.982 335.085 684.743 336.358 683.812C337.631 682.881 338.745 682.252 339.534 681.864C339.927 681.665 340.248 681.544 340.46 681.453C340.674 681.365 340.789 681.326 340.795 681.339Z" fill="#DADBD8" />
		<path d="M341.238 689.659C341.243 689.72 340.281 689.837 338.731 690.024C337.188 690.224 335.039 690.484 332.788 691.199C330.545 691.933 328.68 693.05 327.466 694.002C326.239 694.954 325.661 695.741 325.604 695.695C325.584 695.68 325.704 695.466 325.975 695.115C326.243 694.764 326.682 694.292 327.281 693.775C328.476 692.741 330.358 691.557 332.661 690.804C334.967 690.071 337.145 689.859 338.702 689.732C340.265 689.619 341.233 689.605 341.238 689.659Z" fill="#DADBD8" />
		<path d="M326.335 694.78C326.204 694.705 327.333 692.974 328.209 690.645C329.031 688.295 329.224 686.234 329.371 686.257C329.425 686.264 329.422 686.78 329.33 687.608C329.231 688.432 329.034 689.579 328.599 690.787C328.161 691.992 327.586 693.001 327.145 693.702C326.698 694.403 326.381 694.808 326.335 694.78Z" fill="#DADBD8" />
		<path d="M348.124 659.003C348.129 659.017 347.991 659.09 347.723 659.217C347.412 659.359 347.023 659.537 346.545 659.755C346.03 659.977 345.403 660.258 344.698 660.631C343.99 660.998 343.163 661.376 342.303 661.894C341.866 662.144 341.41 662.404 340.936 662.675C340.462 662.948 339.993 663.273 339.494 663.587C338.486 664.2 337.476 664.956 336.399 665.727C334.289 667.334 332.072 669.235 329.937 671.431C327.823 673.648 326.005 675.938 324.477 678.108C323.746 679.216 323.028 680.255 322.451 681.287C322.156 681.798 321.848 682.279 321.592 682.764C321.338 683.25 321.095 683.716 320.862 684.162C320.375 685.043 320.027 685.884 319.686 686.608C319.339 687.327 319.079 687.965 318.876 688.491C318.676 688.977 318.512 689.373 318.382 689.69C318.264 689.963 318.196 690.104 318.182 690.099C318.169 690.095 318.211 689.944 318.303 689.662C318.415 689.337 318.554 688.93 318.726 688.432C318.907 687.896 319.145 687.247 319.474 686.515C319.796 685.78 320.127 684.925 320.6 684.03C320.827 683.577 321.064 683.103 321.311 682.612C321.562 682.119 321.864 681.63 322.155 681.113C322.722 680.065 323.435 679.012 324.163 677.891C325.684 675.692 327.508 673.376 329.639 671.142C331.791 668.929 334.034 667.021 336.171 665.419C337.263 664.651 338.287 663.901 339.31 663.296C339.816 662.986 340.293 662.666 340.774 662.398C341.256 662.134 341.719 661.88 342.163 661.636C343.037 661.132 343.877 660.77 344.598 660.422C345.316 660.067 345.955 659.806 346.482 659.606C346.972 659.417 347.373 659.262 347.693 659.14C347.971 659.037 348.119 658.99 348.124 659.003Z" fill="#DADBD8" />
		<path d="M330.215 671.041C330.179 671.034 330.378 670.337 331.199 669.569C332.001 668.803 333.464 668.093 335.167 668.042C336.864 667.997 338.336 668.473 339.341 668.86C340.352 669.259 340.939 669.582 340.92 669.63C340.896 669.688 340.267 669.46 339.245 669.138C338.227 668.825 336.788 668.413 335.18 668.457C333.577 668.507 332.193 669.126 331.39 669.792C330.57 670.455 330.281 671.081 330.215 671.041Z" fill="#DADBD8" />
		<path d="M327.54 673.815C327.427 673.751 328.436 672.266 328.666 670.137C328.931 668.011 328.289 666.332 328.414 666.297C328.46 666.278 328.684 666.668 328.88 667.368C329.075 668.064 329.205 669.078 329.078 670.185C328.947 671.291 328.589 672.248 328.239 672.88C327.889 673.515 327.58 673.844 327.54 673.815Z" fill="#DADBD8" />
		<path d="M298.383 711.106C299 722.096 302.3 733.271 307.375 744.57H329.443C334.283 733.383 337.355 722.225 337.901 711.106H298.383Z" fill="#DADBD8" />
		<path d="M334.324 728.889C334.324 729.004 327.058 729.097 318.096 729.097C309.132 729.097 301.867 729.004 301.867 728.889C301.867 728.773 309.132 728.681 318.096 728.681C327.058 728.681 334.324 728.773 334.324 728.889Z" fill="#FAFAF9" />
		<path d="M333.833 732.866C333.833 732.982 327.021 733.074 318.62 733.074C310.216 733.074 303.406 732.982 303.406 732.866C303.406 732.752 310.216 732.658 318.62 732.658C327.021 732.658 333.833 732.752 333.833 732.866Z" fill="#FAFAF9" />
		<path d="M307.731 718.32C307.845 718.32 307.938 720.604 307.938 723.422C307.938 726.239 307.845 728.523 307.731 728.523C307.616 728.523 307.523 726.239 307.523 723.422C307.523 720.604 307.616 718.32 307.731 718.32Z" fill="#FAFAF9" />
		<path d="M319.559 718.319C319.673 718.319 319.766 720.685 319.766 723.603C319.766 726.52 319.673 728.886 319.559 728.886C319.444 728.886 319.352 726.52 319.352 723.603C319.352 720.685 319.444 718.319 319.559 718.319Z" fill="#FAFAF9" />
		<path d="M330.656 718.228C330.771 718.228 330.863 720.642 330.863 723.618C330.863 726.594 330.771 729.006 330.656 729.006C330.542 729.006 330.449 726.594 330.449 723.618C330.449 720.642 330.542 718.228 330.656 718.228Z" fill="#FAFAF9" />
		<path d="M337.2 718.32C337.2 718.435 328.678 718.527 318.168 718.527C307.654 718.527 299.133 718.435 299.133 718.32C299.133 718.205 307.654 718.112 318.168 718.112C328.678 718.112 337.2 718.205 337.2 718.32Z" fill="#FAFAF9" />
		<path d="M679.567 615.845C683.482 614.197 686.266 610.145 686.289 605.37C686.315 599.115 681.598 594.022 675.754 593.995C669.912 593.968 665.153 599.017 665.127 605.271C665.107 610.09 667.912 614.191 671.869 615.845C655.586 618.307 656.325 636.068 656.325 636.068L694.83 636.246C694.83 636.246 695.708 618.292 679.567 615.845Z" fill="#FFAA45" />
		<path d="M506.467 357.647C509.209 357.176 511.583 355.003 512.301 351.96C513.24 347.972 510.98 344.022 507.254 343.137C503.53 342.253 499.749 344.768 498.812 348.756C498.089 351.828 499.274 354.861 501.556 356.505C490.802 355.659 488.656 367.102 488.656 367.102L513.202 372.932C513.202 372.932 516.408 361.604 506.467 357.647Z" fill="#FFAA45" fill-opacity="0.45" />
		<path d="M680.615 452.985C682.902 451.607 684.27 448.836 683.856 445.866C683.312 441.975 679.924 439.234 676.288 439.745C672.653 440.254 670.147 443.823 670.691 447.714C671.111 450.711 673.221 453.008 675.83 453.68C665.927 456.679 667.976 467.654 667.976 467.654L691.932 464.292C691.932 464.292 690.869 453.05 680.615 452.985Z" fill="#FFAA45" fill-opacity="0.4" />
		<path d="M296.16 456.377L283.219 446.052L286.809 441.519L295.487 448.443L308.159 434.21L312.461 438.069L296.16 456.377Z" fill="#0E9FD6" fill-opacity="0.55" />
		<path d="M688.211 744.902C688.211 745.037 594.772 745.146 479.536 745.146C364.259 745.146 270.84 745.037 270.84 744.902C270.84 744.767 364.259 744.659 479.536 744.659C594.772 744.659 688.211 744.767 688.211 744.902Z" fill="#17282F" />
		<path d="M313.821 471.34L285.2 485.749C283.061 486.663 281.672 488.772 281.672 491.107V504.544C281.672 516.548 285.01 528.445 291.878 538.947C297.033 546.83 303.871 556.907 315.247 562.668H320.382C333.046 558.792 342.5 548.458 348.279 539.621C355.147 529.119 358.485 517.223 358.485 505.218V491.107C358.485 488.772 357.096 486.663 354.956 485.749L322.353 471.807C320.9 471.185 315.275 470.719 313.821 471.34Z" fill="#F2575D" />
		<path d="M320.377 562.668H315.242C327.906 558.792 337.359 548.458 343.138 539.621C345.347 536.243 347.191 532.721 348.676 529.097V538.997C348.544 539.205 348.409 539.414 348.274 539.621C342.494 548.458 333.041 558.792 320.377 562.668ZM348.676 485.262L317.212 471.807C316.486 471.496 315.712 471.34 314.938 471.34C314.422 471.34 313.907 471.409 313.406 471.546L313.816 471.34C314.301 471.133 315.248 471.046 316.351 471.046C318.556 471.046 321.379 471.392 322.348 471.807L348.676 483.066V485.262Z" fill="#001749" />
		<path d="M312.663 471.807L280.06 485.749C277.92 486.663 276.531 488.772 276.531 491.107V504.544C276.531 516.548 279.869 528.445 286.737 538.947C292.516 547.784 301.465 556.884 315.242 562.668C327.906 558.792 337.359 548.458 343.138 539.621C350.006 529.119 353.344 517.223 353.344 505.218V491.107C353.344 488.772 351.955 486.663 349.816 485.749L317.213 471.807C315.759 471.185 314.116 471.185 312.663 471.807Z" fill="#FFAA45" />
		<path d="M314.943 534.209C303.139 534.209 293.57 524.606 293.57 512.759C293.57 500.913 303.139 491.309 314.943 491.309C326.746 491.309 336.315 500.913 336.315 512.759C336.315 524.606 326.746 534.209 314.943 534.209Z" fill="white" />
		<path d="M323.809 505.037C323.809 509.955 319.836 513.941 314.936 513.941C310.035 513.941 306.062 509.955 306.062 505.037C306.062 500.119 310.035 496.131 314.936 496.131C319.836 496.131 323.809 500.119 323.809 505.037Z" fill="#001749" />
		<path d="M298.734 526.739C298.734 526.739 302.865 516.848 314.612 516.848C326.359 516.848 331.144 526.739 331.144 526.739C331.144 526.739 325.904 534.509 314.311 534.208C303.817 533.936 298.734 526.739 298.734 526.739Z" fill="#001749" />
		<path d="M353.239 501.578C353.255 501.577 353.275 501.789 353.298 502.196C353.318 502.653 353.343 503.244 353.375 503.975C353.404 504.748 353.449 505.695 353.395 506.795C353.379 507.347 353.362 507.934 353.344 508.555C353.337 509.18 353.298 509.837 353.224 510.526C353.092 511.905 353 513.422 352.716 515.027C352.586 515.831 352.484 516.668 352.318 517.521C352.136 518.37 351.949 519.244 351.758 520.139C350.905 523.698 349.724 527.569 347.999 531.434C346.267 535.296 344.223 538.782 342.152 541.802C341.066 543.276 340.065 544.699 338.989 545.923C338.462 546.542 337.982 547.166 337.466 547.717C336.95 548.266 336.454 548.794 335.979 549.299C335.055 550.329 334.106 551.147 333.315 551.908C332.528 552.674 331.802 553.279 331.199 553.762C330.632 554.223 330.173 554.593 329.818 554.881C329.5 555.133 329.327 555.258 329.317 555.245C329.306 555.232 329.458 555.08 329.756 554.805C330.096 554.5 330.533 554.106 331.076 553.619C331.658 553.114 332.363 552.491 333.129 551.708C333.899 550.933 334.827 550.101 335.73 549.061C336.195 548.552 336.68 548.02 337.186 547.468C337.691 546.913 338.161 546.287 338.678 545.666C339.734 544.439 340.716 543.015 341.784 541.545C343.82 538.533 345.836 535.068 347.555 531.236C349.267 527.4 350.451 523.565 351.322 520.035C351.519 519.147 351.712 518.281 351.899 517.439C352.071 516.594 352.18 515.764 352.318 514.966C352.617 513.373 352.728 511.866 352.881 510.497C352.967 509.813 353.017 509.159 353.035 508.538C353.066 507.92 353.096 507.336 353.123 506.786C353.203 505.692 353.186 504.749 353.186 503.978C353.192 503.246 353.197 502.656 353.2 502.199C353.209 501.792 353.222 501.578 353.239 501.578Z" fill="#0E9FD6" fill-opacity="0.55" />
		<path d="M580.113 744.902H359.487C353.516 744.902 348.676 739.877 348.676 733.679V395.216C348.676 389.016 353.516 383.992 359.487 383.992H580.113C586.084 383.992 590.925 389.016 590.925 395.216L590.926 733.678C590.926 739.877 586.084 744.902 580.113 744.902Z" fill="#17282F" />
		<path d="M474.024 728.483C474.024 734.075 469.424 738.607 463.75 738.607C458.076 738.607 453.477 734.075 453.477 728.483C453.477 722.892 458.076 718.359 463.75 718.359C469.424 718.359 474.024 722.892 474.024 728.483Z" fill="#33535F" />
		<path d="M494.62 403.066H445.146C443.24 403.066 441.695 401.462 441.695 399.485C441.695 397.506 443.24 395.902 445.146 395.902H494.62C496.525 395.902 498.071 397.506 498.071 399.485C498.071 401.462 496.525 403.066 494.62 403.066Z" fill="#33535F" />
		<path d="M356.109 711.145H583.08V409.74H356.109V711.145Z" fill="white" />
		<path d="M583.077 711.145H573.395V409.74H583.077V711.145Z" fill="#F3F2F1" />
		<path d="M578.237 518.027C576.57 518.027 575.219 516.671 575.219 514.998V448.326C575.219 446.653 576.57 445.297 578.237 445.297C579.904 445.297 581.255 446.653 581.255 448.326V514.998C581.255 516.671 579.904 518.027 578.237 518.027Z" fill="#DADBD8" />
		<path d="M553.482 478.334H386.126C383.468 478.334 381.312 476.172 381.312 473.504C381.312 470.835 383.468 468.673 386.126 468.673H553.482C556.141 468.673 558.296 470.835 558.296 473.504C558.296 476.172 556.141 478.334 553.482 478.334Z" fill="#DADBD8" />
		<path d="M527.739 443.08H422.462C419.804 443.08 417.648 440.917 417.648 438.249C417.648 435.581 419.804 433.418 422.462 433.418H527.739C530.397 433.418 532.553 435.581 532.553 438.249C532.553 440.917 530.397 443.08 527.739 443.08Z" fill="#001749" />
		<path d="M529.717 497.781H409.888C407.23 497.781 405.074 495.618 405.074 492.95C405.074 490.282 407.23 488.12 409.888 488.12H529.717C532.375 488.12 534.529 490.282 534.529 492.95C534.529 495.618 532.375 497.781 529.717 497.781Z" fill="#DADBD8" />
		<path d="M475.617 582.555H383.423C380.765 582.555 378.609 580.392 378.609 577.724C378.609 575.056 380.765 572.892 383.423 572.892H475.617C478.276 572.892 480.431 575.056 480.431 577.724C480.431 580.392 478.276 582.555 475.617 582.555Z" fill="#DADBD8" />
		<path d="M550.779 562.324H383.423C380.765 562.324 378.609 560.161 378.609 557.493C378.609 554.825 380.765 552.662 383.423 552.662H550.779C553.438 552.662 555.593 554.825 555.593 557.493C555.593 560.161 553.438 562.324 550.779 562.324Z" fill="#DADBD8" />
		<path d="M550.776 627.496H404.289C401.631 627.496 399.477 625.334 399.477 622.666C399.477 619.997 401.631 617.835 404.289 617.835H550.776C553.435 617.835 555.589 619.997 555.589 622.666C555.589 625.334 553.435 627.496 550.776 627.496Z" fill="#DADBD8" />
		<path d="M550.779 648.145H383.423C380.765 648.145 378.609 645.981 378.609 643.313C378.609 640.645 380.765 638.482 383.423 638.482H550.779C553.438 638.482 555.593 640.645 555.593 643.313C555.593 645.981 553.438 648.145 550.779 648.145Z" fill="#DADBD8" />
		<path d="M550.779 669.119H383.423C380.765 669.119 378.609 666.956 378.609 664.288C378.609 661.62 380.765 659.457 383.423 659.457H550.779C553.438 659.457 555.593 661.62 555.593 664.288C555.593 666.956 553.438 669.119 550.779 669.119Z" fill="#DADBD8" />
		<path d="M390.954 622.667C390.954 625.438 388.715 627.686 385.953 627.686C383.192 627.686 380.953 625.438 380.953 622.667C380.953 619.895 383.192 617.649 385.953 617.649C388.715 617.649 390.954 619.895 390.954 622.667Z" fill="#001749" />
		<path d="M550.776 543.453H404.289C401.631 543.453 399.477 541.291 399.477 538.623C399.477 535.954 401.631 533.792 404.289 533.792H550.776C553.435 533.792 555.589 535.954 555.589 538.623C555.589 541.291 553.435 543.453 550.776 543.453Z" fill="#DADBD8" />
		<path d="M390.954 538.623C390.954 541.394 388.715 543.641 385.953 543.641C383.192 543.641 380.953 541.394 380.953 538.623C380.953 535.851 383.192 533.605 385.953 533.605C388.715 533.605 390.954 535.851 390.954 538.623Z" fill="#001749" />
		<path d="M546.099 699.844H508.547C504.311 699.844 500.875 696.397 500.875 692.144C500.875 687.892 504.311 684.445 508.547 684.445H546.099C550.336 684.445 553.771 687.892 553.771 692.144C553.771 696.397 550.336 699.844 546.099 699.844Z" fill="#FFAA45" />
		<path d="M352.627 336.62L313.698 356.218C310.788 357.462 308.898 360.33 308.898 363.505V381.782C308.898 398.109 313.439 414.29 322.78 428.575C329.792 439.298 339.092 453.004 354.566 460.84H361.551C378.777 455.568 391.634 441.513 399.495 429.492C408.836 415.207 413.376 399.027 413.376 382.698V363.505C413.376 360.33 411.488 357.462 408.577 356.218L364.231 337.254C362.255 336.408 354.604 335.774 352.627 336.62Z" fill="#F2575D" />
		<path d="M361.551 460.84H354.566C339.092 453.004 329.792 439.298 322.78 428.575C313.439 414.29 308.898 398.109 308.898 381.782V363.505C308.898 360.33 310.788 357.462 313.698 356.218L352.627 336.62C353.286 336.338 354.575 336.221 356.075 336.221C359.074 336.221 362.914 336.69 364.231 337.254L408.577 356.218C411.488 357.462 413.376 360.33 413.376 363.505V382.698C413.376 399.027 408.836 415.207 399.495 429.492C391.634 441.513 378.777 455.568 361.551 460.84Z" fill="#001749" />
		<path d="M351.063 337.254L306.717 356.218C303.807 357.462 301.918 360.33 301.918 363.506V381.782C301.918 398.109 306.459 414.29 315.8 428.575C323.66 440.596 335.832 452.973 354.571 460.84C371.796 455.568 384.654 441.513 392.515 429.492C401.855 415.207 406.396 399.027 406.396 382.698V363.506C406.396 360.33 404.507 357.462 401.596 356.218L357.251 337.254C355.274 336.408 353.04 336.408 351.063 337.254Z" fill="#FFAA45" />
		<path d="M406.252 377.749C406.26 377.749 406.27 377.821 406.281 377.962C406.29 378.134 406.301 378.34 406.315 378.591C406.338 379.186 406.367 379.993 406.404 381.011C406.439 382.063 406.494 383.35 406.416 384.843C406.392 385.592 406.367 386.391 406.34 387.237C406.326 387.661 406.311 388.097 406.296 388.544C406.255 388.99 406.213 389.448 406.17 389.916C405.987 391.789 405.858 393.85 405.47 396.032C405.292 397.124 405.152 398.262 404.925 399.42C404.677 400.574 404.421 401.76 404.16 402.976C402.996 407.813 401.389 413.071 399.045 418.323C396.692 423.571 393.917 428.309 391.107 432.414C389.632 434.418 388.274 436.355 386.815 438.02C386.1 438.862 385.448 439.711 384.749 440.461C384.048 441.21 383.375 441.928 382.731 442.614C381.478 444.018 380.192 445.134 379.119 446.17C378.572 446.677 378.08 447.167 377.596 447.585C377.108 447.991 376.66 448.364 376.253 448.703C375.468 449.348 374.845 449.86 374.386 450.237C374.189 450.392 374.027 450.52 373.893 450.626C373.781 450.712 373.72 450.752 373.715 450.745C373.71 450.739 373.76 450.685 373.862 450.587C373.988 450.471 374.14 450.331 374.325 450.161C374.769 449.767 375.371 449.233 376.13 448.559C376.528 448.211 376.965 447.828 377.442 447.412C377.915 446.985 378.396 446.486 378.933 445.971C379.984 444.92 381.251 443.79 382.482 442.377C383.116 441.686 383.778 440.964 384.469 440.212C385.157 439.458 385.798 438.607 386.505 437.763C387.943 436.095 389.282 434.158 390.739 432.157C393.514 428.06 396.262 423.343 398.601 418.125C400.932 412.903 402.542 407.68 403.724 402.873C403.991 401.665 404.252 400.485 404.505 399.338C404.738 398.188 404.886 397.056 405.072 395.971C405.476 393.801 405.623 391.75 405.827 389.887C405.876 389.421 405.923 388.965 405.97 388.522C405.991 388.077 406.011 387.642 406.031 387.22C406.071 386.378 406.109 385.582 406.145 384.836C406.248 383.348 406.22 382.063 406.215 381.013C406.216 379.996 406.217 379.189 406.218 378.594C406.223 378.342 406.228 378.135 406.231 377.964C406.237 377.823 406.244 377.75 406.252 377.749Z" fill="#17282F" />
		<path d="M371.722 402.312H366.994V376.479C366.994 370.398 362.065 365.451 356.006 365.451C349.947 365.451 345.018 370.398 345.018 376.479V402.312H340.289V376.479C340.289 367.781 347.34 360.704 356.006 360.704C364.672 360.704 371.722 367.781 371.722 376.479V402.312Z" fill="#F3F2F1" />
		<path d="M371.763 418.1H340.246C337.252 418.1 334.824 415.663 334.824 412.658V390.22C334.824 387.215 337.252 384.778 340.246 384.778H371.763C374.759 384.778 377.185 387.215 377.185 390.22V412.658C377.185 415.663 374.759 418.1 371.763 418.1Z" fill="white" />
		<path d="M359.258 402.304C360.086 401.466 360.599 400.316 360.599 399.039C360.599 396.458 358.513 394.364 355.94 394.364C353.367 394.364 351.281 396.458 351.281 399.039C351.281 401.176 352.718 402.958 354.669 403.517L353.668 407.959H358.102L357.211 403.517C357.997 403.292 358.699 402.868 359.258 402.304Z" fill="#001749" />
		<path d="M648.246 435.713V473.662C648.327 480.225 649.288 490.524 638.943 490.179C629.99 489.2 627.615 480.695 627.545 474.57C627.512 471.665 627.479 469.242 627.455 468.943C627.455 468.943 617.656 468.142 616.828 458.426C616.429 453.732 616.389 443.994 616.456 435.185C616.527 425.723 623.838 417.907 633.24 417.218L634.174 417.15C644.298 417.002 648.378 425.552 648.246 435.713Z" fill="#F9A78D" />
		<path d="M627.457 468.943C627.457 468.943 633.591 468.855 639.8 464.276C639.8 464.276 637.24 471.603 627.508 471.437L627.457 468.943Z" fill="#F57F62" />
		<path d="M633.003 439.165C633.195 439.362 634.313 438.459 635.934 438.415C637.554 438.347 638.767 439.17 638.938 438.96C639.022 438.868 638.821 438.508 638.292 438.135C637.772 437.764 636.892 437.414 635.881 437.449C634.872 437.485 634.033 437.893 633.555 438.299C633.067 438.707 632.908 439.078 633.003 439.165Z" fill="#17282F" />
		<path d="M632.977 443.772C633.004 444.468 633.612 445.02 634.336 445.006C635.058 444.992 635.625 444.418 635.598 443.723C635.572 443.027 634.964 442.475 634.241 442.488C633.518 442.502 632.951 443.077 632.977 443.772Z" fill="#17282F" />
		<path d="M628.942 450.488C628.943 450.402 628.006 450.31 626.493 450.227C626.109 450.216 625.744 450.166 625.661 449.911C625.551 449.642 625.68 449.219 625.832 448.761C626.123 447.811 626.427 446.816 626.746 445.773C628.006 441.521 628.889 438.037 628.718 437.988C628.546 437.938 627.386 441.344 626.126 445.596C625.824 446.643 625.535 447.642 625.261 448.597C625.149 449.042 624.937 449.551 625.173 450.109C625.296 450.387 625.591 450.574 625.839 450.622C626.088 450.679 626.302 450.667 626.491 450.665C628.006 450.635 628.943 450.574 628.942 450.488Z" fill="#17282F" />
		<path d="M633.698 432.239C633.855 432.6 635.153 432.328 636.708 432.408C638.264 432.455 639.541 432.833 639.721 432.485C639.8 432.32 639.559 431.986 639.03 431.665C638.506 431.343 637.687 431.061 636.754 431.022C635.822 430.984 634.986 431.199 634.442 431.477C633.893 431.755 633.63 432.067 633.698 432.239Z" fill="#17282F" />
		<path d="M618.295 434.679C618.464 434.974 619.731 434.647 621.264 434.599C622.798 434.523 624.07 434.749 624.233 434.441C624.304 434.295 624.051 434.031 623.516 433.797C622.986 433.563 622.167 433.385 621.248 433.42C620.328 433.459 619.515 433.702 618.993 433.978C618.464 434.255 618.219 434.538 618.295 434.679Z" fill="#17282F" />
		<path d="M603.601 426.465C603.707 426.075 603.99 425.752 604.338 425.546C605.095 425.098 605.969 425.157 606.812 425.144C609.382 425.103 611.931 424.315 614.093 422.923C615.104 421.458 616.243 420.081 617.481 418.802C620.414 415.765 622.829 413.699 625.327 412.69C628.557 411.385 633.959 410.856 637.327 411.742C640.695 412.63 643.72 415.372 644.188 418.836C646.078 417.233 648.913 417.247 651.213 418.175L651.271 418.149C653.833 419.066 655.289 421.783 656.045 424.405C656.802 427.027 657.123 429.832 658.507 432.181C658.796 432.673 659.14 433.262 658.888 433.773C658.692 434.168 658.192 434.331 657.756 434.268C657.321 434.204 656.935 433.962 656.564 433.726C656.849 434.413 657.135 435.099 657.421 435.786C656.494 435.948 655.534 435.874 654.634 435.599C654.089 438.052 653.441 440.852 652.812 442.514C651.741 442.511 650.76 442.588 650.099 443.183C649.203 443.993 648.801 445.517 647.31 444.938C646.551 444.644 645.859 443.047 645.605 442.27C643.919 437.121 643.36 431.605 643.968 426.221C642.907 425.085 641.626 424.157 640.218 423.504L640.333 423.607C637.628 422.664 634.568 421.737 632.001 423.012C630.01 424 628.84 426.074 627.35 427.728C624.529 430.865 620.724 432.569 616.518 432.751C616.375 435.486 616.604 439.352 616.461 442.088L614.167 437.706L614.165 437.728C613.978 437.407 613.823 437.083 613.673 436.759L613.621 436.661V436.649C613.383 436.128 613.156 435.608 612.855 435.093L612.828 435.116C611.351 436.423 609.175 434.424 610.34 432.83C610.571 432.515 610.847 432.233 611.164 432C610.488 432.636 609.482 432.941 608.597 432.668C607.711 432.395 607.026 431.496 607.102 430.57C607.154 429.937 607.605 429.373 608.173 429.123C606.981 429.215 605.76 428.954 604.721 428.359C604.039 427.968 603.37 427.326 603.601 426.465Z" fill="#17282F" />
		<path d="M641.141 419.947C641.122 419.972 641.547 420.205 642.113 420.839C642.673 421.471 643.302 422.57 643.599 424.066C643.751 424.809 643.847 425.641 643.846 426.536C643.851 427.43 643.779 428.389 643.711 429.399C643.646 430.409 643.574 431.476 643.638 432.586C643.67 433.14 643.736 433.704 643.856 434.267C643.978 434.821 644.123 435.422 644.539 435.898C644.872 436.286 645.426 436.458 645.906 436.359C646.39 436.273 646.821 436.015 647.136 435.662C647.759 434.932 647.914 434.007 648.069 433.191L647.866 433.216C648.198 433.949 648.539 434.674 649.043 435.251C649.541 435.834 650.228 436.219 650.927 436.281C651.276 436.312 651.627 436.256 651.926 436.105C652.231 435.956 652.453 435.703 652.604 435.435C652.749 435.162 652.825 434.863 652.81 434.573C652.793 434.285 652.681 434.012 652.499 433.818L652.397 433.909C653.143 434.763 653.932 435.221 654.477 435.476C654.752 435.603 654.972 435.679 655.121 435.727C655.271 435.772 655.35 435.791 655.352 435.784C655.355 435.778 655.279 435.748 655.133 435.691C654.99 435.632 654.776 435.545 654.508 435.41C653.98 435.137 653.217 434.667 652.5 433.82L652.399 433.912C652.724 434.258 652.743 434.866 652.462 435.356C652.321 435.597 652.118 435.823 651.849 435.949C651.582 436.081 651.262 436.13 650.944 436.097C650.302 436.033 649.661 435.672 649.195 435.118C648.72 434.566 648.389 433.861 648.061 433.127L647.922 432.815L647.857 433.151C647.703 433.966 647.537 434.854 646.969 435.513C646.687 435.828 646.293 436.062 645.869 436.136C645.445 436.218 644.997 436.078 644.707 435.746C644.344 435.334 644.194 434.764 644.077 434.219C643.959 433.67 643.893 433.118 643.859 432.573C643.793 431.481 643.859 430.421 643.919 429.413C643.982 428.403 644.047 427.44 644.034 426.534C644.026 425.628 643.921 424.785 643.756 424.032C643.434 422.516 642.769 421.403 642.178 420.78C641.582 420.152 641.141 419.947 641.141 419.947Z" fill="#33535F" />
		<path d="M611.184 429.404L611.262 429.471C611.327 429.519 611.407 429.577 611.504 429.648C611.609 429.727 611.743 429.82 611.913 429.912C612.081 430.008 612.272 430.125 612.503 430.223C613.402 430.653 614.844 431.078 616.648 430.972C618.433 430.871 620.578 430.236 622.492 428.806C624.426 427.41 626.125 425.352 627.513 422.998C628.217 421.821 628.791 420.614 629.424 419.5C630.053 418.385 630.747 417.355 631.588 416.541C632.419 415.724 633.384 415.119 634.378 414.842C634.873 414.694 635.373 414.661 635.849 414.672C636.327 414.697 636.779 414.794 637.196 414.932C638.031 415.213 638.704 415.676 639.215 416.151C639.729 416.632 640.072 417.139 640.308 417.574C640.748 418.468 640.773 419.041 640.808 419.031L640.801 418.929C640.788 418.849 640.773 418.751 640.755 418.632C640.707 418.371 640.595 417.994 640.386 417.534C640.159 417.085 639.819 416.56 639.303 416.059C638.788 415.564 638.105 415.079 637.249 414.779C636.82 414.633 636.354 414.528 635.858 414.497C635.366 414.479 634.841 414.511 634.328 414.66C633.295 414.94 632.297 415.559 631.442 416.391C630.577 417.22 629.867 418.268 629.231 419.39C628.591 420.512 628.016 421.716 627.318 422.881C625.94 425.218 624.267 427.252 622.369 428.636C620.49 430.053 618.397 430.69 616.637 430.811C614.865 430.936 613.44 430.542 612.539 430.142C611.632 429.737 611.201 429.377 611.184 429.404Z" fill="#33535F" />
		<path d="M610.305 425.132C610.297 425.146 610.421 425.232 610.652 425.375C610.882 425.523 611.233 425.706 611.68 425.899C612.127 426.097 612.681 426.281 613.309 426.436C613.938 426.579 614.645 426.685 615.39 426.713C616.138 426.733 616.849 426.672 617.487 426.57C618.123 426.457 618.688 426.308 619.146 426.139C619.605 425.974 619.967 425.815 620.206 425.682C620.446 425.554 620.574 425.476 620.568 425.462C620.549 425.424 620.014 425.7 619.095 425.986C618.638 426.133 618.08 426.263 617.454 426.363C616.826 426.452 616.129 426.505 615.398 426.486C614.667 426.458 613.976 426.361 613.354 426.232C612.737 426.091 612.188 425.926 611.74 425.75C610.843 425.405 610.327 425.095 610.305 425.132Z" fill="#33535F" />
		<path d="M618.221 439.165C618.413 439.362 619.531 438.459 621.154 438.415C622.773 438.348 623.987 439.17 624.156 438.96C624.24 438.868 624.041 438.508 623.512 438.135C622.991 437.764 622.11 437.414 621.101 437.449C620.091 437.485 619.251 437.893 618.774 438.299C618.286 438.707 618.127 439.078 618.221 439.165Z" fill="#17282F" />
		<path d="M619.872 443.773C619.898 444.468 620.506 445.02 621.23 445.006C621.954 444.992 622.519 444.418 622.493 443.723C622.468 443.027 621.859 442.475 621.136 442.488C620.412 442.502 619.846 443.077 619.872 443.773Z" fill="#17282F" />
		<path d="M647.992 442.97C648.153 442.887 654.498 440.509 654.77 447.165C655.041 453.821 648.328 452.721 648.308 452.531C648.289 452.341 647.992 442.97 647.992 442.97Z" fill="#F9A78D" />
		<path d="M650.232 449.929C650.26 449.907 650.351 450.006 650.549 450.087C650.743 450.167 651.074 450.214 651.414 450.07C652.104 449.783 652.649 448.642 652.632 447.442C652.623 446.835 652.473 446.264 652.24 445.795C652.018 445.316 651.69 444.989 651.335 444.941C650.98 444.874 650.74 445.096 650.666 445.286C650.585 445.476 650.632 445.607 650.598 445.621C650.58 445.637 650.451 445.515 650.493 445.238C650.515 445.105 650.587 444.943 650.737 444.81C650.891 444.674 651.122 444.597 651.369 444.614C651.882 444.629 652.361 445.082 652.618 445.596C652.902 446.112 653.085 446.754 653.095 447.434C653.107 448.778 652.473 450.061 651.526 450.379C651.064 450.52 650.67 450.395 650.463 450.246C650.25 450.09 650.21 449.942 650.232 449.929Z" fill="#F57F62" />
		<path d="M633.669 451.87C633.724 451.879 633.726 452.26 633.495 452.823C633.265 453.377 632.761 454.098 631.97 454.599C631.184 455.109 630.313 455.27 629.709 455.208C629.1 455.155 628.769 454.952 628.79 454.901C628.813 454.825 629.164 454.901 629.712 454.864C630.259 454.834 631.006 454.643 631.708 454.188C632.415 453.741 632.901 453.138 633.189 452.666C633.476 452.191 633.594 451.851 633.669 451.87Z" fill="#17282F" />
		<path d="M667.081 715.163L669.063 737.672L676.072 755.049C676.577 756.301 675.853 757.696 674.493 758.086C673.733 758.304 672.914 758.166 672.285 757.707C668.281 754.783 653.852 744.038 653.691 742.639C653.483 740.826 649.805 718.694 649.805 718.694L667.081 715.163Z" fill="#33535F" />
		<path d="M674.496 758.087L653.297 740.074L653.505 741.742C653.648 742.654 653.664 743.149 654.299 743.718C655.999 745.243 660.968 749.911 672.062 758.088C672.707 758.564 673.72 758.331 674.496 758.087Z" fill="#17282F" />
		<path d="M657.466 733.055C658.106 733.384 658.396 734.216 658.074 734.833C657.752 735.45 656.858 735.736 656.212 735.418C655.565 735.099 655.184 734.11 655.578 733.531C655.971 732.953 657.041 732.671 657.586 733.126" fill="white" />
		<path d="M667.944 748.818C668.086 748.867 668.491 747.637 669.836 746.862C671.155 746.05 672.506 746.234 672.521 746.093C672.535 746.036 672.214 745.892 671.649 745.873C671.088 745.851 670.291 746.006 669.555 746.442C668.821 746.881 668.33 747.494 668.11 747.981C667.884 748.47 667.884 748.805 667.944 748.818Z" fill="#17282F" />
		<path d="M669.979 751.657C670.103 751.742 670.785 750.936 671.98 750.48C673.163 749.998 674.25 750.108 674.272 749.964C674.328 749.842 673.129 749.481 671.776 750.022C670.419 750.549 669.849 751.608 669.979 751.657Z" fill="#17282F" />
		<path d="M664.355 745.277C664.478 745.373 665.52 744.127 667.31 743.264C669.088 742.375 670.766 742.284 670.754 742.134C670.78 742.01 668.976 741.875 667.068 742.825C665.15 743.755 664.232 745.226 664.355 745.277Z" fill="#17282F" />
		<path d="M663.145 738.485C663.224 738.614 664.481 737.964 666.186 737.733C667.887 737.482 669.29 737.756 669.326 737.612C669.379 737.496 667.937 736.977 666.107 737.243C664.276 737.495 663.058 738.389 663.145 738.485Z" fill="#17282F" />
		<path d="M662.391 731.892C662.479 732.014 663.717 731.133 665.534 731.03C667.347 730.889 668.705 731.595 668.774 731.462C668.808 731.41 668.517 731.155 667.934 730.911C667.356 730.666 666.473 730.471 665.496 730.535C664.519 730.603 663.675 730.913 663.139 731.233C662.6 731.554 662.35 731.846 662.391 731.892Z" fill="#17282F" />
		<path d="M665.345 729.778C665.376 729.775 665.395 729.468 665.282 728.925C665.169 728.386 664.911 727.602 664.316 726.772C664.012 726.38 663.684 725.871 662.986 725.641C662.639 725.525 662.153 725.632 661.904 725.958C661.657 726.275 661.61 726.653 661.642 727.009C661.827 728.433 663.279 729.682 665.002 729.717C666.729 729.723 668.171 728.648 668.709 727.35C668.821 727.016 668.878 726.615 668.652 726.254C668.427 725.89 667.926 725.785 667.591 725.875C666.895 726.045 666.493 726.474 666.109 726.801C665.359 727.505 664.925 728.21 664.681 728.708C664.436 729.21 664.374 729.512 664.403 729.521C664.492 729.572 664.879 728.358 666.365 727.055C666.742 726.752 667.174 726.374 667.678 726.278C667.923 726.229 668.147 726.302 668.256 726.481C668.368 726.654 668.349 726.94 668.25 727.203C667.791 728.268 666.47 729.247 665.011 729.221C663.559 729.206 662.284 728.105 662.123 726.962C662.089 726.686 662.136 726.4 662.274 726.22C662.409 726.043 662.639 725.976 662.868 726.037C663.351 726.167 663.715 726.608 664.013 726.975C665.202 728.524 665.242 729.811 665.345 729.778Z" fill="#17282F" />
		<path d="M610.58 716.324L611.464 735.385C611.464 735.385 591.224 742.634 591.023 746.172L630.259 745.884L630.175 716.13L610.58 716.324Z" fill="#33535F" />
		<path d="M623.585 733.693C624.346 733.884 624.877 734.685 624.708 735.411C624.537 736.136 623.677 736.653 622.913 736.474C622.149 736.297 621.48 735.354 621.735 734.65C621.99 733.948 623.035 733.394 623.732 733.739" fill="#DADBD8" />
		<path d="M630.257 745.884L630.124 742.885L592.555 744.282C592.555 744.282 590.814 745.013 591.021 746.172L630.257 745.884Z" fill="#17282F" />
		<path d="M610.821 735.201C610.83 735.382 611.788 735.457 612.736 736.031C613.699 736.582 614.192 737.361 614.367 737.288C614.543 737.252 614.249 736.174 613.089 735.497C611.936 734.811 610.779 735.035 610.821 735.201Z" fill="#17282F" />
		<path d="M606.724 736.838C606.682 737.014 607.514 737.315 608.171 738.075C608.852 738.816 609.022 739.642 609.214 739.632C609.394 739.659 609.518 738.599 608.682 737.669C607.855 736.733 606.727 736.666 606.724 736.838Z" fill="#17282F" />
		<path d="M604.425 741.503C604.6 741.539 604.859 740.634 604.359 739.649C603.866 738.659 602.959 738.275 602.88 738.425C602.773 738.575 603.359 739.103 603.756 739.918C604.173 740.724 604.235 741.486 604.425 741.503Z" fill="#17282F" />
		<path d="M611.132 730.838C611.214 731.002 612.09 730.746 613.174 730.808C614.259 730.849 615.104 731.185 615.203 731.029C615.313 730.898 614.484 730.235 613.207 730.18C611.931 730.115 611.037 730.697 611.132 730.838Z" fill="#17282F" />
		<path d="M603.75 579.463C603.772 580.567 608.308 732.899 608.308 732.899H632.56L637.473 602.589C637.473 602.589 643.21 670.723 643.21 672.194C643.21 673.666 648.272 733.632 648.272 733.632L670.757 731.901L669.283 594.705L666.535 574.589L603.75 579.463Z" fill="#17282F" />
		<path d="M639.996 597.769C640.007 597.8 639.655 597.938 639.012 598.16C638.368 598.383 637.431 598.69 636.273 599.059L636.053 599.129L636.037 598.914C635.902 597.081 635.75 594.63 635.607 591.945C635.453 589.032 635.34 586.396 635.282 584.486C635.253 583.531 635.238 582.758 635.238 582.223C635.239 581.689 635.255 581.393 635.288 581.391C635.321 581.39 635.368 581.683 635.425 582.216C635.482 582.748 635.549 583.518 635.621 584.472C635.765 586.377 635.932 589.012 636.086 591.924C636.228 594.61 636.336 597.062 636.395 598.899L636.159 598.753C637.331 598.422 638.285 598.161 638.948 597.99C639.612 597.82 639.985 597.739 639.996 597.769Z" fill="#33535F" />
		<path d="M638.155 581.927C638.14 581.907 638.234 581.805 638.477 581.728C638.717 581.65 639.121 581.629 639.548 581.815C639.967 581.979 640.429 582.461 640.36 583.068C640.311 583.64 639.846 584.263 639.07 584.416C638.291 584.543 637.597 584.143 637.282 583.651C636.939 583.139 637.063 582.551 637.302 582.206C637.541 581.843 637.869 581.651 638.103 581.573C638.342 581.493 638.485 581.506 638.489 581.53C638.526 581.594 637.943 581.705 637.602 582.347C637.442 582.654 637.393 583.086 637.66 583.446C637.909 583.806 638.455 584.086 638.976 583.994C639.492 583.901 639.869 583.443 639.92 583.03C639.989 582.604 639.706 582.255 639.385 582.082C638.704 581.715 638.171 581.993 638.155 581.927Z" fill="#33535F" />
		<path d="M649.289 583.489C649.158 583.501 648.974 582.841 648.88 582.014C648.785 581.187 648.815 580.507 648.947 580.495C649.079 580.483 649.262 581.143 649.357 581.97C649.452 582.797 649.422 583.477 649.289 583.489Z" fill="#33535F" />
		<path d="M650.967 583.336C650.835 583.336 650.724 582.633 650.719 581.765C650.714 580.897 650.818 580.192 650.95 580.191C651.083 580.191 651.194 580.894 651.198 581.763C651.203 582.631 651.1 583.335 650.967 583.336Z" fill="#33535F" />
		<path d="M621.735 584.386C621.604 584.399 621.398 583.607 621.277 582.618C621.156 581.628 621.164 580.816 621.296 580.803C621.428 580.79 621.633 581.581 621.754 582.571C621.875 583.561 621.867 584.372 621.735 584.386Z" fill="#33535F" />
		<path d="M623.778 584.536C623.66 584.578 623.231 583.769 623.185 582.683C623.132 581.597 623.486 580.76 623.607 580.793C623.742 580.822 623.613 581.651 623.665 582.665C623.706 583.68 623.909 584.497 623.778 584.536Z" fill="#33535F" />
		<path d="M616.103 582.498C616.132 582.503 616.102 582.742 616.022 583.169C615.949 583.598 615.787 584.212 615.535 584.955C615.037 586.442 614.069 588.44 612.532 590.384C610.986 592.324 609.199 593.798 607.794 594.708C607.093 595.164 606.501 595.504 606.072 595.707C605.647 595.914 605.407 596.017 605.392 595.995C605.353 595.936 606.271 595.448 607.609 594.491C608.947 593.538 610.664 592.063 612.18 590.159C613.688 588.253 614.679 586.314 615.245 584.869C615.815 583.422 616.029 582.484 616.103 582.498Z" fill="#33535F" />
		<path d="M668.542 592.763C668.544 592.786 668.284 592.835 667.806 592.871C667.33 592.909 666.632 592.916 665.776 592.836C664.074 592.686 661.699 592.081 659.564 590.668C657.428 589.254 656.084 587.396 655.425 585.983C655.087 585.273 654.89 584.673 654.789 584.253C654.688 583.834 654.663 583.596 654.689 583.591C654.766 583.573 654.972 584.508 655.702 585.869C656.418 587.223 657.758 588.992 659.82 590.357C661.882 591.721 664.162 592.35 665.815 592.565C667.482 592.79 668.539 592.692 668.542 592.763Z" fill="#33535F" />
		<path d="M629.031 669.906C629 670.009 624.98 669.137 620.054 667.958C615.125 666.779 611.157 665.739 611.188 665.637C611.218 665.533 615.237 666.405 620.165 667.584C625.092 668.763 629.061 669.803 629.031 669.906Z" fill="#33535F" />
		<path d="M668.105 664.363C668.163 664.456 664.665 666.29 660.293 668.458C655.919 670.627 652.328 672.309 652.27 672.215C652.213 672.121 655.71 670.288 660.084 668.119C664.456 665.951 668.047 664.269 668.105 664.363Z" fill="#33535F" />
		<path d="M591.974 527.883L595.29 532.043V524.884H605.735C605.735 524.884 606.896 541.279 606.648 544.773C606.56 545.996 606.026 548.015 605.37 550.121C604.006 554.489 598.514 555.855 595.243 552.667C594.145 551.595 593.027 550.377 591.974 549.017C587.331 543.026 579.617 528.433 579.617 528.433L587.662 523.556L591.974 527.883Z" fill="#F9A78D" />
		<path d="M591.316 527.112C591.265 527.159 591.803 527.843 592.681 528.941C593.561 530.038 594.783 531.548 596.178 533.182C597.576 534.814 598.891 536.254 599.915 537.229C600.932 538.212 601.65 538.722 601.69 538.672C601.736 538.615 601.106 538.021 600.163 536.985C599.212 535.957 597.945 534.489 596.55 532.861C593.788 529.583 591.434 527.003 591.316 527.112Z" fill="#F57F62" />
		<path d="M615.805 477.504L626.82 473.169L647.114 472.016L656.652 475.656L643.582 482.94L632.312 482.526L615.805 477.504Z" fill="#F9A78D" />
		<path d="M602.814 581.547C603.81 581.719 670.301 584.553 670.301 584.553L667.965 524.551L667.774 512.77L663.997 477.081C663.997 477.081 654.058 473.652 648.988 472.014C648.988 472.014 643.651 477.597 633.503 477.445C623.583 477.298 621.51 475.053 621.51 475.053L607.64 480.39C607.64 480.39 597.778 483.938 596.081 488.319C594.429 492.582 591.402 516.929 591.402 516.929H605.779L605.506 559.94L602.814 581.547Z" fill="#33535F" />
		<path d="M656.653 521.062L646.678 516.592L644.617 501.466L664.025 500.714V514.757L656.653 521.062Z" fill="#263F48" />
		<path d="M663.766 505.758C663.766 505.883 659.621 505.985 654.509 505.985C649.395 505.985 645.25 505.883 645.25 505.758C645.25 505.632 649.395 505.53 654.509 505.53C659.621 505.53 663.766 505.632 663.766 505.758Z" fill="#17282F" />
		<path d="M598.332 494.569C598.344 494.568 598.38 494.704 598.439 494.968C598.507 495.266 598.595 495.649 598.704 496.127C598.954 497.133 599.357 498.596 600.028 500.384C600.689 502.176 601.625 504.278 602.769 506.64C603.851 509.047 604.831 511.816 605.855 514.817L605.865 514.848V514.883C605.841 518.476 605.815 522.411 605.788 526.521C605.69 535.697 605.604 544.001 605.54 550.063C605.488 553.042 605.445 555.467 605.415 557.196C605.392 558.006 605.373 558.651 605.359 559.133C605.342 559.577 605.326 559.81 605.311 559.809C605.296 559.809 605.283 559.574 605.272 559.131C605.266 558.647 605.258 558.001 605.247 557.19C605.244 555.462 605.24 553.034 605.235 550.055C605.266 543.993 605.309 535.69 605.356 526.515C605.393 522.406 605.428 518.473 605.461 514.88L605.471 514.945C604.466 511.951 603.505 509.17 602.459 506.783C601.342 504.415 600.425 502.281 599.794 500.469C599.153 498.659 598.785 497.176 598.575 496.156C598.476 495.644 598.405 495.249 598.372 494.98C598.334 494.712 598.32 494.571 598.332 494.569Z" fill="#17282F" />
		<path d="M668.825 487.55C668.855 487.553 668.844 488.009 668.812 488.83C668.779 489.731 668.735 490.902 668.683 492.313C668.564 495.332 668.406 499.356 668.23 503.806C668.03 508.256 667.849 512.281 667.712 515.299C667.631 516.709 667.564 517.88 667.513 518.78C667.456 519.602 667.411 520.056 667.381 520.055C667.351 520.054 667.34 519.598 667.345 518.775C667.361 517.873 667.382 516.699 667.407 515.287C667.48 512.344 667.614 508.278 667.799 503.788C667.985 499.299 668.189 495.237 668.379 492.298C668.473 490.828 668.565 489.639 668.645 488.819C668.729 487.998 668.797 487.547 668.825 487.55Z" fill="#17282F" />
		<path d="M604.897 514.627C600.518 509.714 598.045 503.335 598.368 496.751C600.166 502.675 603.544 508.437 604.897 514.627Z" fill="#20353D" />
		<path d="M627.574 556.15C634.503 550.328 640.182 542.081 644.057 531.661C643.797 535.985 642.841 540.114 640.913 543.906C639.496 546.695 637.623 549.352 635.554 551.694C633.485 554.037 630.682 555.885 627.574 556.15Z" fill="#20353D" />
		<path d="M645.279 527.119C645.293 527.123 645.274 527.255 645.224 527.504C645.159 527.801 645.079 528.159 644.984 528.587C644.883 529.059 644.738 529.63 644.536 530.284C644.342 530.941 644.136 531.695 643.838 532.504C643.299 534.143 642.512 536.043 641.544 538.107C640.542 540.156 639.33 542.356 637.886 544.557C636.423 546.747 634.874 548.723 633.375 550.44C631.847 552.131 630.4 553.591 629.09 554.71C628.457 555.294 627.837 555.768 627.304 556.194C626.776 556.628 626.301 556.976 625.901 557.245C625.539 557.492 625.238 557.698 624.987 557.869C624.776 558.009 624.661 558.075 624.653 558.063C624.644 558.051 624.743 557.96 624.938 557.798C625.175 557.609 625.459 557.382 625.801 557.11C626.183 556.821 626.64 556.455 627.152 556.006C627.669 555.564 628.27 555.077 628.886 554.481C630.163 553.341 631.576 551.868 633.077 550.177C634.547 548.458 636.075 546.49 637.526 544.318C638.959 542.133 640.172 539.957 641.187 537.932C642.166 535.892 642.978 534.017 643.55 532.401C643.866 531.603 644.091 530.86 644.306 530.214C644.529 529.569 644.697 529.007 644.822 528.544C644.948 528.124 645.052 527.774 645.14 527.483C645.217 527.242 645.264 527.116 645.279 527.119Z" fill="#17282F" />
		<path d="M643.357 508.339C643.372 508.341 643.345 508.552 643.279 508.95C643.202 509.391 643.1 509.97 642.973 510.693C642.846 511.451 642.667 512.374 642.398 513.432C642.136 514.492 641.882 515.712 641.468 517.023C641.274 517.684 641.071 518.375 640.86 519.093C640.644 519.811 640.366 520.542 640.107 521.308C639.608 522.846 638.937 524.439 638.26 526.126C636.818 529.462 635.036 533.049 632.867 536.64C630.666 540.215 628.295 543.44 625.99 546.246C624.801 547.62 623.694 548.944 622.555 550.09C621.994 550.671 621.472 551.251 620.933 551.771C620.392 552.287 619.871 552.783 619.374 553.257C618.398 554.223 617.431 555.005 616.61 555.72C615.794 556.443 615.055 557.022 614.441 557.482C613.858 557.925 613.391 558.279 613.035 558.548C612.711 558.788 612.536 558.908 612.528 558.896C612.518 558.883 612.675 558.74 612.982 558.479C613.325 558.194 613.774 557.819 614.337 557.351C614.933 556.871 615.654 556.275 616.452 555.537C617.256 554.805 618.204 554.011 619.164 553.034C619.653 552.556 620.165 552.056 620.698 551.534C621.229 551.011 621.742 550.426 622.295 549.844C623.417 548.692 624.51 547.365 625.684 545.991C627.961 543.184 630.31 539.97 632.499 536.414C634.657 532.841 636.439 529.281 637.894 525.968C638.578 524.294 639.258 522.714 639.77 521.187C640.035 520.427 640.32 519.704 640.543 518.99C640.763 518.277 640.974 517.592 641.176 516.936C641.606 515.636 641.88 514.426 642.163 513.375C642.455 512.325 642.655 511.41 642.809 510.659C642.969 509.943 643.097 509.37 643.194 508.935C643.287 508.541 643.343 508.336 643.357 508.339Z" fill="#17282F" />
		<path d="M590.823 489.673C594.921 495.924 611.515 521.249 616.421 528.738C616.963 529.564 616.289 530.642 615.311 530.52L585.831 526.797C585.516 526.758 585.232 526.589 585.044 526.332L556.886 487.735C556.304 486.939 556.92 485.823 557.903 485.896L588.234 488.148C589.288 488.226 590.242 488.787 590.823 489.673Z" fill="#DADBD8" />
		<path d="M590.826 489.676C590.826 489.676 590.766 489.543 590.591 489.321C590.415 489.104 590.121 488.789 589.637 488.515C589.166 488.222 588.464 488.064 587.673 488.036C586.875 487.97 585.958 487.894 584.93 487.81C580.777 487.483 574.809 487.013 567.445 486.433C565.598 486.291 563.664 486.142 561.649 485.986C560.642 485.91 559.614 485.831 558.567 485.75C558.294 485.734 558.066 485.7 557.754 485.7C557.444 485.706 557.135 485.84 556.906 486.053C556.433 486.469 556.312 487.252 556.682 487.791C559.25 491.326 561.993 495.102 564.879 499.074C570.659 507.008 577.012 515.726 583.681 524.879C584.108 525.458 584.49 526.004 584.954 526.606C585.098 526.763 585.278 526.886 585.477 526.962C585.685 527.045 585.889 527.053 586.049 527.076L587.088 527.207C588.473 527.381 589.848 527.554 591.213 527.726C593.944 528.07 596.634 528.408 599.277 528.741C604.565 529.404 609.664 530.042 614.523 530.651C614.839 530.686 615.102 530.736 615.459 530.756C615.82 530.76 616.188 530.608 616.436 530.347C616.691 530.092 616.835 529.737 616.84 529.375C616.853 529.021 616.647 528.64 616.484 528.427C615.827 527.428 615.18 526.443 614.541 525.47C613.263 523.528 612.022 521.642 610.823 519.819C608.422 516.175 606.185 512.781 604.142 509.679C600.055 503.502 596.744 498.498 594.44 495.015C593.296 493.306 592.402 491.971 591.781 491.042C591.482 490.606 591.25 490.266 591.079 490.016C590.919 489.786 590.833 489.671 590.826 489.676C590.819 489.681 590.891 489.805 591.037 490.044C591.198 490.3 591.417 490.649 591.699 491.097C592.301 492.038 593.169 493.39 594.279 495.121C596.553 498.624 599.82 503.658 603.852 509.87C605.88 512.982 608.1 516.388 610.482 520.044C611.675 521.872 612.909 523.762 614.18 525.709C614.816 526.682 615.461 527.67 616.115 528.671C616.303 528.936 616.386 529.116 616.394 529.375C616.39 529.614 616.292 529.86 616.118 530.032C615.948 530.209 615.706 530.306 615.462 530.304C615.212 530.29 614.871 530.234 614.58 530.2C609.722 529.582 604.623 528.934 599.338 528.262C596.694 527.927 594.004 527.586 591.274 527.24C589.909 527.067 588.534 526.893 587.15 526.718L586.11 526.587C585.924 526.561 585.773 526.553 585.653 526.502C585.524 526.453 585.407 526.372 585.313 526.271C584.902 525.712 584.49 525.15 584.076 524.587C577.397 515.443 571.034 506.732 565.244 498.805C562.35 494.849 559.6 491.089 557.024 487.569C556.763 487.193 556.844 486.648 557.178 486.348C557.34 486.198 557.55 486.103 557.772 486.098C557.99 486.096 558.287 486.131 558.538 486.145C559.586 486.219 560.614 486.293 561.621 486.366C563.637 486.51 565.571 486.648 567.419 486.78C574.789 487.295 580.76 487.711 584.916 488.001C585.946 488.069 586.863 488.129 587.662 488.182C588.466 488.197 589.114 488.331 589.59 488.602C590.541 489.131 590.796 489.711 590.826 489.676Z" fill="#17282F" />
		<path d="M556.883 487.739C556.882 487.754 557.094 487.785 557.501 487.831C557.95 487.877 558.545 487.937 559.29 488.012C560.898 488.156 563.154 488.357 565.952 488.606C571.667 489.074 579.583 489.723 588.607 490.462L588.427 490.357C589.844 492.472 591.308 494.667 592.777 496.935C598.754 506.158 603.976 514.635 607.921 520.667C609.881 523.691 611.511 526.109 612.647 527.773C613.205 528.571 613.647 529.204 613.977 529.675C614.285 530.106 614.454 530.327 614.468 530.318C614.482 530.309 614.341 530.068 614.059 529.619C613.749 529.135 613.331 528.485 612.806 527.667C611.695 525.929 610.133 523.484 608.213 520.479C604.346 514.402 599.172 505.897 593.187 496.666C591.718 494.396 590.25 492.199 588.825 490.086L588.76 489.989L588.644 489.981C579.616 489.308 571.695 488.718 565.976 488.292C563.173 488.104 560.914 487.952 559.303 487.843C558.555 487.802 557.959 487.769 557.508 487.744C557.098 487.726 556.885 487.724 556.883 487.739Z" fill="#17282F" />
		<path d="M575.168 493.258H575.166L575.152 493.253L575.168 493.258Z" fill="white" />
		<path d="M574.437 493.699C574.51 493.348 574.841 493.201 575.165 493.258C575.515 493.363 575.694 493.444 575.957 493.704C576.223 493.967 576.335 494.426 576.1 494.718C575.806 495.083 575.201 494.948 574.846 494.642C574.575 494.407 574.363 494.051 574.437 493.699Z" fill="white" />
		<path d="M588.204 515.59C588.204 515.59 589.367 512.807 586.414 512.447C583.462 512.089 575.71 512.447 575.71 512.447C575.71 512.447 571.473 512.897 572.367 515.949C572.367 515.949 569.862 518.194 571.204 520.619C572.546 523.043 573.083 522.325 573.083 522.325C573.083 522.325 572.725 525.289 574.962 525.737C574.962 525.737 577.387 528.611 579.619 528.431C581.851 528.252 591.335 523.672 591.962 522.774C592.588 521.876 593.482 521.365 592.946 520.364C592.946 520.364 594.109 517.736 591.604 517.336C591.604 517.336 591.425 515.141 588.204 515.59Z" fill="#F9A78D" />
		<path d="M574.75 516.598C574.751 516.666 575.513 516.716 576.745 516.742C577.977 516.768 579.677 516.769 581.555 516.74C583.429 516.679 585.134 516.752 586.386 516.452C587.66 516.156 588.159 515.406 588.099 515.39C588.047 515.326 587.511 515.925 586.314 516.111C585.143 516.309 583.423 516.187 581.547 516.248C579.669 516.277 577.97 516.33 576.739 516.394C575.51 516.457 574.749 516.531 574.75 516.598Z" fill="#F57F62" />
		<path d="M576.867 521.087C576.86 521.113 577.081 521.218 577.509 521.308C577.936 521.401 578.572 521.472 579.354 521.424C580.136 521.378 581.057 521.212 582.045 520.934C583.035 520.66 584.088 520.277 585.2 519.935C586.311 519.59 587.386 519.342 588.376 519.277C589.342 519.233 590.388 519.26 591.081 518.729C591.423 518.484 591.658 518.148 591.726 517.804C591.792 517.466 591.724 517.169 591.614 516.962C591.381 516.534 591.064 516.51 591.072 516.535C591.047 516.573 591.301 516.663 591.44 517.041C591.594 517.404 591.513 518.069 590.886 518.44C590.284 518.853 589.389 518.805 588.351 518.824C587.308 518.866 586.186 519.113 585.057 519.464C583.954 519.827 582.902 520.174 581.918 520.498C580.956 520.794 580.073 520.988 579.323 521.076C577.817 521.263 576.884 521.001 576.867 521.087Z" fill="#F57F62" />
		<path d="M580.035 524.883C580.053 524.946 580.815 524.803 582.028 524.495C583.24 524.188 584.901 523.712 586.714 523.116C588.528 522.52 590.149 521.918 591.308 521.446C592.467 520.975 593.165 520.639 593.142 520.576C593.092 520.446 590.177 521.463 586.561 522.648C582.949 523.838 579.999 524.747 580.035 524.883Z" fill="#F57F62" />
		<path d="M579.274 528.408C579.283 528.468 579.922 528.442 580.927 528.217C581.932 527.997 583.285 527.534 584.704 526.882C586.126 526.233 587.367 525.569 588.265 525.092C589.162 524.609 589.71 524.296 589.681 524.232C589.618 524.085 587.298 525.11 584.501 526.433C581.71 527.777 579.256 528.279 579.274 528.408Z" fill="#F57F62" />
		<path d="M673.542 501.629C673.542 501.629 667.514 525.866 659.983 534.812C652.689 543.476 641.258 539.493 637.3 528.284C633.342 517.074 626.289 491.472 626.289 491.472L634.951 484.826L649.915 513.932L656.659 494.09L673.542 501.629Z" fill="#F9A78D" />
		<path d="M626.685 492.143L620.333 482.905C620.333 482.905 618.225 482.413 617.628 482.062C616.907 481.639 616.199 477.97 616.214 477.253C616.23 476.537 614.983 474.862 615.487 474.39C615.992 473.919 617.695 473.885 617.603 473.196C617.584 473.048 616.34 471.517 617.326 470.394C617.683 469.988 619.117 469.63 619.117 469.63L619.015 466.106C619.015 466.106 620.912 461.942 622.85 463.449C622.85 463.449 630.16 469.085 630.897 469.986C631.634 470.886 634.446 482.623 634.945 484.825" fill="#F9A78D" />
		<path d="M634.949 484.825C634.963 484.821 634.93 484.607 634.851 484.202C634.755 483.756 634.63 483.17 634.475 482.437C634.132 480.908 633.621 478.695 632.928 475.97C632.578 474.607 632.192 473.116 631.705 471.525C631.576 471.128 631.451 470.726 631.283 470.317C631.125 469.852 630.736 469.542 630.42 469.254C629.755 468.666 629.054 468.089 628.331 467.5C626.885 466.324 625.349 465.113 623.747 463.864C623.335 463.57 622.994 463.191 622.409 462.977C621.819 462.783 621.191 463.032 620.76 463.371C619.88 464.075 619.31 465.019 618.813 466.011L618.792 466.055L618.794 466.112C618.803 466.453 618.813 466.821 618.824 467.19C618.849 468.015 618.872 468.833 618.896 469.637L619.066 469.412C618.624 469.529 618.2 469.66 617.778 469.846C617.57 469.948 617.357 470.04 617.155 470.255C617.003 470.449 616.861 470.662 616.801 470.907C616.653 471.393 616.755 471.891 616.912 472.31C616.991 472.525 617.092 472.724 617.199 472.916L617.36 473.192L617.393 473.251L617.387 473.237L617.377 473.297C617.359 473.378 617.187 473.485 617.015 473.555C616.84 473.629 616.644 473.687 616.448 473.747C616.252 473.808 616.051 473.866 615.848 473.946C615.646 474.043 615.434 474.089 615.239 474.376C615.093 474.677 615.175 474.918 615.222 475.126C615.281 475.337 615.356 475.532 615.437 475.718C615.596 476.093 615.772 476.446 615.903 476.794C615.966 476.973 616.013 477.127 616.013 477.289C616.017 477.509 616.046 477.696 616.071 477.891C616.126 478.276 616.197 478.651 616.272 479.021C616.434 479.757 616.611 480.47 616.87 481.15C617.011 481.489 617.12 481.826 617.427 482.133C617.778 482.399 618.092 482.446 618.418 482.569C619.062 482.77 619.688 482.928 620.299 483.07L620.197 483.001C622.157 485.798 623.759 488.082 624.9 489.71C625.445 490.47 625.88 491.075 626.205 491.527C626.508 491.94 626.674 492.153 626.688 492.142C626.702 492.133 626.563 491.902 626.287 491.471C625.981 491.005 625.571 490.383 625.057 489.602C623.946 487.953 622.386 485.639 620.477 482.807L620.441 482.753L620.375 482.738C619.777 482.59 619.154 482.426 618.529 482.222C618.236 482.118 617.862 482.012 617.672 481.851C617.487 481.671 617.346 481.326 617.227 481.014C616.987 480.366 616.817 479.66 616.664 478.938C616.593 478.576 616.525 478.207 616.475 477.835C616.452 477.653 616.426 477.457 616.425 477.29C616.426 477.063 616.36 476.84 616.293 476.652C616.152 476.268 615.976 475.914 615.826 475.553C615.749 475.373 615.681 475.193 615.632 475.017C615.582 474.845 615.564 474.65 615.614 474.582C615.643 474.521 615.838 474.409 616.005 474.349C616.182 474.279 616.376 474.223 616.574 474.163C616.772 474.103 616.975 474.045 617.183 473.958C617.38 473.863 617.634 473.782 617.782 473.463C617.82 473.383 617.827 473.3 617.825 473.216L617.784 473.051L617.74 472.971L617.582 472.7C617.484 472.522 617.393 472.34 617.325 472.154C617.188 471.784 617.117 471.383 617.228 471.032C617.27 470.852 617.378 470.698 617.492 470.549C617.587 470.443 617.778 470.34 617.962 470.257C618.341 470.089 618.761 469.958 619.174 469.849L619.351 469.803L619.345 469.624C619.322 468.82 619.298 468.002 619.275 467.177C619.264 466.808 619.253 466.44 619.243 466.099L619.223 466.199C619.683 465.268 620.26 464.337 621.029 463.729C621.413 463.432 621.87 463.267 622.28 463.403C622.672 463.53 623.075 463.916 623.479 464.212C625.083 465.454 626.624 466.658 628.074 467.821C628.798 468.403 629.502 468.975 630.162 469.548C630.493 469.847 630.812 470.097 630.933 470.468C631.094 470.848 631.223 471.249 631.354 471.638C631.852 473.208 632.256 474.695 632.625 476.049C633.327 478.732 633.898 480.914 634.308 482.478C634.497 483.202 634.648 483.782 634.764 484.223C634.871 484.621 634.933 484.828 634.949 484.825Z" fill="#F57F62" />
		<path d="M619.117 469.632C619.121 469.71 619.86 469.651 621.012 469.762C621.595 469.806 622.222 470.024 623.011 470.221C623.821 470.4 624.712 470.308 625.596 470.243C627.374 470.001 628.873 470.755 629.669 471.568C630.486 472.384 630.569 473.166 630.651 473.138C630.69 473.158 630.727 472.304 629.901 471.35C629.498 470.889 628.905 470.429 628.154 470.119C627.41 469.78 626.462 469.713 625.566 469.792C624.661 469.859 623.823 469.953 623.093 469.813C622.365 469.654 621.642 469.446 621.037 469.444C619.832 469.412 619.113 469.586 619.117 469.632Z" fill="#F57F62" />
		<path d="M621.704 469.439C621.812 469.494 622.107 469.066 622.07 468.456C622.034 467.847 621.691 467.456 621.59 467.524C621.479 467.588 621.596 467.992 621.62 468.483C621.654 468.974 621.586 469.389 621.704 469.439Z" fill="#F57F62" />
		<path d="M617.375 473.33C617.368 473.446 619.877 473.554 622.881 472.897C623.632 472.734 624.318 472.524 624.905 472.64C625.488 472.746 625.936 473.139 626.216 473.508C626.768 474.286 626.859 474.936 626.939 474.909C626.974 474.911 627.016 474.242 626.477 473.326C626.198 472.889 625.713 472.395 624.987 472.232C624.259 472.07 623.508 472.304 622.786 472.455C619.835 473.101 617.371 473.196 617.375 473.33Z" fill="#F57F62" />
		<path d="M616.406 476.664C616.406 476.722 616.928 476.775 617.759 476.671C618.591 476.578 619.706 476.291 620.925 476.051C621.536 475.939 622.118 475.844 622.629 475.88C623.142 475.91 623.569 476.076 623.856 476.325C624.457 476.834 624.387 477.412 624.454 477.402C624.479 477.407 624.542 477.28 624.529 477.029C624.514 476.781 624.389 476.415 624.073 476.091C623.764 475.761 623.24 475.517 622.664 475.465C622.083 475.401 621.467 475.493 620.842 475.606C619.589 475.853 618.505 476.186 617.705 476.356C616.909 476.537 616.404 476.598 616.406 476.664Z" fill="#F57F62" />
		<path d="M618.584 479.309C618.508 479.367 619.128 480.019 620.268 480.016L620.043 479.821C620.065 480.022 620.088 480.213 620.11 480.412C620.275 481.716 620.508 482.759 620.632 482.74C620.755 482.722 620.721 481.656 620.558 480.36C620.53 480.163 620.504 479.973 620.477 479.773L620.448 479.566L620.251 479.579C619.296 479.638 618.641 479.211 618.584 479.309Z" fill="#F57F62" />
		<path d="M663.996 477.081C663.996 477.081 676.342 480.083 676.316 496.515C676.29 512.881 672.587 521.062 672.587 521.062L649.828 508.631L654.907 495.835L663.996 477.081Z" fill="#33535F" />
		<path d="M672.588 521.061C672.581 521.074 672.418 521.003 672.114 520.854C671.77 520.678 671.333 520.455 670.794 520.181C669.602 519.55 667.961 518.681 665.944 517.615C661.799 515.374 656.118 512.301 649.715 508.839L649.531 508.74L649.606 508.546C649.996 507.522 650.408 506.44 650.826 505.343C652.281 501.552 653.666 497.942 654.929 494.649C655.563 493.01 656.166 491.451 656.732 489.987C657.277 488.518 657.877 487.166 658.533 486C659.814 483.647 661.328 481.986 662.64 481.229C663.286 480.838 663.854 480.662 664.24 480.586C664.435 480.55 664.583 480.53 664.685 480.529C664.786 480.523 664.838 480.524 664.838 480.533C664.859 480.593 663.978 480.579 662.739 481.389C661.495 482.172 660.058 483.82 658.831 486.163C658.202 487.327 657.632 488.656 657.105 490.127C656.552 491.595 655.963 493.16 655.343 494.804C654.091 498.101 652.719 501.715 651.276 505.511C650.857 506.608 650.444 507.69 650.053 508.713L649.944 508.42C656.316 511.935 661.972 515.057 666.097 517.332C668.085 518.453 669.703 519.365 670.878 520.027C671.4 520.332 671.824 520.58 672.157 520.774C672.447 520.95 672.595 521.047 672.588 521.061Z" fill="#17282F" />
	</g>
	<defs>
		<clipPath id="clip0_1726_26562">
			<rect width="424" height="432" fill="white" transform="translate(270.84 326.364)" />
		</clipPath>
	</defs>
</svg>
