<svg width="24" height="15" viewBox="0 0 24 15" fill="none" xmlns="http://www.w3.org/2000/svg">
	<path d="M22.1887 2.18333H1.81139C1.55502 2.18333 1.30914 2.08149 1.12786 1.9002C0.946572 1.71892 0.844727 1.47304 0.844727 1.21667C0.844727 0.960291 0.946572 0.714415 1.12786 0.53313C1.30914 0.351845 1.55502 0.25 1.81139 0.25H22.1887C22.4451 0.25 22.691 0.351845 22.8723 0.53313C23.0535 0.714415 23.1554 0.960291 23.1554 1.21667C23.1554 1.47304 23.0535 1.71892 22.8723 1.9002C22.691 2.08149 22.4451 2.18333 22.1887 2.18333Z" fill="black" />
	<path d="M18.6269 8.46654H5.37389C5.11752 8.46654 4.87164 8.36469 4.69036 8.18341C4.50907 8.00212 4.40723 7.75625 4.40723 7.49987C4.40723 7.24349 4.50907 6.99762 4.69036 6.81633C4.87164 6.63505 5.11752 6.5332 5.37389 6.5332H18.6269C18.8833 6.5332 19.1291 6.63505 19.3104 6.81633C19.4917 6.99762 19.5936 7.24349 19.5936 7.49987C19.5936 7.75625 19.4917 8.00212 19.3104 8.18341C19.1291 8.36469 18.8833 8.46654 18.6269 8.46654Z" fill="black" />
	<path d="M15.0354 14.7497H8.96471C8.70834 14.7497 8.46246 14.6479 8.28118 14.4666C8.09989 14.2853 7.99805 14.0394 7.99805 13.7831C7.99805 13.5267 8.09989 13.2808 8.28118 13.0995C8.46246 12.9183 8.70834 12.8164 8.96471 12.8164H15.0354C15.2918 12.8164 15.5376 12.9183 15.7189 13.0995C15.9002 13.2808 16.002 13.5267 16.002 13.7831C16.002 14.0394 15.9002 14.2853 15.7189 14.4666C15.5376 14.6479 15.2918 14.7497 15.0354 14.7497Z" fill="black" />
</svg>
