<svg width="18" height="23" viewBox="0 0 18 23" fill="none" xmlns="http://www.w3.org/2000/svg">
	<path d="M8.8 12.475C10.4154 12.475 11.725 11.1654 11.725 9.55C11.725 7.93457 10.4154 6.625 8.8 6.625C7.18457 6.625 5.875 7.93457 5.875 9.55C5.875 11.1654 7.18457 12.475 8.8 12.475Z" stroke="black" stroke-width="1.75" stroke-linecap="round" stroke-linejoin="round" />
	<path d="M8.8 1.75C6.73131 1.75 4.74735 2.57178 3.28457 4.03457C1.82178 5.49735 1 7.48131 1 9.55C1 11.3947 1.39195 12.6018 2.4625 13.9375L8.8 21.25L15.1375 13.9375C16.2081 12.6018 16.6 11.3947 16.6 9.55C16.6 7.48131 15.7782 5.49735 14.3154 4.03457C12.8527 2.57178 10.8687 1.75 8.8 1.75V1.75Z" stroke="black" stroke-width="1.75" stroke-linecap="round" stroke-linejoin="round" />
</svg>
