<svg width="14" height="13" viewBox="0 0 14 13" fill="none" xmlns="http://www.w3.org/2000/svg">
	<path d="M7 0.8125C3.85918 0.8125 1.3125 3.35918 1.3125 6.5C1.3125 9.64082 3.85918 12.1875 7 12.1875C10.1408 12.1875 12.6875 9.64082 12.6875 6.5C12.6875 3.35918 10.1408 0.8125 7 0.8125ZM7 11.2227C4.39238 11.2227 2.27734 9.10762 2.27734 6.5C2.27734 3.89238 4.39238 1.77734 7 1.77734C9.60762 1.77734 11.7227 3.89238 11.7227 6.5C11.7227 9.10762 9.60762 11.2227 7 11.2227ZM7.07109 4.45986C7.74395 4.45986 8.20098 4.88897 8.25176 5.51865C8.25557 5.57197 8.3 5.6126 8.35332 5.6126H9.07314C9.10615 5.6126 9.13281 5.58594 9.13281 5.55293C9.13281 4.45225 8.26445 3.68164 7.06729 3.68164C5.67207 3.68164 4.86719 4.62363 4.86719 6.18008V6.84404C4.86719 8.38906 5.67207 9.31836 7.06729 9.31836C8.26064 9.31836 9.13281 8.57187 9.13281 7.52324C9.13281 7.49023 9.10615 7.46357 9.07314 7.46357H8.35205C8.29873 7.46357 8.25557 7.5042 8.25049 7.55625C8.19717 8.1415 7.74141 8.54395 7.06982 8.54395C6.24082 8.54395 5.77363 7.93584 5.77363 6.84785V6.18008C5.7749 5.07559 6.24336 4.45986 7.07109 4.45986Z" fill="white" />
</svg>
