<svg width="19" height="18" viewBox="0 0 19 18" fill="none" xmlns="http://www.w3.org/2000/svg">
	<circle cx="9.47266" cy="9" r="9" fill="#007700" />
	<path d="M14.1007 5.03968C13.9072 5.0462 13.7238 5.13242 13.5892 5.28004C11.7673 7.2162 9.94415 9.143 8.12031 11.0793L5.29575 8.58333C5.22057 8.51695 5.1338 8.46693 5.04039 8.43611C4.94698 8.40529 4.84876 8.39429 4.75134 8.40373C4.65391 8.41317 4.5592 8.44285 4.4726 8.4911C4.386 8.53936 4.30922 8.60523 4.24663 8.68496C4.18404 8.76468 4.13687 8.85671 4.10782 8.95576C4.07877 9.05482 4.0684 9.15898 4.07732 9.26228C4.08623 9.36559 4.11424 9.46601 4.15976 9.55784C4.20528 9.64966 4.26741 9.73107 4.3426 9.79743L7.69023 12.7556C7.83318 12.8824 8.01582 12.9478 8.20202 12.9386C8.38821 12.9295 8.56438 12.8466 8.69569 12.7063C10.6783 10.5994 12.6621 8.50485 14.647 6.39552C14.7555 6.28446 14.8296 6.14108 14.8595 5.98438C14.8893 5.82767 14.8736 5.66503 14.8144 5.51801C14.7551 5.37098 14.6552 5.24652 14.5277 5.1611C14.4003 5.07568 14.2513 5.03334 14.1007 5.03968Z" fill="white" />
</svg>
