<svg width="17" height="16" viewBox="0 0 17 16" fill="none" xmlns="http://www.w3.org/2000/svg">
	<g opacity="0.8">
		<path d="M9.73693 2.31982C10.2762 1.75466 10.5458 1.47208 10.8323 1.30725C11.5236 0.909531 12.3748 0.897164 13.0777 1.27463C13.369 1.43106 13.6469 1.70568 14.2027 2.25493C14.7585 2.80418 15.0364 3.07881 15.1947 3.36665C15.5767 4.06118 15.5642 4.90235 15.1617 5.58549C14.9949 5.86861 14.709 6.13504 14.137 6.66791L7.33224 13.008C6.24842 14.0178 5.70651 14.5227 5.02923 14.7786C4.35195 15.0345 3.6074 15.0157 2.11828 14.978L1.91567 14.9729C1.46233 14.9614 1.23567 14.9557 1.1039 14.811C0.972142 14.6664 0.990131 14.443 1.02611 13.9963L1.04564 13.7538C1.1469 12.4965 1.19753 11.8678 1.45134 11.3028C1.70514 10.7377 2.14293 10.2788 3.01852 9.36115L9.73693 2.31982Z" stroke="black" stroke-width="1.4" stroke-linejoin="round" />
		<path d="M8.96094 2.40039L14.0264 7.30039" stroke="black" stroke-width="1.4" stroke-linejoin="round" />
		<path d="M9.68359 15L15.4727 15" stroke="black" stroke-width="1.4" stroke-linecap="round" stroke-linejoin="round" />
	</g>
</svg>
