<svg width="25" height="25" viewBox="0 0 25 25" fill="none" xmlns="http://www.w3.org/2000/svg">
	<rect x="0.265957" y="0.265957" width="24.4681" height="23.9362" rx="11.9681" stroke="black" stroke-opacity="0.2" stroke-width="0.531915" />
	<path d="M16.8883 14.4742C16.8585 14.1161 16.6795 13.8029 16.4109 13.5791L15.6651 12.9675C15.1429 12.5498 14.412 12.5647 13.9048 13.0122L13.3528 13.5045C13.1589 13.4448 12.6964 13.236 12.0997 12.6393C11.4881 12.0276 11.2942 11.5652 11.2345 11.3862L11.7268 10.8342C12.1743 10.342 12.1892 9.59607 11.7715 9.07395L11.1599 8.32806C10.9361 8.04463 10.6229 7.88053 10.2649 7.8507C9.90683 7.82086 9.56372 7.92528 9.2952 8.14905C8.56424 8.76068 8.14654 9.52148 8.11671 10.3569C8.0272 11.5652 8.75817 12.9525 10.2649 14.4443C11.7119 15.8913 13.0545 16.6223 14.2479 16.6223C14.2926 16.6223 14.3374 16.6223 14.3821 16.6223C15.2175 16.5775 15.9783 16.1748 16.59 15.4438C16.8137 15.1604 16.9181 14.8173 16.8883 14.4742ZM16.2468 15.1454C15.7098 15.7869 15.0833 16.13 14.3672 16.1599C13.2633 16.2195 11.9953 15.5184 10.5781 14.1161C9.16094 12.7139 8.48965 11.4309 8.5344 10.327C8.56424 9.61098 8.90734 8.98444 9.5488 8.4474C9.69798 8.31314 9.89191 8.25347 10.1008 8.25347C10.1306 8.25347 10.1604 8.25347 10.1903 8.25347C10.4289 8.28331 10.6378 8.38773 10.787 8.56675L11.3986 9.31263C11.682 9.65574 11.6671 10.148 11.3688 10.4911L10.8019 11.1326C10.7571 11.1773 10.7422 11.2519 10.7422 11.3116C10.7422 11.3414 10.8466 11.9978 11.7715 12.9078C12.6815 13.8178 13.3379 13.9222 13.3677 13.9371C13.4274 13.952 13.502 13.9222 13.5467 13.8774L14.1882 13.3106C14.5164 13.0122 15.0236 12.9973 15.3667 13.2807L16.1126 13.8924C16.2916 14.0415 16.4109 14.2504 16.4259 14.4891C16.4557 14.7427 16.396 14.9664 16.2468 15.1454Z" fill="#001749" stroke="#001749" stroke-width="0.319149" />
	<path d="M12.9644 8.53613C13.7401 8.55105 14.5457 8.92399 15.1722 9.55053C15.7987 10.1771 16.1717 10.9826 16.1866 11.7584C16.1866 11.8777 16.291 11.9821 16.4104 11.9821C16.5297 11.9821 16.6341 11.8777 16.6341 11.7584C16.6043 10.8633 16.1866 9.95331 15.4855 9.25218C14.7843 8.55105 13.8744 8.13335 12.9793 8.10352C12.86 8.10352 12.7555 8.19302 12.7555 8.32728C12.7406 8.4317 12.8301 8.53613 12.9644 8.53613Z" fill="#001749" stroke="#001749" stroke-width="0.319149" />
	<path d="M12.9347 9.73073C13.3972 9.74565 13.9193 9.98433 14.322 10.402C14.7248 10.8048 14.9784 11.3269 14.9933 11.7894C14.9933 11.9087 15.0978 12.0131 15.2171 12.0131C15.3365 12.0131 15.4409 11.9087 15.4409 11.7894C15.426 11.2076 15.1276 10.581 14.6502 10.1037C14.1729 9.62631 13.5314 9.29812 12.9347 9.2832C12.8154 9.2832 12.7109 9.37271 12.7109 9.50697C12.7109 9.62631 12.8004 9.73073 12.9347 9.73073Z" fill="#001749" stroke="#001749" stroke-width="0.319149" />
</svg>
