<svg width="25" height="24" viewBox="0 0 25 24" fill="none" xmlns="http://www.w3.org/2000/svg">
	<rect width="24.5217" height="24" rx="12" fill="#25D366" />
	<path d="M15.2425 12.9273C15.2183 12.9157 14.3132 12.47 14.1523 12.4121C14.0867 12.3886 14.0163 12.3656 13.9415 12.3656C13.8193 12.3656 13.7166 12.4265 13.6367 12.5461C13.5462 12.6805 13.2725 13.0004 13.188 13.096C13.1769 13.1086 13.1618 13.1237 13.1528 13.1237C13.1447 13.1237 13.0046 13.066 12.9622 13.0476C11.9913 12.6258 11.2543 11.6116 11.1533 11.4406C11.1388 11.416 11.1382 11.4048 11.1381 11.4048C11.1417 11.3918 11.1743 11.3591 11.1912 11.3422C11.2405 11.2934 11.2939 11.2291 11.3455 11.1669C11.37 11.1374 11.3945 11.1079 11.4186 11.0801C11.4936 10.9929 11.5269 10.9252 11.5656 10.8467L11.5859 10.806C11.6804 10.6183 11.5997 10.4598 11.5736 10.4087C11.5522 10.3659 11.17 9.44352 11.1294 9.34662C11.0317 9.11278 10.9026 9.00391 10.7232 9.00391C10.7065 9.00391 10.7232 9.00391 10.6533 9.00685C10.5683 9.01044 10.1054 9.07138 9.90069 9.20041C9.68363 9.33727 9.31641 9.77349 9.31641 10.5407C9.31641 11.2311 9.75457 11.883 9.94269 12.131C9.94737 12.1372 9.95596 12.1499 9.96841 12.1682C10.6889 13.2203 11.587 14.0001 12.4975 14.3638C13.374 14.7139 13.7891 14.7544 14.025 14.7544H14.0251C14.1242 14.7544 14.2036 14.7466 14.2736 14.7397L14.318 14.7355C14.6208 14.7086 15.2863 14.3638 15.4376 13.9432C15.5569 13.6119 15.5883 13.2499 15.509 13.1185C15.4546 13.0292 15.361 12.9843 15.2425 12.9273Z" fill="white" />
	<path d="M12.3725 5.79297C9.01008 5.79297 6.27453 8.50797 6.27453 11.8451C6.27453 12.9245 6.56338 13.9811 7.11058 14.9058L6.06322 17.9953C6.04371 18.0529 6.05823 18.1166 6.10083 18.1599C6.13159 18.1913 6.17331 18.2083 6.21592 18.2083C6.23224 18.2083 6.24869 18.2058 6.26473 18.2007L9.48626 17.177C10.3678 17.648 11.3642 17.8966 12.3726 17.8966C15.7347 17.8967 18.47 15.182 18.47 11.8451C18.47 8.50797 15.7347 5.79297 12.3725 5.79297ZM12.3725 16.636C11.4237 16.636 10.5047 16.362 9.71469 15.8436C9.68813 15.8261 9.65729 15.8172 9.62625 15.8172C9.60985 15.8172 9.5934 15.8197 9.5774 15.8248L7.96361 16.3378L8.48457 14.8008C8.50142 14.7511 8.493 14.6962 8.46196 14.6538C7.86038 13.8318 7.54238 12.8606 7.54238 11.8451C7.54238 9.20315 9.70917 7.05369 12.3725 7.05369C15.0355 7.05369 17.202 9.20315 17.202 11.8451C17.2021 14.4868 15.0356 16.636 12.3725 16.636Z" fill="white" />
</svg>
