<svg width="17" height="18" viewBox="0 0 17 18" fill="none" xmlns="http://www.w3.org/2000/svg">
	<path opacity="0.3" d="M7.16667 10.4173H1.83333C1.47971 10.4173 1.14057 10.2681 0.890525 10.0024C0.640476 9.73671 0.5 9.37637 0.5 9.00065C0.5 8.62493 0.640476 8.26459 0.890525 7.99892C1.14057 7.73324 1.47971 7.58398 1.83333 7.58398H7.16667V10.4173ZM15.1667 7.58398H9.83333V10.4173H15.1667C15.5203 10.4173 15.8594 10.2681 16.1095 10.0024C16.3595 9.73671 16.5 9.37637 16.5 9.00065C16.5 8.62493 16.3595 8.26459 16.1095 7.99892C15.8594 7.73324 15.5203 7.58398 15.1667 7.58398Z" fill="black" />
	<path d="M15.1667 7.58333H9.83333V1.91667C9.83333 1.54094 9.69286 1.18061 9.44281 0.914932C9.19276 0.649256 8.85362 0.5 8.5 0.5C8.14638 0.5 7.80724 0.649256 7.55719 0.914932C7.30714 1.18061 7.16667 1.54094 7.16667 1.91667V7.58333H1.83333C1.47971 7.58333 1.14057 7.73259 0.890525 7.99827C0.640476 8.26394 0.5 8.62428 0.5 9C0.5 9.37572 0.640476 9.73606 0.890525 10.0017C1.14057 10.2674 1.47971 10.4167 1.83333 10.4167H7.16667V16.0833C7.16667 16.4591 7.30714 16.8194 7.55719 17.0851C7.80724 17.3507 8.14638 17.5 8.5 17.5C8.85362 17.5 9.19276 17.3507 9.44281 17.0851C9.69286 16.8194 9.83333 16.4591 9.83333 16.0833V10.4167H15.1667C15.5203 10.4167 15.8594 10.2674 16.1095 10.0017C16.3595 9.73606 16.5 9.37572 16.5 9C16.5 8.62428 16.3595 8.26394 16.1095 7.99827C15.8594 7.73259 15.5203 7.58333 15.1667 7.58333Z" fill="black" />
</svg>
