<svg width="12" height="15" viewBox="0 0 12 15" fill="none" xmlns="http://www.w3.org/2000/svg">
	<path d="M10.2273 5.625C10.2273 4.4044 9.74239 3.2338 8.8793 2.3707C8.0162 1.50761 6.8456 1.02273 5.625 1.02273C4.4044 1.02273 3.2338 1.50761 2.3707 2.3707C1.50761 3.2338 1.02273 4.4044 1.02273 5.625C1.02273 7.51295 2.5333 9.97364 5.625 12.9211C8.7167 9.97364 10.2273 7.51295 10.2273 5.625ZM5.625 14.3182C1.87466 10.9094 0 8.01102 0 5.625C0 4.13316 0.592632 2.70242 1.64752 1.64752C2.70242 0.592632 4.13316 0 5.625 0C7.11684 0 8.54758 0.592632 9.60248 1.64752C10.6574 2.70242 11.25 4.13316 11.25 5.625C11.25 8.01102 9.37534 10.9094 5.625 14.3182Z" fill="#C10000" />
	<path d="M5.62493 7.15909C6.0318 7.15909 6.422 6.99746 6.7097 6.70976C6.9974 6.42206 7.15902 6.03186 7.15902 5.62499C7.15902 5.21813 6.9974 4.82793 6.7097 4.54023C6.422 4.25253 6.0318 4.0909 5.62493 4.0909C5.21807 4.0909 4.82787 4.25253 4.54017 4.54023C4.25247 4.82793 4.09084 5.21813 4.09084 5.62499C4.09084 6.03186 4.25247 6.42206 4.54017 6.70976C4.82787 6.99746 5.21807 7.15909 5.62493 7.15909ZM5.62493 8.18181C4.94682 8.18181 4.29649 7.91243 3.81699 7.43294C3.33749 6.95344 3.06812 6.3031 3.06812 5.62499C3.06812 4.94688 3.33749 4.29655 3.81699 3.81705C4.29649 3.33755 4.94682 3.06818 5.62493 3.06818C6.30304 3.06818 6.95338 3.33755 7.43288 3.81705C7.91237 4.29655 8.18175 4.94688 8.18175 5.62499C8.18175 6.3031 7.91237 6.95344 7.43288 7.43294C6.95338 7.91243 6.30304 8.18181 5.62493 8.18181Z" fill="#C10000" />
</svg>
