<svg width="171" height="136" viewBox="0 0 171 136" fill="none" xmlns="http://www.w3.org/2000/svg">
	<path d="M20.6721 0H19.2598V120.184H20.6721V0Z" fill="black" />
	<path d="M23.4973 0H22.085V120.184H23.4973V0Z" fill="black" />
	<path d="M26.3216 0H24.9092V113.115H26.3216V0Z" fill="black" />
	<path d="M33.3839 0H27.7344V113.115H33.3839V0Z" fill="black" />
	<path d="M39.0328 0H36.208V113.115H39.0328V0Z" fill="black" />
	<path d="M43.2698 0H41.8574V113.115H43.2698V0Z" fill="black" />
	<path d="M50.3326 0H47.5078V113.115H50.3326V0Z" fill="black" />
	<path d="M53.1565 0H51.7441V113.115H53.1565V0Z" fill="black" />
	<path d="M58.8065 0H54.5693V113.115H58.8065V0Z" fill="black" />
	<path d="M63.0435 0H60.2188V113.115H63.0435V0Z" fill="black" />
	<path d="M65.8684 0H64.4561V113.115H65.8684V0Z" fill="black" />
	<path d="M72.9298 0H67.2803V113.115H72.9298V0Z" fill="black" />
	<path d="M77.1673 0H75.7549V113.115H77.1673V0Z" fill="black" />
	<path d="M82.8169 0H79.9922V113.115H82.8169V0Z" fill="black" />
	<path d="M85.6419 0H84.2295V120.184H85.6419V0Z" fill="black" />
	<path d="M88.4661 0H87.0537V120.184H88.4661V0Z" fill="black" />
	<path d="M91.2913 0H89.8789V113.115H91.2913V0Z" fill="black" />
	<path d="M98.3533 0H94.1162V113.115H98.3533V0Z" fill="black" />
	<path d="M101.178 0H99.7656V113.115H101.178V0Z" fill="black" />
	<path d="M104.002 0H102.59V113.115H104.002V0Z" fill="black" />
	<path d="M113.889 0H109.652V113.115H113.889V0Z" fill="black" />
	<path d="M116.714 0H115.302V113.115H116.714V0Z" fill="black" />
	<path d="M120.951 0H119.539V113.115H120.951V0Z" fill="black" />
	<path d="M128.013 0H126.601V113.115H128.013V0Z" fill="black" />
	<path d="M132.25 0H129.425V113.115H132.25V0Z" fill="black" />
	<path d="M136.487 0H133.662V113.115H136.487V0Z" fill="black" />
	<path d="M140.724 0H139.312V113.115H140.724V0Z" fill="black" />
	<path d="M146.373 0H144.961V113.115H146.373V0Z" fill="black" />
	<path d="M150.611 0H149.198V120.184H150.611V0Z" fill="black" />
	<path d="M153.436 0H152.023V120.184H153.436V0Z" fill="black" />
	<path d="M8.10779 130.606C8.10779 130.399 8.08837 130.198 8.04953 130.004C7.85533 129.109 7.35688 128.461 6.55418 128.059C6.13988 127.852 5.69322 127.748 5.21418 127.748C4.21728 127.748 3.44694 128.163 2.90318 128.993C2.57951 129.472 2.41767 129.997 2.41767 130.567C2.41767 130.775 2.43709 130.976 2.47593 131.17C2.65719 132.038 3.15564 132.667 3.97129 133.056C4.37264 133.25 4.79341 133.347 5.2336 133.347C6.2564 133.347 7.05263 132.939 7.62229 132.123C7.94596 131.656 8.10779 131.151 8.10779 130.606ZM3.91303 126.621C4.39206 126.426 4.82578 126.329 5.21418 126.329C6.50886 126.329 7.58345 126.809 8.43794 127.768C8.94286 128.325 9.273 128.973 9.42837 129.712C9.4931 129.997 9.52547 130.295 9.52547 130.606C9.52547 131.682 9.11764 132.641 8.30199 133.484C7.46045 134.339 6.42471 134.767 5.19476 134.767C3.8483 134.767 2.75429 134.235 1.91275 133.172C1.49845 132.654 1.22657 132.064 1.0971 131.403C1.03237 131.131 1 130.859 1 130.587C1 129.485 1.42725 128.202 2.28173 126.737C2.45004 126.452 2.55362 126.277 2.59246 126.212L5.95215 120.088L7.1562 120.808L3.91303 126.621Z" fill="black" stroke="black" stroke-width="0.213333" />
	<path d="M28.8842 122.557L26.9616 124.21L26.0488 123.121L28.9036 120.652H30.3795V134.475H28.8842V122.557Z" fill="black" stroke="black" stroke-width="0.213333" />
	<path d="M35.4717 127.573C35.4717 125.292 35.9637 123.452 36.9476 122.052C37.7762 120.885 38.8055 120.302 40.0354 120.302C41.5243 120.302 42.6766 121.138 43.4922 122.81C43.79 123.419 44.023 124.113 44.1913 124.89C44.3726 125.733 44.4632 126.627 44.4632 127.573C44.4632 129.893 43.9648 131.74 42.9679 133.114C42.1652 134.216 41.1618 134.767 39.9577 134.767C38.4689 134.767 37.3101 133.95 36.4815 132.317C36.1579 131.695 35.9054 130.976 35.7241 130.159C35.5558 129.343 35.4717 128.481 35.4717 127.573ZM36.967 127.573C36.967 128.416 37.0512 129.219 37.2195 129.984C37.6079 131.825 38.2941 132.933 39.278 133.309C39.4981 133.386 39.7247 133.425 39.9577 133.425C41.0582 133.425 41.8868 132.622 42.4435 131.014C42.7931 129.991 42.9679 128.843 42.9679 127.573C42.9679 126.666 42.8837 125.804 42.7154 124.988C42.3011 123.082 41.5761 121.987 40.5403 121.702C40.372 121.663 40.2037 121.644 40.0354 121.644C38.9738 121.644 38.1517 122.421 37.5691 123.977C37.1677 125.052 36.967 126.251 36.967 127.573Z" fill="black" stroke="black" stroke-width="0.213333" />
	<path d="M55.9065 120.652L50.6436 134.475H48.9152L53.8091 122.071H46.7207V120.652H55.9065Z" fill="black" stroke="black" stroke-width="0.213333" />
	<path d="M65.1547 130.606C65.1547 130.399 65.1352 130.198 65.0964 130.004C64.9022 129.109 64.4038 128.461 63.601 128.059C63.1868 127.852 62.7401 127.748 62.2611 127.748C61.2641 127.748 60.4938 128.163 59.9501 128.993C59.6264 129.472 59.4645 129.997 59.4645 130.567C59.4645 130.775 59.484 130.976 59.5228 131.17C59.7041 132.038 60.2025 132.667 61.0182 133.056C61.4195 133.25 61.8403 133.347 62.2805 133.347C63.3033 133.347 64.0995 132.939 64.6692 132.123C64.9928 131.656 65.1547 131.151 65.1547 130.606ZM60.9599 126.621C61.4389 126.426 61.8726 126.329 62.2611 126.329C63.5557 126.329 64.6303 126.809 65.4848 127.768C65.9897 128.325 66.3199 128.973 66.4752 129.712C66.54 129.997 66.5723 130.295 66.5723 130.606C66.5723 131.682 66.1645 132.641 65.3489 133.484C64.5073 134.339 63.4716 134.767 62.2416 134.767C60.8952 134.767 59.8012 134.235 58.9596 133.172C58.5453 132.654 58.2734 132.064 58.144 131.403C58.0792 131.131 58.0469 130.859 58.0469 130.587C58.0469 129.485 58.4741 128.202 59.3286 126.737C59.4969 126.452 59.6005 126.277 59.6393 126.212L62.999 120.088L64.2031 120.808L60.9599 126.621Z" fill="black" stroke="black" stroke-width="0.213333" />
	<path d="M70.4603 123.938L69.1397 123.413C69.4245 122.389 70.0719 121.566 71.0817 120.944C71.8068 120.503 72.5706 120.283 73.3733 120.283C74.422 120.283 75.3477 120.665 76.1504 121.43C76.7977 122.052 77.2185 122.836 77.4127 123.782C77.5033 124.223 77.5487 124.683 77.5487 125.163C77.5487 126.277 77.0243 127.444 75.9756 128.662L74.1695 130.645L74.1307 130.684L71.8391 133.134H77.8011V134.475H68.8096L73.6452 129.401C74.4738 128.507 74.9593 127.962 75.1017 127.768C75.762 126.886 76.0921 126.018 76.0921 125.163C76.0921 124.735 76.0533 124.34 75.9756 123.977C75.7167 122.758 75.0888 122.007 74.0919 121.721C73.8588 121.657 73.6193 121.624 73.3733 121.624C72.4023 121.624 71.6126 122.032 71.0041 122.849C70.771 123.173 70.5898 123.536 70.4603 123.938Z" fill="black" stroke="black" stroke-width="0.213333" />
	<path d="M97.2959 126.815C96.3766 126.815 95.5739 127.1 94.8878 127.671C94.8619 127.696 94.8424 127.716 94.8295 127.729L93.4507 127.009L94.344 120.652H100.714V121.994H95.5869L94.9654 126.057C95.5351 125.707 96.3119 125.532 97.2959 125.532C98.7071 125.532 99.814 126.07 100.617 127.146C100.992 127.664 101.251 128.26 101.394 128.934C101.471 129.31 101.51 129.705 101.51 130.12C101.51 131.546 101.05 132.712 100.131 133.62C99.3415 134.384 98.3769 134.767 97.2376 134.767C95.7358 134.767 94.5447 134.183 93.6643 133.017C93.3018 132.524 93.0299 131.967 92.8486 131.345L94.3246 131.073C94.8554 132.641 95.8264 133.425 97.2376 133.425C98.2992 133.425 99.0825 132.952 99.5874 132.006C99.8852 131.462 100.034 130.826 100.034 130.101C100.034 129.828 100.008 129.563 99.9564 129.304C99.7493 128.319 99.2508 127.599 98.4611 127.146C98.0856 126.925 97.6972 126.815 97.2959 126.815Z" fill="black" stroke="black" stroke-width="0.213333" />
	<path d="M111.05 130.606C111.05 130.399 111.031 130.198 110.992 130.004C110.798 129.109 110.299 128.461 109.497 128.059C109.082 127.852 108.636 127.748 108.157 127.748C107.16 127.748 106.389 128.163 105.846 128.993C105.522 129.472 105.36 129.997 105.36 130.567C105.36 130.775 105.38 130.976 105.418 131.17C105.6 132.038 106.098 132.667 106.914 133.056C107.315 133.25 107.736 133.347 108.176 133.347C109.199 133.347 109.995 132.939 110.565 132.123C110.888 131.656 111.05 131.151 111.05 130.606ZM106.855 126.621C107.335 126.426 107.768 126.329 108.157 126.329C109.451 126.329 110.526 126.809 111.38 127.768C111.885 128.325 112.215 128.973 112.371 129.712C112.435 129.997 112.468 130.295 112.468 130.606C112.468 131.682 112.06 132.641 111.244 133.484C110.403 134.339 109.367 134.767 108.137 134.767C106.791 134.767 105.697 134.235 104.855 133.172C104.441 132.654 104.169 132.064 104.039 131.403C103.975 131.131 103.942 130.859 103.942 130.587C103.942 129.485 104.37 128.202 105.224 126.737C105.392 126.452 105.496 126.277 105.535 126.212L108.895 120.088L110.099 120.808L106.855 126.621Z" fill="black" stroke="black" stroke-width="0.213333" />
	<path d="M116.647 124.482C116.647 124.689 116.667 124.89 116.706 125.085C116.9 125.979 117.398 126.627 118.201 127.029C118.615 127.236 119.062 127.34 119.541 127.34C120.538 127.34 121.308 126.925 121.852 126.096C122.176 125.616 122.337 125.091 122.337 124.521C122.337 124.314 122.318 124.113 122.279 123.918C122.098 123.05 121.6 122.421 120.784 122.032C120.383 121.838 119.962 121.741 119.522 121.741C118.499 121.741 117.703 122.149 117.133 122.966C116.809 123.432 116.647 123.938 116.647 124.482ZM120.842 128.468C120.363 128.662 119.929 128.759 119.541 128.759C118.246 128.759 117.172 128.28 116.317 127.321C115.812 126.763 115.482 126.115 115.327 125.376C115.262 125.091 115.229 124.793 115.229 124.482C115.229 123.406 115.637 122.447 116.453 121.605C117.295 120.749 118.33 120.322 119.56 120.322C120.907 120.322 122.001 120.853 122.842 121.916C123.257 122.434 123.528 123.024 123.658 123.685C123.723 123.957 123.755 124.229 123.755 124.502C123.755 125.603 123.328 126.886 122.473 128.351C122.305 128.636 122.201 128.811 122.163 128.876L118.803 135L117.599 134.281L120.842 128.468Z" fill="black" stroke="black" stroke-width="0.213333" />
	<path d="M126.284 132.084L127.76 131.637C128.11 132.388 128.679 132.92 129.469 133.231C129.78 133.36 130.091 133.425 130.401 133.425C131.566 133.425 132.408 133.023 132.926 132.22C133.211 131.779 133.353 131.254 133.353 130.645C133.353 130.412 133.327 130.185 133.275 129.965C133.081 128.993 132.479 128.357 131.469 128.059C131.146 127.956 130.803 127.904 130.44 127.904H129.702V126.64H130.44C131.489 126.64 132.233 126.264 132.673 125.513C132.906 125.137 133.023 124.689 133.023 124.171C133.023 123.925 132.997 123.691 132.945 123.471C132.738 122.473 132.136 121.87 131.139 121.663C130.919 121.611 130.68 121.585 130.421 121.585H130.362C129.482 121.585 128.789 121.903 128.284 122.538C128.142 122.706 128.032 122.888 127.954 123.082L126.653 122.48C127.119 121.572 127.877 120.924 128.925 120.535C129.417 120.354 129.916 120.263 130.421 120.263C131.845 120.263 132.945 120.756 133.722 121.741C134.072 122.194 134.305 122.706 134.421 123.277C134.486 123.562 134.518 123.86 134.518 124.171C134.518 125.519 133.903 126.569 132.673 127.321C133.334 127.515 133.877 127.962 134.305 128.662C134.525 129.012 134.68 129.388 134.771 129.79C134.823 130.062 134.848 130.347 134.848 130.645C134.848 132.162 134.253 133.296 133.062 134.047C132.311 134.527 131.424 134.767 130.401 134.767C129.366 134.767 128.401 134.404 127.508 133.678C126.951 133.224 126.543 132.693 126.284 132.084Z" fill="black" stroke="black" stroke-width="0.213333" />
	<path d="M138.659 123.938L137.338 123.413C137.623 122.389 138.27 121.566 139.28 120.944C140.005 120.503 140.769 120.283 141.572 120.283C142.62 120.283 143.546 120.665 144.349 121.43C144.996 122.052 145.417 122.836 145.611 123.782C145.702 124.223 145.747 124.683 145.747 125.163C145.747 126.277 145.223 127.444 144.174 128.662L142.368 130.645L142.329 130.684L140.037 133.134H145.999V134.475H137.008L141.843 129.401C142.672 128.507 143.158 127.962 143.3 127.768C143.96 126.886 144.29 126.018 144.29 125.163C144.29 124.735 144.252 124.34 144.174 123.977C143.915 122.758 143.287 122.007 142.29 121.721C142.057 121.657 141.818 121.624 141.572 121.624C140.601 121.624 139.811 122.032 139.202 122.849C138.969 123.173 138.788 123.536 138.659 123.938Z" fill="black" stroke="black" stroke-width="0.213333" />
	<path d="M170 120.652L164.737 134.475H163.009L167.903 122.071H160.814V120.652H170Z" fill="black" stroke="black" stroke-width="0.213333" />
</svg>
