<svg width="12" height="11" viewBox="0 0 12 11" fill="none" xmlns="http://www.w3.org/2000/svg">
	<path fillRule="evenodd" clipRule="evenodd" d="M2.65025 0.983995C2.18825 0.983995 1.81374 1.32437 1.81374 1.74427V4.93648H11.1509C11.2527 4.93648 11.3503 4.97322 11.4223 5.03862C11.4942 5.10403 11.5347 5.19273 11.5347 5.28522C11.5347 5.37772 11.4942 5.46642 11.4223 5.53183C11.3503 5.59723 11.2527 5.63397 11.1509 5.63397H11.0138C11.0174 5.6549 11.0195 5.67582 11.021 5.69721C11.023 5.72418 11.023 5.75301 11.023 5.78091V5.79905C11.023 5.97342 11.023 6.07572 11.0149 6.18965C10.9422 7.22938 10.3242 8.19007 9.4283 8.81781C9.43536 8.82805 9.44185 8.8386 9.44774 8.84943L9.95937 9.77943C9.98234 9.82045 9.99615 9.86519 10 9.91109C10.0039 9.95698 9.99768 10.0031 9.98182 10.0468C9.96597 10.0905 9.94075 10.131 9.90762 10.1658C9.87449 10.2006 9.83411 10.2291 9.7888 10.2497C9.74349 10.2702 9.69415 10.2824 9.64363 10.2856C9.5931 10.2887 9.54239 10.2827 9.49442 10.268C9.44645 10.2532 9.40217 10.23 9.36412 10.1996C9.32608 10.1692 9.29503 10.1323 9.27276 10.091L8.7775 9.19121C8.26566 9.42896 7.70071 9.557 7.12597 9.56553H7.12239C6.74378 9.57855 6.37337 9.58645 6.03467 9.58645C5.69597 9.58645 5.32555 9.57855 4.94695 9.56553H4.94337C4.36863 9.557 3.80367 9.42896 3.29183 9.19121L2.79658 10.091C2.77431 10.1323 2.74326 10.1692 2.70521 10.1996C2.66717 10.23 2.62288 10.2532 2.57491 10.268C2.52694 10.2827 2.47623 10.2887 2.42571 10.2856C2.37519 10.2824 2.32585 10.2702 2.28054 10.2497C2.23523 10.2291 2.19485 10.2006 2.16172 10.1658C2.12859 10.131 2.10337 10.0905 2.08751 10.0468C2.07166 10.0031 2.06548 9.95698 2.06933 9.91109C2.07319 9.86519 2.087 9.82045 2.10997 9.77943L2.6216 8.84943C2.62748 8.8386 2.63397 8.82804 2.64104 8.81781C1.74518 8.19007 1.12662 7.22938 1.05448 6.18965C1.0471 6.05956 1.04437 5.92929 1.0463 5.79905V5.63397H0.918389C0.81662 5.63397 0.719019 5.59723 0.647057 5.53183C0.575096 5.46642 0.534668 5.37772 0.534668 5.28522C0.534668 5.19273 0.575096 5.10403 0.647057 5.03862C0.719019 4.97322 0.81662 4.93648 0.918389 4.93648H1.0463V1.74427C1.04627 1.40544 1.1761 1.07719 1.41347 0.815933C1.65085 0.554673 1.98094 0.376723 2.34702 0.312667C2.7131 0.248612 3.09229 0.302453 3.41943 0.464936C3.74656 0.627419 4.00121 0.888395 4.1396 1.20301L4.19588 1.33088C4.61577 1.23346 5.05931 1.26485 5.45755 1.42016C5.70544 1.51727 5.92956 1.65828 6.11684 1.83496C6.30412 2.01163 6.45081 2.22045 6.54834 2.4492C6.58477 2.53345 6.58373 2.62726 6.54545 2.71083C6.50716 2.79439 6.43463 2.86115 6.34318 2.897L3.29388 4.09018C3.24668 4.10871 3.19587 4.11843 3.14446 4.11877C3.09304 4.1191 3.04208 4.11005 2.9946 4.09213C2.94711 4.07422 2.90407 4.04782 2.86803 4.01449C2.832 3.98116 2.80369 3.9416 2.78481 3.89814C2.58374 3.43326 2.5874 2.91587 2.79504 2.45339C2.94087 2.12395 3.18527 1.83819 3.50057 1.62848L3.4269 1.46201C3.36483 1.32092 3.25766 1.19997 3.11923 1.11476C2.98079 1.02956 2.81744 0.984008 2.65025 0.983995ZM1.98411 5.63397H1.93295C1.90051 5.63587 1.8701 5.64897 1.84794 5.67058C1.82577 5.69219 1.81354 5.72068 1.81374 5.75022V5.78882C1.81374 5.97575 1.81374 6.05573 1.82039 6.14547C1.91504 7.50419 3.19923 8.71598 4.68909 8.85269C4.78885 8.86199 4.84411 8.86385 4.9756 8.8685C5.34806 8.88105 5.70876 8.88896 6.03467 8.88896C6.36058 8.88896 6.72127 8.88105 7.09374 8.8685C7.22523 8.86385 7.28048 8.86199 7.38025 8.85269C8.87011 8.71598 10.1543 7.50419 10.2489 6.14547C10.2556 6.05573 10.2556 5.97575 10.2556 5.78882V5.74278C10.2556 5.74185 10.2556 5.74185 10.2556 5.74278C10.2535 5.71458 10.2403 5.68803 10.2182 5.66809C10.1962 5.64815 10.1669 5.63619 10.1359 5.63444C10.1364 5.63444 10.1369 5.63444 10.1359 5.63444H10.1277L10.0857 5.63397H1.98411ZM5.1562 2.06186C4.99574 1.99932 4.82227 1.96914 4.64774 1.97339C4.47321 1.97765 4.30177 2.01624 4.14523 2.0865C3.8536 2.21713 3.6257 2.44149 3.50569 2.71611C3.42482 2.89665 3.39153 3.09188 3.40848 3.2862L5.64941 2.40921C5.52009 2.25709 5.35014 2.13752 5.15569 2.06186H5.1562Z" fill="#001749" />
</svg>
