<svg width="12" height="10" viewBox="0 0 12 10" fill="none" xmlns="http://www.w3.org/2000/svg">
	<path d="M2.10707 2.08333C2.10707 1.5308 2.31402 1.0009 2.6824 0.610194C3.05077 0.219493 3.5504 0 4.07136 0H7.99993C8.52089 0 9.02051 0.219493 9.38889 0.610194C9.75727 1.0009 9.96422 1.5308 9.96422 2.08333V3.375C10.4079 3.47105 10.8067 3.72674 11.093 4.09879C11.3794 4.47084 11.5357 4.93639 11.5356 5.41667V9.58333C11.5356 9.69384 11.4943 9.79982 11.4206 9.87796C11.3469 9.9561 11.247 10 11.1428 10C11.0386 10 10.9387 9.9561 10.865 9.87796C10.7913 9.79982 10.7499 9.69384 10.7499 9.58333V7.5H1.32136V9.58333C1.32136 9.69384 1.27997 9.79982 1.20629 9.87796C1.13262 9.9561 1.03269 10 0.928502 10C0.82431 10 0.724385 9.9561 0.65071 9.87796C0.577035 9.79982 0.535645 9.69384 0.535645 9.58333V5.41667C0.535552 4.93639 0.691917 4.47084 0.978274 4.09879C1.26463 3.72674 1.66339 3.47105 2.10707 3.375V2.08333ZM1.32136 6.66667H10.7499V5.41667C10.7499 5.08515 10.6258 4.7672 10.4047 4.53278C10.1837 4.29836 9.88393 4.16667 9.57136 4.16667H2.49993C2.18735 4.16667 1.88758 4.29836 1.66655 4.53278C1.44553 4.7672 1.32136 5.08515 1.32136 5.41667V6.66667ZM9.1785 2.08333C9.1785 1.75181 9.05433 1.43387 8.83331 1.19945C8.61228 0.965029 8.31251 0.833333 7.99993 0.833333H4.07136C3.75878 0.833333 3.45901 0.965029 3.23798 1.19945C3.01696 1.43387 2.89279 1.75181 2.89279 2.08333V3.33333H3.6785V2.91667C3.6785 2.80616 3.71989 2.70018 3.79357 2.62204C3.86724 2.5439 3.96717 2.5 4.07136 2.5H5.24993C5.35412 2.5 5.45405 2.5439 5.52772 2.62204C5.6014 2.70018 5.64279 2.80616 5.64279 2.91667V3.33333H6.4285V2.91667C6.4285 2.80616 6.46989 2.70018 6.54357 2.62204C6.61724 2.5439 6.71717 2.5 6.82136 2.5H7.99993C8.10412 2.5 8.20405 2.5439 8.27772 2.62204C8.3514 2.70018 8.39279 2.80616 8.39279 2.91667V3.33333H9.1785V2.08333Z" fill="#001749" />
</svg>
