<svg width="14" height="13" viewBox="0 0 14 13" fill="none" xmlns="http://www.w3.org/2000/svg">
	<path d="M2.71429 3.33333C2.71429 2.71449 2.94005 2.121 3.34191 1.68342C3.74378 1.24583 4.28882 1 4.85714 1H9.14286C9.71118 1 10.2562 1.24583 10.6581 1.68342C11.0599 2.121 11.2857 2.71449 11.2857 3.33333V4.78C11.7697 4.88758 12.2047 5.17395 12.5171 5.59064C12.8295 6.00734 13.0001 6.52876 13 7.06667V11.7333C13 11.8571 12.9548 11.9758 12.8745 12.0633C12.7941 12.1508 12.6851 12.2 12.5714 12.2C12.4578 12.2 12.3488 12.1508 12.2684 12.0633C12.188 11.9758 12.1429 11.8571 12.1429 11.7333V9.4H1.85714V11.7333C1.85714 11.8571 1.81199 11.9758 1.73162 12.0633C1.65124 12.1508 1.54224 12.2 1.42857 12.2C1.31491 12.2 1.2059 12.1508 1.12553 12.0633C1.04515 11.9758 1 11.8571 1 11.7333V7.06667C0.999899 6.52876 1.17048 6.00734 1.48287 5.59064C1.79526 5.17395 2.23027 4.88758 2.71429 4.78V3.33333ZM1.85714 8.46667H12.1429V7.06667C12.1429 6.69536 12.0074 6.33927 11.7663 6.07672C11.5252 5.81417 11.1981 5.66667 10.8571 5.66667H3.14286C2.80186 5.66667 2.47484 5.81417 2.23372 6.07672C1.9926 6.33927 1.85714 6.69536 1.85714 7.06667V8.46667ZM10.4286 3.33333C10.4286 2.96203 10.2931 2.60593 10.052 2.34338C9.81088 2.08083 9.48385 1.93333 9.14286 1.93333H4.85714C4.51615 1.93333 4.18912 2.08083 3.94801 2.34338C3.70689 2.60593 3.57143 2.96203 3.57143 3.33333V4.73333H4.42857V4.26667C4.42857 4.1429 4.47372 4.0242 4.5541 3.93668C4.63447 3.84917 4.74348 3.8 4.85714 3.8H6.14286C6.25652 3.8 6.36553 3.84917 6.4459 3.93668C6.52628 4.0242 6.57143 4.1429 6.57143 4.26667V4.73333H7.42857V4.26667C7.42857 4.1429 7.47372 4.0242 7.5541 3.93668C7.63447 3.84917 7.74348 3.8 7.85714 3.8H9.14286C9.25652 3.8 9.36553 3.84917 9.4459 3.93668C9.52628 4.0242 9.57143 4.1429 9.57143 4.26667V4.73333H10.4286V3.33333Z" fill="#959595" stroke="#959595" strokeWidth="0.5" />
</svg>
