<svg width="24" height="26" viewBox="0 0 24 26" fill="none" xmlns="http://www.w3.org/2000/svg">
	<path d="M21.6381 15.7506C20.6073 14.1965 20.0753 12.365 20.1131 10.5006V10.3131C20.1101 8.34749 19.3768 6.45314 18.0555 4.99788C16.7342 3.54262 14.9193 2.6303 12.9631 2.43809V0.975586C12.9631 0.852472 12.9388 0.730563 12.8917 0.61682C12.8446 0.503077 12.7756 0.399728 12.6885 0.312673C12.6014 0.225618 12.4981 0.156563 12.3844 0.109449C12.2706 0.062335 12.1487 0.0380859 12.0256 0.0380859C11.9025 0.0380859 11.7806 0.062335 11.6668 0.109449C11.5531 0.156563 11.4497 0.225618 11.3627 0.312673C11.2756 0.399728 11.2066 0.503077 11.1594 0.61682C11.1123 0.730563 11.0881 0.852472 11.0881 0.975586V2.48809C10.3935 2.56926 9.71265 2.74157 9.06309 3.00059C7.62568 3.59518 6.40167 4.61052 5.55173 5.91331C4.70179 7.2161 4.26566 8.74545 4.30059 10.3006C4.32233 12.2801 3.69442 14.2121 2.51309 15.8006L1.67559 16.9506C1.2248 17.5678 0.979877 18.3113 0.975586 19.0756C0.975586 20.027 1.35355 20.9395 2.02634 21.6123C2.69913 22.2851 3.61162 22.6631 4.56309 22.6631H8.67559V23.0756C8.78634 23.8838 9.18604 24.6245 9.80076 25.1607C10.4155 25.6969 11.2036 25.9924 12.0193 25.9924C12.8351 25.9924 13.6232 25.6969 14.2379 25.1607C14.8526 24.6245 15.2523 23.8838 15.3631 23.0756V22.6631H19.5006C20.1522 22.6522 20.7891 22.467 21.345 22.1267C21.9008 21.7865 22.3555 21.3036 22.6617 20.7283C22.9678 20.1529 23.1144 19.5061 23.086 18.855C23.0577 18.2038 22.8556 17.5722 22.5006 17.0256L21.6381 15.7506ZM13.5006 22.8631C13.4464 23.2141 13.2674 23.5338 12.9965 23.7635C12.7255 23.9931 12.3807 24.1172 12.0256 24.1131C11.6718 24.1121 11.3297 23.9862 11.0598 23.7574C10.7899 23.5287 10.6095 23.2119 10.5506 22.8631V22.6631H13.5006V22.8631ZM19.5006 20.7881H4.56309C4.1089 20.7881 3.67332 20.6077 3.35217 20.2865C3.03101 19.9653 2.85059 19.5298 2.85059 19.0756C2.86553 18.7026 3.00655 18.3456 3.25059 18.0631L4.08809 16.9131C5.49676 14.9676 6.22992 12.6144 6.17559 10.2131C6.15856 9.05141 6.49006 7.91129 7.12729 6.93984C7.76453 5.96839 8.67826 5.21019 9.75059 4.76309C10.5454 4.44469 11.3944 4.28338 12.2506 4.28809C13.843 4.2914 15.3691 4.92632 16.494 6.05352C17.6188 7.18072 18.2506 8.70813 18.2506 10.3006V10.5006C18.2164 12.7219 18.8571 14.9012 20.0881 16.7506L20.9256 18.0006C21.1223 18.3009 21.2226 18.6542 21.2131 19.0131C21.2215 19.2432 21.1834 19.4726 21.1011 19.6876C21.0188 19.9027 20.894 20.0989 20.7341 20.2646C20.5743 20.4303 20.3826 20.5621 20.1707 20.652C19.9587 20.742 19.7308 20.7882 19.5006 20.7881Z" fill="white" />
	<path d="M1.36325 11.2754C1.48571 11.2585 1.60362 11.2176 1.7102 11.155C1.81678 11.0924 1.90993 11.0093 1.98428 10.9106C2.05864 10.8118 2.11273 10.6993 2.14344 10.5796C2.17416 10.4599 2.18089 10.3352 2.16325 10.2129C1.97455 9.08008 2.09171 7.91744 2.50264 6.84507C2.91357 5.7727 3.60336 4.82949 4.50075 4.11288C4.68827 3.97077 4.81549 3.76335 4.85717 3.53179C4.89886 3.30023 4.85194 3.06146 4.72575 2.86288C4.58549 2.67291 4.37788 2.54377 4.14547 2.50194C3.91306 2.4601 3.67345 2.50874 3.47575 2.63788C2.29395 3.54611 1.37723 4.75454 0.82103 6.13735C0.264827 7.52016 0.089482 9.02679 0.31325 10.5004C0.343665 10.7235 0.454393 10.9278 0.62468 11.0751C0.794966 11.2223 1.01312 11.3024 1.23825 11.3004L1.36325 11.2754Z" fill="white" />
	<path d="M20.5752 2.57607C20.4762 2.49042 20.3603 2.42646 20.235 2.38832C20.1098 2.35018 19.9779 2.33869 19.848 2.35461C19.718 2.37052 19.5928 2.41349 19.4805 2.48073C19.3681 2.54797 19.2711 2.63799 19.1957 2.74501C19.1202 2.85202 19.068 2.97366 19.0425 3.10207C19.0169 3.23048 19.0185 3.36282 19.0472 3.49057C19.0759 3.61832 19.131 3.73865 19.209 3.84379C19.2871 3.94894 19.3862 4.03658 19.5002 4.10107C20.3945 4.82302 21.0819 5.76882 21.4925 6.84239C21.903 7.91596 22.0221 9.07907 21.8377 10.2136C21.82 10.3359 21.8268 10.4605 21.8575 10.5803C21.8882 10.7 21.9423 10.8125 22.0167 10.9112C22.091 11.01 22.1842 11.0931 22.2907 11.1557C22.3973 11.2183 22.5152 11.2592 22.6377 11.2761H22.7627C22.9878 11.2781 23.206 11.198 23.3763 11.0507C23.5465 10.9035 23.6573 10.6991 23.6877 10.4761C23.9241 9.0012 23.76 7.48989 23.2124 6.10016C22.6649 4.71044 21.7541 3.49332 20.5752 2.57607Z" fill="white" />
</svg>
