<svg width="18" height="20" viewBox="0 0 18 20" fill="none" xmlns="http://www.w3.org/2000/svg">
	<path d="M16.0675 12.0166C15.3117 10.877 14.9215 9.53388 14.9492 8.16664V8.02914C14.947 6.5877 14.4092 5.19851 13.4403 4.13132C12.4714 3.06413 11.1404 2.3951 9.70587 2.25414V1.18164C9.70587 1.09136 9.68809 1.00196 9.65354 0.918546C9.61899 0.835134 9.56835 0.759345 9.50451 0.695505C9.44067 0.631664 9.36488 0.581023 9.28147 0.546473C9.19806 0.511923 9.10866 0.494141 9.01837 0.494141C8.92809 0.494141 8.83869 0.511923 8.75528 0.546473C8.67187 0.581023 8.59608 0.631664 8.53224 0.695505C8.4684 0.759345 8.41776 0.835134 8.38321 0.918546C8.34866 1.00196 8.33087 1.09136 8.33087 1.18164V2.29081C7.82152 2.35033 7.32222 2.4767 6.84587 2.66664C5.79178 3.10267 4.89417 3.84726 4.27088 4.80264C3.64759 5.75802 3.32776 6.87954 3.35337 8.01997C3.36932 9.4716 2.90885 10.8884 2.04254 12.0533L1.42837 12.8966C1.0978 13.3493 0.918186 13.8945 0.915039 14.455C0.915039 15.1527 1.19222 15.8219 1.68559 16.3153C2.17897 16.8086 2.84813 17.0858 3.54587 17.0858H6.56171V17.3883C6.64292 17.981 6.93604 18.5242 7.38683 18.9174C7.83763 19.3106 8.41559 19.5273 9.01379 19.5273C9.61199 19.5273 10.19 19.3106 10.6407 18.9174C11.0915 18.5242 11.3847 17.981 11.4659 17.3883V17.0858H14.5C14.9779 17.0778 15.4449 16.942 15.8526 16.6925C16.2602 16.443 16.5936 16.0889 16.8182 15.6669C17.0427 15.245 17.1501 14.7707 17.1294 14.2932C17.1086 13.8157 16.9604 13.3525 16.7 12.9516L16.0675 12.0166ZM10.1 17.2325C10.0603 17.4899 9.92905 17.7243 9.73034 17.8927C9.53163 18.0611 9.27883 18.1522 9.01837 18.1491C8.75893 18.1484 8.50808 18.0561 8.31015 17.8883C8.11222 17.7206 7.97995 17.4883 7.93671 17.2325V17.0858H10.1V17.2325ZM14.5 15.7108H3.54587C3.21281 15.7108 2.89338 15.5785 2.65786 15.343C2.42235 15.1075 2.29004 14.788 2.29004 14.455C2.301 14.1814 2.40441 13.9197 2.58337 13.7125L3.19754 12.8691C4.23057 11.4424 4.76822 9.7168 4.72837 7.95581C4.71589 7.10391 4.95899 6.26782 5.42629 5.55542C5.8936 4.84303 6.56367 4.28702 7.35004 3.95914C7.9329 3.72565 8.55549 3.60736 9.18337 3.61081C10.3512 3.61324 11.4703 4.07884 12.2952 4.90546C13.1201 5.73207 13.5834 6.85218 13.5834 8.01997V8.16664C13.5583 9.79559 14.0282 11.3938 14.9309 12.75L15.545 13.6666C15.6893 13.8869 15.7629 14.1459 15.7559 14.4091C15.762 14.5779 15.7341 14.7461 15.6738 14.9038C15.6134 15.0615 15.5219 15.2054 15.4047 15.3269C15.2874 15.4484 15.1469 15.5451 14.9915 15.611C14.836 15.677 14.6689 15.7109 14.5 15.7108Z" fill="#7E8299" />
	<path d="M1.19916 8.73487C1.28896 8.7225 1.37543 8.6925 1.45359 8.64658C1.53175 8.60067 1.60006 8.53975 1.65459 8.46733C1.70911 8.39492 1.74878 8.31243 1.7713 8.22463C1.79383 8.13682 1.79876 8.04543 1.78583 7.95571C1.64745 7.12499 1.73337 6.27239 2.03472 5.48598C2.33607 4.69958 2.84191 4.00789 3.5 3.48237C3.63751 3.37816 3.73081 3.22605 3.76137 3.05624C3.79194 2.88643 3.75754 2.71133 3.665 2.56571C3.56214 2.42639 3.40989 2.33169 3.23946 2.30101C3.06902 2.27034 2.89331 2.306 2.74833 2.40071C1.88168 3.06674 1.20942 3.95292 0.801535 4.96699C0.393653 5.98105 0.265067 7.08591 0.429163 8.16654C0.451467 8.33013 0.532668 8.47997 0.657545 8.58797C0.782422 8.69597 0.942402 8.75472 1.1075 8.75321L1.19916 8.73487Z" fill="#7E8299" />
	<path d="M15.2884 2.355C15.2157 2.29219 15.1308 2.24529 15.0389 2.21732C14.9471 2.18935 14.8504 2.18093 14.7551 2.1926C14.6597 2.20427 14.5679 2.23577 14.4856 2.28508C14.4032 2.33439 14.332 2.40041 14.2767 2.47889C14.2214 2.55737 14.1831 2.64657 14.1644 2.74073C14.1456 2.8349 14.1468 2.93195 14.1678 3.02564C14.1889 3.11932 14.2293 3.20756 14.2865 3.28467C14.3437 3.36178 14.4165 3.42605 14.5 3.47333C15.1559 4.00277 15.66 4.69635 15.961 5.48364C16.2621 6.27092 16.3494 7.12387 16.2142 7.95583C16.2013 8.04556 16.2062 8.13695 16.2287 8.22476C16.2512 8.31256 16.2909 8.39505 16.3454 8.46746C16.4 8.53988 16.4683 8.6008 16.5464 8.64671C16.6246 8.69263 16.7111 8.72263 16.8009 8.735H16.8925C17.0576 8.73651 17.2176 8.67776 17.3425 8.56976C17.4674 8.46176 17.5486 8.31192 17.5709 8.14833C17.7442 7.06676 17.6239 5.95847 17.2223 4.93934C16.8208 3.9202 16.1529 3.02765 15.2884 2.355Z" fill="#7E8299" />
</svg>
