<svg width="133" height="133" viewBox="0 0 133 133" fill="none" xmlns="http://www.w3.org/2000/svg">
	<circle cx="66.5" cy="66.5" r="66.5" fill="#DC3545" fill-opacity="0.15" />
	<path d="M92.0768 44.9023L89.97 78.9859C89.4317 87.6941 89.1625 92.0481 86.9799 95.1785C85.9008 96.7262 84.5114 98.0324 82.9001 99.014C79.6413 100.999 75.2791 100.999 66.5548 100.999C57.8189 100.999 53.451 100.999 50.1899 99.0103C48.5776 98.0269 47.1878 96.7184 46.109 95.1682C43.9271 92.0327 43.6639 87.6725 43.1375 78.9521L41.082 44.9023" stroke="#DC3545" stroke-width="6" stroke-linecap="round" />
	<path d="M97.1937 44.9023H36" stroke="#DC3545" stroke-width="6" stroke-linecap="round" />
	<path d="M80.3747 44.8994L78.0539 40.1115C76.5122 36.9311 75.7414 35.3409 74.4117 34.3491C74.1167 34.1291 73.8044 33.9334 73.4778 33.7639C72.0054 33 70.2383 33 66.704 33C63.081 33 61.2695 33 59.7727 33.796C59.4409 33.9724 59.1244 34.176 58.8263 34.4047C57.4812 35.4367 56.7298 37.0851 55.2271 40.3819L53.168 44.8994" stroke="#DC3545" stroke-width="6" stroke-linecap="round" />
	<path d="M58.082 82.291L58.082 61.8921" stroke="#DC3545" stroke-width="6" stroke-linecap="round" />
	<path d="M75.0801 82.3023L75.0801 61.9033" stroke="#DC3545" stroke-width="6" stroke-linecap="round" />
</svg>
