<svg width="13" height="7" viewBox="0 0 13 7" fill="none" xmlns="http://www.w3.org/2000/svg">
	<path d="M6.33817 6.66733C6.22849 6.66796 6.11977 6.64694 6.01824 6.60547C5.91671 6.564 5.82437 6.5029 5.7465 6.42566L0.746499 1.42566C0.668392 1.34819 0.606397 1.25602 0.564089 1.15447C0.521782 1.05293 0.5 0.944004 0.5 0.833994C0.5 0.723984 0.521782 0.615063 0.564089 0.513513C0.606397 0.411964 0.668392 0.319796 0.746499 0.242327C0.902634 0.0871179 1.11384 0 1.334 0C1.55415 0 1.76536 0.0871179 1.9215 0.242327L6.33817 4.65899L10.7465 0.242327C10.9026 0.0871179 11.1138 0 11.334 0C11.5542 0 11.7654 0.0871179 11.9215 0.242327C11.9996 0.319796 12.0616 0.411964 12.1039 0.513513C12.1462 0.615063 12.168 0.723984 12.168 0.833994C12.168 0.944004 12.1462 1.05293 12.1039 1.15447C12.0616 1.25602 11.9996 1.34819 11.9215 1.42566L6.9215 6.42566C6.76628 6.57962 6.55678 6.66641 6.33817 6.66733Z" fill="white" />
</svg>
