<svg width="12" height="7" viewBox="0 0 12 7" fill="currentColor" xmlns="http://www.w3.org/2000/svg">
	<path opacity="0.5" d="M5.83817 6.8353C5.72849 6.83593 5.61977 6.81491 5.51824 6.77344C5.41671 6.73197 5.32437 6.67087 5.2465 6.59363L0.246499 1.59363C0.168392 1.51616 0.106397 1.42399 0.0640893 1.32244C0.0217821 1.22089 0 1.11197 0 1.00196C0 0.891953 0.0217821 0.783031 0.0640893 0.681482C0.106397 0.579933 0.168392 0.487765 0.246499 0.410296C0.402634 0.255087 0.613844 0.167969 0.833999 0.167969C1.05415 0.167969 1.26536 0.255087 1.4215 0.410296L5.83817 4.82696L10.2465 0.410296C10.4026 0.255087 10.6138 0.167969 10.834 0.167969C11.0542 0.167969 11.2654 0.255087 11.4215 0.410296C11.4996 0.487765 11.5616 0.579933 11.6039 0.681482C11.6462 0.783031 11.668 0.891953 11.668 1.00196C11.668 1.11197 11.6462 1.22089 11.6039 1.32244C11.5616 1.42399 11.4996 1.51616 11.4215 1.59363L6.4215 6.59363C6.26628 6.74758 6.05678 6.83438 5.83817 6.8353Z" fill="black" />
</svg>
