<svg width="4" height="8" viewBox="0 0 4 8" fill="none" xmlns="http://www.w3.org/2000/svg">
	<path d="M3.99999 3.9975C4.00037 4.0633 3.98776 4.12852 3.96288 4.18943C3.938 4.25034 3.90134 4.30574 3.85501 4.35246L0.85531 7.35212C0.808833 7.39898 0.753538 7.43617 0.692615 7.46155C0.631691 7.48693 0.566345 7.5 0.500346 7.5C0.434346 7.5 0.369 7.48693 0.308077 7.46155C0.247153 7.43617 0.191858 7.39898 0.145382 7.35212C0.0522655 7.25845 0 7.13174 0 6.99966C0 6.86758 0.0522655 6.74087 0.145382 6.6472L2.79511 3.9975L0.145382 1.3528C0.0522655 1.25913 0 1.13242 0 1.00034C0 0.868264 0.0522655 0.741553 0.145382 0.647882C0.191858 0.601023 0.247153 0.563831 0.308077 0.538449C0.369 0.513067 0.434346 0.5 0.500346 0.5C0.566345 0.5 0.631691 0.513067 0.692615 0.538449C0.753538 0.563831 0.808833 0.601023 0.85531 0.647882L3.85501 3.64754C3.94737 3.74066 3.99944 3.86635 3.99999 3.9975Z" fill="#5E6278" />
</svg>
