<svg width="30" height="30" viewBox="0 0 30 30" fill="none" xmlns="http://www.w3.org/2000/svg">
	<path d="M17.7822 9.18093C17.7822 10.9929 16.3133 12.4619 14.5012 12.4619C12.6892 12.4619 11.2203 10.9929 11.2203 9.18093C11.2203 7.36892 12.6892 5.9 14.5012 5.9C16.3133 5.9 17.7822 7.36892 17.7822 9.18093Z" stroke="#FFAA45" stroke-width="1.8" />
	<path d="M18.568 16.9199C19.7151 17.7638 20.5704 18.943 21.017 20.2932L21.0483 20.4005C21.1172 20.6358 21.1172 20.8859 21.0485 21.1212C20.9798 21.3566 20.8453 21.5674 20.6607 21.7287L20.6607 21.7287L20.6576 21.7314C18.9577 23.2307 16.769 24.0581 14.5023 24.0581C12.2356 24.0581 10.0469 23.2307 8.34692 21.7314L8.34694 21.7314L8.34201 21.7271C8.156 21.5654 8.02041 21.3536 7.9514 21.117C7.88294 20.8823 7.88288 20.633 7.95115 20.3983C8.38744 19.0042 9.2572 17.7856 10.434 16.9199C11.6127 16.0528 13.0377 15.5851 14.501 15.5851C15.9643 15.5851 17.3893 16.0528 18.568 16.9199Z" stroke="#FFAA45" stroke-width="1.8" />
	<circle cx="15" cy="15" r="14.5" stroke="black" stroke-opacity="0.1" />
</svg>
