<svg width="30" height="30" viewBox="0 0 30 30" fill="none" xmlns="http://www.w3.org/2000/svg">
	<circle cx="15" cy="15" r="14.5" stroke="black" stroke-opacity="0.1" />
	<path d="M11.3023 20.7594C11.3461 21.3562 11.2839 21.9562 11.1188 22.5301C11.0566 22.7443 11.0569 22.9724 11.1195 23.1864C11.1821 23.4004 11.3044 23.5908 11.4711 23.7341C11.6379 23.8774 11.8418 23.9673 12.0577 23.9926C12.2736 24.018 12.4919 23.9777 12.6858 23.8767C13.7435 23.3275 15.1414 22.3796 16.0115 20.9227H16.6795C17.5783 20.9389 18.4711 20.7707 19.306 20.4282C20.1408 20.0856 20.901 19.5754 21.5421 18.9275C22.1832 18.2795 22.6924 17.5067 23.04 16.6541C23.3876 15.8016 23.5667 14.8864 23.5667 13.9619C23.5667 13.0374 23.3876 12.1222 23.04 11.2697C22.6924 10.4171 22.1832 9.64429 21.5421 8.99632C20.901 8.34835 20.1408 7.83819 19.306 7.49562C18.4711 7.15305 17.5783 6.98493 16.6795 7.00106H12.7621C11.0951 7.00282 9.48748 7.63711 8.24709 8.7824C7.00669 9.92768 6.22079 11.5034 6.03996 13.2077C5.85914 14.912 6.2961 16.625 7.26713 18.0185C8.23816 19.412 9.67497 20.388 11.3023 20.7594ZM12.7641 8.27341H16.6816C17.4169 8.25881 18.1477 8.39515 18.8311 8.67447C19.5146 8.95378 20.1371 9.37046 20.6621 9.90013C21.1871 10.4298 21.6042 11.0618 21.8889 11.7593C22.1736 12.4567 22.3203 13.2055 22.3203 13.9619C22.3203 14.7183 22.1736 15.4671 21.8889 16.1645C21.6042 16.8619 21.1871 17.494 20.6621 18.0237C20.1371 18.5533 19.5146 18.97 18.8311 19.2493C18.1477 19.5286 17.4169 19.665 16.6816 19.6504H15.6507C15.5379 19.6501 15.4271 19.6816 15.3305 19.7414C15.2338 19.8012 15.1549 19.887 15.1022 19.9897C14.4693 21.2302 13.3187 22.0806 12.3806 22.6043C12.5711 21.7919 12.604 20.9488 12.4775 20.1233C12.4577 19.9885 12.3963 19.8638 12.3024 19.7675C12.2085 19.6713 12.087 19.6087 11.9559 19.5889C10.5748 19.3783 9.32224 18.6385 8.44941 17.5177C7.57658 16.397 7.14806 14.9783 7.24981 13.5462C7.35156 12.1141 7.97606 10.7745 8.99803 9.79614C10.02 8.81782 11.3638 8.27311 12.76 8.27129L12.7641 8.27341Z" fill="#FFAA45" stroke="#FFAA45" stroke-width="0.8" />
</svg>
