<svg width="133" height="133" viewBox="0 0 133 133" fill="none" xmlns="http://www.w3.org/2000/svg">
	<circle cx="66.5" cy="66.5" r="66.5" fill="#F7F7F7" fill-opacity="0.6" />
	<path d="M95.9043 42.9832C75.4627 40.8801 69.5741 29.103 69.3218 28.5983C68.817 27.5889 67.8917 27 66.7981 27C65.7045 27 64.6951 27.673 64.2744 28.5983C63.938 29.103 57.9653 40.8801 37.5237 42.9832C36.0936 43.1514 35 44.3291 35 45.8433V66.4532C35 90.6803 64.1903 105.991 65.4522 106.664C65.8728 106.832 66.2934 107 66.714 107C67.1346 107 67.6393 106.916 67.9758 106.664C69.2376 105.991 98.428 90.7645 98.428 66.4532V45.7592C98.5121 44.3291 97.3344 43.1514 95.9043 42.9832ZM92.7918 66.4532C92.7918 84.5394 72.1819 97.6625 66.714 100.859C61.2461 97.6625 40.6362 84.6236 40.6362 66.4532V48.2829C55.3575 46.1798 63.0967 39.2818 66.714 34.9075C70.3312 39.2818 78.0704 46.1798 92.7918 48.2829V66.4532Z" fill="#009500" />
	<path d="M55.7773 57.6195C55.7773 62.6668 59.2263 66.8729 63.8531 68.1347V88.4081C63.8531 90.0064 65.1149 91.2682 66.7132 91.2682C68.3115 91.2682 69.5733 90.0064 69.5733 88.4081V85.2115H73.1065C74.7048 85.2115 75.9666 83.9496 75.9666 82.3513C75.9666 80.753 74.7048 79.4912 73.1065 79.4912H69.5733V68.1347C74.2001 66.8729 77.6491 62.6668 77.6491 57.6195C77.6491 51.5627 72.77 46.6836 66.7132 46.6836C60.6564 46.7677 55.7773 51.6468 55.7773 57.6195ZM71.9288 57.6195C71.9288 60.4796 69.5733 62.835 66.7132 62.835C63.8531 62.835 61.4976 60.4796 61.4976 57.6195C61.4976 54.7593 63.8531 52.4039 66.7132 52.4039C69.5733 52.4039 71.9288 54.7593 71.9288 57.6195Z" fill="#009500" />
</svg>
