<svg width="21" height="20" viewBox="0 0 21 20" fill="none" xmlns="http://www.w3.org/2000/svg">
	<path d="M16.0832 14.4167C16.4165 14.7501 16.4165 15.2501 16.0832 15.5834C15.9165 15.7501 15.7498 15.8334 15.4998 15.8334C15.2498 15.8334 15.0832 15.7501 14.9165 15.5834L10.4998 11.1667L6.08317 15.5834C5.9165 15.7501 5.74984 15.8334 5.49984 15.8334C5.24984 15.8334 5.08317 15.7501 4.9165 15.5834C4.58317 15.2501 4.58317 14.7501 4.9165 14.4167L9.33317 10.0001L4.9165 5.58341C4.58317 5.25008 4.58317 4.75008 4.9165 4.41675C5.24984 4.08341 5.74984 4.08341 6.08317 4.41675L10.4998 8.83341L14.9165 4.41675C15.2498 4.08341 15.7498 4.08341 16.0832 4.41675C16.4165 4.75008 16.4165 5.25008 16.0832 5.58341L11.6665 10.0001L16.0832 14.4167Z" fill="black" />
	<mask id="mask0_648_25725" style="mask-type:luminance" maskUnits="userSpaceOnUse" x="4" y="4" width="13" height="12">
		<path d="M16.0832 14.4167C16.4165 14.7501 16.4165 15.2501 16.0832 15.5834C15.9165 15.7501 15.7498 15.8334 15.4998 15.8334C15.2498 15.8334 15.0832 15.7501 14.9165 15.5834L10.4998 11.1667L6.08317 15.5834C5.9165 15.7501 5.74984 15.8334 5.49984 15.8334C5.24984 15.8334 5.08317 15.7501 4.9165 15.5834C4.58317 15.2501 4.58317 14.7501 4.9165 14.4167L9.33317 10.0001L4.9165 5.58341C4.58317 5.25008 4.58317 4.75008 4.9165 4.41675C5.24984 4.08341 5.74984 4.08341 6.08317 4.41675L10.4998 8.83341L14.9165 4.41675C15.2498 4.08341 15.7498 4.08341 16.0832 4.41675C16.4165 4.75008 16.4165 5.25008 16.0832 5.58341L11.6665 10.0001L16.0832 14.4167Z" fill="white" />
	</mask>
	<g mask="url(#mask0_648_25725)">
		<rect x="0.5" width="20" height="20" fill="#5E5873" />
	</g>
</svg>
