<svg width="27" height="27" viewBox="0 0 27 27" fill="none" xmlns="http://www.w3.org/2000/svg">
	<path d="M13.5 26C11.0277 26 8.61099 25.2669 6.55538 23.8933C4.49976 22.5198 2.89761 20.5676 1.95151 18.2835C1.00542 15.9994 0.757874 13.4861 1.24019 11.0614C1.7225 8.63659 2.91301 6.4093 4.66117 4.66115C6.40933 2.91299 8.63661 1.72248 11.0614 1.24017C13.4861 0.757852 15.9995 1.00539 18.2835 1.95149C20.5676 2.89758 22.5199 4.49974 23.8934 6.55535C25.2669 8.61097 26 11.0277 26 13.5C25.9963 16.8141 24.6782 19.9913 22.3348 22.3348C19.9914 24.6782 16.8141 25.9963 13.5 26ZM13.5 2.14165C11.2535 2.14165 9.05752 2.8078 7.18965 4.05587C5.32178 5.30394 3.86596 7.07787 3.00627 9.15333C2.14659 11.2288 1.92166 13.5126 2.35992 15.7159C2.79818 17.9192 3.87996 19.943 5.46845 21.5315C7.05694 23.12 9.0808 24.2018 11.2841 24.6401C13.4874 25.0783 15.7712 24.8534 17.8466 23.9937C19.9221 23.134 21.696 21.6782 22.9441 19.8103C24.1922 17.9425 24.8583 15.7464 24.8583 13.5C24.8554 10.4885 23.6578 7.60114 21.5283 5.47168C19.3988 3.34221 16.5115 2.14459 13.5 2.14165ZM17.6667 16.0305C17.7019 15.35 17.4931 14.6792 17.0778 14.1389C16.7031 13.6804 16.2187 13.324 15.6694 13.1028C15.0868 12.8789 14.4902 12.6933 13.8833 12.5472V8.88054C14.391 8.90728 14.8772 9.09396 15.2722 9.41387C15.4964 9.63043 15.6757 9.88914 15.7996 10.1752C15.9235 10.4612 15.9898 10.7689 15.9944 11.0805L17.325 10.9611C17.2833 9.84998 16.9056 8.97776 16.2 8.3722C15.5409 7.83117 14.7241 7.51832 13.8722 7.48054V5.25831H13.1056V7.48054C12.2285 7.48557 11.3825 7.80601 10.7222 8.38331C10.4011 8.676 10.1469 9.03441 9.97669 9.43418C9.80653 9.83394 9.72447 10.2657 9.73611 10.7C9.72143 11.07 9.78317 11.439 9.91747 11.7841C10.0518 12.1291 10.2557 12.4428 10.5167 12.7055C11.037 13.2203 11.8861 13.6194 13.0639 13.9028H13.1028V18.0916C12.5636 18.0184 12.0505 17.8144 11.6083 17.4972C11.0222 17.0722 10.7 16.3861 10.6361 15.4583L9.33334 15.5833C9.3321 16.6487 9.74902 17.6721 10.4944 18.4333C11.1056 19.0444 11.9833 19.3972 13.1139 19.4972V21.7389H13.9028V19.5166C14.8977 19.5411 15.8648 19.1866 16.6083 18.525C16.9522 18.2103 17.2245 17.8255 17.4071 17.3967C17.5897 16.9678 17.6782 16.5048 17.6667 16.0389V16.0305ZM11.5556 11.7139C11.3821 11.5846 11.2439 11.4139 11.1537 11.2173C11.0634 11.0207 11.0239 10.8047 11.0389 10.5889C11.0264 10.3325 11.082 10.0775 11.2001 9.8496C11.3181 9.62174 11.4945 9.42923 11.7111 9.29165C12.1298 9.03235 12.608 8.88504 13.1 8.86387V12.3389C12.562 12.2132 12.0467 12.0052 11.5722 11.7222L11.5556 11.7139ZM15.6194 17.6055C15.1117 17.953 14.5096 18.1362 13.8944 18.1305V14.1166C14.4826 14.2656 15.0513 14.4828 15.5889 14.7639C15.8309 14.9025 16.0293 15.1061 16.1618 15.3514C16.2943 15.5968 16.3556 15.8744 16.3389 16.1528C16.3489 16.4356 16.2884 16.7165 16.1628 16.9701C16.0372 17.2237 15.8505 17.4421 15.6194 17.6055Z" fill="#FFAA45" stroke="#FFAA45" strokeWidth="0.4" />
</svg>
