<svg width="26" height="22" viewBox="0 0 26 22" fill="none" xmlns="http://www.w3.org/2000/svg">
	<path d="M20.4392 19.4698H20.9374C22.1062 19.4698 23.0359 18.9372 23.8706 18.1926C25.9911 16.3008 21.0064 14.3871 19.3047 14.3871" stroke="#28C76F" stroke-width="1.92" stroke-linecap="round" stroke-linejoin="round" />
	<path d="M16.4824 3.73703C16.7389 3.68616 17.0052 3.65936 17.2784 3.65936C19.3338 3.65936 21.0001 5.17633 21.0001 7.0476C21.0001 8.91887 19.3338 10.4358 17.2784 10.4358C17.0052 10.4358 16.7389 10.409 16.4824 10.3582" stroke="#28C76F" stroke-width="1.92" stroke-linecap="round" />
	<path d="M4.94148 15.0796C3.6987 15.7932 0.440215 17.2503 2.42485 19.0735C3.39433 19.9641 4.47408 20.6011 5.83159 20.6011H13.5778C14.9353 20.6011 16.0151 19.9641 16.9846 19.0735C18.9692 17.2503 15.7107 15.7932 14.4679 15.0796C11.5536 13.4063 7.85578 13.4063 4.94148 15.0796Z" stroke="#28C76F" stroke-width="1.92" stroke-linecap="round" stroke-linejoin="round" />
	<path d="M14.2228 5.91767C14.2228 8.4127 12.2002 10.4353 9.70515 10.4353C7.21012 10.4353 5.1875 8.4127 5.1875 5.91767C5.1875 3.42264 7.21012 1.40002 9.70515 1.40002C12.2002 1.40002 14.2228 3.42264 14.2228 5.91767Z" stroke="#28C76F" stroke-width="1.92" />
</svg>
