<svg width="85" height="103" viewBox="0 0 85 103" fill="none" xmlns="http://www.w3.org/2000/svg">
	<g id="Illustration">
		<path id="Rectangle" fillRule="evenodd" clipRule="evenodd" d="M79 87.1114C79 73.795 68.205 63 54.8886 63L35 63V94C35 96.2091 36.7909 98 39 98H75C77.2091 98 79 96.2091 79 94L79 87.1114Z" fill="#DFDFDF" />
		<path id="Rectangle_2" fillRule="evenodd" clipRule="evenodd" d="M74 93L42 93V97H74V93Z" fill="#D1D1D1" />
		<path id="Path" fillRule="evenodd" clipRule="evenodd" d="M33.0686 98L31 103H41L39.2671 98H33.0686Z" fill="#DFDFDF" />
		<path id="Path_2" fillRule="evenodd" clipRule="evenodd" d="M66.0686 98L64 103H74L72.2671 98H66.0686Z" fill="#F1F1F1" />
		<path id="Path_3" fillRule="evenodd" clipRule="evenodd" d="M2.06864 98L0 103H10L8.26706 98H2.06864Z" fill="#DFDFDF" />
		<path id="Rectangle_3" fillRule="evenodd" clipRule="evenodd" d="M55 45.4119C55 34.8508 46.5587 26.2265 36 26V66H55L55 45.4119Z" fill="#DFDFDF" />
		<path id="Rectangle_4" fillRule="evenodd" clipRule="evenodd" d="M50 50.1114C50 36.795 39.205 26 25.8886 26H21.84C9.7781 26 0 35.7781 0 47.84V65.2528C0 66.2178 0.782249 67 1.7472 67H50L50 50.1114Z" fill="#F2F2F2" />
		<path id="Rectangle_5" fillRule="evenodd" clipRule="evenodd" d="M14 33.346C14 29.2889 10.7111 26 6.65399 26C2.97909 26 0 28.9791 0 32.654V61.2528C0 62.2178 0.782248 63 1.7472 63H14V33.346Z" fill="#DFDFDF" />
		<path id="Rectangle_6" fillRule="evenodd" clipRule="evenodd" d="M74 79.6C74 72.6412 68.3588 67 61.4 67H37V93H74L74 79.6Z" fill="#F2F2F2" />
		<g id="Wom1.4">
			<g id="Head">
				<path id="Path_4" fillRule="evenodd" clipRule="evenodd" d="M36.1709 23.1543C31.2685 22.0066 30.9456 15.242 34.6728 12.8955C30.829 4.79529 39.7178 -3.24715 45.8066 1.71275C49.7982 -0.00488341 53.1154 6.69768 49.4011 11.9033C50.9584 20.8416 47.789 23.152 42.0755 23.2502L36.1709 23.1543Z" fill="#33373E" />
				<path id="Path_5" fillRule="evenodd" clipRule="evenodd" d="M36.2319 21.5386C36.2319 21.5386 38.6167 20.9758 38.6995 17.0475C38.7822 13.1193 38.7241 11.7784 38.7241 11.7784L43.9771 11.6831C43.9771 11.6831 44.0344 16.0611 44.0352 17.6446C44.0374 21.8977 46.9853 21.5386 46.9853 21.5386C46.9853 21.5386 46.3725 24.9872 41.6127 25.2563C37.8963 25.4667 36.2319 21.5386 36.2319 21.5386Z" fill="#EDC2C2" />
				<path id="Path_6" fillRule="evenodd" clipRule="evenodd" d="M37.4995 9.81705C35.1562 9.72589 35.5384 13.1745 37.9727 13.1698C37.9727 13.1698 39.3866 18.0688 44.2954 18.0688C48.2819 18.0688 48.5413 12.359 48.5774 11.2199C48.6163 10.0054 48.6213 6.01549 48.6213 6.01549L37.4083 6.01025L37.4995 9.81705Z" fill="#FFD7D7" />
				<path id="Path_7" d="M43.3489 14.7775C43.3489 14.7775 44.5182 15.7728 45.8723 14.8408" stroke="#F77B7B" stroke-width="1.5" strokeLinecap="round" />
				<path id="Path_8" d="M44.1209 15.9302C44.4847 16.0989 44.8349 16.1112 45.1475 15.943" stroke="#F49494" strokeLinecap="round" />
				<path id="Path 8" d="M37.7385 11.6715C37.7626 11.1183 37.5947 10.679 37.0335 10.5907" stroke="#F77B7B" strokeLinecap="round" />
				<path id="Path_9" fillRule="evenodd" clipRule="evenodd" d="M37.1289 9.39107C37.1289 9.39107 38.4133 11.1237 38.6735 11.1329C38.9336 11.1421 39.0247 8.87954 39.0247 8.87954C40.6003 8.75854 44.5878 7.9603 45.5653 6.10068C46.2488 7.7415 47.5555 8.47032 48.4141 8.33037L48.5768 11.8163L48.9776 4.80811H36.8147L37.1289 9.39107Z" fill="#33373E" />
			</g>
			<g id="LLeg">
				<path id="Path_10" fillRule="evenodd" clipRule="evenodd" d="M60.2331 90.8117C60.2331 90.8117 58.1308 95.0801 59.8542 96.4252C61.5802 97.7705 66.1392 100.292 66.1392 100.292L54.0608 99.5286L56.7456 90.2192L60.2331 90.8117Z" fill="#FFD7D7" />
				<path id="Path_11" fillRule="evenodd" clipRule="evenodd" d="M55.2291 94.8736C55.8251 94.9437 55.1886 96.9611 56.4792 97.1145C57.7672 97.2677 58.3932 95.3564 59.8548 95.9623C61.3164 96.5683 66.6471 99.7011 66.857 100.982C67.0695 102.262 65.0834 102.639 62.3597 102.35C59.636 102.061 59.134 101.087 57.0892 101.479C55.0471 101.871 53.5173 101.246 53.5847 99.7459C53.652 98.2461 54.633 94.8038 55.2291 94.8736Z" fill="#2B2E35" />
				<path id="Path 14" fillRule="evenodd" clipRule="evenodd" d="M60.5213 96.2734C60.2479 96.6856 60.3826 97.2432 60.8139 97.4852L63.7179 99.1143C64.0096 99.2779 64.3637 99.2849 64.6615 99.133L64.935 98.9935C64.0565 98.3539 63.3381 97.8733 62.5443 97.4013C61.9349 97.0391 61.2601 96.6656 60.5213 96.2734Z" fill="white" fill-opacity="0.540975" />
				<path id="Path_12" fillRule="evenodd" clipRule="evenodd" d="M42.0381 53.1908C45.6948 53.355 66.0468 57.8802 69.7444 58.649C73.442 59.4178 76.5681 63.5778 73.7485 68.3949C70.5816 73.8024 62.4105 89.1594 60.4267 92.6212C59.4447 94.3347 54.491 93.374 55.6546 90.4981C57.8238 85.1368 58.8312 71.6688 64.3615 66.7582C64.3615 66.7582 45.763 70.0122 37.7292 66.2849C31.8904 63.5754 33.2113 52.7941 42.0381 53.1908Z" fill="#33373E" />
			</g>
			<g id="LArm">
				<path id="Path_13" fillRule="evenodd" clipRule="evenodd" d="M67.9472 31.4536C67.9472 31.4536 67.9059 28.4626 68.9467 26.8995C69.9874 25.3363 70.0288 23.676 70.8164 23.7303C71.6041 23.7847 70.8242 27.644 70.8242 27.644C70.8242 27.644 71.8236 27.2602 72.5416 26.7747C73.2595 26.2891 75.4366 23.8957 75.9453 24.3198C76.8079 25.0425 75.4185 29.119 74.6618 29.9339C73.9026 30.7492 69.755 33.43 69.755 33.43L67.9472 31.4536Z" fill="#FFD7D7" />
				<path id="Path_14" fillRule="evenodd" clipRule="evenodd" d="M45.4758 29.6612C47.1768 33.6273 50.2913 40.9132 51.5753 43.087C53.1844 45.8092 55.7218 47.0086 58.6926 44.9888C61.8143 42.8665 70.4098 34.5888 70.6619 32.7137C70.9116 30.8386 68.8078 28.5889 66.9041 29.7537C65.0005 30.9184 57.0906 37.5359 57.0906 37.5359C57.0906 37.5359 53.8983 29.3095 51.3303 24.544C49.1063 20.4211 42.8866 23.6317 45.4758 29.6612Z" fill="#FFA02F" />
				<path id="Path_15" fillRule="evenodd" clipRule="evenodd" d="M57.1235 37.5399C57.1235 37.5399 57.9809 40.4634 58.1814 40.2941C58.3818 40.1249 58.0282 36.7759 58.0282 36.7759L57.1235 37.5399Z" fill="black" fill-opacity="0.302803" />
			</g>
			<g id="PhoneMini4">
				<g id="Group 3">
					<path id="Rectangle_7" d="M78.3685 25.2923C78.7781 24.0317 78.0882 22.6777 76.8276 22.2681L74.9896 21.6709C73.729 21.2613 72.375 21.9512 71.9654 23.2118L69.2658 31.5205C68.8562 32.7811 69.5461 34.1351 70.8067 34.5447L72.6446 35.1419C73.9053 35.5515 75.2592 34.8616 75.6688 33.601L78.3685 25.2923Z" fill="#7596FF" />
					<rect id="Rectangle_8" width="6.73254" height="13.5363" rx="2.4" transform="matrix(-0.951057 -0.309017 -0.309017 0.951057 78.6829 22.6836)" fill="#93C2F9" />
					<path id="Rectangle_9" d="M77.3887 22.7714L76.9031 22.6136C76.8042 22.5814 76.6986 22.6264 76.6509 22.7153L76.6358 22.7507C76.5994 22.8626 76.4797 22.924 76.3684 22.8878L74.0268 22.127C73.9279 22.0948 73.8689 21.9964 73.8825 21.8964L73.8911 21.8589C73.9275 21.747 73.8667 21.627 73.7554 21.5908L73.2723 21.4338C72.9133 21.3172 72.5287 21.4994 72.3853 21.8436L72.3645 21.8999L68.9722 32.3718C68.8249 32.8289 69.0731 33.3187 69.5273 33.4671L73.3691 34.7154C73.8037 34.8574 74.27 34.6341 74.4397 34.2144L74.461 34.156C74.4611 34.1558 74.4611 34.1555 74.4605 34.155L77.852 23.6856C77.9757 23.3039 77.7683 22.8947 77.3887 22.7714Z" fill="#E6F3FF" />
				</g>
			</g>
			<g id="Body">
				<path id="Path_16" fillRule="evenodd" clipRule="evenodd" d="M28.4763 24.8826C28.4763 24.8826 32.5754 38.6809 32.6968 41.2928C32.8182 43.905 29.3442 51.582 29.9357 53.5225C31.2995 58.0065 48.711 59.9373 49.3763 53.9052C49.6865 51.092 49.0409 48.5671 49.7848 45.2523C50.5261 41.9375 53.5058 37.0117 51.8157 32.3805C50.1257 27.7494 50.5785 23.4648 49.3697 22.655C48.1609 21.8452 45.3351 20.9851 45.3351 20.9851C43.961 23.018 39.3221 22.9884 37.1085 20.8418C37.1085 20.8418 31.6094 21.9142 28.4763 24.8826Z" fill="#FFAA45" />
				<path id="Path_17" fillRule="evenodd" clipRule="evenodd" d="M32.1495 27.1171C34.8819 31.4763 34.8737 39.066 36.3412 40.06C37.8087 41.0539 43.5202 40.0785 43.5202 40.8657C43.5202 41.6529 35.6272 48.8669 36.9229 52.3155C37.6014 54.1213 37.4174 55.7368 36.3708 57.1619L36.0292 57.0871C32.9193 56.3806 30.419 55.1118 29.9356 53.5222C29.3441 51.5818 33.2189 43.9047 33.0975 41.2925C32.9944 39.0754 29.7363 28.7976 28.7539 25.7416C29.5538 24.323 30.6855 24.7814 32.1495 27.1171Z" fill="black" fill-opacity="0.199355" />
			</g>
			<g id="RArm">
				<path id="Path_18" fillRule="evenodd" clipRule="evenodd" d="M36.8088 38.6824C36.8088 38.6824 40.2615 35.6104 41.3184 35.2539C42.3754 34.8974 48.5656 34.4692 48.5265 35.2747C48.4821 36.1377 45.1573 36.0881 44.8128 36.5127C44.4684 36.9371 44.3901 39.839 43.0878 40.1648C41.7882 40.4906 37.8919 41.0523 37.8919 41.0523L36.8088 38.6824Z" fill="#FFD7D7" />
				<path id="Path_19" fillRule="evenodd" clipRule="evenodd" d="M27.6235 25.6754C23.9859 30.8364 20.8803 38.6979 19.6881 41.7628C18.496 44.8278 19.6986 49.4507 24.9406 48.5431C30.1731 47.6379 38.4986 42.7194 39.4198 41.2847C40.3409 39.8499 38.9415 37.2392 37.1793 37.5809C35.5466 37.8971 27.4482 41.3588 27.4482 41.3588C27.4482 41.3588 32.6582 32.0751 33.9304 29.5864C36.0555 25.4301 30.8276 21.1281 27.6235 25.6754Z" fill="#FFA02F" />
				<path id="Path_20" fillRule="evenodd" clipRule="evenodd" d="M27.5306 41.2952C27.5306 41.2952 24.8017 42.6581 25.1346 42.0865C25.4674 41.5149 28.5719 39.5068 28.5719 39.5068L27.5306 41.2952Z" fill="black" fill-opacity="0.302803" />
			</g>
			<g id="RLeg">
				<path id="Path_21" fillRule="evenodd" clipRule="evenodd" d="M72.9342 90.9834C72.9342 90.9834 72.8708 96.0073 76.9888 97.8857C81.1041 99.7639 84.0362 99.6508 83.663 101.103C83.2898 102.555 72.5779 102.496 71.5776 101.361C70.725 100.395 68.8709 91.3989 68.3604 92.0867L72.9342 90.9834Z" fill="#FFD7D7" />
				<path id="Path_22" fillRule="evenodd" clipRule="evenodd" d="M69.6761 96.6073C70.136 95.7141 70.1649 98.2268 71.9787 97.673C73.4507 97.2236 73.9539 94.6517 74.8841 95.215C75.8142 95.7783 84.0018 100.146 84.0484 100.172C85.0565 100.718 84.7748 102.372 83.0722 102.661C81.1803 102.981 71.3777 102.765 70.8517 102.258C70.3256 101.751 69.3073 97.3235 69.6761 96.6073Z" fill="#2B2E35" />
				<path id="Path 14_2" fillRule="evenodd" clipRule="evenodd" d="M76.0952 96.7173C76.0864 96.7173 76.0777 96.7179 76.069 96.7191C75.5344 96.7911 75.9006 97.6306 76.399 97.8369L79.7584 99.2274C80.0993 99.3685 80.775 99.3063 80.6162 98.9732C80.5363 98.8057 76.4036 96.7173 76.0952 96.7173Z" fill="white" fill-opacity="0.540975" />
				<path id="Path_23" fillRule="evenodd" clipRule="evenodd" d="M30.1799 51.6382C30.1799 51.6382 24.8637 62.9246 32.3346 66.8001C39.5596 70.5481 61.1887 66.1153 61.1887 66.1153C61.1887 66.1153 60.8022 69.2434 61.1887 72.0334C62.1981 79.32 66.9988 91.4599 68.0146 92.9853C69.4192 95.0948 73.6979 93.5039 73.7785 91.7475C73.8591 89.991 70.553 67.5581 70.0502 63.2802C69.5501 59.0022 67.971 58.3808 63.3589 57.2113C62.2993 56.9427 49.7692 53.8123 48.6214 53.9035C38.7586 54.6875 30.1799 51.6382 30.1799 51.6382Z" fill="#42474F" />
				<path id="Path_24" fillRule="evenodd" clipRule="evenodd" d="M36.0075 65.6355C43.1605 66.4412 62.0977 64.7804 62.8582 65.5351C63.5843 66.2556 63.4632 78.791 65.0921 86.0463L64.8443 85.3612C63.3124 81.084 61.7218 75.8819 61.1887 72.0335C60.8022 69.2436 61.1887 66.1154 61.1887 66.1154L60.3166 66.2851C56.2051 67.0615 38.6926 70.0985 32.3346 66.8003C28.8897 65.0132 27.4839 62.0443 28.1173 57.8936C29.208 62.5851 31.838 65.1658 36.0075 65.6355Z" fill="#52565E" />
			</g>
		</g>
		<path id="Rectangle_10" fillRule="evenodd" clipRule="evenodd" d="M44 87.1114C44 73.795 33.205 63 19.8886 63L0 63V96.2528C0 97.2178 0.782249 98 1.7472 98H44L44 87.1114Z" fill="#DFDFDF" />
	</g>
</svg>
