<svg width="18" height="18" viewBox="0 0 18 18" fill="none" xmlns="http://www.w3.org/2000/svg">
	<path d="M9 18C4.03768 18 0 13.9623 0 9C0 4.03768 4.03768 0 9 0C13.9623 0 18 4.03768 18 9C18 13.9623 13.9623 18 9 18ZM9 0.765474C4.46021 0.765474 0.765474 4.46021 0.765474 9C0.765474 13.5398 4.46021 17.2345 9 17.2345C13.5398 17.2345 17.2345 13.5398 17.2345 9C17.2345 4.46021 13.5398 0.765474 9 0.765474Z" fill="#7E8299" />
	<path d="M8.99996 18C6.37007 18 4.30859 14.0476 4.30859 9C4.30859 3.95242 6.37007 0 8.99996 0C11.6299 0 13.6913 3.95242 13.6913 9C13.6913 14.0476 11.6299 18 8.99996 18ZM8.99996 0.765474C6.87217 0.765474 5.07407 4.536 5.07407 9C5.07407 13.464 6.87217 17.2345 8.99996 17.2345C11.1278 17.2345 12.9259 13.464 12.9259 9C12.9259 4.536 11.1278 0.765474 8.99996 0.765474Z" fill="#7E8299" />
	<path d="M9.00027 5.07243C6.63943 5.07243 4.41122 4.39601 2.72869 3.16633C2.55817 3.04127 2.52027 2.80254 2.64532 2.63201C2.77038 2.46149 3.00911 2.42359 3.17964 2.54864C4.73143 3.68359 6.79859 4.30696 8.99838 4.30696C11.1982 4.30696 13.2653 3.6817 14.8171 2.54864C14.9876 2.42359 15.2283 2.46149 15.3514 2.63201C15.4765 2.80254 15.4386 3.04317 15.2681 3.16633C13.5893 4.39601 11.3611 5.07243 9.00027 5.07243Z" fill="#7E8299" />
	<path d="M15.0426 15.5213C14.9649 15.5213 14.8853 15.4966 14.8171 15.4474C13.2653 14.3124 11.1982 13.6891 8.99838 13.6891C6.79859 13.6891 4.73143 14.3143 3.17964 15.4474C3.00911 15.5724 2.76848 15.5345 2.64532 15.364C2.52027 15.1935 2.55817 14.9528 2.72869 14.8297C4.41122 13.6 6.63943 12.9236 9.00027 12.9236C11.3611 12.9236 13.5893 13.6 15.2719 14.8297C15.4424 14.9547 15.4803 15.1935 15.3552 15.364C15.2775 15.4682 15.162 15.5213 15.0426 15.5213Z" fill="#7E8299" />
	<path d="M17.6116 9.38242H0.382737C0.170526 9.38242 0 9.21 0 8.99968C0 8.78936 0.172421 8.61694 0.382737 8.61694H17.6116C17.8238 8.61694 17.9943 8.78936 17.9943 8.99968C17.9943 9.21 17.8238 9.38242 17.6116 9.38242Z" fill="#7E8299" />
	<path d="M9.00115 18C8.78893 18 8.61841 17.8276 8.61841 17.6173V0.382737C8.61841 0.170526 8.79083 0 9.00115 0C9.21146 0 9.38388 0.172421 9.38388 0.382737V17.6173C9.38388 17.8276 9.21336 18 9.00115 18Z" fill="#7E8299" />
</svg>
