<svg width="20" height="19" viewBox="0 0 20 19" fill="none" xmlns="http://www.w3.org/2000/svg">
	<path d="M1.48633 9.67332C1.48633 7.72817 1.48633 6.75559 1.92765 5.94933C2.36897 5.14308 3.17524 4.64268 4.78775 3.64191L6.48775 2.58684C8.19231 1.52895 9.04461 1 9.98633 1C10.928 1 11.7803 1.52895 13.4849 2.58684L15.1849 3.6419C16.7975 4.64268 17.6037 5.14308 18.045 5.94933C18.4863 6.75559 18.4863 7.72817 18.4863 9.67332V10.9663C18.4863 14.2819 18.4863 15.9399 17.4905 16.9699C16.4947 18 14.8918 18 11.6863 18H8.28633C5.08077 18 3.47801 18 2.48216 16.9699C1.48633 15.9399 1.48633 14.2819 1.48633 10.9663V9.67332Z" stroke="#EA5455" stroke-width="2" />
	<path d="M12.4157 14.762H7.55859" stroke="#EA5455" stroke-width="2" stroke-linecap="round" />
</svg>
