<svg width="22" height="16" viewBox="0 0 22 16" fill="none" xmlns="http://www.w3.org/2000/svg">
	<path d="M0.630859 2.76786C0.630859 1.58594 1.77721 0.625 3.18718 0.625H18.5251C19.9351 0.625 21.0814 1.58594 21.0814 2.76786V13.4821C21.0814 14.6641 19.9351 15.625 18.5251 15.625H3.18718C1.77721 15.625 0.630859 14.6641 0.630859 13.4821V2.76786ZM13.5642 6.3337C13.3845 6.11272 13.0889 5.98214 12.7734 5.98214C12.4578 5.98214 12.1583 6.11272 11.9825 6.3337L8.50752 10.606L7.44905 9.49777C7.26531 9.30692 6.98971 9.19643 6.70212 9.19643C6.41454 9.19643 6.13494 9.30692 5.9552 9.49777L3.39888 12.1763C3.16721 12.4174 3.12327 12.7489 3.28304 13.0268C3.44281 13.3047 3.77833 13.4821 4.1458 13.4821H7.98028H9.25844H17.5665C17.922 13.4821 18.2495 13.3181 18.4133 13.0536C18.577 12.7891 18.5571 12.471 18.3573 12.2266L13.5642 6.3337ZM5.10442 5.98214C5.61291 5.98214 6.10056 5.81282 6.46012 5.51142C6.81967 5.21002 7.02166 4.80124 7.02166 4.375C7.02166 3.94876 6.81967 3.53998 6.46012 3.23858C6.10056 2.93718 5.61291 2.76786 5.10442 2.76786C4.59594 2.76786 4.10828 2.93718 3.74873 3.23858C3.38917 3.53998 3.18718 3.94876 3.18718 4.375C3.18718 4.80124 3.38917 5.21002 3.74873 5.51142C4.10828 5.81282 4.59594 5.98214 5.10442 5.98214Z" fill="black" />
</svg>
