<svg width="231" height="70" viewBox="0 0 231 70" fill="none" xmlns="http://www.w3.org/2000/svg">
	<g clip-path="url(#clip0_646_21612)">
		<rect width="231" height="70" rx="4.94551" fill="url(#paint0_linear_646_21612)" />
		<g opacity="0.3" clip-path="url(#clip1_646_21612)">
			<path d="M30.3956 59.4381L26.6082 67.8903L18.928 85.0841L30.3956 59.4381Z" stroke="#363636" stroke-width="0.824252" stroke-miterlimit="10" strokeLinejoin="round" />
			<path d="M212.349 85.0841L204.669 67.8903L200.881 59.4381L212.349 85.0841Z" stroke="#363636" stroke-width="0.824252" stroke-miterlimit="10" strokeLinejoin="round" />
			<path d="M34.0888 59.6792L30.3956 59.4381L18.928 85.0841L34.0888 59.6792Z" stroke="#363636" stroke-width="0.824252" stroke-miterlimit="10" strokeLinejoin="round" />
			<path d="M197.188 59.6792L212.349 85.0841L200.882 59.4381L197.188 59.6792Z" stroke="#363636" stroke-width="0.824252" stroke-miterlimit="10" strokeLinejoin="round" />
			<path d="M34.0897 59.6795L49.819 43.0204L30.3965 59.4385L34.0897 59.6795Z" stroke="#363636" stroke-width="0.824252" stroke-miterlimit="10" strokeLinejoin="round" />
			<path d="M181.459 43.0204L197.189 59.6795L200.882 59.4385L181.459 43.0204Z" stroke="#363636" stroke-width="0.824252" stroke-miterlimit="10" strokeLinejoin="round" />
			<path d="M181.459 43.0209L200.882 59.439L185.42 40.9767L181.459 43.0209Z" stroke="#363636" stroke-width="0.824252" stroke-miterlimit="10" strokeLinejoin="round" />
			<path d="M49.819 43.0209L45.8585 40.9767L30.3965 59.439L49.819 43.0209Z" stroke="#363636" stroke-width="0.824252" stroke-miterlimit="10" strokeLinejoin="round" />
			<path d="M49.8189 43.0194L67.1558 32.7228L45.8584 40.9752L49.8189 43.0194Z" stroke="#363636" stroke-width="0.824252" stroke-miterlimit="10" strokeLinejoin="round" />
			<path d="M164.122 32.7236L185.419 40.976L168.523 29.7153L164.122 32.7236Z" stroke="#363636" stroke-width="0.824252" stroke-miterlimit="10" strokeLinejoin="round" />
			<path d="M67.1558 32.7236L62.7548 29.7153L45.8584 40.976L67.1558 32.7236Z" stroke="#363636" stroke-width="0.824252" stroke-miterlimit="10" strokeLinejoin="round" />
			<path d="M164.122 32.7228L181.458 43.0194L185.419 40.9752L164.122 32.7228Z" stroke="#363636" stroke-width="0.824252" stroke-miterlimit="10" strokeLinejoin="round" />
			<path d="M24.1544 88.9507L34.0888 59.6794L18.928 85.0843L24.1544 88.9507Z" stroke="#363636" stroke-width="0.824252" stroke-miterlimit="10" strokeLinejoin="round" />
			<path d="M197.188 59.6794L207.123 88.9507L212.349 85.0843L197.188 59.6794Z" stroke="#363636" stroke-width="0.824252" stroke-miterlimit="10" strokeLinejoin="round" />
			<path d="M67.1552 32.7231L85.0154 26.0105L62.7542 29.7148L67.1552 32.7231Z" stroke="#363636" stroke-width="0.824252" stroke-miterlimit="10" strokeLinejoin="round" />
			<path d="M85.0154 26.0108L80.4902 23.2925L62.7542 29.7152L85.0154 26.0108Z" stroke="#363636" stroke-width="0.824252" stroke-miterlimit="10" strokeLinejoin="round" />
			<path d="M146.262 26.0105L164.122 32.7231L168.523 29.7148L146.262 26.0105Z" stroke="#363636" stroke-width="0.824252" stroke-miterlimit="10" strokeLinejoin="round" />
			<path d="M146.262 26.0111L168.523 29.7154L142.457 21.4724L146.262 26.0111Z" stroke="#363636" stroke-width="0.824252" stroke-miterlimit="10" strokeLinejoin="round" />
			<path d="M108.862 22.8182L142.457 21.4723L106.394 18.9331L108.862 22.8182Z" stroke="#363636" stroke-width="0.824252" stroke-miterlimit="10" strokeLinejoin="round" />
			<path d="M85.0162 26.0116L108.862 22.8188L80.491 23.2933L85.0162 26.0116Z" stroke="#363636" stroke-width="0.824252" stroke-miterlimit="10" strokeLinejoin="round" />
			<path d="M108.862 22.8182L106.395 18.9331L80.491 23.2926L108.862 22.8182Z" stroke="#363636" stroke-width="0.824252" stroke-miterlimit="10" strokeLinejoin="round" />
			<path d="M108.862 22.8183L129.192 23.4358L142.457 21.4724L108.862 22.8183Z" stroke="#363636" stroke-width="0.824252" stroke-miterlimit="10" strokeLinejoin="round" />
			<path d="M129.192 23.4358L146.262 26.011L142.457 21.4724L129.192 23.4358Z" stroke="#363636" stroke-width="0.824252" stroke-miterlimit="10" strokeLinejoin="round" />
			<path d="M193.795 71.8286L197.189 59.6795L181.459 43.0204L193.795 71.8286Z" stroke="#363636" stroke-width="0.824252" stroke-miterlimit="10" strokeLinejoin="round" />
			<path d="M178.424 51.0206L193.794 71.8286L181.459 43.0204L178.424 51.0206Z" stroke="#363636" stroke-width="0.824252" stroke-miterlimit="10" strokeLinejoin="round" />
			<path d="M37.4839 71.8286L52.8537 51.0206L49.8192 43.0204L37.4839 71.8286Z" stroke="#363636" stroke-width="0.824252" stroke-miterlimit="10" strokeLinejoin="round" />
			<path d="M37.4829 71.8286L34.0889 59.6794L24.1545 88.9507L37.4829 71.8286Z" stroke="#363636" stroke-width="0.824252" stroke-miterlimit="10" strokeLinejoin="round" />
			<path d="M37.4833 71.8286L49.8187 43.0204L34.0894 59.6795L37.4833 71.8286Z" stroke="#363636" stroke-width="0.824252" stroke-miterlimit="10" strokeLinejoin="round" />
			<path d="M193.794 71.8286L207.122 88.9507L197.188 59.6794L193.794 71.8286Z" stroke="#363636" stroke-width="0.824252" stroke-miterlimit="10" strokeLinejoin="round" />
			<path d="M52.8528 51.0211L69.9111 40.9767L49.8184 43.0209L52.8528 51.0211Z" stroke="#363636" stroke-width="0.824252" stroke-miterlimit="10" strokeLinejoin="round" />
			<path d="M69.9111 40.9752L67.1553 32.7228L49.8184 43.0194L69.9111 40.9752Z" stroke="#363636" stroke-width="0.824252" stroke-miterlimit="10" strokeLinejoin="round" />
			<path d="M161.366 40.9767L178.425 51.0211L181.459 43.0209L161.366 40.9767Z" stroke="#363636" stroke-width="0.824252" stroke-miterlimit="10" strokeLinejoin="round" />
			<path d="M161.366 40.9752L181.459 43.0194L164.122 32.7228L161.366 40.9752Z" stroke="#363636" stroke-width="0.824252" stroke-miterlimit="10" strokeLinejoin="round" />
			<path d="M87.9417 35.6482L85.0165 26.0105L67.1562 32.7231L87.9417 35.6482Z" stroke="#363636" stroke-width="0.824252" stroke-miterlimit="10" strokeLinejoin="round" />
			<path d="M143.337 35.6479L161.366 40.9752L164.122 32.7228L143.337 35.6479Z" stroke="#363636" stroke-width="0.824252" stroke-miterlimit="10" strokeLinejoin="round" />
			<path d="M143.337 35.6482L164.122 32.7231L146.262 26.0105L143.337 35.6482Z" stroke="#363636" stroke-width="0.824252" stroke-miterlimit="10" strokeLinejoin="round" />
			<path d="M69.9121 40.9752L87.9417 35.6479L67.1562 32.7228L69.9121 40.9752Z" stroke="#363636" stroke-width="0.824252" stroke-miterlimit="10" strokeLinejoin="round" />
			<path d="M87.9411 35.6482L109.579 32.7173L85.0159 26.0105L87.9411 35.6482Z" stroke="#363636" stroke-width="0.824252" stroke-miterlimit="10" strokeLinejoin="round" />
			<path d="M109.579 32.7184L129.192 23.4363L108.862 22.8188L109.579 32.7184Z" stroke="#363636" stroke-width="0.824252" stroke-miterlimit="10" strokeLinejoin="round" />
			<path d="M109.579 32.7184L108.862 22.8188L85.0159 26.0116L109.579 32.7184Z" stroke="#363636" stroke-width="0.824252" stroke-miterlimit="10" strokeLinejoin="round" />
			<path d="M109.579 32.7181L127.757 33.3675L129.192 23.436L109.579 32.7181Z" stroke="#363636" stroke-width="0.824252" stroke-miterlimit="10" strokeLinejoin="round" />
			<path d="M127.758 33.3675L146.262 26.0113L129.192 23.436L127.758 33.3675Z" stroke="#363636" stroke-width="0.824252" stroke-miterlimit="10" strokeLinejoin="round" />
			<path d="M127.758 33.3667L143.336 35.6482L146.262 26.0105L127.758 33.3667Z" stroke="#363636" stroke-width="0.824252" stroke-miterlimit="10" strokeLinejoin="round" />
			<path d="M177.366 61.8548L193.794 71.8279L178.424 51.0199L177.366 61.8548Z" stroke="#363636" stroke-width="0.824252" stroke-miterlimit="10" strokeLinejoin="round" />
			<path d="M53.9116 61.8548L52.8537 51.0199L37.4839 71.8279L53.9116 61.8548Z" stroke="#363636" stroke-width="0.824252" stroke-miterlimit="10" strokeLinejoin="round" />
			<path d="M160.39 52.3841L178.424 51.0211L161.365 40.9767L160.39 52.3841Z" stroke="#363636" stroke-width="0.824252" stroke-miterlimit="10" strokeLinejoin="round" />
			<path d="M160.391 52.3828L161.366 40.9754L143.337 35.6481L160.391 52.3828Z" stroke="#363636" stroke-width="0.824252" stroke-miterlimit="10" strokeLinejoin="round" />
			<path d="M160.39 52.3829L177.366 61.8548L178.424 51.0199L160.39 52.3829Z" stroke="#363636" stroke-width="0.824252" stroke-miterlimit="10" strokeLinejoin="round" />
			<path d="M70.8865 52.3828L87.941 35.6481L69.9114 40.9754L70.8865 52.3828Z" stroke="#363636" stroke-width="0.824252" stroke-miterlimit="10" strokeLinejoin="round" />
			<path d="M53.9112 61.8548L70.8866 52.3829L52.8533 51.0199L53.9112 61.8548Z" stroke="#363636" stroke-width="0.824252" stroke-miterlimit="10" strokeLinejoin="round" />
			<path d="M70.8866 52.3841L69.9115 40.9767L52.8533 51.0211L70.8866 52.3841Z" stroke="#363636" stroke-width="0.824252" stroke-miterlimit="10" strokeLinejoin="round" />
			<path d="M96.3668 44.3336L109.579 32.7173L87.9412 35.6481L96.3668 44.3336Z" stroke="#363636" stroke-width="0.824252" stroke-miterlimit="10" strokeLinejoin="round" />
			<path d="M134.911 44.3336L160.391 52.3828L143.336 35.6481L134.911 44.3336Z" stroke="#363636" stroke-width="0.824252" stroke-miterlimit="10" strokeLinejoin="round" />
			<path d="M70.8872 52.3828L96.3674 44.3336L87.9417 35.6481L70.8872 52.3828Z" stroke="#363636" stroke-width="0.824252" stroke-miterlimit="10" strokeLinejoin="round" />
			<path d="M134.911 44.3345L143.336 35.649L127.758 33.3676L134.911 44.3345Z" stroke="#363636" stroke-width="0.824252" stroke-miterlimit="10" strokeLinejoin="round" />
			<path d="M134.911 44.3336L127.757 33.3667L109.579 32.7173L134.911 44.3336Z" stroke="#363636" stroke-width="0.824252" stroke-miterlimit="10" strokeLinejoin="round" />
			<path d="M115.638 41.0734L134.911 44.3336L109.579 32.7173L115.638 41.0734Z" stroke="#363636" stroke-width="0.824252" stroke-miterlimit="10" strokeLinejoin="round" />
			<path d="M96.3669 44.3336L115.639 41.0734L109.58 32.7173L96.3669 44.3336Z" stroke="#363636" stroke-width="0.824252" stroke-miterlimit="10" strokeLinejoin="round" />
			<path d="M40.8006 90.4383L53.9116 61.8558L37.4839 71.829L40.8006 90.4383Z" stroke="#363636" stroke-width="0.824252" stroke-miterlimit="10" strokeLinejoin="round" />
			<path d="M177.366 61.8558L190.477 90.4383L193.794 71.829L177.366 61.8558Z" stroke="#363636" stroke-width="0.824252" stroke-miterlimit="10" strokeLinejoin="round" />
			<path d="M176.085 79.3866L190.477 90.4383L177.367 61.8558L176.085 79.3866Z" stroke="#363636" stroke-width="0.824252" stroke-miterlimit="10" strokeLinejoin="round" />
			<path d="M55.1931 79.3866L53.9112 61.8558L40.8003 90.4383L55.1931 79.3866Z" stroke="#363636" stroke-width="0.824252" stroke-miterlimit="10" strokeLinejoin="round" />
			<path d="M55.1923 79.3866L70.8444 64.9545L53.9104 61.8558L55.1923 79.3866Z" stroke="#363636" stroke-width="0.824252" stroke-miterlimit="10" strokeLinejoin="round" />
			<path d="M177.366 61.8557L160.39 52.3838L160.432 64.9544L177.366 61.8557Z" stroke="#363636" stroke-width="0.824252" stroke-miterlimit="10" strokeLinejoin="round" />
			<path d="M160.432 64.9545L176.084 79.3866L177.366 61.8558L160.432 64.9545Z" stroke="#363636" stroke-width="0.824252" stroke-miterlimit="10" strokeLinejoin="round" />
			<path d="M96.3663 44.334L70.8862 52.3832L70.8447 64.9539L96.3663 44.334Z" stroke="#363636" stroke-width="0.824252" stroke-miterlimit="10" strokeLinejoin="round" />
			<path d="M70.8444 64.9544L70.8858 52.3838L53.9104 61.8557L70.8444 64.9544Z" stroke="#363636" stroke-width="0.824252" stroke-miterlimit="10" strokeLinejoin="round" />
			<path d="M160.432 64.9539L160.391 52.3832L134.911 44.334L160.432 64.9539Z" stroke="#363636" stroke-width="0.824252" stroke-miterlimit="10" strokeLinejoin="round" />
			<path d="M96.1182 57.8581L115.639 41.0731L96.3667 44.3333L96.1182 57.8581Z" stroke="#363636" stroke-width="0.824252" stroke-miterlimit="10" strokeLinejoin="round" />
			<path d="M135.159 57.8588L160.432 64.9539L134.911 44.334L135.159 57.8588Z" stroke="#363636" stroke-width="0.824252" stroke-miterlimit="10" strokeLinejoin="round" />
			<path d="M135.159 57.8581L134.911 44.3333L115.639 41.0731L135.159 57.8581Z" stroke="#363636" stroke-width="0.824252" stroke-miterlimit="10" strokeLinejoin="round" />
			<path d="M70.8447 64.9539L96.1178 57.8588L96.3663 44.334L70.8447 64.9539Z" stroke="#363636" stroke-width="0.824252" stroke-miterlimit="10" strokeLinejoin="round" />
			<path d="M135.159 57.8581L115.639 41.0731V54.8786L135.159 57.8581Z" stroke="#363636" stroke-width="0.824252" stroke-miterlimit="10" strokeLinejoin="round" />
			<path d="M96.1182 57.8581L115.639 54.8786V41.0731L96.1182 57.8581Z" stroke="#363636" stroke-width="0.824252" stroke-miterlimit="10" strokeLinejoin="round" />
			<path d="M159.736 77.8224L160.433 64.9544L135.16 57.8594L159.736 77.8224Z" stroke="#363636" stroke-width="0.824252" stroke-miterlimit="10" strokeLinejoin="round" />
			<path d="M71.5412 77.8224L96.1178 57.8594L70.8447 64.9544L71.5412 77.8224Z" stroke="#363636" stroke-width="0.824252" stroke-miterlimit="10" strokeLinejoin="round" />
			<path d="M71.5418 77.8212L70.8452 64.9532L55.1931 79.3853L71.5418 77.8212Z" stroke="#363636" stroke-width="0.824252" stroke-miterlimit="10" strokeLinejoin="round" />
			<path d="M159.736 77.8212L176.084 79.3853L160.432 64.9532L159.736 77.8212Z" stroke="#363636" stroke-width="0.824252" stroke-miterlimit="10" strokeLinejoin="round" />
			<path d="M71.542 77.8224L88.269 73.1653L96.1185 57.8594L71.542 77.8224Z" stroke="#363636" stroke-width="0.824252" stroke-miterlimit="10" strokeLinejoin="round" />
			<path d="M135.57 71.9262L135.159 57.8588L115.639 54.8793L135.57 71.9262Z" stroke="#363636" stroke-width="0.824252" stroke-miterlimit="10" strokeLinejoin="round" />
			<path d="M135.57 71.9268L159.736 77.8224L135.16 57.8594L135.57 71.9268Z" stroke="#363636" stroke-width="0.824252" stroke-miterlimit="10" strokeLinejoin="round" />
			<path d="M109.394 70.2414L135.57 71.9262L115.64 54.8793L109.394 70.2414Z" stroke="#363636" stroke-width="0.824252" stroke-miterlimit="10" strokeLinejoin="round" />
			<path d="M88.269 73.1653L109.393 70.2419L96.1186 57.8594L88.269 73.1653Z" stroke="#363636" stroke-width="0.824252" stroke-miterlimit="10" strokeLinejoin="round" />
			<path d="M109.393 70.2414L115.639 54.8793L96.1182 57.8588L109.393 70.2414Z" stroke="#363636" stroke-width="0.824252" stroke-miterlimit="10" strokeLinejoin="round" />
			<path d="M109.393 70.2412L88.269 73.1646L88.5495 89.3759L109.393 70.2412Z" stroke="#363636" stroke-width="0.824252" stroke-miterlimit="10" strokeLinejoin="round" />
			<path d="M128.319 87.834L135.57 71.926L109.394 70.2412L128.319 87.834Z" stroke="#363636" stroke-width="0.824252" stroke-miterlimit="10" strokeLinejoin="round" />
			<path d="M88.5496 89.3759L109.299 87.5893L109.393 70.2412L88.5496 89.3759Z" stroke="#363636" stroke-width="0.824252" stroke-miterlimit="10" strokeLinejoin="round" />
			<path d="M128.319 87.834L109.393 70.2412L109.299 87.5893L128.319 87.834Z" stroke="#363636" stroke-width="0.824252" stroke-miterlimit="10" strokeLinejoin="round" />
		</g>
		<path d="M12.8839 23.1276V14.7392H14.1014V23.1276H12.8839ZM20.2663 23.1276V20.0344C20.2663 19.7897 20.2449 19.5392 20.2022 19.2829C20.1633 19.0227 20.0857 18.7819 19.9692 18.5606C19.8565 18.3392 19.6954 18.1606 19.4857 18.0247C19.2798 17.8887 19.0099 17.8208 18.676 17.8208C18.4585 17.8208 18.2527 17.8577 18.0585 17.9314C17.8643 18.0013 17.6934 18.1159 17.5459 18.2751C17.4022 18.4344 17.2876 18.6441 17.2022 18.9043C17.1206 19.1645 17.0798 19.481 17.0798 19.8538L16.3226 19.5683C16.3226 18.9975 16.4294 18.4946 16.643 18.0596C16.8565 17.6208 17.1633 17.279 17.5633 17.0344C17.9633 16.7897 18.4468 16.6674 19.0138 16.6674C19.4488 16.6674 19.8138 16.7373 20.109 16.8771C20.4041 17.0169 20.643 17.2013 20.8255 17.4305C21.0119 17.6557 21.1536 17.9023 21.2507 18.1703C21.3478 18.4382 21.4138 18.7004 21.4488 18.9567C21.4837 19.213 21.5012 19.4382 21.5012 19.6324V23.1276H20.2663ZM15.8449 23.1276V16.8363H16.9342V18.6538H17.0798V23.1276H15.8449ZM24.7952 23.3023C24.3292 23.3023 23.9389 23.2169 23.6243 23.046C23.3098 22.8713 23.0709 22.6421 22.9078 22.3586C22.7486 22.0713 22.669 21.7567 22.669 21.4149C22.669 21.0965 22.7253 20.8169 22.8379 20.5761C22.9505 20.3353 23.1175 20.1314 23.3389 19.9645C23.5602 19.7936 23.8321 19.6557 24.1544 19.5509C24.434 19.4693 24.7505 19.3975 25.1039 19.3353C25.4573 19.2732 25.8282 19.2149 26.2166 19.1606C26.6088 19.1062 26.9971 19.0518 27.3816 18.9975L26.9389 19.2421C26.9467 18.7489 26.8418 18.3839 26.6243 18.147C26.4107 17.9062 26.0418 17.7858 25.5175 17.7858C25.1874 17.7858 24.8845 17.8635 24.6088 18.0188C24.3331 18.1703 24.1408 18.4227 24.0321 18.7761L22.8962 18.4266C23.0515 17.8868 23.3467 17.4577 23.7816 17.1392C24.2204 16.8208 24.803 16.6615 25.5292 16.6615C26.0923 16.6615 26.5816 16.7586 26.9971 16.9528C27.4166 17.1431 27.7234 17.446 27.9175 17.8615C28.0185 18.0674 28.0806 18.2848 28.1039 18.514C28.1272 18.7431 28.1389 18.9897 28.1389 19.2538V23.1276H27.0612V21.6887L27.2709 21.8751C27.0107 22.3567 26.6787 22.7159 26.2748 22.9528C25.8748 23.1858 25.3816 23.3023 24.7952 23.3023ZM25.0107 22.3062C25.3564 22.3062 25.6535 22.246 25.902 22.1256C26.1505 22.0013 26.3505 21.8441 26.502 21.6538C26.6535 21.4635 26.7525 21.2654 26.7991 21.0596C26.8651 20.8732 26.902 20.6635 26.9098 20.4305C26.9214 20.1975 26.9272 20.0111 26.9272 19.8713L27.3234 20.0169C26.9389 20.0751 26.5894 20.1276 26.2748 20.1742C25.9602 20.2208 25.6748 20.2674 25.4185 20.314C25.1661 20.3567 24.9408 20.4091 24.7428 20.4713C24.5758 20.5295 24.4263 20.5994 24.2942 20.681C24.1661 20.7625 24.0632 20.8615 23.9855 20.978C23.9117 21.0946 23.8748 21.2363 23.8748 21.4033C23.8748 21.5664 23.9156 21.7179 23.9971 21.8577C24.0787 21.9936 24.203 22.1023 24.37 22.1839C24.5369 22.2654 24.7505 22.3062 25.0107 22.3062ZM32.3428 23.3023C31.6981 23.3023 31.1506 23.1586 30.7001 22.8713C30.2496 22.5839 29.904 22.1897 29.6632 21.6887C29.4263 21.1878 29.3059 20.6188 29.302 19.9819C29.3059 19.3334 29.4302 18.7606 29.6748 18.2635C29.9195 17.7625 30.269 17.3703 30.7234 17.0868C31.1778 16.8033 31.7234 16.6615 32.3603 16.6615C33.0477 16.6615 33.6341 16.8324 34.1195 17.1742C34.6088 17.5159 34.9312 17.9839 35.0865 18.578L33.8748 18.9276C33.7545 18.5742 33.5564 18.3004 33.2807 18.1062C33.0088 17.9081 32.6962 17.8091 32.3428 17.8091C31.9428 17.8091 31.6146 17.9043 31.3583 18.0946C31.102 18.281 30.9117 18.5373 30.7875 18.8635C30.6632 19.1897 30.5991 19.5625 30.5952 19.9819C30.5991 20.6305 30.7467 21.1547 31.0379 21.5547C31.3331 21.9547 31.768 22.1547 32.3428 22.1547C32.735 22.1547 33.0515 22.0654 33.2923 21.8868C33.537 21.7043 33.7234 21.4441 33.8515 21.1062L35.0865 21.3975C34.8807 22.0111 34.5409 22.4829 34.0671 22.813C33.5933 23.1392 33.0185 23.3023 32.3428 23.3023ZM39.8732 23.1276C39.4771 23.2052 39.0887 23.2382 38.7082 23.2266C38.3276 23.2149 37.9878 23.1412 37.6887 23.0052C37.3897 22.8693 37.1645 22.6557 37.013 22.3645C36.8771 22.1043 36.8033 21.8402 36.7916 21.5722C36.7839 21.3004 36.78 20.9936 36.78 20.6518V15.0887H38.0033V20.5936C38.0033 20.846 38.0052 21.0654 38.0091 21.2518C38.0169 21.4382 38.0577 21.5955 38.1315 21.7237C38.2713 21.9645 38.4926 22.1023 38.7955 22.1373C39.1023 22.1683 39.4616 22.1547 39.8732 22.0965V23.1276ZM35.5742 17.8149V16.8363H39.8732V17.8149H35.5742ZM41.3161 15.8052V14.6227H42.5336V15.8052H41.3161ZM41.3161 23.1276V16.8363H42.5336V23.1276H41.3161ZM45.9839 23.1276L43.7004 16.8363H44.9295L46.6014 21.6013L48.2732 16.8363H49.5023L47.2188 23.1276H45.9839ZM53.1146 23.3023C52.4894 23.3023 51.9399 23.1664 51.4661 22.8946C50.9962 22.6188 50.6292 22.2363 50.3651 21.747C50.1049 21.2538 49.9748 20.6829 49.9748 20.0344C49.9748 19.347 50.103 18.7509 50.3593 18.246C50.6195 17.7412 50.9806 17.3509 51.4428 17.0751C51.9049 16.7994 52.4428 16.6615 53.0564 16.6615C53.6971 16.6615 54.2428 16.8111 54.6933 17.1101C55.1437 17.4052 55.4797 17.8266 55.701 18.3742C55.9263 18.9217 56.0156 19.5722 55.969 20.3256H54.7515V19.8829C54.7437 19.1528 54.6039 18.613 54.3321 18.2635C54.0641 17.914 53.6544 17.7392 53.103 17.7392C52.4933 17.7392 52.035 17.9314 51.7282 18.3159C51.4214 18.7004 51.268 19.2557 51.268 19.9819C51.268 20.6732 51.4214 21.2091 51.7282 21.5897C52.035 21.9664 52.4777 22.1547 53.0564 22.1547C53.4369 22.1547 53.7651 22.0693 54.0408 21.8984C54.3204 21.7237 54.5379 21.4751 54.6933 21.1528L55.8874 21.5314C55.6428 22.0946 55.2719 22.5314 54.7748 22.8421C54.2777 23.1489 53.7243 23.3023 53.1146 23.3023ZM50.8719 20.3256V19.3761H55.3632V20.3256H50.8719ZM59.7248 23.1276V14.7392H60.9423V21.98H64.7403V23.1276H59.7248ZM65.8459 15.8052V14.6227H67.0633V15.8052H65.8459ZM65.8459 23.1276V16.8363H67.0633V23.1276H65.8459ZM71.2185 23.2965C70.4534 23.2965 69.8301 23.1276 69.3486 22.7897C68.867 22.4518 68.5719 21.9761 68.4631 21.3625L69.7097 21.1703C69.7874 21.4965 69.966 21.7547 70.2457 21.945C70.5291 22.1314 70.8806 22.2247 71.3 22.2247C71.6806 22.2247 71.9777 22.147 72.1913 21.9916C72.4088 21.8363 72.5175 21.6227 72.5175 21.3509C72.5175 21.1916 72.4787 21.0635 72.401 20.9664C72.3272 20.8654 72.1699 20.7703 71.9291 20.681C71.6884 20.5916 71.3214 20.481 70.8282 20.3489C70.2884 20.2091 69.8592 20.0596 69.5408 19.9004C69.2262 19.7373 69.001 19.5489 68.8651 19.3353C68.733 19.1179 68.667 18.8557 68.667 18.5489C68.667 18.1683 68.768 17.8363 68.9699 17.5528C69.1719 17.2693 69.4554 17.0499 69.8204 16.8946C70.1893 16.7392 70.6204 16.6615 71.1136 16.6615C71.5952 16.6615 72.0243 16.7373 72.401 16.8887C72.7777 17.0402 73.0825 17.2557 73.3156 17.5353C73.5486 17.8111 73.6884 18.1353 73.735 18.5081L72.4884 18.7353C72.4457 18.4324 72.3039 18.1936 72.0631 18.0188C71.8224 17.8441 71.5097 17.7489 71.1253 17.7334C70.7563 17.7179 70.4573 17.78 70.2282 17.9198C69.9991 18.0557 69.8845 18.2441 69.8845 18.4848C69.8845 18.6247 69.9272 18.7431 70.0126 18.8402C70.102 18.9373 70.2728 19.0305 70.5253 19.1198C70.7777 19.2091 71.1505 19.3159 71.6437 19.4402C72.1719 19.5761 72.5913 19.7276 72.902 19.8946C73.2126 20.0577 73.434 20.2538 73.566 20.4829C73.702 20.7081 73.7699 20.9819 73.7699 21.3043C73.7699 21.9256 73.5427 22.413 73.0884 22.7664C72.6379 23.1198 72.0146 23.2965 71.2185 23.2965ZM78.6589 23.1276C78.2627 23.2052 77.8744 23.2382 77.4938 23.2266C77.1132 23.2149 76.7734 23.1412 76.4744 23.0052C76.1754 22.8693 75.9501 22.6557 75.7987 22.3645C75.6627 22.1043 75.5889 21.8402 75.5773 21.5722C75.5695 21.3004 75.5656 20.9936 75.5656 20.6518V15.0887H76.7889V20.5936C76.7889 20.846 76.7909 21.0654 76.7948 21.2518C76.8025 21.4382 76.8433 21.5955 76.9171 21.7237C77.0569 21.9645 77.2783 22.1023 77.5812 22.1373C77.888 22.1683 78.2472 22.1547 78.6589 22.0965V23.1276ZM74.3598 17.8149V16.8363H78.6589V17.8149H74.3598ZM80.1018 15.8052V14.6227H81.3193V15.8052H80.1018ZM80.1018 23.1276V16.8363H81.3193V23.1276H80.1018ZM87.4841 23.1276V20.0344C87.4841 19.7897 87.4627 19.5392 87.42 19.2829C87.3812 19.0227 87.3035 18.7819 87.187 18.5606C87.0744 18.3392 86.9132 18.1606 86.7035 18.0247C86.4977 17.8887 86.2278 17.8208 85.8938 17.8208C85.6763 17.8208 85.4705 17.8577 85.2763 17.9314C85.0822 18.0013 84.9113 18.1159 84.7637 18.2751C84.62 18.4344 84.5055 18.6441 84.42 18.9043C84.3385 19.1645 84.2977 19.481 84.2977 19.8538L83.5404 19.5683C83.5404 18.9975 83.6472 18.4946 83.8608 18.0596C84.0744 17.6208 84.3812 17.279 84.7812 17.0344C85.1812 16.7897 85.6647 16.6674 86.2317 16.6674C86.6666 16.6674 87.0317 16.7373 87.3268 16.8771C87.622 17.0169 87.8608 17.2013 88.0433 17.4305C88.2297 17.6557 88.3715 17.9023 88.4686 18.1703C88.5657 18.4382 88.6317 18.7004 88.6666 18.9567C88.7016 19.213 88.719 19.4382 88.719 19.6324V23.1276H87.4841ZM83.0627 23.1276V16.8363H84.1521V18.6538H84.2977V23.1276H83.0627ZM92.8286 26.0984C92.4907 26.0984 92.1626 26.046 91.8441 25.9412C91.5295 25.8363 91.2422 25.681 90.982 25.4751C90.7218 25.2732 90.5062 25.0227 90.3354 24.7237L91.4596 24.1528C91.5956 24.4208 91.7897 24.6169 92.0422 24.7412C92.2946 24.8654 92.5606 24.9276 92.8402 24.9276C93.1859 24.9276 93.481 24.8654 93.7257 24.7412C93.9703 24.6208 94.1548 24.4382 94.2791 24.1936C94.4072 23.9489 94.4694 23.646 94.4655 23.2848V21.5256H94.6111V16.8363H95.6888V23.2965C95.6888 23.4635 95.6829 23.6227 95.6713 23.7742C95.6596 23.9256 95.6383 24.0771 95.6072 24.2285C95.5179 24.6518 95.347 25.0013 95.0946 25.2771C94.846 25.5528 94.5276 25.7586 94.1393 25.8946C93.7548 26.0305 93.3179 26.0984 92.8286 26.0984ZM92.7354 23.3023C92.149 23.3023 91.6422 23.1567 91.215 22.8654C90.7917 22.5742 90.4635 22.178 90.2305 21.6771C90.0014 21.1722 89.8868 20.6052 89.8868 19.9761C89.8868 19.3431 90.0033 18.778 90.2363 18.281C90.4694 17.78 90.7994 17.3858 91.2266 17.0984C91.6577 16.8072 92.1684 16.6615 92.7587 16.6615C93.3528 16.6615 93.8519 16.8072 94.2558 17.0984C94.6635 17.3858 94.9703 17.78 95.1761 18.281C95.3859 18.7819 95.4907 19.347 95.4907 19.9761C95.4907 20.6052 95.3859 21.1703 95.1761 21.6713C94.9664 22.1722 94.6577 22.5703 94.2499 22.8654C93.8422 23.1567 93.3373 23.3023 92.7354 23.3023ZM92.9043 22.2013C93.3043 22.2013 93.6305 22.1062 93.8829 21.9159C94.1354 21.7256 94.3198 21.4635 94.4363 21.1295C94.5528 20.7955 94.6111 20.4111 94.6111 19.9761C94.6111 19.5412 94.5509 19.1567 94.4305 18.8227C94.314 18.4887 94.1315 18.2285 93.8829 18.0421C93.6383 17.8557 93.3257 17.7625 92.9451 17.7625C92.5412 17.7625 92.2092 17.8615 91.949 18.0596C91.6888 18.2577 91.4946 18.5237 91.3664 18.8577C91.2422 19.1916 91.18 19.5645 91.18 19.9761C91.18 20.3916 91.2422 20.7683 91.3664 21.1062C91.4946 21.4402 91.6849 21.7062 91.9373 21.9043C92.1936 22.1023 92.516 22.2013 92.9043 22.2013ZM99.7303 23.2965C98.9653 23.2965 98.342 23.1276 97.8604 22.7897C97.3788 22.4518 97.0837 21.9761 96.975 21.3625L98.2216 21.1703C98.2992 21.4965 98.4779 21.7547 98.7575 21.945C99.041 22.1314 99.3924 22.2247 99.8119 22.2247C100.192 22.2247 100.49 22.147 100.703 21.9916C100.921 21.8363 101.029 21.6227 101.029 21.3509C101.029 21.1916 100.99 21.0635 100.913 20.9664C100.839 20.8654 100.682 20.7703 100.441 20.681C100.2 20.5916 99.8332 20.481 99.34 20.3489C98.8002 20.2091 98.3711 20.0596 98.0526 19.9004C97.7381 19.7373 97.5128 19.5489 97.3769 19.3353C97.2449 19.1179 97.1788 18.8557 97.1788 18.5489C97.1788 18.1683 97.2798 17.8363 97.4818 17.5528C97.6837 17.2693 97.9672 17.0499 98.3322 16.8946C98.7012 16.7392 99.1322 16.6615 99.6254 16.6615C100.107 16.6615 100.536 16.7373 100.913 16.8887C101.29 17.0402 101.594 17.2557 101.827 17.5353C102.06 17.8111 102.2 18.1353 102.247 18.5081L101 18.7353C100.957 18.4324 100.816 18.1936 100.575 18.0188C100.334 17.8441 100.022 17.7489 99.6371 17.7334C99.2682 17.7179 98.9691 17.78 98.74 17.9198C98.5109 18.0557 98.3963 18.2441 98.3963 18.4848C98.3963 18.6247 98.439 18.7431 98.5245 18.8402C98.6138 18.9373 98.7847 19.0305 99.0371 19.1198C99.2895 19.2091 99.6623 19.3159 100.156 19.4402C100.684 19.5761 101.103 19.7276 101.414 19.8946C101.724 20.0577 101.946 20.2538 102.078 20.4829C102.214 20.7081 102.282 20.9819 102.282 21.3043C102.282 21.9256 102.055 22.413 101.6 22.7664C101.15 23.1198 100.526 23.2965 99.7303 23.2965Z" fill="white" />
		<path d="M14.15 54L19.21 41.59H12.8V39.6H21.46V41.59L16.41 54H14.15ZM28.4788 54.3C27.5388 54.3 26.7054 54.1133 25.9788 53.74C25.2588 53.36 24.6921 52.8333 24.2788 52.16C23.8721 51.4867 23.6688 50.7067 23.6688 49.82C23.6688 48.9933 23.8621 48.2367 24.2488 47.55C24.6354 46.8633 25.2121 46.3233 25.9788 45.93L25.9388 46.65C25.3254 46.27 24.8521 45.7967 24.5188 45.23C24.1921 44.6567 24.0288 44.0167 24.0288 43.31C24.0288 42.49 24.2188 41.78 24.5988 41.18C24.9788 40.58 25.5021 40.1167 26.1688 39.79C26.8421 39.4633 27.6121 39.3 28.4788 39.3C29.3454 39.3 30.1121 39.4633 30.7788 39.79C31.4454 40.1167 31.9688 40.58 32.3488 41.18C32.7288 41.78 32.9188 42.49 32.9188 43.31C32.9188 44.0167 32.7621 44.6533 32.4488 45.22C32.1354 45.7867 31.6554 46.2633 31.0088 46.65L30.9788 45.95C31.7388 46.3233 32.3154 46.8567 32.7088 47.55C33.1021 48.2367 33.2988 48.9933 33.2988 49.82C33.2988 50.7067 33.0921 51.4867 32.6788 52.16C32.2654 52.8333 31.6954 53.36 30.9688 53.74C30.2421 54.1133 29.4121 54.3 28.4788 54.3ZM28.4788 52.31C29.2521 52.31 29.8788 52.1 30.3588 51.68C30.8388 51.2533 31.0788 50.6333 31.0788 49.82C31.0788 49.0067 30.8388 48.3867 30.3588 47.96C29.8854 47.5267 29.2588 47.31 28.4788 47.31C27.6988 47.31 27.0688 47.5267 26.5888 47.96C26.1154 48.3867 25.8788 49.0067 25.8788 49.82C25.8788 50.6333 26.1188 51.2533 26.5988 51.68C27.0788 52.1 27.7054 52.31 28.4788 52.31ZM28.4788 45.31C29.1388 45.31 29.6721 45.1467 30.0788 44.82C30.4921 44.4867 30.6988 43.9833 30.6988 43.31C30.6988 42.6367 30.4921 42.1333 30.0788 41.8C29.6721 41.46 29.1388 41.29 28.4788 41.29C27.8188 41.29 27.2821 41.46 26.8688 41.8C26.4554 42.1333 26.2488 42.6367 26.2488 43.31C26.2488 43.9833 26.4554 44.4867 26.8688 44.82C27.2821 45.1467 27.8188 45.31 28.4788 45.31Z" fill="white" />
		<g opacity="0.8">
			<path d="M209.884 17.8354H194.433C192.726 16.6829 190.72 16 188.5 16C182.695 16 178 20.6951 178 26.5C178 32.3049 182.695 37 188.5 37C190.72 37 192.726 36.3171 194.433 35.1646H209.884C214.665 35.1646 218.549 31.2805 218.549 26.5C218.549 21.7195 214.665 17.8354 209.884 17.8354ZM179.878 26.5C179.878 21.7195 183.762 17.878 188.5 17.878C193.28 17.878 197.122 21.7622 197.122 26.5C197.122 31.2378 193.238 35.122 188.5 35.122C183.762 35.122 179.878 31.2805 179.878 26.5ZM209.884 33.2866H196.524C198.061 31.4512 199.043 29.1037 199.043 26.5C199.043 23.8963 198.104 21.5488 196.524 19.7134H209.884C213.64 19.7134 216.671 22.7439 216.671 26.5C216.671 30.2561 213.64 33.2866 209.884 33.2866Z" fill="url(#paint1_linear_646_21612)" />
			<path d="M210.695 22.6166C210.311 22.2325 209.756 22.2325 209.372 22.6166L206.811 25.1776L204.25 22.6166C203.866 22.2325 203.311 22.2325 202.927 22.6166C202.543 23.0007 202.543 23.5556 202.927 23.9398L205.488 26.5007L202.927 29.0617C202.543 29.4459 202.543 30.0007 202.927 30.3849C203.098 30.5556 203.354 30.641 203.61 30.641C203.866 30.641 204.079 30.5556 204.293 30.3849L206.854 27.8239L209.415 30.3849C209.585 30.5556 209.841 30.641 210.098 30.641C210.354 30.641 210.567 30.5556 210.78 30.3849C211.165 30.0007 211.165 29.4459 210.78 29.0617L208.219 26.5007L210.78 23.9398C211.037 23.5556 211.037 22.9581 210.695 22.6166Z" fill="url(#paint2_linear_646_21612)" />
		</g>
	</g>
	<defs>
		<linearGradient id="paint0_linear_646_21612" x1="0" y1="0" x2="186.794" y2="132.378" gradientUnits="userSpaceOnUse">
			<stop stop-color="#5B0000" />
			<stop offset="1" stop-color="#D00000" />
		</linearGradient>
		<linearGradient id="paint1_linear_646_21612" x1="207" y1="19.5" x2="184.5" y2="43" gradientUnits="userSpaceOnUse">
			<stop stop-color="#FFD9D9" />
			<stop offset="1" stop-color="white" stop-opacity="0" />
		</linearGradient>
		<linearGradient id="paint2_linear_646_21612" x1="208.668" y1="23.7139" x2="201.15" y2="27.8379" gradientUnits="userSpaceOnUse">
			<stop stop-color="#FFD9D9" />
			<stop offset="1" stop-color="white" stop-opacity="0" />
		</linearGradient>
		<clipPath id="clip0_646_21612">
			<rect width="231" height="70" rx="4.94551" fill="white" />
		</clipPath>
		<clipPath id="clip1_646_21612">
			<rect width="247.276" height="342.404" fill="white" transform="translate(-8 18.932)" />
		</clipPath>
	</defs>
</svg>
