<svg width="231" height="70" viewBox="0 0 231 70" fill="none" xmlns="http://www.w3.org/2000/svg">
	<g clip-path="url(#clip0_646_17908)">
		<rect width="231" height="70" rx="4.94551" fill="url(#paint0_linear_646_17908)" />
		<g opacity="0.3" clip-path="url(#clip1_646_17908)">
			<path d="M30.3956 59.4381L26.6082 67.8903L18.928 85.0841L30.3956 59.4381Z" stroke="#4DDC8E" stroke-width="0.824252" stroke-miterlimit="10" strokeLinejoin="round" />
			<path d="M212.349 85.0841L204.669 67.8903L200.881 59.4381L212.349 85.0841Z" stroke="#4DDC8E" stroke-width="0.824252" stroke-miterlimit="10" strokeLinejoin="round" />
			<path d="M34.0888 59.6792L30.3956 59.4381L18.928 85.0841L34.0888 59.6792Z" stroke="#4DDC8E" stroke-width="0.824252" stroke-miterlimit="10" strokeLinejoin="round" />
			<path d="M197.188 59.6792L212.349 85.0841L200.882 59.4381L197.188 59.6792Z" stroke="#4DDC8E" stroke-width="0.824252" stroke-miterlimit="10" strokeLinejoin="round" />
			<path d="M34.0897 59.6795L49.819 43.0204L30.3965 59.4385L34.0897 59.6795Z" stroke="#4DDC8E" stroke-width="0.824252" stroke-miterlimit="10" strokeLinejoin="round" />
			<path d="M181.459 43.0204L197.189 59.6795L200.882 59.4385L181.459 43.0204Z" stroke="#4DDC8E" stroke-width="0.824252" stroke-miterlimit="10" strokeLinejoin="round" />
			<path d="M181.459 43.0209L200.882 59.439L185.42 40.9767L181.459 43.0209Z" stroke="#4DDC8E" stroke-width="0.824252" stroke-miterlimit="10" strokeLinejoin="round" />
			<path d="M49.819 43.0209L45.8585 40.9767L30.3965 59.439L49.819 43.0209Z" stroke="#4DDC8E" stroke-width="0.824252" stroke-miterlimit="10" strokeLinejoin="round" />
			<path d="M49.8189 43.0194L67.1558 32.7228L45.8584 40.9752L49.8189 43.0194Z" stroke="#4DDC8E" stroke-width="0.824252" stroke-miterlimit="10" strokeLinejoin="round" />
			<path d="M164.122 32.7236L185.419 40.976L168.523 29.7153L164.122 32.7236Z" stroke="#4DDC8E" stroke-width="0.824252" stroke-miterlimit="10" strokeLinejoin="round" />
			<path d="M67.1558 32.7236L62.7548 29.7153L45.8584 40.976L67.1558 32.7236Z" stroke="#4DDC8E" stroke-width="0.824252" stroke-miterlimit="10" strokeLinejoin="round" />
			<path d="M164.122 32.7228L181.458 43.0194L185.419 40.9752L164.122 32.7228Z" stroke="#4DDC8E" stroke-width="0.824252" stroke-miterlimit="10" strokeLinejoin="round" />
			<path d="M24.1544 88.9507L34.0888 59.6794L18.928 85.0843L24.1544 88.9507Z" stroke="#4DDC8E" stroke-width="0.824252" stroke-miterlimit="10" strokeLinejoin="round" />
			<path d="M197.188 59.6794L207.123 88.9507L212.349 85.0843L197.188 59.6794Z" stroke="#4DDC8E" stroke-width="0.824252" stroke-miterlimit="10" strokeLinejoin="round" />
			<path d="M67.1552 32.7231L85.0154 26.0105L62.7542 29.7148L67.1552 32.7231Z" stroke="#4DDC8E" stroke-width="0.824252" stroke-miterlimit="10" strokeLinejoin="round" />
			<path d="M85.0154 26.0108L80.4902 23.2925L62.7542 29.7152L85.0154 26.0108Z" stroke="#4DDC8E" stroke-width="0.824252" stroke-miterlimit="10" strokeLinejoin="round" />
			<path d="M146.262 26.0105L164.122 32.7231L168.523 29.7148L146.262 26.0105Z" stroke="#4DDC8E" stroke-width="0.824252" stroke-miterlimit="10" strokeLinejoin="round" />
			<path d="M146.262 26.0111L168.523 29.7154L142.457 21.4724L146.262 26.0111Z" stroke="#4DDC8E" stroke-width="0.824252" stroke-miterlimit="10" strokeLinejoin="round" />
			<path d="M108.862 22.8182L142.457 21.4723L106.394 18.9331L108.862 22.8182Z" stroke="#4DDC8E" stroke-width="0.824252" stroke-miterlimit="10" strokeLinejoin="round" />
			<path d="M85.0162 26.0116L108.862 22.8188L80.491 23.2933L85.0162 26.0116Z" stroke="#4DDC8E" stroke-width="0.824252" stroke-miterlimit="10" strokeLinejoin="round" />
			<path d="M108.862 22.8182L106.395 18.9331L80.491 23.2926L108.862 22.8182Z" stroke="#4DDC8E" stroke-width="0.824252" stroke-miterlimit="10" strokeLinejoin="round" />
			<path d="M108.862 22.8183L129.192 23.4358L142.457 21.4724L108.862 22.8183Z" stroke="#4DDC8E" stroke-width="0.824252" stroke-miterlimit="10" strokeLinejoin="round" />
			<path d="M129.192 23.4358L146.262 26.011L142.457 21.4724L129.192 23.4358Z" stroke="#4DDC8E" stroke-width="0.824252" stroke-miterlimit="10" strokeLinejoin="round" />
			<path d="M193.795 71.8286L197.189 59.6795L181.459 43.0204L193.795 71.8286Z" stroke="#4DDC8E" stroke-width="0.824252" stroke-miterlimit="10" strokeLinejoin="round" />
			<path d="M178.424 51.0206L193.794 71.8286L181.459 43.0204L178.424 51.0206Z" stroke="#4DDC8E" stroke-width="0.824252" stroke-miterlimit="10" strokeLinejoin="round" />
			<path d="M37.4839 71.8286L52.8537 51.0206L49.8192 43.0204L37.4839 71.8286Z" stroke="#4DDC8E" stroke-width="0.824252" stroke-miterlimit="10" strokeLinejoin="round" />
			<path d="M37.4829 71.8286L34.0889 59.6794L24.1545 88.9507L37.4829 71.8286Z" stroke="#4DDC8E" stroke-width="0.824252" stroke-miterlimit="10" strokeLinejoin="round" />
			<path d="M37.4833 71.8286L49.8187 43.0204L34.0894 59.6795L37.4833 71.8286Z" stroke="#4DDC8E" stroke-width="0.824252" stroke-miterlimit="10" strokeLinejoin="round" />
			<path d="M193.794 71.8286L207.122 88.9507L197.188 59.6794L193.794 71.8286Z" stroke="#4DDC8E" stroke-width="0.824252" stroke-miterlimit="10" strokeLinejoin="round" />
			<path d="M52.8528 51.0211L69.9111 40.9767L49.8184 43.0209L52.8528 51.0211Z" stroke="#4DDC8E" stroke-width="0.824252" stroke-miterlimit="10" strokeLinejoin="round" />
			<path d="M69.9111 40.9752L67.1553 32.7228L49.8184 43.0194L69.9111 40.9752Z" stroke="#4DDC8E" stroke-width="0.824252" stroke-miterlimit="10" strokeLinejoin="round" />
			<path d="M161.366 40.9767L178.425 51.0211L181.459 43.0209L161.366 40.9767Z" stroke="#4DDC8E" stroke-width="0.824252" stroke-miterlimit="10" strokeLinejoin="round" />
			<path d="M161.366 40.9752L181.459 43.0194L164.122 32.7228L161.366 40.9752Z" stroke="#4DDC8E" stroke-width="0.824252" stroke-miterlimit="10" strokeLinejoin="round" />
			<path d="M87.9417 35.6482L85.0165 26.0105L67.1562 32.7231L87.9417 35.6482Z" stroke="#4DDC8E" stroke-width="0.824252" stroke-miterlimit="10" strokeLinejoin="round" />
			<path d="M143.337 35.6479L161.366 40.9752L164.122 32.7228L143.337 35.6479Z" stroke="#4DDC8E" stroke-width="0.824252" stroke-miterlimit="10" strokeLinejoin="round" />
			<path d="M143.337 35.6482L164.122 32.7231L146.262 26.0105L143.337 35.6482Z" stroke="#4DDC8E" stroke-width="0.824252" stroke-miterlimit="10" strokeLinejoin="round" />
			<path d="M69.9121 40.9752L87.9417 35.6479L67.1562 32.7228L69.9121 40.9752Z" stroke="#4DDC8E" stroke-width="0.824252" stroke-miterlimit="10" strokeLinejoin="round" />
			<path d="M87.9411 35.6482L109.579 32.7173L85.0159 26.0105L87.9411 35.6482Z" stroke="#4DDC8E" stroke-width="0.824252" stroke-miterlimit="10" strokeLinejoin="round" />
			<path d="M109.579 32.7184L129.192 23.4363L108.862 22.8188L109.579 32.7184Z" stroke="#4DDC8E" stroke-width="0.824252" stroke-miterlimit="10" strokeLinejoin="round" />
			<path d="M109.579 32.7184L108.862 22.8188L85.0159 26.0116L109.579 32.7184Z" stroke="#4DDC8E" stroke-width="0.824252" stroke-miterlimit="10" strokeLinejoin="round" />
			<path d="M109.579 32.7181L127.757 33.3675L129.192 23.436L109.579 32.7181Z" stroke="#4DDC8E" stroke-width="0.824252" stroke-miterlimit="10" strokeLinejoin="round" />
			<path d="M127.758 33.3675L146.262 26.0113L129.192 23.436L127.758 33.3675Z" stroke="#4DDC8E" stroke-width="0.824252" stroke-miterlimit="10" strokeLinejoin="round" />
			<path d="M127.758 33.3667L143.336 35.6482L146.262 26.0105L127.758 33.3667Z" stroke="#4DDC8E" stroke-width="0.824252" stroke-miterlimit="10" strokeLinejoin="round" />
			<path d="M177.366 61.8548L193.794 71.8279L178.424 51.0199L177.366 61.8548Z" stroke="#4DDC8E" stroke-width="0.824252" stroke-miterlimit="10" strokeLinejoin="round" />
			<path d="M53.9116 61.8548L52.8537 51.0199L37.4839 71.8279L53.9116 61.8548Z" stroke="#4DDC8E" stroke-width="0.824252" stroke-miterlimit="10" strokeLinejoin="round" />
			<path d="M160.39 52.3841L178.424 51.0211L161.365 40.9767L160.39 52.3841Z" stroke="#4DDC8E" stroke-width="0.824252" stroke-miterlimit="10" strokeLinejoin="round" />
			<path d="M160.391 52.3828L161.366 40.9754L143.337 35.6481L160.391 52.3828Z" stroke="#4DDC8E" stroke-width="0.824252" stroke-miterlimit="10" strokeLinejoin="round" />
			<path d="M160.39 52.3829L177.366 61.8548L178.424 51.0199L160.39 52.3829Z" stroke="#4DDC8E" stroke-width="0.824252" stroke-miterlimit="10" strokeLinejoin="round" />
			<path d="M70.8865 52.3828L87.941 35.6481L69.9114 40.9754L70.8865 52.3828Z" stroke="#4DDC8E" stroke-width="0.824252" stroke-miterlimit="10" strokeLinejoin="round" />
			<path d="M53.9112 61.8548L70.8866 52.3829L52.8533 51.0199L53.9112 61.8548Z" stroke="#4DDC8E" stroke-width="0.824252" stroke-miterlimit="10" strokeLinejoin="round" />
			<path d="M70.8866 52.3841L69.9115 40.9767L52.8533 51.0211L70.8866 52.3841Z" stroke="#4DDC8E" stroke-width="0.824252" stroke-miterlimit="10" strokeLinejoin="round" />
			<path d="M96.3668 44.3336L109.579 32.7173L87.9412 35.6481L96.3668 44.3336Z" stroke="#4DDC8E" stroke-width="0.824252" stroke-miterlimit="10" strokeLinejoin="round" />
			<path d="M134.911 44.3336L160.391 52.3828L143.336 35.6481L134.911 44.3336Z" stroke="#4DDC8E" stroke-width="0.824252" stroke-miterlimit="10" strokeLinejoin="round" />
			<path d="M70.8872 52.3828L96.3674 44.3336L87.9417 35.6481L70.8872 52.3828Z" stroke="#4DDC8E" stroke-width="0.824252" stroke-miterlimit="10" strokeLinejoin="round" />
			<path d="M134.911 44.3345L143.336 35.649L127.758 33.3676L134.911 44.3345Z" stroke="#4DDC8E" stroke-width="0.824252" stroke-miterlimit="10" strokeLinejoin="round" />
			<path d="M134.911 44.3336L127.757 33.3667L109.579 32.7173L134.911 44.3336Z" stroke="#4DDC8E" stroke-width="0.824252" stroke-miterlimit="10" strokeLinejoin="round" />
			<path d="M115.638 41.0734L134.911 44.3336L109.579 32.7173L115.638 41.0734Z" stroke="#4DDC8E" stroke-width="0.824252" stroke-miterlimit="10" strokeLinejoin="round" />
			<path d="M96.3669 44.3336L115.639 41.0734L109.58 32.7173L96.3669 44.3336Z" stroke="#4DDC8E" stroke-width="0.824252" stroke-miterlimit="10" strokeLinejoin="round" />
			<path d="M40.8006 90.4383L53.9116 61.8558L37.4839 71.829L40.8006 90.4383Z" stroke="#4DDC8E" stroke-width="0.824252" stroke-miterlimit="10" strokeLinejoin="round" />
			<path d="M177.366 61.8558L190.477 90.4383L193.794 71.829L177.366 61.8558Z" stroke="#4DDC8E" stroke-width="0.824252" stroke-miterlimit="10" strokeLinejoin="round" />
			<path d="M176.085 79.3866L190.477 90.4383L177.367 61.8558L176.085 79.3866Z" stroke="#4DDC8E" stroke-width="0.824252" stroke-miterlimit="10" strokeLinejoin="round" />
			<path d="M55.1931 79.3866L53.9112 61.8558L40.8003 90.4383L55.1931 79.3866Z" stroke="#4DDC8E" stroke-width="0.824252" stroke-miterlimit="10" strokeLinejoin="round" />
			<path d="M55.1923 79.3866L70.8444 64.9545L53.9104 61.8558L55.1923 79.3866Z" stroke="#4DDC8E" stroke-width="0.824252" stroke-miterlimit="10" strokeLinejoin="round" />
			<path d="M177.366 61.8557L160.39 52.3838L160.432 64.9544L177.366 61.8557Z" stroke="#4DDC8E" stroke-width="0.824252" stroke-miterlimit="10" strokeLinejoin="round" />
			<path d="M160.432 64.9545L176.084 79.3866L177.366 61.8558L160.432 64.9545Z" stroke="#4DDC8E" stroke-width="0.824252" stroke-miterlimit="10" strokeLinejoin="round" />
			<path d="M96.3663 44.334L70.8862 52.3832L70.8447 64.9539L96.3663 44.334Z" stroke="#4DDC8E" stroke-width="0.824252" stroke-miterlimit="10" strokeLinejoin="round" />
			<path d="M70.8444 64.9544L70.8858 52.3838L53.9104 61.8557L70.8444 64.9544Z" stroke="#4DDC8E" stroke-width="0.824252" stroke-miterlimit="10" strokeLinejoin="round" />
			<path d="M160.432 64.9539L160.391 52.3832L134.911 44.334L160.432 64.9539Z" stroke="#4DDC8E" stroke-width="0.824252" stroke-miterlimit="10" strokeLinejoin="round" />
			<path d="M96.1182 57.8581L115.639 41.0731L96.3667 44.3333L96.1182 57.8581Z" stroke="#4DDC8E" stroke-width="0.824252" stroke-miterlimit="10" strokeLinejoin="round" />
			<path d="M135.159 57.8588L160.432 64.9539L134.911 44.334L135.159 57.8588Z" stroke="#4DDC8E" stroke-width="0.824252" stroke-miterlimit="10" strokeLinejoin="round" />
			<path d="M135.159 57.8581L134.911 44.3333L115.639 41.0731L135.159 57.8581Z" stroke="#4DDC8E" stroke-width="0.824252" stroke-miterlimit="10" strokeLinejoin="round" />
			<path d="M70.8447 64.9539L96.1178 57.8588L96.3663 44.334L70.8447 64.9539Z" stroke="#4DDC8E" stroke-width="0.824252" stroke-miterlimit="10" strokeLinejoin="round" />
			<path d="M135.159 57.8581L115.639 41.0731V54.8786L135.159 57.8581Z" stroke="#4DDC8E" stroke-width="0.824252" stroke-miterlimit="10" strokeLinejoin="round" />
			<path d="M96.1182 57.8581L115.639 54.8786V41.0731L96.1182 57.8581Z" stroke="#4DDC8E" stroke-width="0.824252" stroke-miterlimit="10" strokeLinejoin="round" />
			<path d="M159.736 77.8224L160.433 64.9544L135.16 57.8594L159.736 77.8224Z" stroke="#4DDC8E" stroke-width="0.824252" stroke-miterlimit="10" strokeLinejoin="round" />
			<path d="M71.5412 77.8224L96.1178 57.8594L70.8447 64.9544L71.5412 77.8224Z" stroke="#4DDC8E" stroke-width="0.824252" stroke-miterlimit="10" strokeLinejoin="round" />
			<path d="M71.5418 77.8212L70.8452 64.9532L55.1931 79.3853L71.5418 77.8212Z" stroke="#4DDC8E" stroke-width="0.824252" stroke-miterlimit="10" strokeLinejoin="round" />
			<path d="M159.736 77.8212L176.084 79.3853L160.432 64.9532L159.736 77.8212Z" stroke="#4DDC8E" stroke-width="0.824252" stroke-miterlimit="10" strokeLinejoin="round" />
			<path d="M71.542 77.8224L88.269 73.1653L96.1185 57.8594L71.542 77.8224Z" stroke="#4DDC8E" stroke-width="0.824252" stroke-miterlimit="10" strokeLinejoin="round" />
			<path d="M135.57 71.9262L135.159 57.8588L115.639 54.8793L135.57 71.9262Z" stroke="#4DDC8E" stroke-width="0.824252" stroke-miterlimit="10" strokeLinejoin="round" />
			<path d="M135.57 71.9268L159.736 77.8224L135.16 57.8594L135.57 71.9268Z" stroke="#4DDC8E" stroke-width="0.824252" stroke-miterlimit="10" strokeLinejoin="round" />
			<path d="M109.394 70.2414L135.57 71.9262L115.64 54.8793L109.394 70.2414Z" stroke="#4DDC8E" stroke-width="0.824252" stroke-miterlimit="10" strokeLinejoin="round" />
			<path d="M88.269 73.1653L109.393 70.2419L96.1186 57.8594L88.269 73.1653Z" stroke="#4DDC8E" stroke-width="0.824252" stroke-miterlimit="10" strokeLinejoin="round" />
			<path d="M109.393 70.2414L115.639 54.8793L96.1182 57.8588L109.393 70.2414Z" stroke="#4DDC8E" stroke-width="0.824252" stroke-miterlimit="10" strokeLinejoin="round" />
			<path d="M109.393 70.2412L88.269 73.1646L88.5495 89.3759L109.393 70.2412Z" stroke="#4DDC8E" stroke-width="0.824252" stroke-miterlimit="10" strokeLinejoin="round" />
			<path d="M128.319 87.834L135.57 71.926L109.394 70.2412L128.319 87.834Z" stroke="#4DDC8E" stroke-width="0.824252" stroke-miterlimit="10" strokeLinejoin="round" />
			<path d="M88.5496 89.3759L109.299 87.5893L109.393 70.2412L88.5496 89.3759Z" stroke="#4DDC8E" stroke-width="0.824252" stroke-miterlimit="10" strokeLinejoin="round" />
			<path d="M128.319 87.834L109.393 70.2412L109.299 87.5893L128.319 87.834Z" stroke="#4DDC8E" stroke-width="0.824252" stroke-miterlimit="10" strokeLinejoin="round" />
		</g>
		<path d="M12.1849 23.1276L14.9111 14.7392H16.6645L19.3907 23.1276H18.1267L15.616 15.4732H15.9305L13.449 23.1276H12.1849ZM13.6004 21.2344V20.0926H17.981V21.2344H13.6004ZM23.1271 23.3023C22.4824 23.3023 21.9349 23.1586 21.4844 22.8713C21.0339 22.5839 20.6883 22.1897 20.4475 21.6887C20.2106 21.1878 20.0902 20.6188 20.0863 19.9819C20.0902 19.3334 20.2145 18.7606 20.4591 18.2635C20.7038 17.7625 21.0533 17.3703 21.5077 17.0868C21.962 16.8033 22.5077 16.6615 23.1446 16.6615C23.8319 16.6615 24.4183 16.8324 24.9038 17.1742C25.3931 17.5159 25.7154 17.9839 25.8708 18.578L24.6591 18.9276C24.5387 18.5742 24.3407 18.3004 24.0649 18.1062C23.7931 17.9081 23.4805 17.8091 23.1271 17.8091C22.7271 17.8091 22.3989 17.9043 22.1426 18.0946C21.8863 18.281 21.696 18.5373 21.5717 18.8635C21.4475 19.1897 21.3834 19.5625 21.3795 19.9819C21.3834 20.6305 21.531 21.1547 21.8222 21.5547C22.1174 21.9547 22.5523 22.1547 23.1271 22.1547C23.5193 22.1547 23.8358 22.0654 24.0766 21.8868C24.3213 21.7043 24.5077 21.4441 24.6358 21.1062L25.8708 21.3975C25.665 22.0111 25.3251 22.4829 24.8514 22.813C24.3776 23.1392 23.8028 23.3023 23.1271 23.3023ZM30.6575 23.1276C30.2614 23.2052 29.873 23.2382 29.4924 23.2266C29.1119 23.2149 28.772 23.1412 28.473 23.0052C28.174 22.8693 27.9487 22.6557 27.7973 22.3645C27.6614 22.1043 27.5876 21.8402 27.5759 21.5722C27.5682 21.3004 27.5643 20.9936 27.5643 20.6518V15.0887H28.7876V20.5936C28.7876 20.846 28.7895 21.0654 28.7934 21.2518C28.8012 21.4382 28.842 21.5955 28.9157 21.7237C29.0555 21.9645 29.2769 22.1023 29.5798 22.1373C29.8866 22.1683 30.2458 22.1547 30.6575 22.0965V23.1276ZM26.3585 17.8149V16.8363H30.6575V17.8149H26.3585ZM32.1004 15.8052V14.6227H33.3179V15.8052H32.1004ZM32.1004 23.1276V16.8363H33.3179V23.1276H32.1004ZM36.7682 23.1276L34.4847 16.8363H35.7138L37.3856 21.6013L39.0575 16.8363H40.2866L38.0031 23.1276H36.7682ZM43.8989 23.3023C43.2737 23.3023 42.7241 23.1664 42.2504 22.8946C41.7805 22.6188 41.4135 22.2363 41.1494 21.747C40.8892 21.2538 40.7591 20.6829 40.7591 20.0344C40.7591 19.347 40.8873 18.7509 41.1436 18.246C41.4038 17.7412 41.7649 17.3509 42.2271 17.0751C42.6892 16.7994 43.2271 16.6615 43.8406 16.6615C44.4814 16.6615 45.0271 16.8111 45.4775 17.1101C45.928 17.4052 46.2639 17.8266 46.4853 18.3742C46.7106 18.9217 46.7999 19.5722 46.7533 20.3256H45.5358V19.8829C45.528 19.1528 45.3882 18.613 45.1164 18.2635C44.8484 17.914 44.4387 17.7392 43.8873 17.7392C43.2775 17.7392 42.8193 17.9314 42.5125 18.3159C42.2057 18.7004 42.0523 19.2557 42.0523 19.9819C42.0523 20.6732 42.2057 21.2091 42.5125 21.5897C42.8193 21.9664 43.262 22.1547 43.8406 22.1547C44.2212 22.1547 44.5494 22.0693 44.8251 21.8984C45.1047 21.7237 45.3222 21.4751 45.4775 21.1528L46.6717 21.5314C46.4271 22.0946 46.0562 22.5314 45.5591 22.8421C45.062 23.1489 44.5086 23.3023 43.8989 23.3023ZM41.6562 20.3256V19.3761H46.1474V20.3256H41.6562ZM50.5091 23.1276V14.7392H51.7266V21.98H55.5246V23.1276H50.5091ZM56.6302 15.8052V14.6227H57.8476V15.8052H56.6302ZM56.6302 23.1276V16.8363H57.8476V23.1276H56.6302ZM62.0028 23.2965C61.2377 23.2965 60.6144 23.1276 60.1329 22.7897C59.6513 22.4518 59.3562 21.9761 59.2474 21.3625L60.494 21.1703C60.5717 21.4965 60.7503 21.7547 61.0299 21.945C61.3134 22.1314 61.6649 22.2247 62.0843 22.2247C62.4649 22.2247 62.762 22.147 62.9756 21.9916C63.193 21.8363 63.3018 21.6227 63.3018 21.3509C63.3018 21.1916 63.2629 21.0635 63.1853 20.9664C63.1115 20.8654 62.9542 20.7703 62.7134 20.681C62.4727 20.5916 62.1057 20.481 61.6125 20.3489C61.0727 20.2091 60.6435 20.0596 60.3251 19.9004C60.0105 19.7373 59.7853 19.5489 59.6494 19.3353C59.5173 19.1179 59.4513 18.8557 59.4513 18.5489C59.4513 18.1683 59.5523 17.8363 59.7542 17.5528C59.9562 17.2693 60.2396 17.0499 60.6047 16.8946C60.9736 16.7392 61.4047 16.6615 61.8979 16.6615C62.3795 16.6615 62.8086 16.7373 63.1853 16.8887C63.562 17.0402 63.8668 17.2557 64.0998 17.5353C64.3329 17.8111 64.4727 18.1353 64.5193 18.5081L63.2727 18.7353C63.2299 18.4324 63.0882 18.1936 62.8474 18.0188C62.6066 17.8441 62.294 17.7489 61.9096 17.7334C61.5406 17.7179 61.2416 17.78 61.0125 17.9198C60.7833 18.0557 60.6688 18.2441 60.6688 18.4848C60.6688 18.6247 60.7115 18.7431 60.7969 18.8402C60.8862 18.9373 61.0571 19.0305 61.3096 19.1198C61.562 19.2091 61.9348 19.3159 62.428 19.4402C62.9562 19.5761 63.3756 19.7276 63.6862 19.8946C63.9969 20.0577 64.2183 20.2538 64.3503 20.4829C64.4862 20.7081 64.5542 20.9819 64.5542 21.3043C64.5542 21.9256 64.327 22.413 63.8727 22.7664C63.4222 23.1198 62.7989 23.2965 62.0028 23.2965ZM69.4431 23.1276C69.047 23.2052 68.6587 23.2382 68.2781 23.2266C67.8975 23.2149 67.5577 23.1412 67.2587 23.0052C66.9596 22.8693 66.7344 22.6557 66.5829 22.3645C66.447 22.1043 66.3732 21.8402 66.3616 21.5722C66.3538 21.3004 66.3499 20.9936 66.3499 20.6518V15.0887H67.5732V20.5936C67.5732 20.846 67.5752 21.0654 67.5791 21.2518C67.5868 21.4382 67.6276 21.5955 67.7014 21.7237C67.8412 21.9645 68.0626 22.1023 68.3655 22.1373C68.6723 22.1683 69.0315 22.1547 69.4431 22.0965V23.1276ZM65.1441 17.8149V16.8363H69.4431V17.8149H65.1441ZM70.8861 15.8052V14.6227H72.1035V15.8052H70.8861ZM70.8861 23.1276V16.8363H72.1035V23.1276H70.8861ZM78.2684 23.1276V20.0344C78.2684 19.7897 78.247 19.5392 78.2043 19.2829C78.1655 19.0227 78.0878 18.7819 77.9713 18.5606C77.8587 18.3392 77.6975 18.1606 77.4878 18.0247C77.282 17.8887 77.0121 17.8208 76.6781 17.8208C76.4606 17.8208 76.2548 17.8577 76.0606 17.9314C75.8664 18.0013 75.6956 18.1159 75.548 18.2751C75.4043 18.4344 75.2897 18.6441 75.2043 18.9043C75.1227 19.1645 75.082 19.481 75.082 19.8538L74.3247 19.5683C74.3247 18.9975 74.4315 18.4946 74.6451 18.0596C74.8587 17.6208 75.1655 17.279 75.5655 17.0344C75.9655 16.7897 76.449 16.6674 77.0159 16.6674C77.4509 16.6674 77.8159 16.7373 78.1111 16.8771C78.4062 17.0169 78.6451 17.2013 78.8276 17.4305C79.014 17.6557 79.1558 17.9023 79.2528 18.1703C79.3499 18.4382 79.4159 18.7004 79.4509 18.9567C79.4859 19.213 79.5033 19.4382 79.5033 19.6324V23.1276H78.2684ZM73.847 23.1276V16.8363H74.9363V18.6538H75.082V23.1276H73.847ZM83.6129 26.0984C83.275 26.0984 82.9468 26.046 82.6284 25.9412C82.3138 25.8363 82.0264 25.681 81.7663 25.4751C81.5061 25.2732 81.2905 25.0227 81.1196 24.7237L82.2439 24.1528C82.3798 24.4208 82.574 24.6169 82.8264 24.7412C83.0789 24.8654 83.3449 24.9276 83.6245 24.9276C83.9701 24.9276 84.2653 24.8654 84.5099 24.7412C84.7546 24.6208 84.9391 24.4382 85.0633 24.1936C85.1915 23.9489 85.2536 23.646 85.2497 23.2848V21.5256H85.3954V16.8363H86.473V23.2965C86.473 23.4635 86.4672 23.6227 86.4556 23.7742C86.4439 23.9256 86.4226 24.0771 86.3915 24.2285C86.3022 24.6518 86.1313 25.0013 85.8789 25.2771C85.6303 25.5528 85.3119 25.7586 84.9235 25.8946C84.5391 26.0305 84.1022 26.0984 83.6129 26.0984ZM83.5196 23.3023C82.9332 23.3023 82.4264 23.1567 81.9993 22.8654C81.576 22.5742 81.2478 22.178 81.0148 21.6771C80.7857 21.1722 80.6711 20.6052 80.6711 19.9761C80.6711 19.3431 80.7876 18.778 81.0206 18.281C81.2536 17.78 81.5837 17.3858 82.0109 17.0984C82.442 16.8072 82.9527 16.6615 83.5429 16.6615C84.1371 16.6615 84.6362 16.8072 85.04 17.0984C85.4478 17.3858 85.7546 17.78 85.9604 18.281C86.1701 18.7819 86.275 19.347 86.275 19.9761C86.275 20.6052 86.1701 21.1703 85.9604 21.6713C85.7507 22.1722 85.442 22.5703 85.0342 22.8654C84.6264 23.1567 84.1216 23.3023 83.5196 23.3023ZM83.6886 22.2013C84.0886 22.2013 84.4148 22.1062 84.6672 21.9159C84.9196 21.7256 85.1041 21.4635 85.2206 21.1295C85.3371 20.7955 85.3954 20.4111 85.3954 19.9761C85.3954 19.5412 85.3352 19.1567 85.2148 18.8227C85.0983 18.4887 84.9158 18.2285 84.6672 18.0421C84.4226 17.8557 84.1099 17.7625 83.7294 17.7625C83.3255 17.7625 82.9934 17.8615 82.7332 18.0596C82.473 18.2577 82.2789 18.5237 82.1507 18.8577C82.0264 19.1916 81.9643 19.5645 81.9643 19.9761C81.9643 20.3916 82.0264 20.7683 82.1507 21.1062C82.2789 21.4402 82.4692 21.7062 82.7216 21.9043C82.9779 22.1023 83.3002 22.2013 83.6886 22.2013ZM90.5146 23.2965C89.7495 23.2965 89.1262 23.1276 88.6447 22.7897C88.1631 22.4518 87.868 21.9761 87.7592 21.3625L89.0058 21.1703C89.0835 21.4965 89.2622 21.7547 89.5418 21.945C89.8253 22.1314 90.1767 22.2247 90.5961 22.2247C90.9767 22.2247 91.2738 22.147 91.4874 21.9916C91.7049 21.8363 91.8136 21.6227 91.8136 21.3509C91.8136 21.1916 91.7748 21.0635 91.6971 20.9664C91.6233 20.8654 91.466 20.7703 91.2253 20.681C90.9845 20.5916 90.6175 20.481 90.1243 20.3489C89.5845 20.2091 89.1554 20.0596 88.8369 19.9004C88.5224 19.7373 88.2971 19.5489 88.1612 19.3353C88.0292 19.1179 87.9631 18.8557 87.9631 18.5489C87.9631 18.1683 88.0641 17.8363 88.266 17.5528C88.468 17.2693 88.7515 17.0499 89.1165 16.8946C89.4855 16.7392 89.9165 16.6615 90.4097 16.6615C90.8913 16.6615 91.3204 16.7373 91.6971 16.8887C92.0738 17.0402 92.3787 17.2557 92.6117 17.5353C92.8447 17.8111 92.9845 18.1353 93.0311 18.5081L91.7845 18.7353C91.7418 18.4324 91.6 18.1936 91.3592 18.0188C91.1185 17.8441 90.8058 17.7489 90.4214 17.7334C90.0525 17.7179 89.7534 17.78 89.5243 17.9198C89.2952 18.0557 89.1806 18.2441 89.1806 18.4848C89.1806 18.6247 89.2233 18.7431 89.3088 18.8402C89.3981 18.9373 89.569 19.0305 89.8214 19.1198C90.0738 19.2091 90.4466 19.3159 90.9398 19.4402C91.468 19.5761 91.8874 19.7276 92.1981 19.8946C92.5088 20.0577 92.7301 20.2538 92.8622 20.4829C92.9981 20.7081 93.066 20.9819 93.066 21.3043C93.066 21.9256 92.8389 22.413 92.3845 22.7664C91.934 23.1198 91.3107 23.2965 90.5146 23.2965Z" fill="white" />
		<path d="M15.91 54V41.9L13.2 43.55V41.22L15.91 39.6H18.04V54H15.91ZM21.4375 53.99L21.4475 52.13L27.7175 46.51C28.2242 46.0633 28.5675 45.6367 28.7475 45.23C28.9342 44.8233 29.0275 44.4167 29.0275 44.01C29.0275 43.4967 28.9142 43.0367 28.6875 42.63C28.4608 42.2167 28.1475 41.89 27.7475 41.65C27.3475 41.41 26.8875 41.29 26.3675 41.29C25.8342 41.29 25.3575 41.4167 24.9375 41.67C24.5242 41.9167 24.2008 42.2467 23.9675 42.66C23.7342 43.0733 23.6208 43.52 23.6275 44H21.4875C21.4875 43.0667 21.6975 42.25 22.1175 41.55C22.5442 40.8433 23.1275 40.2933 23.8675 39.9C24.6075 39.5 25.4542 39.3 26.4075 39.3C27.3142 39.3 28.1275 39.5067 28.8475 39.92C29.5675 40.3267 30.1342 40.8867 30.5475 41.6C30.9675 42.3133 31.1775 43.1267 31.1775 44.04C31.1775 44.7 31.0908 45.26 30.9175 45.72C30.7442 46.18 30.4842 46.6067 30.1375 47C29.7908 47.3933 29.3575 47.82 28.8375 48.28L23.9975 52.6L23.7675 52H31.1775V53.99H21.4375ZM38.5958 54.3C37.6158 54.3 36.7491 54.0867 35.9958 53.66C35.2424 53.2267 34.6491 52.6333 34.2158 51.88C33.7891 51.1267 33.5758 50.26 33.5758 49.28V44.32C33.5758 43.34 33.7891 42.4733 34.2158 41.72C34.6491 40.9667 35.2424 40.3767 35.9958 39.95C36.7491 39.5167 37.6158 39.3 38.5958 39.3C39.5758 39.3 40.4424 39.5167 41.1958 39.95C41.9491 40.3767 42.5391 40.9667 42.9658 41.72C43.3991 42.4733 43.6158 43.34 43.6158 44.32V49.28C43.6158 50.26 43.3991 51.1267 42.9658 51.88C42.5391 52.6333 41.9491 53.2267 41.1958 53.66C40.4424 54.0867 39.5758 54.3 38.5958 54.3ZM38.5958 52.3C39.1291 52.3 39.6124 52.1733 40.0458 51.92C40.4858 51.66 40.8358 51.3133 41.0958 50.88C41.3558 50.44 41.4858 49.95 41.4858 49.41V44.17C41.4858 43.6367 41.3558 43.1533 41.0958 42.72C40.8358 42.28 40.4858 41.9333 40.0458 41.68C39.6124 41.42 39.1291 41.29 38.5958 41.29C38.0624 41.29 37.5758 41.42 37.1358 41.68C36.7024 41.9333 36.3558 42.28 36.0958 42.72C35.8358 43.1533 35.7058 43.6367 35.7058 44.17V49.41C35.7058 49.95 35.8358 50.44 36.0958 50.88C36.3558 51.3133 36.7024 51.66 37.1358 51.92C37.5758 52.1733 38.0624 52.3 38.5958 52.3Z" fill="white" />
		<path d="M208.049 16C205.829 16 203.823 16.6829 202.116 17.8354H186.665C181.884 17.8354 178 21.7195 178 26.5C178 31.2805 181.884 35.1646 186.665 35.1646H202.116C203.823 36.3171 205.829 37 208.049 37C213.854 37 218.549 32.3049 218.549 26.5C218.549 20.6951 213.854 16 208.049 16ZM179.878 26.5C179.878 22.7439 182.909 19.7134 186.665 19.7134H200.024C198.488 21.5488 197.506 23.8963 197.506 26.5C197.506 29.1037 198.445 31.4512 200.024 33.2866H186.665C182.909 33.2866 179.878 30.2561 179.878 26.5ZM208.049 35.122C203.268 35.122 199.427 31.2378 199.427 26.5C199.427 21.7622 203.311 17.878 208.049 17.878C212.829 17.878 216.671 21.7622 216.671 26.5C216.671 31.2378 212.787 35.122 208.049 35.122Z" fill="url(#paint1_linear_646_17908)" />
		<path d="M193.025 23.2134L188.458 27.7804L186.58 25.9024C186.195 25.5183 185.641 25.5183 185.256 25.9024C184.872 26.2865 184.872 26.8414 185.256 27.2256L187.817 29.7865C187.988 29.9573 188.244 30.0426 188.5 30.0426C188.756 30.0426 188.97 29.9573 189.183 29.7865L194.433 24.5365C194.817 24.1524 194.817 23.5975 194.433 23.2134C194.006 22.8719 193.409 22.8719 193.025 23.2134Z" fill="url(#paint2_linear_646_17908)" />
	</g>
	<defs>
		<linearGradient id="paint0_linear_646_17908" x1="0" y1="0" x2="186.794" y2="132.378" gradientUnits="userSpaceOnUse">
			<stop stop-color="#2F8154" />
			<stop offset="1" stop-color="#44D586" />
		</linearGradient>
		<linearGradient id="paint1_linear_646_17908" x1="212.5" y1="17.5" x2="173" y2="41.5" gradientUnits="userSpaceOnUse">
			<stop stop-color="white" />
			<stop offset="1" stop-color="#E7E7E7" stop-opacity="0" />
		</linearGradient>
		<linearGradient id="paint2_linear_646_17908" x1="193.266" y1="23.4634" x2="182.313" y2="28.2077" gradientUnits="userSpaceOnUse">
			<stop stop-color="white" />
			<stop offset="1" stop-color="#E7E7E7" stop-opacity="0" />
		</linearGradient>
		<clipPath id="clip0_646_17908">
			<rect width="231" height="70" rx="4.94551" fill="white" />
		</clipPath>
		<clipPath id="clip1_646_17908">
			<rect width="247.276" height="342.404" fill="white" transform="translate(-8 18.932)" />
		</clipPath>
	</defs>
</svg>
