<svg width="17" height="19" viewBox="0 0 17 19" fill="none" xmlns="http://www.w3.org/2000/svg">
	<path d="M13.8842 18H3.18316C1.98421 18 1 17.0158 1 15.8168V3.18316C1 1.98421 1.98421 1 3.18316 1H13.8663C15.0653 1 16.0495 1.98421 16.0495 3.18316V15.8168C16.0674 17.0158 15.0832 18 13.8842 18ZM3.18316 1.48316C2.25263 1.48316 1.48316 2.25263 1.48316 3.18316V15.8168C1.48316 16.7474 2.25263 17.5168 3.18316 17.5168H13.8663C14.7968 17.5168 15.5663 16.7474 15.5663 15.8168V3.18316C15.5663 2.25263 14.7968 1.48316 13.8663 1.48316H3.18316Z" fill="#6E6B7B" stroke="#6E6B7B" stroke-width="0.6" />
	<path d="M13.7589 5.61649H6.01049C5.90312 5.61649 5.83154 5.52701 5.83154 5.43754V5.36596C5.83154 5.25859 5.92102 5.18701 6.01049 5.18701H13.741C13.8484 5.18701 13.92 5.27649 13.92 5.36596V5.43754C13.9379 5.52701 13.8484 5.61649 13.7589 5.61649Z" fill="#6E6B7B" stroke="#6E6B7B" stroke-width="0.3" />
	<path d="M13.7228 5.68899H6.04591C5.88486 5.68899 5.7417 5.56372 5.7417 5.38478C5.7417 5.22372 5.86696 5.08057 6.04591 5.08057H13.7228C13.8838 5.08057 14.027 5.20583 14.027 5.38478C14.0091 5.56372 13.8838 5.68899 13.7228 5.68899ZM6.04591 5.25951C5.97433 5.25951 5.90275 5.3132 5.90275 5.40267C5.90275 5.47425 5.95644 5.54583 6.04591 5.54583H13.7228C13.7943 5.54583 13.8659 5.49215 13.8659 5.40267C13.8659 5.33109 13.8122 5.25951 13.7228 5.25951H6.04591Z" fill="#6E6B7B" stroke="#6E6B7B" stroke-width="0.3" />
	<path d="M13.7589 9.71463H6.01049C5.90312 9.71463 5.83154 9.62516 5.83154 9.53568V9.4641C5.83154 9.35674 5.92102 9.28516 6.01049 9.28516H13.741C13.8484 9.28516 13.92 9.37463 13.92 9.4641V9.53568C13.9379 9.64305 13.8484 9.71463 13.7589 9.71463Z" fill="#6E6B7B" stroke="#6E6B7B" stroke-width="0.3" />
	<path d="M13.7228 9.80422H6.04591C5.88486 9.80422 5.7417 9.67896 5.7417 9.50001C5.7417 9.32106 5.86696 9.1958 6.04591 9.1958H13.7228C13.8838 9.1958 14.027 9.32106 14.027 9.50001C14.027 9.67896 13.8838 9.80422 13.7228 9.80422ZM6.04591 9.35685C5.97433 9.35685 5.90275 9.41054 5.90275 9.50001C5.90275 9.58949 5.95644 9.64317 6.04591 9.64317H13.7228C13.7943 9.64317 13.8659 9.58949 13.8659 9.50001C13.8659 9.41054 13.8122 9.35685 13.7228 9.35685H6.04591Z" fill="#6E6B7B" stroke="#6E6B7B" stroke-width="0.3" />
	<path d="M13.7589 13.8128H6.01049C5.90312 13.8128 5.83154 13.7233 5.83154 13.6338V13.5622C5.83154 13.4549 5.92102 13.3833 6.01049 13.3833H13.741C13.8484 13.3833 13.92 13.4728 13.92 13.5622V13.6338C13.9379 13.7412 13.8484 13.8128 13.7589 13.8128Z" fill="#6E6B7B" stroke="#6E6B7B" stroke-width="0.3" />
	<path d="M13.7228 13.9024H6.04591C5.88486 13.9024 5.7417 13.7771 5.7417 13.5982C5.7417 13.4371 5.86696 13.2939 6.04591 13.2939H13.7228C13.8838 13.2939 14.027 13.4192 14.027 13.5982C14.0091 13.7592 13.8838 13.9024 13.7228 13.9024ZM6.04591 13.4729C5.97433 13.4729 5.90275 13.5266 5.90275 13.6161C5.90275 13.7055 5.95644 13.7592 6.04591 13.7592H13.7228C13.7943 13.7592 13.8659 13.7055 13.8659 13.6161C13.8659 13.5266 13.8122 13.4729 13.7228 13.4729H6.04591Z" fill="#6E6B7B" stroke="#6E6B7B" stroke-width="0.3" />
	<path d="M4.11381 6.56557H4.06013C3.41592 6.56557 2.89697 6.04663 2.89697 5.40242C2.89697 4.75821 3.41592 4.23926 4.06013 4.23926H4.11381C4.75802 4.23926 5.27697 4.75821 5.27697 5.40242C5.27697 6.04663 4.74013 6.56557 4.11381 6.56557ZM4.06013 4.72242C3.68434 4.72242 3.38013 5.02663 3.38013 5.40242C3.38013 5.7782 3.68434 6.08242 4.06013 6.08242H4.11381C4.4896 6.08242 4.79381 5.7782 4.79381 5.40242C4.79381 5.02663 4.4896 4.72242 4.11381 4.72242H4.06013Z" fill="#6E6B7B" stroke="#6E6B7B" stroke-width="0.3" />
	<path d="M4.11381 10.6632H4.06013C3.41592 10.6632 2.89697 10.1443 2.89697 9.50007C2.89697 8.85586 3.41592 8.33691 4.06013 8.33691H4.11381C4.75802 8.33691 5.27697 8.85586 5.27697 9.50007C5.27697 10.1443 4.74013 10.6632 4.11381 10.6632ZM4.06013 8.82007C3.68434 8.82007 3.38013 9.12428 3.38013 9.50007C3.38013 9.87586 3.68434 10.1801 4.06013 10.1801H4.11381C4.4896 10.1801 4.79381 9.87586 4.79381 9.50007C4.79381 9.12428 4.4896 8.82007 4.11381 8.82007H4.06013Z" fill="#6E6B7B" stroke="#6E6B7B" stroke-width="0.3" />
	<path d="M4.11381 14.7609H4.06013C3.41592 14.7609 2.89697 14.2419 2.89697 13.5977C2.89697 12.9535 3.41592 12.4346 4.06013 12.4346H4.11381C4.75802 12.4346 5.27697 12.9535 5.27697 13.5977C5.27697 14.2419 4.74013 14.7609 4.11381 14.7609ZM4.06013 12.9356C3.68434 12.9356 3.38013 13.2398 3.38013 13.6156C3.38013 13.9914 3.68434 14.2956 4.06013 14.2956H4.11381C4.4896 14.2956 4.79381 13.9914 4.79381 13.6156C4.79381 13.2398 4.4896 12.9356 4.11381 12.9356H4.06013Z" fill="#6E6B7B" stroke="#6E6B7B" stroke-width="0.3" />
</svg>
