<svg width="25" height="25" viewBox="0 0 25 25" fill="none" xmlns="http://www.w3.org/2000/svg">
	<path fillRule="evenodd" clipRule="evenodd" d="M7.29167 0C5.3578 0 3.50313 0.768227 2.13568 2.13568C0.768227 3.50313 0 5.3578 0 7.29167V17.7083C0 19.6422 0.768227 21.4969 2.13568 22.8643C3.50313 24.2318 5.3578 25 7.29167 25H17.7083C19.6422 25 21.4969 24.2318 22.8643 22.8643C24.2318 21.4969 25 19.6422 25 17.7083V7.29167C25 5.3578 24.2318 3.50313 22.8643 2.13568C21.4969 0.768227 19.6422 0 17.7083 0H7.29167ZM17.7083 2.60417H17.2357V14.681H22.3932V7.29167C22.3932 6.04892 21.8997 4.85703 21.0212 3.97802C20.1427 3.09902 18.9511 2.60486 17.7083 2.60417ZM22.3958 17.2852H17.2357V22.3958H17.7057C18.9489 22.3958 20.1412 21.902 21.0203 21.0229C21.8994 20.1438 22.3932 18.9515 22.3932 17.7083L22.3958 17.2852ZM14.6341 14.681V2.60417H7.29167C6.04846 2.60417 4.85618 3.09803 3.9771 3.9771C3.09803 4.85618 2.60417 6.04846 2.60417 7.29167V14.681H14.6341ZM2.60417 17.2852H14.6315V22.3958H7.29167C6.04846 22.3958 4.85618 21.902 3.9771 21.0229C3.09803 20.1438 2.60417 18.9515 2.60417 17.7083V17.2852Z" fill="#FFAA45" />
</svg>
