<svg width="18" height="23" viewBox="0 0 18 23" fill="none" xmlns="http://www.w3.org/2000/svg">
	<path d="M9.1999 12.475C10.8153 12.475 12.1249 11.1654 12.1249 9.55C12.1249 7.93457 10.8153 6.625 9.1999 6.625C7.58447 6.625 6.2749 7.93457 6.2749 9.55C6.2749 11.1654 7.58447 12.475 9.1999 12.475Z" stroke="#989898" stroke-width="1.75" stroke-linecap="round" stroke-linejoin="round" />
	<path d="M9.1999 1.75C7.13121 1.75 5.14725 2.57178 3.68447 4.03457C2.22169 5.49735 1.3999 7.48131 1.3999 9.55C1.3999 11.3947 1.79185 12.6018 2.8624 13.9375L9.1999 21.25L15.5374 13.9375C16.608 12.6018 16.9999 11.3947 16.9999 9.55C16.9999 7.48131 16.1781 5.49735 14.7153 4.03457C13.2526 2.57178 11.2686 1.75 9.1999 1.75V1.75Z" stroke="#989898" stroke-width="1.75" stroke-linecap="round" stroke-linejoin="round" />
</svg>
