<svg width="83" height="79" viewBox="0 0 83 79" fill="none" xmlns="http://www.w3.org/2000/svg">
	<path d="M15.1526 64V27.1143H0.857813V19.0096H39.4027V27.1143H25.1079V64H15.1526Z" fill="#FFAA45" />
	<path d="M40.8085 64V19.0096H57.975C63.2079 19.0096 67.6325 19.9031 71.2487 21.6899C74.865 23.4768 77.5878 26.0507 79.4172 29.4117C81.2891 32.7301 82.2251 36.7505 82.2251 41.4729C82.2251 46.1528 81.2891 50.1732 79.4172 53.5342C77.5878 56.8951 74.865 59.4903 71.2487 61.3197C67.6325 63.1066 63.2079 64 57.975 64H40.8085ZM50.7638 55.8315H57.4006C62.4208 55.8315 66.1434 54.6616 68.5685 52.3217C71.036 49.9392 72.2698 46.3229 72.2698 41.4729C72.2698 36.5803 71.036 32.9641 68.5685 30.6242C66.1434 28.2843 62.4208 27.1143 57.4006 27.1143H50.7638V55.8315Z" fill="#FFAA45" />
</svg>
