<svg width="22" height="22" viewBox="0 0 22 22" fill="none" xmlns="http://www.w3.org/2000/svg">
	<path d="M17.3005 14.3245V3.41615C17.3005 1.72448 15.9588 0.382812 14.2671 0.382812H3.41712C1.72546 0.382812 0.383789 1.72448 0.383789 3.41615V14.3245C0.383789 16.0161 1.72546 17.3578 3.41712 17.3578H14.3255C15.9588 17.2995 17.3005 15.9578 17.3005 14.3245ZM19.8671 5.74948V15.1411C19.8671 17.7661 17.7088 19.9245 15.0838 19.9245H5.69212C5.34212 19.9245 5.16712 20.3328 5.40045 20.5661C5.98379 21.2078 6.80046 21.6161 7.79212 21.6161H15.6088C18.9338 21.6161 21.6171 18.9328 21.6171 15.6078V7.79114C21.6171 6.85781 21.2088 5.98281 20.5671 5.39948C20.2755 5.16614 19.8671 5.39948 19.8671 5.74948Z" fill="white" />
</svg>
