<svg width="199" height="182" viewBox="0 0 199 182" fill="none" xmlns="http://www.w3.org/2000/svg">
	<path d="M182 91C182 141.258 141.258 182 91 182C40.7421 182 0 141.258 0 91C0 40.7421 40.7421 0 91 0C141.258 0 182 40.7421 182 91ZM35.1126 91C35.1126 121.866 60.1342 146.887 91 146.887C121.866 146.887 146.887 121.866 146.887 91C146.887 60.1342 121.866 35.1126 91 35.1126C60.1342 35.1126 35.1126 60.1342 35.1126 91Z" fill="#D9D9D9" />
	<path d="M182 91C182 111.763 174.9 131.902 161.878 148.073C148.856 164.245 130.695 175.477 110.41 179.906L102.92 145.601C115.378 142.882 126.532 135.983 134.529 126.051C142.527 116.12 146.887 103.751 146.887 91H182Z" fill="#FFAA45" />
	<path d="M110.404 179.907C90.1186 184.334 68.9292 181.692 50.3526 172.417C31.7761 163.143 16.9297 147.795 8.27753 128.921L40.1962 114.289C45.5099 125.881 54.6278 135.307 66.0365 141.002C77.4452 146.698 90.4587 148.321 102.917 145.602L110.404 179.907Z" fill="#001749" />
	<path d="M8.29764 128.965C-0.364525 110.095 -2.3134 88.8306 2.77448 68.7007C7.86236 48.5709 19.681 30.7862 36.2689 18.2985L57.387 46.3506C47.1996 54.0198 39.9412 64.9423 36.8165 77.305C33.6918 89.6677 34.8887 102.727 40.2086 114.316L8.29764 128.965Z" fill="black" />
	<path d="M36.2699 18.2978C52.8578 5.81038 73.2173 -0.628995 93.9691 0.0484509C114.721 0.725896 134.617 8.47942 150.355 22.0221L127.453 48.6374C117.787 40.3202 105.568 35.5584 92.8235 35.1423C80.0788 34.7263 67.5751 38.681 57.3876 46.3501L36.2699 18.2978Z" fill="#48525B" />
	<path d="M150.355 22.0221C160.331 30.6063 168.326 41.2522 173.789 53.2255C179.253 65.1989 182.054 78.2147 181.999 91.3754L146.887 91.2306C146.92 83.148 145.2 75.1543 141.845 67.8009C138.49 60.4475 133.58 53.9094 127.453 48.6374L150.355 22.0221Z" fill="#0086FF" />
	<g filter="url(#filter0_d_0_1)">
		<g clip-path="url(#clip0_0_1)">
			<path fill-rule="evenodd" clip-rule="evenodd" d="M127 116.358C127 117.678 128.07 118.748 129.39 118.748H186.089C187.409 118.748 188.479 117.678 188.479 116.358V108.39C188.479 107.07 187.409 106 186.089 106H129.39C128.07 106 127 107.07 127 108.39V116.358Z" fill="white" />
			<path d="M138.846 109.944V114H138.355V110.459H138.331L137.341 111.116V110.617L138.355 109.944H138.846ZM140.012 114V113.644L141.351 112.178C141.508 112.006 141.638 111.857 141.739 111.73C141.841 111.602 141.916 111.482 141.965 111.37C142.015 111.256 142.041 111.137 142.041 111.013C142.041 110.871 142.006 110.747 141.938 110.643C141.87 110.539 141.778 110.458 141.66 110.401C141.543 110.345 141.411 110.316 141.264 110.316C141.108 110.316 140.972 110.349 140.856 110.413C140.741 110.477 140.652 110.566 140.589 110.681C140.527 110.795 140.496 110.93 140.496 111.085H140.028C140.028 110.847 140.083 110.638 140.193 110.459C140.302 110.279 140.451 110.139 140.64 110.039C140.83 109.939 141.044 109.888 141.28 109.888C141.518 109.888 141.728 109.939 141.912 110.039C142.095 110.139 142.239 110.275 142.344 110.445C142.448 110.615 142.5 110.805 142.5 111.013C142.5 111.163 142.473 111.308 142.419 111.451C142.366 111.592 142.274 111.75 142.142 111.924C142.011 112.097 141.829 112.309 141.597 112.558L140.686 113.533V113.564H142.571V114H140.012ZM145.196 114H144.681L146.17 109.944H146.677L148.166 114H147.651L146.439 110.586H146.408L145.196 114ZM145.386 112.416H147.461V112.851H145.386V112.416ZM148.735 115.141V110.958H149.186V111.441H149.242C149.276 111.388 149.324 111.321 149.384 111.239C149.446 111.156 149.535 111.082 149.65 111.017C149.766 110.951 149.923 110.918 150.121 110.918C150.377 110.918 150.603 110.982 150.799 111.11C150.994 111.238 151.146 111.42 151.256 111.655C151.366 111.89 151.42 112.167 151.42 112.487C151.42 112.809 151.366 113.088 151.256 113.325C151.146 113.56 150.995 113.742 150.8 113.871C150.606 113.999 150.383 114.063 150.129 114.063C149.934 114.063 149.777 114.031 149.66 113.966C149.542 113.9 149.452 113.826 149.388 113.743C149.325 113.658 149.276 113.588 149.242 113.533H149.202V115.141H148.735ZM149.194 112.479C149.194 112.709 149.228 112.911 149.295 113.087C149.363 113.261 149.461 113.398 149.59 113.497C149.72 113.595 149.878 113.644 150.066 113.644C150.261 113.644 150.424 113.592 150.555 113.489C150.687 113.385 150.786 113.245 150.852 113.069C150.919 112.892 150.953 112.695 150.953 112.479C150.953 112.265 150.92 112.072 150.854 111.901C150.789 111.728 150.691 111.591 150.559 111.491C150.428 111.389 150.264 111.338 150.066 111.338C149.876 111.338 149.716 111.386 149.586 111.483C149.457 111.578 149.359 111.711 149.293 111.883C149.227 112.053 149.194 112.252 149.194 112.479ZM152.133 115.141V110.958H152.585V111.441H152.64C152.675 111.388 152.722 111.321 152.783 111.239C152.845 111.156 152.934 111.082 153.048 111.017C153.165 110.951 153.322 110.918 153.52 110.918C153.776 110.918 154.002 110.982 154.197 111.11C154.393 111.238 154.545 111.42 154.655 111.655C154.764 111.89 154.819 112.167 154.819 112.487C154.819 112.809 154.764 113.088 154.655 113.325C154.545 113.56 154.393 113.742 154.199 113.871C154.005 113.999 153.781 114.063 153.528 114.063C153.332 114.063 153.176 114.031 153.058 113.966C152.941 113.9 152.85 113.826 152.787 113.743C152.724 113.658 152.675 113.588 152.64 113.533H152.601V115.141H152.133ZM152.593 112.479C152.593 112.709 152.627 112.911 152.694 113.087C152.761 113.261 152.86 113.398 152.989 113.497C153.118 113.595 153.277 113.644 153.464 113.644C153.66 113.644 153.823 113.592 153.954 113.489C154.086 113.385 154.185 113.245 154.251 113.069C154.318 112.892 154.352 112.695 154.352 112.479C154.352 112.265 154.319 112.072 154.253 111.901C154.188 111.728 154.09 111.591 153.957 111.491C153.827 111.389 153.662 111.338 153.464 111.338C153.274 111.338 153.114 111.386 152.985 111.483C152.856 111.578 152.758 111.711 152.692 111.883C152.626 112.053 152.593 112.252 152.593 112.479ZM156.427 114.071C156.234 114.071 156.06 114.035 155.902 113.962C155.745 113.888 155.62 113.782 155.528 113.644C155.436 113.504 155.389 113.335 155.389 113.136C155.389 112.962 155.424 112.821 155.492 112.713C155.561 112.603 155.653 112.517 155.768 112.455C155.883 112.393 156.009 112.347 156.148 112.317C156.288 112.285 156.429 112.26 156.57 112.241C156.755 112.218 156.905 112.2 157.019 112.188C157.136 112.175 157.22 112.153 157.273 112.122C157.327 112.092 157.354 112.039 157.354 111.964V111.948C157.354 111.753 157.301 111.601 157.194 111.493C157.088 111.384 156.928 111.33 156.712 111.33C156.489 111.33 156.314 111.379 156.188 111.477C156.061 111.574 155.972 111.679 155.92 111.79L155.477 111.631C155.556 111.446 155.661 111.302 155.793 111.199C155.927 111.095 156.072 111.023 156.229 110.982C156.388 110.939 156.543 110.918 156.697 110.918C156.794 110.918 156.907 110.93 157.033 110.954C157.161 110.976 157.285 111.023 157.404 111.095C157.524 111.166 157.623 111.273 157.703 111.417C157.782 111.561 157.822 111.754 157.822 111.996V114H157.354V113.588H157.33C157.299 113.654 157.246 113.725 157.172 113.8C157.098 113.875 157 113.939 156.877 113.992C156.754 114.045 156.604 114.071 156.427 114.071ZM156.499 113.651C156.683 113.651 156.839 113.615 156.966 113.542C157.094 113.47 157.19 113.376 157.255 113.261C157.321 113.146 157.354 113.026 157.354 112.899V112.471C157.334 112.495 157.291 112.517 157.223 112.536C157.157 112.555 157.081 112.571 156.994 112.586C156.908 112.599 156.824 112.611 156.742 112.622C156.662 112.631 156.596 112.639 156.546 112.645C156.425 112.661 156.311 112.687 156.205 112.723C156.101 112.757 156.017 112.809 155.952 112.879C155.889 112.948 155.857 113.041 155.857 113.16C155.857 113.323 155.917 113.445 156.037 113.529C156.159 113.61 156.312 113.651 156.499 113.651ZM158.675 114V110.958H159.126V111.417H159.158C159.213 111.267 159.314 111.145 159.459 111.051C159.604 110.957 159.768 110.91 159.95 110.91C159.984 110.91 160.027 110.911 160.079 110.912C160.13 110.914 160.169 110.916 160.196 110.918V111.394C160.18 111.39 160.144 111.384 160.087 111.376C160.031 111.367 159.973 111.362 159.911 111.362C159.763 111.362 159.631 111.393 159.514 111.455C159.4 111.516 159.308 111.6 159.241 111.709C159.175 111.815 159.142 111.938 159.142 112.075V114H158.675ZM162.263 110.958V111.354H160.687V110.958H162.263ZM161.146 110.229H161.614V113.129C161.614 113.261 161.633 113.36 161.671 113.426C161.711 113.49 161.761 113.534 161.822 113.556C161.884 113.577 161.949 113.588 162.018 113.588C162.069 113.588 162.112 113.585 162.145 113.58C162.178 113.574 162.204 113.568 162.224 113.564L162.319 113.984C162.287 113.996 162.243 114.008 162.186 114.02C162.129 114.033 162.057 114.04 161.97 114.04C161.838 114.04 161.709 114.011 161.582 113.954C161.457 113.898 161.352 113.811 161.269 113.695C161.187 113.579 161.146 113.432 161.146 113.255V110.229ZM162.967 114V110.958H163.418V111.433H163.458C163.521 111.271 163.623 111.145 163.765 111.055C163.906 110.964 164.076 110.918 164.274 110.918C164.474 110.918 164.641 110.964 164.775 111.055C164.909 111.145 165.014 111.271 165.09 111.433H165.121C165.199 111.276 165.316 111.151 165.472 111.059C165.628 110.965 165.815 110.918 166.032 110.918C166.304 110.918 166.527 111.003 166.7 111.174C166.873 111.343 166.959 111.606 166.959 111.964V114H166.492V111.964C166.492 111.74 166.431 111.579 166.308 111.483C166.185 111.386 166.04 111.338 165.874 111.338C165.66 111.338 165.494 111.403 165.377 111.532C165.259 111.66 165.201 111.823 165.201 112.019V114H164.725V111.916C164.725 111.743 164.669 111.604 164.557 111.499C164.445 111.392 164.3 111.338 164.123 111.338C164.002 111.338 163.888 111.37 163.783 111.435C163.678 111.5 163.594 111.59 163.529 111.705C163.466 111.818 163.434 111.949 163.434 112.099V114H162.967ZM169.089 114.063C168.796 114.063 168.543 113.999 168.331 113.869C168.12 113.739 167.957 113.556 167.842 113.323C167.728 113.088 167.671 112.814 167.671 112.503C167.671 112.191 167.728 111.916 167.842 111.679C167.957 111.44 168.116 111.254 168.321 111.12C168.527 110.986 168.767 110.918 169.042 110.918C169.2 110.918 169.357 110.945 169.511 110.997C169.666 111.05 169.806 111.136 169.933 111.255C170.06 111.372 170.161 111.528 170.236 111.722C170.311 111.916 170.349 112.155 170.349 112.439V112.637H168.004V112.233H169.874C169.874 112.062 169.839 111.909 169.771 111.774C169.703 111.639 169.607 111.533 169.482 111.455C169.357 111.377 169.211 111.338 169.042 111.338C168.856 111.338 168.695 111.384 168.559 111.477C168.424 111.568 168.32 111.687 168.248 111.833C168.175 111.98 168.139 112.137 168.139 112.305V112.574C168.139 112.804 168.178 112.999 168.258 113.158C168.338 113.317 168.45 113.438 168.592 113.521C168.735 113.603 168.901 113.644 169.089 113.644C169.212 113.644 169.323 113.626 169.422 113.592C169.522 113.556 169.609 113.504 169.682 113.434C169.754 113.362 169.81 113.274 169.85 113.168L170.302 113.295C170.254 113.448 170.174 113.583 170.062 113.699C169.95 113.814 169.811 113.904 169.646 113.968C169.481 114.032 169.295 114.063 169.089 114.063ZM171.527 112.17V114H171.06V110.958H171.512V111.433H171.551C171.623 111.279 171.731 111.155 171.876 111.061C172.021 110.966 172.209 110.918 172.439 110.918C172.644 110.918 172.825 110.961 172.979 111.045C173.134 111.128 173.254 111.255 173.34 111.425C173.425 111.594 173.468 111.808 173.468 112.067V114H173.001V112.099C173.001 111.86 172.939 111.674 172.815 111.54C172.691 111.405 172.52 111.338 172.304 111.338C172.155 111.338 172.021 111.37 171.904 111.435C171.788 111.5 171.696 111.594 171.628 111.718C171.561 111.843 171.527 111.993 171.527 112.17ZM175.646 110.958V111.354H174.069V110.958H175.646ZM174.528 110.229H174.996V113.129C174.996 113.261 175.015 113.36 175.053 113.426C175.093 113.49 175.143 113.534 175.204 113.556C175.266 113.577 175.331 113.588 175.4 113.588C175.451 113.588 175.494 113.585 175.527 113.58C175.56 113.574 175.586 113.568 175.606 113.564L175.701 113.984C175.669 113.996 175.625 114.008 175.568 114.02C175.512 114.033 175.44 114.04 175.352 114.04C175.22 114.04 175.091 114.011 174.964 113.954C174.839 113.898 174.734 113.811 174.651 113.695C174.569 113.579 174.528 113.432 174.528 113.255V110.229ZM178.449 111.639L178.029 111.758C178.003 111.688 177.964 111.62 177.912 111.554C177.862 111.487 177.793 111.431 177.706 111.388C177.619 111.344 177.508 111.322 177.372 111.322C177.185 111.322 177.03 111.365 176.906 111.451C176.783 111.536 176.722 111.643 176.722 111.774C176.722 111.89 176.764 111.982 176.849 112.049C176.933 112.116 177.065 112.173 177.245 112.218L177.696 112.328C177.968 112.394 178.171 112.495 178.304 112.631C178.438 112.766 178.504 112.94 178.504 113.152C178.504 113.327 178.454 113.482 178.354 113.62C178.255 113.757 178.116 113.865 177.938 113.945C177.76 114.024 177.552 114.063 177.316 114.063C177.006 114.063 176.749 113.996 176.546 113.861C176.342 113.727 176.214 113.53 176.159 113.271L176.603 113.16C176.645 113.324 176.725 113.447 176.843 113.529C176.962 113.61 177.117 113.651 177.308 113.651C177.526 113.651 177.699 113.605 177.827 113.513C177.957 113.419 178.021 113.307 178.021 113.176C178.021 113.07 177.984 112.982 177.91 112.911C177.836 112.838 177.723 112.784 177.57 112.748L177.063 112.629C176.784 112.563 176.579 112.461 176.449 112.322C176.319 112.183 176.255 112.008 176.255 111.798C176.255 111.626 176.303 111.474 176.399 111.342C176.497 111.21 176.63 111.106 176.797 111.031C176.966 110.956 177.158 110.918 177.372 110.918C177.673 110.918 177.909 110.984 178.081 111.116C178.254 111.248 178.376 111.423 178.449 111.639Z" fill="black" />
		</g>
		<path fill-rule="evenodd" clip-rule="evenodd" d="M155.707 118.35H160.089L157.898 120.74L155.707 118.35Z" fill="white" />
	</g>
	<defs>
		<filter id="filter0_d_0_1" x="117" y="96" width="81.4785" height="34.74" filterUnits="userSpaceOnUse" color-interpolation-filters="sRGB">
			<feFlood flood-opacity="0" result="BackgroundImageFix" />
			<feColorMatrix in="SourceAlpha" type="matrix" values="0 0 0 0 0 0 0 0 0 0 0 0 0 0 0 0 0 0 127 0" result="hardAlpha" />
			<feOffset />
			<feGaussianBlur stdDeviation="5" />
			<feComposite in2="hardAlpha" operator="out" />
			<feColorMatrix type="matrix" values="0 0 0 0 0 0 0 0 0 0 0 0 0 0 0 0 0 0 0.12 0" />
			<feBlend mode="normal" in2="BackgroundImageFix" result="effect1_dropShadow_0_1" />
			<feBlend mode="normal" in="SourceGraphic" in2="effect1_dropShadow_0_1" result="shape" />
		</filter>
		<clipPath id="clip0_0_1">
			<rect x="127" y="106" width="61.4794" height="13" rx="2" fill="white" />
		</clipPath>
	</defs>
</svg>
