<svg width="182" height="182" viewBox="0 0 182 182" fill="none" xmlns="http://www.w3.org/2000/svg">
	<path d="M182 91C182 141.258 141.258 182 91 182C40.7421 182 0 141.258 0 91C0 40.7421 40.7421 0 91 0C141.258 0 182 40.7421 182 91ZM35.1126 91C35.1126 121.866 60.1342 146.887 91 146.887C121.866 146.887 146.887 121.866 146.887 91C146.887 60.1342 121.866 35.1126 91 35.1126C60.1342 35.1126 35.1126 60.1342 35.1126 91Z" fill="#D9D9D9" />
	<path d="M182 91C182 111.763 174.9 131.902 161.878 148.073C148.856 164.245 130.695 175.477 110.41 179.906L102.92 145.601C115.378 142.882 126.532 135.983 134.529 126.051C142.527 116.12 146.887 103.751 146.887 91H182Z" fill="#FFAA45" />
	<path d="M110.404 179.907C90.1186 184.334 68.9292 181.692 50.3526 172.417C31.7761 163.143 16.9297 147.795 8.27753 128.921L40.1962 114.289C45.5099 125.881 54.6278 135.307 66.0365 141.002C77.4452 146.698 90.4587 148.321 102.917 145.602L110.404 179.907Z" fill="#001749" />
	<path d="M8.29764 128.965C-0.364525 110.095 -2.3134 88.8306 2.77448 68.7007C7.86236 48.5709 19.681 30.7862 36.2689 18.2985L57.387 46.3506C47.1996 54.0198 39.9412 64.9423 36.8165 77.305C33.6918 89.6677 34.8887 102.727 40.2086 114.316L8.29764 128.965Z" fill="#51C878" />
	<path d="M36.2699 18.2978C52.8578 5.81038 73.2173 -0.628995 93.9691 0.0484509C114.721 0.725896 134.617 8.47942 150.355 22.0221L127.453 48.6374C117.787 40.3202 105.568 35.5584 92.8235 35.1423C80.0788 34.7263 67.5751 38.681 57.3876 46.3501L36.2699 18.2978Z" fill="#C40101" />
	<path d="M150.355 22.0221C160.331 30.6063 168.326 41.2522 173.789 53.2255C179.253 65.1989 182.054 78.2147 181.999 91.3754L146.887 91.2306C146.92 83.148 145.2 75.1543 141.845 67.8009C138.49 60.4475 133.58 53.9094 127.453 48.6374L150.355 22.0221Z" fill="#0086FF" />
	<g filter="url(#filter0_d_0_1)">
		<g clip-path="url(#clip0_0_1)">
			<path fillRule="evenodd" clipRule="evenodd" d="M119 122.358C119 123.678 120.07 124.748 121.39 124.748H165.61C166.93 124.748 168 123.678 168 122.358V114.39C168 113.07 166.93 112 165.61 112H121.39C120.07 112 119 113.07 119 114.39V122.358Z" fill="white" />
			<path d="M127.846 115.944V120H127.355V116.459H127.331L126.341 117.116V116.617L127.355 115.944H127.846ZM129.012 120V119.644L130.351 118.178C130.508 118.006 130.638 117.857 130.739 117.73C130.841 117.602 130.916 117.482 130.965 117.37C131.015 117.256 131.041 117.137 131.041 117.013C131.041 116.871 131.006 116.747 130.938 116.643C130.87 116.539 130.778 116.458 130.66 116.401C130.543 116.345 130.411 116.316 130.264 116.316C130.108 116.316 129.972 116.349 129.856 116.413C129.741 116.477 129.652 116.566 129.589 116.681C129.527 116.795 129.496 116.93 129.496 117.085H129.028C129.028 116.847 129.083 116.638 129.193 116.459C129.302 116.279 129.451 116.139 129.64 116.039C129.83 115.939 130.044 115.888 130.28 115.888C130.518 115.888 130.728 115.939 130.912 116.039C131.095 116.139 131.239 116.275 131.344 116.445C131.448 116.615 131.5 116.805 131.5 117.013C131.5 117.163 131.473 117.308 131.419 117.451C131.366 117.592 131.274 117.75 131.142 117.924C131.011 118.097 130.829 118.309 130.597 118.558L129.686 119.533V119.564H131.571V120H129.012ZM137.293 117.211H136.802C136.773 117.07 136.722 116.946 136.649 116.839C136.578 116.732 136.491 116.642 136.388 116.57C136.286 116.496 136.173 116.44 136.049 116.403C135.925 116.366 135.796 116.348 135.661 116.348C135.416 116.348 135.193 116.41 134.994 116.534C134.796 116.658 134.638 116.841 134.52 117.083C134.404 117.324 134.346 117.621 134.346 117.972C134.346 118.323 134.404 118.62 134.52 118.861C134.638 119.103 134.796 119.286 134.994 119.41C135.193 119.534 135.416 119.596 135.661 119.596C135.796 119.596 135.925 119.577 136.049 119.541C136.173 119.504 136.286 119.449 136.388 119.376C136.491 119.302 136.578 119.212 136.649 119.105C136.722 118.997 136.773 118.872 136.802 118.732H137.293C137.256 118.94 137.189 119.125 137.091 119.289C136.993 119.453 136.872 119.592 136.727 119.707C136.581 119.82 136.418 119.907 136.237 119.966C136.058 120.026 135.866 120.055 135.661 120.055C135.315 120.055 135.008 119.971 134.738 119.802C134.469 119.633 134.257 119.393 134.102 119.081C133.948 118.769 133.871 118.4 133.871 117.972C133.871 117.544 133.948 117.174 134.102 116.863C134.257 116.551 134.469 116.311 134.738 116.142C135.008 115.973 135.315 115.888 135.661 115.888C135.866 115.888 136.058 115.918 136.237 115.977C136.418 116.037 136.581 116.124 136.727 116.239C136.872 116.352 136.993 116.491 137.091 116.655C137.189 116.817 137.256 117.003 137.293 117.211ZM139.259 120.063C138.985 120.063 138.744 119.998 138.536 119.867C138.33 119.737 138.169 119.554 138.053 119.319C137.938 119.084 137.881 118.809 137.881 118.495C137.881 118.178 137.938 117.901 138.053 117.665C138.169 117.429 138.33 117.245 138.536 117.114C138.744 116.984 138.985 116.918 139.259 116.918C139.534 116.918 139.774 116.984 139.98 117.114C140.188 117.245 140.349 117.429 140.463 117.665C140.58 117.901 140.638 118.178 140.638 118.495C140.638 118.809 140.58 119.084 140.463 119.319C140.349 119.554 140.188 119.737 139.98 119.867C139.774 119.998 139.534 120.063 139.259 120.063ZM139.259 119.644C139.468 119.644 139.64 119.59 139.774 119.483C139.909 119.376 140.009 119.236 140.073 119.061C140.138 118.887 140.17 118.698 140.17 118.495C140.17 118.291 140.138 118.102 140.073 117.926C140.009 117.751 139.909 117.609 139.774 117.501C139.64 117.392 139.468 117.338 139.259 117.338C139.051 117.338 138.879 117.392 138.744 117.501C138.61 117.609 138.51 117.751 138.445 117.926C138.381 118.102 138.348 118.291 138.348 118.495C138.348 118.698 138.381 118.887 138.445 119.061C138.51 119.236 138.61 119.376 138.744 119.483C138.879 119.59 139.051 119.644 139.259 119.644ZM141.351 120V116.958H141.803V117.433H141.842C141.906 117.271 142.008 117.145 142.149 117.055C142.291 116.964 142.46 116.918 142.658 116.918C142.859 116.918 143.026 116.964 143.16 117.055C143.294 117.145 143.399 117.271 143.474 117.433H143.506C143.584 117.276 143.701 117.151 143.857 117.059C144.012 116.965 144.199 116.918 144.417 116.918C144.689 116.918 144.912 117.003 145.085 117.174C145.258 117.343 145.344 117.606 145.344 117.964V120H144.877V117.964C144.877 117.74 144.815 117.579 144.692 117.483C144.57 117.386 144.425 117.338 144.259 117.338C144.045 117.338 143.879 117.403 143.762 117.532C143.644 117.66 143.585 117.823 143.585 118.019V120H143.11V117.916C143.11 117.743 143.054 117.604 142.942 117.499C142.829 117.392 142.685 117.338 142.508 117.338C142.386 117.338 142.273 117.37 142.167 117.435C142.063 117.5 141.978 117.59 141.914 117.705C141.85 117.818 141.819 117.949 141.819 118.099V120H141.351ZM146.199 121.141V116.958H146.65V117.441H146.706C146.74 117.388 146.788 117.321 146.848 117.239C146.91 117.156 146.999 117.082 147.114 117.017C147.23 116.951 147.387 116.918 147.585 116.918C147.841 116.918 148.067 116.982 148.262 117.11C148.458 117.238 148.61 117.42 148.72 117.655C148.829 117.89 148.884 118.167 148.884 118.487C148.884 118.809 148.829 119.088 148.72 119.325C148.61 119.56 148.458 119.742 148.264 119.871C148.07 119.999 147.846 120.063 147.593 120.063C147.398 120.063 147.241 120.031 147.124 119.966C147.006 119.9 146.916 119.826 146.852 119.743C146.789 119.658 146.74 119.588 146.706 119.533H146.666V121.141H146.199ZM146.658 118.479C146.658 118.709 146.692 118.911 146.759 119.087C146.826 119.261 146.925 119.398 147.054 119.497C147.184 119.595 147.342 119.644 147.53 119.644C147.725 119.644 147.888 119.592 148.019 119.489C148.151 119.385 148.25 119.245 148.316 119.069C148.383 118.892 148.417 118.695 148.417 118.479C148.417 118.265 148.384 118.072 148.318 117.901C148.253 117.728 148.155 117.591 148.023 117.491C147.892 117.389 147.728 117.338 147.53 117.338C147.339 117.338 147.18 117.386 147.05 117.483C146.921 117.578 146.823 117.711 146.757 117.883C146.691 118.053 146.658 118.252 146.658 118.479ZM150.493 120.071C150.3 120.071 150.125 120.035 149.968 119.962C149.811 119.888 149.686 119.782 149.593 119.644C149.501 119.504 149.455 119.335 149.455 119.136C149.455 118.962 149.489 118.821 149.558 118.713C149.626 118.603 149.718 118.517 149.833 118.455C149.948 118.393 150.075 118.347 150.213 118.317C150.353 118.285 150.494 118.26 150.635 118.241C150.82 118.218 150.97 118.2 151.085 118.188C151.201 118.175 151.285 118.153 151.338 118.122C151.392 118.092 151.419 118.039 151.419 117.964V117.948C151.419 117.753 151.366 117.601 151.259 117.493C151.153 117.384 150.993 117.33 150.778 117.33C150.555 117.33 150.38 117.379 150.253 117.477C150.126 117.574 150.037 117.679 149.985 117.79L149.542 117.631C149.621 117.446 149.727 117.302 149.859 117.199C149.992 117.095 150.137 117.023 150.294 116.982C150.453 116.939 150.609 116.918 150.762 116.918C150.86 116.918 150.972 116.93 151.099 116.954C151.227 116.976 151.35 117.023 151.469 117.095C151.589 117.166 151.689 117.273 151.768 117.417C151.847 117.561 151.887 117.754 151.887 117.996V120H151.419V119.588H151.396C151.364 119.654 151.311 119.725 151.237 119.8C151.163 119.875 151.065 119.939 150.942 119.992C150.819 120.045 150.669 120.071 150.493 120.071ZM150.564 119.651C150.749 119.651 150.904 119.615 151.031 119.542C151.159 119.47 151.256 119.376 151.32 119.261C151.386 119.146 151.419 119.026 151.419 118.899V118.471C151.4 118.495 151.356 118.517 151.289 118.536C151.223 118.555 151.146 118.571 151.059 118.586C150.973 118.599 150.889 118.611 150.807 118.622C150.727 118.631 150.662 118.639 150.611 118.645C150.49 118.661 150.376 118.687 150.271 118.723C150.166 118.757 150.082 118.809 150.017 118.879C149.954 118.948 149.922 119.041 149.922 119.16C149.922 119.323 149.982 119.445 150.102 119.529C150.224 119.61 150.378 119.651 150.564 119.651ZM153.207 118.17V120H152.74V116.958H153.191V117.433H153.231C153.302 117.279 153.411 117.155 153.556 117.061C153.701 116.966 153.889 116.918 154.118 116.918C154.324 116.918 154.505 116.961 154.659 117.045C154.814 117.128 154.934 117.255 155.02 117.425C155.105 117.594 155.148 117.808 155.148 118.067V120H154.681V118.099C154.681 117.86 154.619 117.674 154.495 117.54C154.371 117.405 154.2 117.338 153.984 117.338C153.835 117.338 153.701 117.37 153.584 117.435C153.467 117.5 153.376 117.594 153.308 117.718C153.241 117.843 153.207 117.993 153.207 118.17ZM156.002 120V116.958H156.47V120H156.002ZM156.24 116.451C156.149 116.451 156.07 116.42 156.004 116.358C155.94 116.296 155.907 116.221 155.907 116.134C155.907 116.047 155.94 115.972 156.004 115.91C156.07 115.848 156.149 115.817 156.24 115.817C156.331 115.817 156.409 115.848 156.474 115.91C156.54 115.972 156.573 116.047 156.573 116.134C156.573 116.221 156.54 116.296 156.474 116.358C156.409 116.42 156.331 116.451 156.24 116.451ZM158.601 120.063C158.308 120.063 158.055 119.999 157.843 119.869C157.632 119.739 157.469 119.556 157.354 119.323C157.24 119.088 157.183 118.814 157.183 118.503C157.183 118.191 157.24 117.916 157.354 117.679C157.469 117.44 157.628 117.254 157.833 117.12C158.039 116.986 158.279 116.918 158.554 116.918C158.712 116.918 158.869 116.945 159.023 116.997C159.178 117.05 159.318 117.136 159.445 117.255C159.572 117.372 159.673 117.528 159.748 117.722C159.823 117.916 159.861 118.155 159.861 118.439V118.637H157.516V118.233H159.386C159.386 118.062 159.351 117.909 159.283 117.774C159.215 117.639 159.119 117.533 158.994 117.455C158.869 117.377 158.723 117.338 158.554 117.338C158.368 117.338 158.207 117.384 158.071 117.477C157.936 117.568 157.832 117.687 157.76 117.833C157.687 117.98 157.651 118.137 157.651 118.305V118.574C157.651 118.804 157.69 118.999 157.77 119.158C157.85 119.317 157.962 119.438 158.104 119.521C158.247 119.603 158.413 119.644 158.601 119.644C158.724 119.644 158.835 119.626 158.934 119.592C159.034 119.556 159.121 119.504 159.194 119.434C159.266 119.362 159.322 119.274 159.362 119.168L159.813 119.295C159.766 119.448 159.686 119.583 159.574 119.699C159.462 119.814 159.323 119.904 159.158 119.968C158.993 120.032 158.807 120.063 158.601 120.063ZM162.727 117.639L162.307 117.758C162.281 117.688 162.242 117.62 162.19 117.554C162.14 117.487 162.071 117.431 161.984 117.388C161.897 117.344 161.785 117.322 161.649 117.322C161.463 117.322 161.308 117.365 161.184 117.451C161.061 117.536 161 117.643 161 117.774C161 117.89 161.042 117.982 161.127 118.049C161.211 118.116 161.343 118.173 161.523 118.218L161.974 118.328C162.246 118.394 162.449 118.495 162.582 118.631C162.716 118.766 162.782 118.94 162.782 119.152C162.782 119.327 162.732 119.482 162.632 119.62C162.533 119.757 162.394 119.865 162.216 119.945C162.038 120.024 161.83 120.063 161.594 120.063C161.284 120.063 161.027 119.996 160.824 119.861C160.62 119.727 160.491 119.53 160.437 119.271L160.881 119.16C160.923 119.324 161.003 119.447 161.121 119.529C161.239 119.61 161.395 119.651 161.586 119.651C161.804 119.651 161.977 119.605 162.105 119.513C162.234 119.419 162.299 119.307 162.299 119.176C162.299 119.07 162.262 118.982 162.188 118.911C162.114 118.838 162.001 118.784 161.848 118.748L161.34 118.629C161.062 118.563 160.857 118.461 160.727 118.322C160.597 118.183 160.532 118.008 160.532 117.798C160.532 117.626 160.581 117.474 160.677 117.342C160.775 117.21 160.907 117.106 161.075 117.031C161.244 116.956 161.436 116.918 161.649 116.918C161.95 116.918 162.187 116.984 162.358 117.116C162.531 117.248 162.654 117.423 162.727 117.639Z" fill="black" />
		</g>
		<path fillRule="evenodd" clipRule="evenodd" d="M141.707 124.35H146.089L143.898 126.74L141.707 124.35Z" fill="white" />
	</g>
	<defs>
		<filter id="filter0_d_0_1" x="109" y="102" width="69" height="34.74" filterUnits="userSpaceOnUse" color-interpolation-filters="sRGB">
			<feFlood flood-opacity="0" result="BackgroundImageFix" />
			<feColorMatrix in="SourceAlpha" type="matrix" values="0 0 0 0 0 0 0 0 0 0 0 0 0 0 0 0 0 0 127 0" result="hardAlpha" />
			<feOffset />
			<feGaussianBlur stdDeviation="5" />
			<feComposite in2="hardAlpha" operator="out" />
			<feColorMatrix type="matrix" values="0 0 0 0 0 0 0 0 0 0 0 0 0 0 0 0 0 0 0.12 0" />
			<feBlend mode="normal" in2="BackgroundImageFix" result="effect1_dropShadow_0_1" />
			<feBlend mode="normal" in="SourceGraphic" in2="effect1_dropShadow_0_1" result="shape" />
		</filter>
		<clipPath id="clip0_0_1">
			<rect x="119" y="112" width="49" height="13" rx="2" fill="white" />
		</clipPath>
	</defs>
</svg>
