<svg width="20" height="19" viewBox="0 0 20 19" fill="none" xmlns="http://www.w3.org/2000/svg">
	<path d="M1.48633 9.67332C1.48633 7.72817 1.48633 6.75559 1.92765 5.94933C2.36897 5.14308 3.17524 4.64268 4.78775 3.64191L6.48775 2.58684C8.19231 1.52895 9.04461 1 9.98633 1C10.928 1 11.7803 1.52895 13.4849 2.58684L15.1849 3.6419C16.7975 4.64268 17.6037 5.14308 18.045 5.94933C18.4863 6.75559 18.4863 7.72817 18.4863 9.67332V10.9663C18.4863 14.2819 18.4863 15.9399 17.4905 16.9699C16.4947 18 14.8918 18 11.6863 18H8.28633C5.08077 18 3.47801 18 2.48216 16.9699C1.48633 15.9399 1.48633 14.2819 1.48633 10.9663V9.67332Z" stroke="#D500B3" stroke-width="2" />
	<path fill-rule="evenodd" clip-rule="evenodd" d="M4.57016 10.3909C4.54872 10.3695 4.53586 10.3394 4.53586 10.3069C4.53586 10.2657 4.55644 10.2297 4.59074 10.2074L5.75248 9.46921C5.77134 9.45721 5.79277 9.44949 5.81506 9.45121L5.82964 9.45035C5.85107 9.45121 5.87079 9.45721 5.89051 9.46835L6.35778 9.75043L6.82591 9.46921C6.84391 9.45807 6.86449 9.45121 6.88678 9.45121L6.98624 9.45121C7.00853 9.45121 7.02825 9.45721 7.04711 9.46921L7.51266 9.75129L7.97822 9.46921C7.99622 9.45807 8.0168 9.45121 8.03909 9.45121L8.1334 9.45121C8.15569 9.45121 8.17541 9.45721 8.19427 9.46921L8.65983 9.75129L9.12538 9.46921C9.14339 9.45807 9.16396 9.45121 9.18625 9.45121H9.83957L9.84043 9.19657C9.84043 8.98394 9.92102 8.8279 10.0633 8.76788C10.1971 8.71301 10.354 8.75845 10.4852 8.88963L10.7364 9.14084C11.1745 8.28089 12.0585 7.73475 13.0324 7.73475C13.72 7.73475 14.3674 8.00139 14.8543 8.48838C15.3413 8.97537 15.6088 9.62182 15.6088 10.3112C15.6088 11.7327 14.4531 12.8884 13.0316 12.8884C12.0559 12.8884 11.1736 12.3406 10.7347 11.4815L10.4852 11.731C10.3591 11.857 10.1894 11.9016 10.0522 11.845C9.91759 11.7893 9.84043 11.6504 9.84043 11.4652V11.172L5.81506 11.1745C5.79106 11.1745 5.77048 11.1677 5.75076 11.1548L4.58988 10.4055C4.58216 10.4029 4.57616 10.3969 4.57016 10.3909ZM5.82364 9.70499L4.8711 10.3094L5.84936 10.9396L9.95875 10.9387C9.98961 10.9387 10.0205 10.9508 10.0436 10.9739C10.0659 10.9962 10.0788 11.0245 10.0779 11.0579L10.0788 11.4669C10.0788 11.5526 10.1019 11.6118 10.1439 11.6298C10.1911 11.6495 10.2623 11.6229 10.3197 11.5655L10.6884 11.1968C10.7158 11.1694 10.757 11.1574 10.7947 11.1642C10.8333 11.172 10.8658 11.1977 10.8804 11.2345C11.2482 12.0962 12.0936 12.6535 13.0324 12.6544C14.3228 12.6535 15.3731 11.6032 15.3731 10.3137C15.3731 9.68784 15.1304 9.10054 14.6872 8.65728C14.2448 8.21488 13.6566 7.97138 13.0324 7.9731C12.0953 7.97224 11.2508 8.52867 10.8804 9.39119C10.865 9.42892 10.8333 9.45378 10.7955 9.46064C10.7561 9.4675 10.7158 9.45635 10.6884 9.42892L10.3197 9.06025C10.2588 8.99937 10.1962 8.97108 10.1551 8.98823C10.1191 9.00366 10.0771 9.06625 10.0771 9.19828V9.56867C10.0771 9.63383 10.0239 9.68698 9.95875 9.68698L9.22055 9.68784L8.72156 9.99135C8.68469 10.0145 8.63754 10.0136 8.59981 9.99135L8.10082 9.68784H8.07338L7.57439 9.99135C7.53753 10.0145 7.48951 10.0145 7.45265 9.99135L6.95366 9.68784L6.9185 9.6887L6.41865 9.98964C6.38179 10.0128 6.33378 10.0128 6.29777 9.99049L5.82364 9.70499Z" fill="#D500B3" stroke="#D500B3" stroke-width="0.2" />
	<path fill-rule="evenodd" clip-rule="evenodd" d="M6.06725 10.6909C6.04582 10.6694 6.03296 10.6394 6.03296 10.6086C6.03296 10.5451 6.08697 10.4911 6.15042 10.4911L9.6022 10.4911C9.66736 10.4911 9.72052 10.5443 9.72052 10.6094C9.72052 10.6729 9.6665 10.7269 9.60306 10.7269L6.15128 10.7269C6.1187 10.7252 6.08869 10.7123 6.06725 10.6909Z" fill="#D500B3" stroke="#D500B3" stroke-width="0.2" />
	<path fill-rule="evenodd" clip-rule="evenodd" d="M13.8595 10.7055C13.76 10.606 13.6974 10.4663 13.6974 10.3136C13.6974 10.0067 13.9461 9.75806 14.2513 9.75978C14.3996 9.75892 14.5394 9.81636 14.644 9.92096C14.7486 10.0256 14.8077 10.1653 14.806 10.3145C14.806 10.6214 14.5574 10.8701 14.2522 10.8684C14.0987 10.8675 13.9598 10.8058 13.8595 10.7055ZM14.4777 10.0873C14.4176 10.0273 14.337 9.9947 14.2513 9.9947C14.0755 9.99556 13.9332 10.1379 13.9324 10.3136C13.9341 10.4885 14.0773 10.6317 14.2513 10.6326C14.4279 10.6326 14.5703 10.4903 14.5703 10.3136C14.5703 10.2279 14.5377 10.1473 14.4777 10.0873Z" fill="#D500B3" stroke="#D500B3" stroke-width="0.2" />
</svg>
