<svg width="25" height="24" viewBox="0 0 25 24" fill="none" xmlns="http://www.w3.org/2000/svg">
	<path fill-rule="evenodd" clip-rule="evenodd" d="M14.541 11H13.041V6H17.041C17.641 6 18.041 5.6 18.041 5C18.041 4.4 17.641 4 17.041 4H13.041V1C13.041 0.4 12.641 0 12.041 0C11.441 0 11.041 0.4 11.041 1V4H9.54102C7.04102 4 5.04102 6 5.04102 8.5C5.04102 11 7.04102 13 9.54102 13H11.041V18H6.04102C5.44102 18 5.04102 18.4 5.04102 19C5.04102 19.6 5.44102 20 6.04102 20H11.041V23C11.041 23.6 11.441 24 12.041 24C12.641 24 13.041 23.6 13.041 23V20H14.541C17.041 20 19.041 18 19.041 15.5C19.041 13 17.041 11 14.541 11ZM9.54102 11C8.14102 11 7.04102 9.9 7.04102 8.5C7.04102 7.1 8.14102 6 9.54102 6H11.041V11H9.54102ZM13.041 18H14.541C15.941 18 17.041 16.9 17.041 15.5C17.041 14.1 15.941 13 14.541 13H13.041V18Z" fill="black" />
	<mask id="mask0_185_917" style="mask-type:luminance" maskUnits="userSpaceOnUse" x="5" y="0" width="15" height="24">
		<path fill-rule="evenodd" clip-rule="evenodd" d="M14.541 11H13.041V6H17.041C17.641 6 18.041 5.6 18.041 5C18.041 4.4 17.641 4 17.041 4H13.041V1C13.041 0.4 12.641 0 12.041 0C11.441 0 11.041 0.4 11.041 1V4H9.54102C7.04102 4 5.04102 6 5.04102 8.5C5.04102 11 7.04102 13 9.54102 13H11.041V18H6.04102C5.44102 18 5.04102 18.4 5.04102 19C5.04102 19.6 5.44102 20 6.04102 20H11.041V23C11.041 23.6 11.441 24 12.041 24C12.641 24 13.041 23.6 13.041 23V20H14.541C17.041 20 19.041 18 19.041 15.5C19.041 13 17.041 11 14.541 11ZM9.54102 11C8.14102 11 7.04102 9.9 7.04102 8.5C7.04102 7.1 8.14102 6 9.54102 6H11.041V11H9.54102ZM13.041 18H14.541C15.941 18 17.041 16.9 17.041 15.5C17.041 14.1 15.941 13 14.541 13H13.041V18Z" fill="white" />
	</mask>
	<g mask="url(#mask0_185_917)">
		<rect x="0.0410156" width="24" height="24" fill="#28C76F" />
	</g>
</svg>
