<svg width="25" height="25" viewBox="0 0 25 25" fill="none" xmlns="http://www.w3.org/2000/svg">
	<path d="M13.6364 6.25H16.5749L13.9693 9.11625C13.8622 9.23192 13.7771 9.36978 13.7187 9.52187C13.6603 9.67396 13.6299 9.83726 13.6292 10.0023C13.6285 10.1674 13.6576 10.331 13.7147 10.4837C13.7718 10.6364 13.8559 10.7751 13.962 10.8918C14.0681 11.0085 14.1942 11.101 14.333 11.1638C14.4718 11.2266 14.6205 11.2586 14.7706 11.2579C14.9207 11.2571 15.0691 11.2237 15.2074 11.1595C15.3457 11.0952 15.471 11.0015 15.5761 10.8837L18.1818 8.01757V11.25C18.1818 11.5815 18.3015 11.8995 18.5147 12.1339C18.7278 12.3683 19.0168 12.5 19.3182 12.5C19.6196 12.5 19.9086 12.3683 20.1217 12.1339C20.3348 11.8995 20.4545 11.5815 20.4545 11.25V5C20.4534 4.66887 20.3333 4.35167 20.1204 4.11753C19.9076 3.88338 19.6192 3.75128 19.3182 3.75H13.6364C13.335 3.75 13.0459 3.8817 12.8328 4.11612C12.6197 4.35054 12.5 4.66848 12.5 5C12.5 5.33152 12.6197 5.64946 12.8328 5.88388C13.0459 6.1183 13.335 6.25 13.6364 6.25Z" fill="#FFAA45" />
	<path d="M5.24759 21.1536C5.38518 21.2167 5.5327 21.2495 5.68177 21.25H11.3636C11.665 21.25 11.954 21.1183 12.1671 20.8839C12.3802 20.6495 12.5 20.3315 12.5 20C12.5 19.6685 12.3802 19.3505 12.1671 19.1161C11.954 18.8817 11.665 18.75 11.3636 18.75H8.42502L11.0307 15.8837C11.2416 15.6488 11.3594 15.3317 11.3584 15.0016C11.3575 14.6715 11.2378 14.3552 11.0256 14.1218C10.8134 13.8883 10.5259 13.7567 10.2258 13.7557C9.92565 13.7547 9.63736 13.8843 9.42382 14.1163L6.81814 16.9824V13.75C6.81814 13.4185 6.69841 13.1005 6.4853 12.8661C6.27219 12.6317 5.98316 12.5 5.68177 12.5C5.38039 12.5 5.09135 12.6317 4.87824 12.8661C4.66513 13.1005 4.54541 13.4185 4.54541 13.75V20C4.54628 20.2469 4.61336 20.4881 4.73827 20.6933C4.86318 20.8985 5.04035 21.0586 5.24759 21.1536Z" fill="#FFAA45" />
	<path d="M0 21.25C0.000986586 22.2442 0.360474 23.1974 0.999589 23.9005C1.6387 24.6035 2.50525 24.9989 3.40909 25H21.5909C22.4948 24.9989 23.3613 24.6035 24.0004 23.9005C24.6395 23.1974 24.999 22.2442 25 21.25V3.75C24.999 2.75577 24.6395 1.80257 24.0004 1.09955C23.3613 0.396522 22.4948 0.00108524 21.5909 0H3.40909C2.50525 0.00108524 1.6387 0.396522 0.999589 1.09955C0.360474 1.80257 0.000986586 2.75577 0 3.75V21.25ZM2.27273 3.75C2.27303 3.41858 2.39285 3.10083 2.60589 2.86648C2.81894 2.63213 3.1078 2.50033 3.40909 2.5H21.5909C21.8922 2.50033 22.1811 2.63213 22.3941 2.86648C22.6072 3.10083 22.727 3.41858 22.7273 3.75V21.25C22.727 21.5814 22.6072 21.8992 22.3941 22.1335C22.1811 22.3679 21.8922 22.4997 21.5909 22.5H3.40909C3.1078 22.4997 2.81894 22.3679 2.60589 22.1335C2.39285 21.8992 2.27303 21.5814 2.27273 21.25V3.75Z" fill="#FFAA45" />
</svg>
