<svg width="54" height="10" viewBox="0 0 54 10" fill="none" xmlns="http://www.w3.org/2000/svg">
	<path d="M48.7677 1L50.0757 3.78655L53.0003 4.2334L50.884 6.40243L51.3836 9.46515L48.7677 8.01913L46.1519 9.46515L46.6514 6.40243L44.5352 4.2334L47.4598 3.78655L48.7677 1Z" stroke="#FDCC0D" strokeWidth="0.456142" strokeLinecap="round" strokeLinejoin="round" />
	<path d="M37.8839 1L39.1919 3.78655L42.1165 4.2334L40.0002 6.40243L40.4998 9.46515L37.8839 8.01913L35.2681 9.46515L35.7677 6.40243L33.6514 4.2334L36.576 3.78655L37.8839 1Z" fill="#FDCC0D" stroke="#FDCC0D" strokeWidth="0.456142" strokeLinecap="round" strokeLinejoin="round" />
	<path d="M26.9997 1L28.3076 3.78655L31.2322 4.2334L29.116 6.40243L29.6155 9.46515L26.9997 8.01913L24.3838 9.46515L24.8834 6.40243L22.7671 4.2334L25.6917 3.78655L26.9997 1Z" fill="#FDCC0D" stroke="#FDCC0D" strokeWidth="0.456142" strokeLinecap="round" strokeLinejoin="round" />
	<path d="M16.1169 1L17.4248 3.78655L20.3494 4.2334L18.2331 6.40243L18.7327 9.46515L16.1169 8.01913L13.501 9.46515L14.0006 6.40243L11.8843 4.2334L14.8089 3.78655L16.1169 1Z" fill="#FDCC0D" stroke="#FDCC0D" strokeWidth="0.456142" strokeLinecap="round" strokeLinejoin="round" />
	<path d="M5.23257 1L6.54051 3.78655L9.46515 4.2334L7.34886 6.40243L7.84845 9.46515L5.23257 8.01913L2.6167 9.46515L3.11629 6.40243L1 4.2334L3.92464 3.78655L5.23257 1Z" fill="#FDCC0D" stroke="#FDCC0D" strokeWidth="0.456142" strokeLinecap="round" strokeLinejoin="round" />
</svg>
