<svg width="22" height="20" viewBox="0 0 22 20" fill="none" xmlns="http://www.w3.org/2000/svg">
	<path d="M19.3492 12.4403C19.1692 12.378 18.9719 12.475 18.9096 12.6584C17.7639 16.0369 14.6035 18.3077 11.0381 18.3077C6.84617 18.3077 3.37078 15.1853 2.81001 11.1457L3.14578 11.5923C3.21501 11.6823 3.31886 11.7307 3.42271 11.7307C3.4954 11.7307 3.56809 11.7065 3.6304 11.6615C3.78271 11.5473 3.81386 11.3292 3.69963 11.1769L2.66117 9.79227C2.66117 9.79227 2.65078 9.78535 2.64732 9.78189C2.58502 9.70573 2.49155 9.65381 2.38425 9.65381C2.27694 9.65381 2.18694 9.70573 2.12117 9.78189C2.11771 9.78535 2.11078 9.78881 2.10732 9.79227L1.06886 11.1769C0.95463 11.3292 0.985784 11.5473 1.13809 11.6615C1.2904 11.7757 1.50848 11.7446 1.62271 11.5923L2.09001 10.9692C2.57463 15.4796 6.40309 19 11.0381 19C14.8977 19 18.3246 16.5423 19.5639 12.88C19.6262 12.7 19.5292 12.5027 19.3458 12.4403H19.3492Z" fill="#EA5455" stroke="#EA5455" stroke-width="0.6" />
	<path d="M20.938 8.33846C20.7857 8.22423 20.5677 8.25538 20.4534 8.40769L19.9861 9.03077C19.5015 4.52039 15.673 1 11.038 1C7.17843 1 3.75151 3.45769 2.51228 7.12C2.44997 7.3 2.54689 7.49731 2.73036 7.55962C2.76843 7.57346 2.80305 7.57692 2.84112 7.57692C2.98651 7.57692 3.12151 7.48692 3.16997 7.34154C4.31574 3.96308 7.47612 1.69231 11.0415 1.69231C15.2334 1.69231 18.7088 4.81462 19.2696 8.85423L18.9338 8.40769C18.8196 8.25538 18.6015 8.22423 18.4492 8.33846C18.2969 8.45269 18.2657 8.67077 18.38 8.82308L19.4184 10.2077C19.4184 10.2077 19.4288 10.2146 19.4357 10.2215C19.46 10.2492 19.4877 10.27 19.5154 10.2908C19.5257 10.2977 19.5361 10.3081 19.55 10.315C19.595 10.3358 19.6434 10.3496 19.6954 10.3496C19.7473 10.3496 19.7957 10.3358 19.8407 10.315C19.8546 10.3081 19.8615 10.2977 19.8754 10.2908C19.9065 10.27 19.9342 10.2492 19.955 10.2215C19.9584 10.2146 19.9654 10.2146 19.9723 10.2077L21.0107 8.82308C21.125 8.67077 21.0938 8.45269 20.9415 8.33846H20.938Z" fill="#EA5455" stroke="#EA5455" stroke-width="0.6" />
	<path d="M11.0381 16.2308C14.472 16.2308 17.2689 13.4339 17.2689 10.0001C17.2689 6.56621 14.472 3.76929 11.0381 3.76929C7.6043 3.76929 4.80737 6.56621 4.80737 10.0001C4.80737 13.4339 7.60083 16.2308 11.0381 16.2308ZM11.0381 4.46159C14.0912 4.46159 16.5766 6.94698 16.5766 10.0001C16.5766 13.0531 14.0912 15.5385 11.0381 15.5385C7.98507 15.5385 5.49968 13.0531 5.49968 10.0001C5.49968 6.94698 7.98507 4.46159 11.0381 4.46159Z" fill="#EA5455" stroke="#EA5455" stroke-width="0.6" />
	<path d="M10.4149 10.3462H11.6611C12.118 10.3462 12.4918 10.72 12.4918 11.1769V11.5231C12.4918 11.98 12.118 12.3539 11.6611 12.3539H10.4495C9.99261 12.3539 9.61877 11.98 9.61877 11.5231C9.61877 11.3327 9.463 11.1769 9.27262 11.1769C9.08223 11.1769 8.92646 11.3327 8.92646 11.5231C8.92646 12.3642 9.60838 13.0462 10.4495 13.0462H10.6918V13.825C10.6918 14.0154 10.8476 14.1712 11.038 14.1712C11.2284 14.1712 11.3842 14.0154 11.3842 13.825V13.0462H11.6611C12.5022 13.0462 13.1842 12.3642 13.1842 11.5231V11.1769C13.1842 10.3358 12.5022 9.65386 11.6611 9.65386H10.4149C9.958 9.65386 9.58415 9.28001 9.58415 8.82309V8.47693C9.58415 8.02001 9.958 7.64617 10.4149 7.64617H11.6265C12.0834 7.64617 12.4572 8.02001 12.4572 8.47693C12.4572 8.66732 12.613 8.82309 12.8034 8.82309C12.9938 8.82309 13.1495 8.66732 13.1495 8.47693C13.1495 7.63578 12.4676 6.95386 11.6265 6.95386H11.3842V6.17501C11.3842 5.98463 11.2284 5.82886 11.038 5.82886C10.8476 5.82886 10.6918 5.98463 10.6918 6.17501V6.95386H10.4149C9.57377 6.95386 8.89185 7.63578 8.89185 8.47693V8.82309C8.89185 9.66424 9.57377 10.3462 10.4149 10.3462Z" fill="#EA5455" stroke="#EA5455" stroke-width="0.6" />
</svg>
