<svg width="21" height="21" viewBox="0 0 21 21" fill="none" xmlns="http://www.w3.org/2000/svg">
	<path d="M13.1281 7.87165C12.787 7.53057 12.3896 7.2621 11.9465 7.07497C11.4878 6.88097 11.0009 6.78271 10.4996 6.78271C9.99771 6.78271 9.51082 6.88097 9.05271 7.07497C8.61026 7.2621 8.21223 7.52995 7.87116 7.87165C7.53009 8.21272 7.26161 8.61012 7.07449 9.0532C6.88048 9.51193 6.78223 9.99882 6.78223 10.5001C6.78223 11.002 6.88048 11.4889 7.07449 11.947C7.26161 12.3895 7.52946 12.7875 7.87116 13.1286C8.21223 13.4696 8.60963 13.7381 9.05271 13.9252C9.51144 14.1192 9.99833 14.2175 10.4996 14.2175C11.0015 14.2175 11.4884 14.1192 11.9465 13.9252C12.389 13.7381 12.787 13.4703 13.1281 13.1286C13.4692 12.7875 13.7376 12.3901 13.9248 11.947C14.1188 11.4883 14.217 11.0014 14.217 10.5001C14.217 9.9982 14.1188 9.51131 13.9248 9.0532C13.7376 8.61012 13.4698 8.21272 13.1281 7.87165ZM10.4996 13.3914C8.90565 13.3914 7.60831 12.0941 7.60831 10.5001C7.60831 8.90613 8.90565 7.6088 10.4996 7.6088C12.0936 7.6088 13.3909 8.90613 13.3909 10.5001C13.3909 12.0941 12.0936 13.3914 10.4996 13.3914Z" fill="#C10000" stroke="#C10000" stroke-width="0.4" />
	<path d="M19.587 10.087H18.3372C18.2903 9.17325 18.0869 8.28646 17.7308 7.44536C17.5343 6.98037 17.2908 6.53165 17.0073 6.11235C16.7263 5.69681 16.404 5.30629 16.0492 4.95145C15.6943 4.59661 15.3032 4.27431 14.8883 3.99331C14.469 3.70982 14.0203 3.46637 13.5553 3.26986C12.7135 2.91377 11.8267 2.71038 10.9137 2.66344V1.41304C10.9137 1.18462 10.7291 1 10.5006 1C10.2722 1 10.0876 1.18462 10.0876 1.41304V2.66281C9.17388 2.70975 8.28709 2.91314 7.44598 3.26924C6.98099 3.46574 6.53228 3.70919 6.11298 3.99269C5.69743 4.27368 5.30692 4.59598 4.95208 4.95082C4.59723 5.30567 4.27493 5.69681 3.99394 6.11173C3.71044 6.53103 3.467 6.97974 3.27049 7.44473C2.91439 8.28646 2.711 9.17325 2.66406 10.0863H1.41304C1.18462 10.0863 1 10.2709 1 10.4994C1 10.7278 1.18462 10.9124 1.41304 10.9124H2.66281C2.70975 11.8261 2.91314 12.7129 3.26924 13.554C3.46574 14.019 3.70919 14.4677 3.99269 14.887C4.27368 15.3026 4.59598 15.6931 4.95082 16.0479C5.30567 16.4028 5.69681 16.7251 6.11173 17.0061C6.53103 17.2896 6.97974 17.533 7.44473 17.7295C8.28646 18.0856 9.17325 18.289 10.0863 18.3359V19.587C10.0863 19.8154 10.2709 20 10.4994 20C10.7278 20 10.9124 19.8154 10.9124 19.587V18.3372C11.8261 18.2903 12.7129 18.0869 13.554 17.7308C14.019 17.5343 14.4677 17.2908 14.887 17.0073C15.3026 16.7263 15.6931 16.404 16.0479 16.0492C16.4028 15.6943 16.7251 15.3032 17.0061 14.8883C17.2896 14.469 17.533 14.0203 17.7295 13.5553C18.0856 12.7135 18.289 11.8267 18.3359 10.9137H19.587C19.8154 10.9137 20 10.7291 20 10.5006C20 10.2722 19.8148 10.087 19.587 10.087ZM10.5 17.5217C6.62803 17.5217 3.47826 14.372 3.47826 10.5C3.47826 6.62803 6.62803 3.47826 10.5 3.47826C14.372 3.47826 17.5217 6.62803 17.5217 10.5C17.5217 14.372 14.372 17.5217 10.5 17.5217Z" fill="#C10000" stroke="#C10000" stroke-width="0.4" />
</svg>
