<svg width="12" height="10" viewBox="0 0 12 10" fill="none" xmlns="http://www.w3.org/2000/svg">
	<path d="M11.4381 9.60075L0.953282 0.0649721C0.882984 0.00148774 0.776985 -0.0173019 0.685902 0.0167195C0.59433 0.0521863 0.534668 0.133015 0.534668 0.223072L0.535768 9.77719C0.535768 9.90016 0.643845 10 0.779675 10H11.2886C11.4244 10 11.5347 9.90027 11.5347 9.77719C11.5345 9.70515 11.4963 9.64133 11.4381 9.60075ZM1.02505 9.55416V0.761188L2.2079 1.83686L1.61996 2.37165C1.5246 2.45859 1.5246 2.60046 1.61996 2.68718C1.6674 2.73032 1.73073 2.75255 1.79357 2.75255C1.8558 2.75255 1.91864 2.73032 1.96608 2.68718L2.55487 2.15217L3.60349 3.10589L3.01579 3.64078C2.92043 3.72828 2.92043 3.86892 3.01579 3.95575C3.06323 3.99945 3.12607 4.02113 3.1894 4.02113C3.25224 4.02113 3.31508 3.99934 3.36252 3.95575L3.95058 3.42164L4.99174 4.36823L4.40367 4.90391C4.30843 4.9904 4.30843 5.13183 4.40367 5.21899C4.45209 5.26258 4.51505 5.28437 4.57728 5.28437C4.64012 5.28437 4.70296 5.26258 4.75089 5.21899L5.33895 4.68399L6.3806 5.63136L5.79217 6.16637C5.69791 6.25309 5.69791 6.39451 5.79217 6.48168C5.84058 6.52526 5.90355 6.54705 5.96688 6.54705C6.02972 6.54705 6.09097 6.52526 6.13999 6.48112L6.72745 5.94645L7.76971 6.89416L7.18176 7.42894C7.08579 7.51566 7.08579 7.65708 7.18176 7.7438C7.2292 7.78794 7.29192 7.80984 7.35525 7.80984C7.41821 7.80984 7.48032 7.78805 7.52776 7.7438L8.11619 7.20936L9.15844 8.15706L8.57013 8.69151C8.47416 8.77768 8.47416 8.91921 8.57013 9.0076C8.61757 9.05074 8.68078 9.07197 8.74362 9.07197C8.80597 9.07197 8.86845 9.05074 8.91625 9.0076L9.50493 8.47248L10.6944 9.55416H1.02505Z" fill="#001749" />
	<path d="M2.68851 5.08125C2.6187 5.01654 2.51331 4.99786 2.42174 5.03255C2.33066 5.06668 2.27051 5.14774 2.27051 5.23846V8.19765C2.27051 8.32107 2.38017 8.42091 2.516 8.42091H5.77335C5.90918 8.42091 6.01945 8.32118 6.01945 8.19765C6.01945 8.12583 5.98119 8.06224 5.92311 8.02154L2.68851 5.08125ZM2.7615 7.97518L2.7604 5.77702L5.1788 7.97551L2.7615 7.97518Z" fill="#001749" />
</svg>
