<svg width="25" height="24" viewBox="0 0 25 24" fill="none" xmlns="http://www.w3.org/2000/svg">
	<path fill-rule="evenodd" clip-rule="evenodd" d="M7.42383 7C7.42383 4.2 9.62383 2 12.4238 2C15.2238 2 17.4238 4.2 17.4238 7C17.4238 9.8 15.2238 12 12.4238 12C9.62383 12 7.42383 9.8 7.42383 7ZM21.4238 19V21C21.4238 21.6 21.0238 22 20.4238 22C19.8238 22 19.4238 21.6 19.4238 21V19C19.4238 17.3 18.1238 16 16.4238 16H8.42383C6.72383 16 5.42383 17.3 5.42383 19V21C5.42383 21.6 5.02383 22 4.42383 22C3.82383 22 3.42383 21.6 3.42383 21V19C3.42383 16.2 5.62383 14 8.42383 14H16.4238C19.2238 14 21.4238 16.2 21.4238 19ZM12.4238 10C10.7238 10 9.42383 8.7 9.42383 7C9.42383 5.3 10.7238 4 12.4238 4C14.1238 4 15.4238 5.3 15.4238 7C15.4238 8.7 14.1238 10 12.4238 10Z" fill="black" />
	<mask id="mask0_551_44771" style="mask-type:luminance" maskUnits="userSpaceOnUse" x="3" y="2" width="19" height="20">
		<path fill-rule="evenodd" clip-rule="evenodd" d="M7.42383 7C7.42383 4.2 9.62383 2 12.4238 2C15.2238 2 17.4238 4.2 17.4238 7C17.4238 9.8 15.2238 12 12.4238 12C9.62383 12 7.42383 9.8 7.42383 7ZM21.4238 19V21C21.4238 21.6 21.0238 22 20.4238 22C19.8238 22 19.4238 21.6 19.4238 21V19C19.4238 17.3 18.1238 16 16.4238 16H8.42383C6.72383 16 5.42383 17.3 5.42383 19V21C5.42383 21.6 5.02383 22 4.42383 22C3.82383 22 3.42383 21.6 3.42383 21V19C3.42383 16.2 5.62383 14 8.42383 14H16.4238C19.2238 14 21.4238 16.2 21.4238 19ZM12.4238 10C10.7238 10 9.42383 8.7 9.42383 7C9.42383 5.3 10.7238 4 12.4238 4C14.1238 4 15.4238 5.3 15.4238 7C15.4238 8.7 14.1238 10 12.4238 10Z" fill="white" />
	</mask>
	<g mask="url(#mask0_551_44771)">
		<rect x="0.423828" width="24" height="24" fill="#00CFE8" />
	</g>
</svg>
