<svg width="26" height="26" viewBox="0 0 26 26" fill="none" xmlns="http://www.w3.org/2000/svg">
	<path d="M1.45898 24.4157L3.0897 18.4625C2.08367 16.7204 1.55462 14.7435 1.55523 12.7187C1.55826 6.3841 6.7131 1.23047 13.0483 1.23047C16.1227 1.23168 19.0076 2.42838 21.1776 4.59964C23.3471 6.7715 24.542 9.65763 24.5408 12.7278C24.5383 19.0624 19.3823 24.2166 13.0483 24.2166H13.0435C11.1204 24.216 9.22998 23.7336 7.55145 22.8177L1.45898 24.4157Z" fill="white" />
	<path d="M1.45864 24.7183C1.37874 24.7183 1.30126 24.6868 1.24376 24.6287C1.16809 24.5519 1.13843 24.4399 1.16688 24.3364L2.7643 18.5036C1.77401 16.7445 1.25162 14.747 1.25284 12.7192C1.25526 6.21695 6.54629 0.927734 13.048 0.927734C16.2016 0.928945 19.1646 2.15712 21.3916 4.38588C23.6185 6.61525 24.8443 9.57765 24.8431 12.7277C24.8406 19.2293 19.549 24.5192 13.048 24.5192C11.1176 24.5186 9.20785 24.0422 7.51298 23.1409L1.53552 24.708C1.51009 24.7153 1.48467 24.7183 1.45864 24.7183Z" fill="white" />
	<path d="M1.24376 24.6287C1.16809 24.5519 1.13843 24.4399 1.16688 24.3364L2.7643 18.5036C1.77401 16.7445 1.25162 14.747 1.25284 12.7192C1.25526 6.21695 6.54629 0.927734 13.048 0.927734M1.24376 24.6287C1.30126 24.6868 1.37874 24.7183 1.45864 24.7183C1.48467 24.7183 1.51009 24.7153 1.53552 24.708L7.51298 23.1409C9.20785 24.0422 11.1176 24.5186 13.048 24.5192M1.24376 24.6287L1.45355 24.4211L1.45827 24.4165L1.45849 24.4162L1.45864 24.4161L1.45891 24.4158L1.59915 24.277C1.56136 24.2388 1.51028 24.2183 1.45864 24.2183C1.44691 24.2183 1.42944 24.2196 1.40875 24.2245C1.4053 24.2253 1.40177 24.2262 1.39817 24.2273L1.40868 24.2243L1.40871 24.2244L1.73973 24.1376M1.24376 24.6287L1.4538 24.422L1.45864 24.4172L1.45915 24.4167L1.45918 24.4167L1.45941 24.4165L1.60011 24.278C1.64783 24.3265 1.66835 24.3979 1.64912 24.4684M13.048 24.5192C19.549 24.5192 24.8406 19.2293 24.8431 12.7277C24.8443 9.57765 23.6185 6.61525 21.3916 4.38588M13.048 24.5192V24.0192M13.048 24.5192L13.0481 24.0192C19.273 24.0191 24.3407 18.9531 24.3431 12.7275C24.3442 9.71011 23.1711 6.87489 21.0379 4.73929M21.3916 4.38588C19.1646 2.15712 16.2016 0.928945 13.048 0.927734M21.3916 4.38588L21.0379 4.73929M21.3916 4.38588L21.0378 4.73924C21.0378 4.73926 21.0379 4.73928 21.0379 4.73929M13.048 0.927734V1.42773M13.048 0.927734L13.0478 1.42773C6.82228 1.42784 1.75515 6.49325 1.75284 12.7194L1.75284 12.7195C1.75168 14.6616 2.25206 16.5745 3.2 18.2583L3.30084 18.4374L3.24654 18.6357L1.73973 24.1376M13.048 1.42773L1.649 24.4689L1.64912 24.4684M13.048 1.42773C16.0691 1.42891 18.9048 2.60445 21.0379 4.73929M13.048 1.42773V24.0192M1.73973 24.1376L7.38617 22.6572L7.5752 22.6077L7.74774 22.6994C9.3701 23.5622 11.1992 24.0186 13.048 24.0192M1.73973 24.1376L1.64912 24.4684M1.64912 24.4684L13.048 24.0192" stroke="black" stroke-opacity="0.1" />
	<path d="M19.8056 5.97205C18.0018 4.16701 15.6042 3.17248 13.0522 3.17188C7.78352 3.17188 3.49852 7.45506 3.49609 12.7201C3.49549 14.5245 4.00032 16.2811 4.95671 17.8023L5.18431 18.1636L4.21884 21.6872L7.83437 20.7392L8.18363 20.9463C9.6497 21.8167 11.3313 22.2767 13.0455 22.2773H13.0491C18.3141 22.2773 22.5991 17.9936 22.601 12.7279C22.6016 10.1765 21.6095 7.77709 19.8056 5.97205Z" fill="#40C351" />
	<path fill-rule="evenodd" clip-rule="evenodd" d="M10.1749 7.91514C9.95999 7.43694 9.73361 7.42725 9.5284 7.41878C9.36073 7.41152 9.16945 7.41212 8.97818 7.41212C8.7869 7.41212 8.47577 7.48415 8.21245 7.77168C7.94914 8.0592 7.20703 8.75349 7.20703 10.1663C7.20703 11.5791 8.23606 12.9447 8.37952 13.136C8.52298 13.3272 10.3662 16.3193 13.285 17.4706C15.7105 18.427 16.2044 18.2369 16.731 18.1891C17.2576 18.1413 18.4301 17.4948 18.6692 16.8241C18.9083 16.1534 18.9083 15.579 18.8369 15.4591C18.7649 15.3393 18.5736 15.2679 18.2867 15.1238C17.9998 14.9797 16.5876 14.2854 16.3242 14.1898C16.0609 14.0942 15.8697 14.0463 15.6778 14.3339C15.4865 14.6208 14.9363 15.2679 14.7686 15.4591C14.6009 15.651 14.4333 15.6752 14.1463 15.5312C13.8594 15.3871 12.9345 15.0845 11.8371 14.1063C10.9836 13.3454 10.4073 12.4053 10.2396 12.1178C10.072 11.8309 10.2215 11.6753 10.3656 11.5319C10.4945 11.4029 10.6525 11.1965 10.7965 11.0289C10.94 10.8612 10.9878 10.7413 11.0835 10.5501C11.1791 10.3582 11.1313 10.1905 11.0592 10.047C10.9884 9.90298 10.4303 8.48292 10.1749 7.91514Z" fill="white" />
</svg>
