<svg width="18" height="18" viewBox="0 0 18 18" fill="none" xmlns="http://www.w3.org/2000/svg">
	<path d="M15.525 5.775L7.275 14.025C7.125 14.175 6.975 14.25 6.75 14.25C6.525 14.25 6.375 14.175 6.225 14.025L2.475 10.275C2.175 9.975 2.175 9.525 2.475 9.225C2.775 8.925 3.225 8.925 3.525 9.225L6.75 12.45L14.475 4.725C14.775 4.425 15.225 4.425 15.525 4.725C15.825 5.025 15.825 5.475 15.525 5.775Z" fill="black" />
	<mask id="mask0_345_4380" style="mask-type:luminance" maskUnits="userSpaceOnUse" x="2" y="4" width="14" height="11">
		<path d="M15.525 5.775L7.275 14.025C7.125 14.175 6.975 14.25 6.75 14.25C6.525 14.25 6.375 14.175 6.225 14.025L2.475 10.275C2.175 9.975 2.175 9.525 2.475 9.225C2.775 8.925 3.225 8.925 3.525 9.225L6.75 12.45L14.475 4.725C14.775 4.425 15.225 4.425 15.525 4.725C15.825 5.025 15.825 5.475 15.525 5.775Z" fill="white" />
	</mask>
	<g mask="url(#mask0_345_4380)">
		<rect width="18" height="18" fill="#FFAA45" />
	</g>
</svg>
